<?xml version="1.0" standalone="no"?><!DOCTYPE svg PUBLIC "-//W3C//DTD SVG 1.1//EN" "http://www.w3.org/Graphics/SVG/1.1/DTD/svg11.dtd"><svg t="1689734745082" class="icon" viewBox="0 0 1711 1024" version="1.1" xmlns="http://www.w3.org/2000/svg" p-id="5518" xmlns:xlink="http://www.w3.org/1999/xlink" width="334.1796875" height="200"><path d="M1333.351624 771.668457a38.966488 38.966488 0 0 1-38.855735-38.855735V126.737089a38.763441 38.763441 0 0 1 77.693011 0v606.038715A38.966488 38.966488 0 0 1 1333.351624 771.668457z" fill="#5377C4" p-id="5519"></path><path d="M1327.980118 771.668457H444.32133a38.966488 38.966488 0 0 1-38.855735-38.763441V126.737089a38.966488 38.966488 0 0 1 38.855735-38.763441h883.658788a38.966488 38.966488 0 0 1 38.855736 38.763441v606.057174a38.966488 38.966488 0 0 1-38.855736 38.763441" fill="#F0F1F4" p-id="5520"></path><path d="M1038.952518 311.177234h-140.397493V170.798201h140.397493v140.379033z" fill="#60D6E6" p-id="5521"></path><path d="M295.008246 465.6034s15.689964 11.81362 23.996416 21.910574 0.313799 49.155735-6.774373 55.376345-17.222043-5.537634-19.38172-15.210036 0-14.324014 0-14.324015-2.215054 2.455018-6.331362-1.845878 0-17.535842 0-17.535842l-12.42276-6.405198z" fill="#FBAD83" p-id="5522"></path><path d="M224.606453 205.740674L203.046597 371.112898l97.277778 94.98889s-5.279212 15.210036-13.714874 21.522939l-8.435664 6.312903L154.407707 409.876339z" fill="#204A99" p-id="5523"></path><path d="M384.736383 252.718273s9.986201-5.537634 19.529391-10.392294 62.095341 3.913262 62.095341 3.913262-2.012007 6.645161-4.522402 7.918817-28.408065-1.51362-28.408064-1.51362a16.871326 16.871326 0 0 1 1.51362 7.531183c0 4.780824 0 10.318459-6.922043 13.825627s-30.032438 0-30.032438 0z" fill="#FBAD83" p-id="5524"></path><path d="M235.589428 974.715053v48.103585h109.866668a21.522939 21.522939 0 0 0-14.39785-20.30466l-48.288172-16.982079-5.648387-20.784588zM73.835126 967.091577l-3.93172 55.376344h102.963083a21.689068 21.689068 0 0 0-15.283871-20.710753L110.752689 987.377777l-3.433333-22.612007z" fill="#204A99" p-id="5525"></path><path d="M238.672045 516.346591l32.819714 247.163084 15.025448 210.799285s-19.160215 8.491039-37.102151 7.051255l-17.923477-1.458244-31.822939-213.328138-80.2957-236.62312z" fill="#204A99" p-id="5526"></path><path d="M201.606812 528.012541s-4.522401 232.174554-4.430108 246.62778-83.581363 208.233514-83.581363 208.233514-17.738889 3.193369-32.284408-5.039248l-14.563979-8.251075L123.673836 752.618994S73.835126 581.764512 76.548567 539.08781l2.713441-42.750538z" fill="#5377C4" p-id="5527"></path><path d="M130.743549 613.107524l62.298388-52.293729-116.49337-19.418638c-0.60914 32.395162 22.704301 122.750897 36.80681 174.177063z" fill="#4F69D1" p-id="5528"></path><path d="M130.651256 180.987448s-42.750538 10.373835-55.837815 21.375269c-11.795161 9.930824-3.562545 248.602869-0.701433 302.151795a209.96864 209.96864 0 0 1 0 23.368817l-2.307348 39.557169s106.65484 13.456452 145.824374 2.824194 37.56362-11.075269 37.56362-11.075269-21.172222-339.64158-32.967383-361.256813c-9.746237-17.794265-61.486201-19.935484-61.486202-19.935484z" fill="#5377C4" p-id="5529"></path><path d="M130.651256 180.987448s28.389606 48.288172 40.886201 87.697671c11.850538 37.379033 10.872222 20.563083 10.872222 20.563083l1.255197-109.774374z" fill="#FFFFFF" p-id="5530"></path><path d="M130.651256 113.520602V180.987448s11.315233 9.617025 31.232258 8.472581c18.458782-1.070609 21.338351-7.752688 21.338351-7.752688l7.623477-34.942474z" fill="#FBAD83" p-id="5531"></path><path d="M184.587815 175.745154c-9.967742 2.196595-21.430645-3.987097-29.977061-10.761469-15.763799-12.533513-22.150538-37.397491-22.150538-37.397492l52.127599 15.689965 6.202151 3.414874z" fill="#E68D5C" p-id="5532"></path><path d="M222.575987 32.449633s8.915591 3.322581 8.306452 24.624015c-0.295341 10.115412-4.079391 29.23871-4.079391 29.23871l-23.258064-59.418818z" fill="#491F15" p-id="5533"></path><path d="M223.665056 143.940674c-18.458782 38.763441-64.070431 15.837635-83.636739-3.691757s-16.852868-94.139786-11.444445-108.260753S179.197851 6.422751 203.046597 15.54139 242.068461 105.306444 223.665056 143.940674z" fill="#FBAD83" p-id="5534"></path><path d="M154.241578 79.261103S159.317743 122.103935 171.057528 125.611104c10.023118 2.934946 23.996416-11.389068 42.049105-12.164337 10.060036-0.424552 13.677957 0.535305 17.775806 3.304122a88.47294 88.47294 0 0 1-7.198925 27.26362c-18.458782 38.763441-64.070431 15.837635-83.636739-3.691756-9.469355-9.450896-13.714875-31.804481-14.970071-53.955019z" fill="#7A4029" p-id="5535"></path><path d="M146.562725 94.61881s5.648387 0.553763 7.955735-2.805735-4.319355-22.298208 2.362724-42.455198c4.780824-14.194803 26.451434-22.57509 44.171864-19.104839s22.150538 5.057706 23.996416-0.092293-5.29767-17.277419-11.444444-22.150538-35.071685-13.271864-59.068101-3.470251-28.795699 16.428316-34.185664 32.007527-1.845878 54.601076 0 57.11147 26.21147 0.959857 26.21147 0.959857z" fill="#7A4029" p-id="5536"></path><path d="M119.37294 91.443899c0 9.967742 13.271864 18.827957 21.412187 18.827957s8.066488-8.860215 8.066487-18.827957-6.589785-18.089606-14.767025-18.089606-14.711649 8.103405-14.711649 18.089606z" fill="#FBAD83" p-id="5537"></path><path d="M230.882439 116.677053s0 46.903764-5.537634 55.376345-23.664158 10.3-31.878316 6.755914S171.94355 162.528667 168.620969 151.785656 217.222941 125.611104 217.222941 125.611104z" fill="#7A4029" p-id="5538"></path><path d="M124.762904 86.847663c-0.941398 4.467025 4.153226 9.69086 7.789606 10.466129s-4.190143-5.334588-3.230287-9.801613 7.383513-6.589785 3.691757-7.383513-7.309677 2.178136-8.251076 6.718997z" fill="#E68D5C" p-id="5539"></path><path d="M110.420431 487.513974l-1.679749 78.579033 18.144982 1.458244a53.253585 53.253585 0 0 0 57.480646-50.761649l1.236738-28.629571s-63.553585 3.599462-75.182617-0.646057zM249.19355 478.506089l-27.485125 4.411648s12.385842 46.146954 19.69552 59.344983a34.277957 34.277957 0 0 0 11.075269 12.607348 2.824194 2.824194 0 0 0 4.337813-2.547312l-4.430107-71.19552a2.824194 2.824194 0 0 0-3.19337-2.621147z" fill="#4871B3" p-id="5540"></path><path d="M216.558425 72.763612a1.845878 1.845878 0 0 1-1.753585-1.236738 1.845878 1.845878 0 0 1 1.125986-2.344265 30.586201 30.586201 0 0 1 17.240502 0 1.845878 1.845878 0 1 1-1.015233 3.544086 27.226703 27.226703 0 0 0-14.98853 0 1.845878 1.845878 0 0 1-0.60914 0.036917zM183.701794 77.618272a1.845878 1.845878 0 0 1-1.384409-3.045699c0.332258-0.406093 8.620251-9.727778 23.368817-5.039248a1.845878 1.845878 0 0 1-1.125985 3.525628c-12.330466-3.93172-19.178674 3.691756-19.455556 3.93172a1.845878 1.845878 0 0 1-1.402867 0.627599z" fill="#7A4029" p-id="5541"></path><path d="M72.579929 567.366663s11.278316 1.421326 27.835842 2.971864l18.957169-249.488891 105.215055 6.05448-134.749105-132.55251a60.341757 60.341757 0 0 0-14.157886 7.937276c-11.795161 9.930824-3.562545 248.602869-0.719892 302.151795a209.987099 209.987099 0 0 1 0 23.368817z" fill="#4F69D1" p-id="5542"></path><path d="M98.385305 196.363613a25.583871 25.583871 0 0 0-31.379928 28.758782 93.844445 93.844445 0 0 0 3.137993 13.548745c7.918817 24.956273 109.82975 71.250897 142.85251 85.685664a30.29086 30.29086 0 0 0 20.821505 1.273656l167.974912-49.83871s-2.768817-20.673835-9.229391-28.740323l-163.360216 34.407169s-108.445341-79.372761-130.13441-84.910395z" fill="#5377C4" p-id="5543"></path><path d="M871.254487 452.497666h-114.001434v-114.07527H871.254487z m-112.210932-1.845879H869.408609v-110.383513h-110.309678zM625.918822 453.254476v-115.515055l94.508962 55.191757z m1.845879-112.303227v108.906811l89.137455-56.889965z" fill="#60D6E6" p-id="5544"></path><path d="M1179.331551 591.95376h-140.379033v-140.379034h140.379033v140.379034z" fill="#FFB0B2" p-id="5545"></path><path d="M448.548391 451.574726l10.927598 117.250181 85.667205 69.6819s-5.076165 9.229391-10.152329 12.459677l-5.076165 3.230287-95.468818-57.222223-21.504481-52.146057z" fill="#E57A87" p-id="5546"></path><path d="M203.858783 734.95394h288.123121V1023.077061H203.858783z" fill="#5377C4" p-id="5547"></path><path d="M290.393551 734.95394h288.12312V1023.077061H290.393551z" fill="#A9C2DC" p-id="5548"></path><path d="M434.150541 734.95394h144.36613V1023.077061h-42.233692L434.150541 734.95394z" fill="#96B2CC" p-id="5549"></path><path d="M152.211112 845.725088h177.333514v177.333514H152.211112z" fill="#5377C4" p-id="5550"></path><path d="M205.483156 845.725088h177.333514v177.333514h-177.333514z" fill="#F0F1F4" p-id="5551"></path><path d="M305.806633 845.725088h77.028496v177.351973h-92.441578l15.413082-177.351973z" fill="#E5E5E5" p-id="5552"></path><path d="M368.658784 671.695696a51.684588 51.684588 0 0 0 46.885305 56.077778l124.264518 11.075269L572.222227 968.199103l42.196774-3.433333S608.272227 734.750894 601.756277 710.902148s-27.079032-33.816488-56.04086-38.228137-177.056632-0.978315-177.056633-0.978315z" fill="#204A99" p-id="5553"></path><path d="M379.069537 436.143185l-43.821147 13.216488-29.534051 240.056453 173.512547 8.694086-26.082259-233.872761a28.241936 28.241936 0 0 0-21.65215-24.365592l-8.860215-2.067384z" fill="#FF9398" p-id="5554"></path><path d="M472.9509 640.851072l-113.281542-88.509857v-56.05932l-33.576524 27.798925-20.286201 165.335306 173.531005 8.694086-6.386738-57.25914z" fill="#F4828B" p-id="5555"></path><path d="M609.453589 961.996953v25.842294l22.298208 9.912366a27.688172 27.688172 0 0 1 16.465233 25.325448h-19.52939l-48.454302-14.010215-4.319355-50.466309z" fill="#204A99" p-id="5556"></path><path d="M311.750361 689.711467c0 28.555735 22.741219 45.242473 51.278495 45.242473h124.744446l55.542473 237.675271h40.609319S555.609324 724.838528 547.007531 701.525087s-29.99552-31.379929-59.234229-33.096595c-35.533154-2.141219-35.385484 5.408423-176.022941 21.282975z" fill="#5377C4" p-id="5557"></path><path d="M312.119537 689.711467c0 28.555735 22.72276 45.242473 51.278495 45.242473h23.996416L453.550721 670.145158c-21.024552 3.064158-54.028853 9.727778-141.431184 19.566309z" fill="#4F69D1" p-id="5558"></path><path d="M545.623123 960.151075l4.983871 41.827599 54.08423 21.098387h22.150537a22.150538 22.150538 0 0 0-12.681182-19.99086l-2.953406-1.402868-30.512365-26.303764-4.153226-12.921147z" fill="#5377C4" p-id="5559"></path><path d="M448.25305 634.575086s23.62724 3.691756 31.084588 9.690861 13.32724 21.81828 13.327241 21.818279h-20.876882c-5.316129 0-30.918459-15.745341-30.918459-15.74534z" fill="#FBAD83" p-id="5560"></path><path d="M359.170971 452.866841a24.254839 24.254839 0 0 0-37.87742 12.238172c-10.115412 33.059678-26.654481 87.439248-30.992294 103.996775-6.36828 24.328674 21.153764 35.625448 39.07724 43.433513s110.752689 44.301076 110.752689 44.301076 14.656273-7.032796 13.696416-15.357706l-0.959856-8.324911-121.624912-66.580825s38.763441-66.562366 40.203226-91.537097c0.572222-9.24785-5.020789-16.575986-12.275089-22.168997z" fill="#FF9398" p-id="5561"></path><path d="M493.310936 666.084226h142.261829a5.832975 5.832975 0 0 0 5.832975-5.832975v-100.212724a5.851434 5.851434 0 0 0-5.832975-5.851434h-142.261829z" fill="#A9C2DC" p-id="5562"></path><path d="M489.545345 666.084226h3.119534a4.319355 4.319355 0 0 0 4.319354-4.319354v-103.239965a4.337814 4.337814 0 0 0-4.319354-4.337814h-3.119534z" fill="#204A99" p-id="5563"></path><path d="M558.618105 610.13566a11.647491 8.731004 90 1 0 17.462007 0 11.647491 8.731004 90 1 0-17.462007 0Z" fill="#FFFFFF" p-id="5564"></path><path d="M406.979215 666.084226h82.547671v7.58656h-82.547671z" fill="#204A99" p-id="5565"></path><path d="M489.545345 666.084226h147.061112v7.58656h-147.061112z" fill="#A9C2DC" p-id="5566"></path><path d="M380.250899 436.346232l38.468101 40.646237 2.787276-39.077241-41.255377-1.568996z" fill="#FFFFFF" p-id="5567"></path><path d="M412.258426 416.669171l50.337098 7.863441V346.008955l-50.337098 70.660216z" fill="#E56107" p-id="5568"></path><path d="M380.250899 374.915407v61.430825a33.355018 33.355018 0 0 0 24.605556 7.71577c11.51828-0.775269 16.612903-6.146774 16.612903-6.146774l6.165233-32.764337z" fill="#FBAD83" p-id="5569"></path><path d="M380.250899 385.363077a23.553405 23.553405 0 0 0 1.532079 3.137993c8.103405 13.493369 24.476344 33.355018 41.698387 38.948029l4.190144-22.298208L380.250899 374.915407z" fill="#E68D5C" p-id="5570"></path><path d="M465.032083 399.834762c-16.779032 35.29319-59.068101 6.885126-76.862367-10.90914s-14.767025-78.246775-9.801613-91.131004 46.146954-23.3319 67.87294-15.025448 35.533154 81.772402 18.79104 117.065592z" fill="#FBAD83" p-id="5571"></path><path d="M403.601258 431.085479l-42.455198-14.416308s-6.239068-97.831542 7.383513-122.270969 49.54337-32.72742 72.746058-23.996416c33.761111 12.7181 33.225807 57.554481 33.761111 61.50466a68.297492 68.297492 0 0 0-23.701075-0.166129 87.310037 87.310037 0 0 1-26.396058 0.775269l-16.612903-1.993549z" fill="#F76A00" p-id="5572"></path><path d="M403.601258 431.085479l3.691756-78.505198-46.479212-19.713978c-2.676523 36.917563 0.313799 83.802868 0.3138 83.802868z" fill="#E56107" p-id="5573"></path><path d="M382.225989 366.276697c0 6.626703 8.804839 12.515054 14.213262 12.515054s5.371505-5.888351 5.371505-12.515054-4.39319-11.998208-9.801613-11.998208-9.783154 5.371505-9.783154 11.998208z" fill="#FBAD83" p-id="5574"></path><path d="M407.403767 383.443364a9.506272 9.506272 0 1 1-9.506273-9.506273 9.506272 9.506272 0 0 1 9.506273 9.506273z" fill="#FFFFFF" p-id="5575"></path><path d="M468.85305 375.949099c-8.269534 0-15.006989-8.011111-15.006989-17.868101v-0.922939h29.99552v0.922939c0.036918 9.856989-6.700538 17.868101-14.988531 17.868101z m-13.142652-17.018997c0.369176 8.435663 6.128315 15.173118 13.142652 15.173118s12.773477-6.737455 13.142653-15.173118zM434.150541 375.949099c-8.269534 0-15.006989-8.011111-15.006989-17.868101v-0.922939h30.013979v0.922939c0 9.856989-6.737455 17.868101-15.00699 17.868101z m-13.142652-17.018997c0.369176 8.435663 6.128315 15.173118 13.142652 15.173118s12.773477-6.737455 13.142653-15.173118z" fill="#21170C" p-id="5576"></path><path d="M399.48495 357.084224h56.742294v1.845878h-56.742294z" fill="#21170C" p-id="5577"></path><path d="M380.749286 850.54283m24.033334 0l0.535304 0q24.033334 0 24.033334 24.033334l0 100.987993q0 24.033334-24.033334 24.033334l-0.535304 0q-24.033334 0-24.033334-24.033334l0-100.987993q0-24.033334 24.033334-24.033334Z" fill="#204A99" p-id="5578"></path><path d="M409.600362 850.54283h0.516846a23.996416 23.996416 0 0 1 23.996416 23.996416v100.969535a23.996416 23.996416 0 0 1-23.996416 23.996416h-0.516846a23.996416 23.996416 0 0 1-23.996416-23.996416v-100.969535a23.996416 23.996416 0 0 1 23.996416-23.996416z" fill="#5377C4" p-id="5579"></path><path d="M326.074375 873.653225m24.033334 0l118.7638 0q24.033334 0 24.033334 24.033333l0 100.987994q0 24.033334-24.033334 24.033333l-118.7638 0q-24.033334 0-24.033334-24.033333l0-100.987994q0-24.033334 24.033334-24.033333Z" fill="#5377C4" p-id="5580"></path><path d="M313.928497 873.653225m24.033334 0l0.535304 0q24.033334 0 24.033334 24.033333l0 100.987994q0 24.033334-24.033334 24.033333l-0.535304 0q-24.033334 0-24.033334-24.033333l0-100.987994q0-24.033334 24.033334-24.033333Z" fill="#FF9398" p-id="5581"></path><path d="M326.074375 1002.93853V893.496415a19.769355 19.769355 0 0 1 18.218818-19.713979h-10.595341A19.787814 19.787814 0 0 0 313.928497 893.496415v109.497492A19.787814 19.787814 0 0 0 333.697852 1022.707885h10.595341a19.769355 19.769355 0 0 1-18.218818-19.769355z" fill="#FFB0B2" p-id="5582"></path><path d="M455.636563 994.022939h-52.552151a21.929032 21.929032 0 0 1-21.947491-21.929033v-56.613083h96.447133v56.613083a21.929032 21.929032 0 0 1-21.947491 21.929033z" fill="#204A99" p-id="5583"></path><path d="M460.454305 994.022939H407.939071a21.947491 21.947491 0 0 1-21.947491-21.929033v-56.613083h96.465592v56.613083a21.947491 21.947491 0 0 1-22.002867 21.929033z" fill="#FFB0B2" p-id="5584"></path><path d="M0 1022.154122h1711.258258v1.845878H0z" fill="#FFFFFF" p-id="5585"></path><path d="M447.459323 122.122394a8.841756 8.841756 0 1 1-8.841757-8.841756 8.860215 8.860215 0 0 1 8.841757 8.841756z" fill="#60D6E6" p-id="5586"></path><path d="M1038.952518 463.056089l106.507169 128.897671h-106.507169v-128.897671z" fill="#FF9398" p-id="5587"></path><path d="M483.804663 122.122394a8.841756 8.841756 0 1 1-8.841756-8.841756 8.841756 8.841756 0 0 1 8.841756 8.841756zM519.15323 122.122394a8.841756 8.841756 0 1 1-8.823297-8.841756 8.841756 8.841756 0 0 1 8.823297 8.841756z" fill="#60D6E6" p-id="5588"></path><path d="M1332.724025 407.033687a40.738531 40.738531 0 1 1-40.738531-40.738531A40.738531 40.738531 0 0 1 1332.724025 407.033687z" fill="#FFFFFF" p-id="5589"></path><path d="M898.555025 189.478488l140.397493 61.338531v60.360215h-140.397493V189.478488z" fill="#50CAD3" p-id="5590"></path><path d="M1460.901804 1023.077061s2.307348-72.155377 0-178.477959 116.530288-203.194267 214.731005-154.758424c0 0-63.036739 0.775269-107.891577 39.741757s-70.327958 61.873836-73.964338 128.620789S1476.702521 1023.077061 1476.702521 1023.077061z" fill="#00B98F" p-id="5591"></path><path d="M1417.63442 1022.874014s-7.771147-211.02079-33.096595-293.291579 8.601792-266.507887 8.601792-266.507888 1.21828 142.335664 21.81828 212.38674 55.874732 160.591399 49.155735 242.640683-24.144086 104.97509-24.144086 104.975091z" fill="#00B98F" p-id="5592"></path><path d="M1435.114886 744.534048L1382.562735 727.201252c0.221505 0.812186 0.443011 1.605914 0.701434 2.381183 25.325448 82.270789 33.096595 293.291579 33.096595 293.291579l22.335126 0.203047s17.42509-22.962724 24.144086-104.975091c4.743907-57.000717-10.853764-118.080825-27.72509-173.567922z" fill="#068E6A" p-id="5593"></path><path d="M1420.089438 1023.077061s33.355018-105.215055-24.790143-272.876167-130.042116-205.926167-130.042116-205.926167 64.827241 141.283514 91.943191 251.740863 27.448208 227.043013 27.448208 227.043012z" fill="#00C99C" p-id="5594"></path><path d="M1498.723847 740.030105c-23.830287 29.441757-38.615771 66.451613-37.803584 104.568997 2.288889 106.322582 0 178.477958 0 178.477959H1476.702521s13.401075-98.126883 17.037455-164.873837c2.621147-47.992832 16.502151-73.281363 40.738531-98.182258z" fill="#068E6A" p-id="5595"></path><path d="M1435.797861 1023.077061s17.591219-101.227958-1.845878-244.50502 165.243012-269.49821 165.243012-269.49821-96.890144 113.632259-114.444445 205.796955-3.562545 206.092296-14.767025 263.332977c-6.848208 35.274731-7.383513 44.817922-7.383513 44.817922z" fill="#00C99C" p-id="5596"></path><path d="M1476.702521 1023.077061s9.764695-63.295162 8.564875-157.084231 58.366667-172.349643 0.092294-311.270432-99.511291-135.302868-99.511292-135.302869 69.109678-6.05448 117.600898 81.218639S1562.019009 700.306807 1530.232987 808.069174 1500.182091 1023.077061 1500.182091 1023.077061z" fill="#00C99C" p-id="5597"></path><path d="M1420.089438 1023.077061s26.377599-83.230646-8.675627-219.548747l-56.133155-15.117742c0.664516 2.547312 1.310573 5.094624 1.845878 7.605018 27.134409 110.457349 27.448208 227.043013 27.448209 227.043012zM1439.508076 825.808063C1449.863453 943.593548 1436.093202 1023.077061 1436.093202 1023.077061h26.783692s0.590681-9.54319 7.383512-44.817922c7.180466-37.028316 3.857885-97.831542 5.371506-161.03441zM1485.396607 873.560931c0.60914 89.598925-8.620251 149.51613-8.620251 149.51613h23.405735a814.032265 814.032265 0 0 1 11.296774-132.478675z" fill="#00B98F" p-id="5598"></path><path d="M1118.048396 965.22724l-1.845878 57.222222h-94.139786a25.639248 25.639248 0 0 1 16.871327-24.08871l37.582079-13.696415 3.322581-24.513262z" fill="#204A99" p-id="5599"></path><path d="M1255.566319 960.151075l9.69086 62.925986h-91.666309a20.655377 20.655377 0 0 1 13.401075-19.344803l32.432079-12.12742-2.768817-23.405735z" fill="#5377C4" p-id="5600"></path><path d="M1111.47707 491.593365s-37.249821 206.738353-40.720072 227.338353 5.814516 252.700719 5.814516 252.700719h47.014517s12.478136-225.880109 16.428315-244.96649 59.068101-131.758782 71.638531-170.485306 8.749462-81.403226 8.749463-81.403226z" fill="#204A99" p-id="5601"></path><path d="M1196.793558 579.401788v-100.932617l-85.187276 13.124194s-1.089068 5.999104-7.162008 39.741756z" fill="#5377C4" p-id="5602"></path><path d="M1166.908791 498.773831s-1.679749 210.097851-1.605914 230.956274S1214.587824 971.687813 1214.587824 971.687813l47.992832-4.153226s-28.278853-222.409858-27.688173-241.810037 35.846954-139.862188 41.716846-180.176167-5.168459-81.698567-5.168458-81.698567z" fill="#5377C4" p-id="5603"></path><path d="M1166.724203 521.478132l99.289786 73.373657c4.910036-20.138531 8.915591-37.951255 10.576882-49.358782 3.691756-25.842294 0.535305-52.275269-2.233513-67.780646l-107.614696 42.141398c0 0.535305-0.018459 1.070609-0.018459 1.624373z" fill="#4F69D1" p-id="5604"></path><path d="M1105.681013 479.299816l-1.845878 18.200359s72.912187 47.789785 166.590503 15.486918l13.844086-4.614696-2.990323-24.457885z" fill="#F0F1F4" p-id="5605"></path><path d="M1116.756282 258.643542L1099.700367 360.037629l-150.697492 17.443548 5.537635 29.681721s116.899463 8.546416 145.824374-0.110753 47.789785-20.563083 54.342652-73.059857S1116.756282 258.643542 1116.756282 258.643542z" fill="#F89900" p-id="5606"></path><path d="M1209.197859 227.355907l78.209858 19.363262V492.940856c-23.701075 9.450896-73.521327 25.214696-132.903227 12.42276a216.853765 216.853765 0 0 1-54.139606-19.510932c5.537634-76.862366 10.373835-147.301076 15.800717-223.129751A30.217025 30.217025 0 0 1 1136.691766 236.363793l24.919355-8.324911z" fill="#F9C200" p-id="5607"></path><path d="M1209.197859 227.355907s-15.929928 27.042115-36.529928 23.055019-11.075269-22.408961-11.075269-22.408961z" fill="#FFFFFF" p-id="5608"></path><path d="M1228.985673 508.317021a242.9914 242.9914 0 0 0 58.422044-15.376165V304.661284L1262.580656 301.670962z" fill="#EDB607" p-id="5609"></path><path d="M1287.407717 246.719169s106.599463 77.988352 114.444445 113.982976-78.357528 115.367384-78.357527 115.367385-16.188351 0.922939-20.30466-15.689965l59.068101-91.592474s-95.985664-48.232796-105.215055-76.843907 30.364696-45.224015 30.364696-45.224015z" fill="#F9C200" p-id="5610"></path><path d="M931.670079 278.948202h140.379034v140.379033h-140.379034z" fill="#FFB0B2" p-id="5611"></path><path d="M1362.184241 477.232433h-140.379034v-140.397492h140.379034v140.397492z" fill="#60D6E6" p-id="5612"></path><path d="M1221.805207 429.756447l140.379034-54.102689v101.578675h-140.379034v-47.475986z" fill="#50CAD3" p-id="5613"></path><path d="M1318.196964 482.050175s-8.084946 7.383513-17.166667 7.383512-27.928136-13.622581-25.528494-24.476344 20.433871-11.868997 25.122401-10.15233 9.413979 15.91147 13.32724 17.517384 8.02957-12.182796 13.198029-13.881004a7.605018 7.605018 0 0 1 7.8819 1.144445s-10.853764 15.763799-12.791936 18.348028a22.685842 22.685842 0 0 1-4.042473 4.116309zM923.32671 395.109314s2.288889 10.724552 9.709319 15.985305 30.660036 5.094624 35.071685-5.094624-9.746237-21.522939-14.563979-22.833513-16.889785 7.494265-21.024552 6.51595 0.516846-14.582437-2.713441-18.93871a7.586559 7.586559 0 0 0-7.069713-3.691756s-0.313799 19.141756-0.221505 22.353584a22.888889 22.888889 0 0 0 0.812186 5.703764zM1209.197859 166.349635v61.006272s-10.244624 8.694086-28.260394 7.641936c-16.612903-0.959857-19.326344-6.995878-19.326344-6.995878l-6.903585-31.638352 54.490323-30.013978" fill="#FBAD83" p-id="5614"></path><path d="M1160.448217 222.667377a72.672223 72.672223 0 0 0 18.458782-11.075269 53.401255 53.401255 0 0 0 17.978853-25.306989l-36.548387 6.940501-5.629929 3.101076 5.740681 26.303763" fill="#E68D5C" p-id="5615"></path><path d="M1114.50431 130.779563h30.955377v1.845878h-30.955377z" fill="#21170C" p-id="5616"></path><path d="M1123.733701 88.10286s-5.260753 12.921147-5.260753 24.365591c0 9.229391 3.691756 26.451434 3.691757 26.451434l21.061469-53.77043z" fill="#7A4029" p-id="5617"></path><path d="M1125.007357 191.084402c16.612903 35.071685 57.997492 14.342473 75.681004-3.322581s15.265412-85.187277 10.355377-97.979212-45.796237-23.239606-67.374553-14.914696-35.330108 81.218639-18.661828 116.290324" fill="#FBAD83" p-id="5618"></path><path d="M1118.472948 166.405011h35.071685v43.747312h-35.071685z" fill="#CCBCB7" p-id="5619"></path><path d="M1214.237107 138.919885h-18.64337S1183.207895 171.333506 1172.631013 174.434581a9.561649 9.561649 0 0 1-2.621147 0.350717c-8.823298 0-20.6-10.724552-35.44086-11.352151h-3.691757c-6.349821 0-9.229391 0.941398-12.330466 3.064158a79.668101 79.668101 0 0 0 6.51595 24.679391c6.626703 13.93638 17.148208 19.049463 28.537276 19.067921 17.258961 0 36.493011-11.758244 47.143728-22.390502 8.564875-8.546416 12.42276-28.77724 13.548746-48.841936" fill="#D48C68" p-id="5620"></path><path d="M1208.681014 143.202323a22.42742 22.42742 0 0 1-20.193907-25.122402c0.959857-7.586559 3.193369-10.023118 1.218279-17.222043-3.93172-14.324014-21.116846-12.921147-32.727419-7.641936s-24.254839 5.334588-34.222581-2.215054a18.200359 18.200359 0 0 1-4.282438-23.996416c6.479032-10.44767 29.53405-22.981183 29.534051-22.981183s-2.787276 6.275986-1.845878 9.524732 61.96613-15.099283 74.499642 12.053584S1216.433702 143.922215 1216.433702 143.922215z" fill="#7A4029" p-id="5621"></path><path d="M1219.405566 143.571498c0 9.026344-12.016667 17.055914-19.381721 17.055914s-7.383513-8.02957-7.383513-17.055914 5.980645-16.372939 13.345699-16.372939 13.419534 7.328136 13.419535 16.372939z" fill="#FBAD83" p-id="5622"></path><path d="M1213.904849 142.759312c0.849104 4.042473-3.691756 8.767921-7.069714 9.469355s3.802509-4.817742 2.934947-8.860215-6.700538-5.962186-3.396416-6.663621 6.66362 2.012007 7.531183 6.054481z" fill="#E68D5C" p-id="5623"></path><path d="M1125.985672 150.991928c-6.829749 0-12.404301-7.180466-12.404301-16.003763s5.537634-16.022222 12.404301-16.022223 12.42276 7.180466 12.42276 16.022223-5.574552 16.003764-12.42276 16.003763z m0-30.180107c-5.814516 0-10.558423 6.36828-10.558423 14.176344s4.743907 14.157885 10.558423 14.157885 10.576882-6.349821 10.576882-14.157885-4.743907-14.176344-10.576882-14.176344zM1154.707536 150.991928c-6.829749 0-12.404301-7.180466-12.404301-16.003763s5.537634-16.022222 12.404301-16.022223 12.42276 7.180466 12.42276 16.022223-5.574552 16.003764-12.42276 16.003763z m0-30.180107c-5.814516 0-10.558423 6.36828-10.558423 14.176344s4.743907 14.157885 10.558423 14.157885 10.576882-6.349821 10.576882-14.157885-4.743907-14.176344-10.576882-14.176344z" fill="#21170C" p-id="5624"></path><path d="M1165.930476 130.779563h28.592652v1.845878h-28.592652zM1137.485493 130.779563h5.740681v1.845878h-5.740681z" fill="#21170C" p-id="5625"></path><path d="M1126.17026 172.385656h25.953047s-5.260753 12.27509-14.010215 12.625807-11.942832-12.625807-11.942832-12.625807zM223.923479 128.601426s-19.474014 0.516846-22.72276-0.516846l-3.230287-1.033691s0 9.506272 9.100179 12.791935 13.973298-2.768817 15.173118-6.128315 1.679749-5.113082 1.67975-5.113083zM1042.69965 374.121679h-81.661649l40.830824-64.734947 40.830825 64.734947z" fill="#FFFFFF" p-id="5626"></path></svg>