<?xml version="1.0" standalone="no"?><!DOCTYPE svg PUBLIC "-//W3C//DTD SVG 1.1//EN" "http://www.w3.org/Graphics/SVG/1.1/DTD/svg11.dtd"><svg t="1689734768881" class="icon" viewBox="0 0 1620 1024" version="1.1" xmlns="http://www.w3.org/2000/svg" p-id="7572" xmlns:xlink="http://www.w3.org/1999/xlink" width="316.40625" height="200"><path d="M284.329241 870.286151v42.950692h98.120547a19.230158 19.230158 0 0 0-12.870184-18.161817l-43.117621-15.173796-5.007854-18.545752zM139.969511 863.425391l-3.52219 49.527673h91.810651a19.380394 19.380394 0 0 0-13.638055-18.495673l-41.732114-12.90357-3.038098-20.198343z" fill="#204A99" p-id="7573"></path><path d="M415.969022 324.279861a67.622718 67.622718 0 0 1 16.025132 1.385506c9.164372 1.81952 21.700699 11.684992 21.700699 11.684992l-21.700699 14.021991-22.652192-11.284364z" fill="#A55B3A" p-id="7574"></path><path d="M287.116946 460.960881l29.295944 220.696113 13.437741 188.211835s-17.110167 7.595245-33.135299 6.293203l-16.008439-1.285349L252.262284 684.411314l-71.695772-211.298041z" fill="#204A99" p-id="7575"></path><path d="M253.99834 471.377217s-4.039669 207.308451-3.956204 220.212021-74.633713 185.924915-74.633713 185.924915-15.824818 2.871169-28.828545-4.473683L133.542766 865.662232l50.829715-193.737167s-44.486434-152.539224-42.065971-190.699069l2.403769-38.176538zM480.72057 642.896207h31.683021v270.07355h-31.683021z" fill="#5377C4" p-id="7576"></path><path d="M600.274731 913.236843a23.720534 23.720534 0 0 0-23.720534-23.720534h-159.984233a23.720534 23.720534 0 0 0-23.720534 23.720534zM565.436762 635.267576h-144.576736a57.807325 57.807325 0 0 1-57.807325-57.790632V368.348974a20.031415 20.031415 0 0 1 20.031415-20.031415h162.321231a20.031415 20.031415 0 0 1 20.031415 20.031415z" fill="#5377C4" p-id="7577"></path><path d="M581.912601 618.324338h-157.2633a45.070683 45.070683 0 0 1-45.070683-45.070684V368.348974a20.031415 20.031415 0 0 1 20.031415-20.031415h162.271153a20.031415 20.031415 0 0 1 20.031415 20.031415zM653.625066 618.324338H423.063481v16.943238h230.561585a8.479966 8.479966 0 0 0 0-16.943238z" fill="#A9C2DC" p-id="7578"></path><path d="M451.775176 618.324338H415.651858v16.943238h36.073239a8.479966 8.479966 0 1 0 0-16.943238zM473.308947 635.267576h46.506268v30.214051h-46.506268zM969.854335 642.896207h31.683021v270.07355H969.854335z" fill="#5377C4" p-id="7579"></path><path d="M881.999888 913.236843a23.720534 23.720534 0 0 1 23.720533-23.720534h159.967541a23.720534 23.720534 0 0 1 23.720533 23.720534z" fill="#5377C4" p-id="7580"></path><path d="M937.086278 842.35902l2.604084 41.732114-8.463272 6.026117a24.238012 24.238012 0 0 0-10.165943 19.64748v3.17164h34.804583l29.846808-33.636084-22.535342-52.515692zM823.992249 867.531831l-3.822662 45.421233h-104.680835A26.191075 26.191075 0 0 1 732.815926 888.314424l49.995073-18.028273 16.475838-20.148265z" fill="#204A99" p-id="7581"></path><path d="M916.821164 635.267576h144.576736a57.790632 57.790632 0 0 0 57.807325-57.790632V368.348974a20.031415 20.031415 0 0 0-20.031415-20.031415h-162.321231a20.031415 20.031415 0 0 0-20.031415 20.031415z" fill="#5377C4" p-id="7582"></path><path d="M900.362018 618.324338h157.263299a45.070683 45.070683 0 0 0 45.070684-45.070684V368.348974a20.031415 20.031415 0 0 0-20.031415-20.031415h-162.271153a20.031415 20.031415 0 0 0-20.031415 20.031415z" fill="#A9C2DC" p-id="7583"></path><path d="M828.649553 618.324338h230.544892v16.943238H828.649553a8.479966 8.479966 0 1 1 0-16.943238z" fill="#A9C2DC" p-id="7584"></path><path d="M1030.48275 618.324338h36.089932v16.943238h-36.089932a8.479966 8.479966 0 0 1 0-16.943238z" fill="#5377C4" p-id="7585"></path><path d="M157.513692 912.953064H136.447321l69.892945-389.711175h21.066371L157.513692 912.953064z" fill="#204A99" p-id="7586"></path><path d="M273.912905 180.55446L308.049774 308.822286l110.773724 13.771598a20.565586 20.565586 0 0 1 0 17.260402l-4.34014 8.780437s-104.897842 5.375096-127.333026-4.907697-13.237427-163.172567-13.237427-163.172566z" fill="#4871B3" p-id="7587"></path><path d="M190.648991 161.457844s-38.193231 9.264529-49.86153 19.096616c-10.533186 8.863901-3.188334 222.014848-0.634329 269.789772a189.163327 189.163327 0 0 1 0 20.866057l-2.103298 35.305368s95.232685 12.018849 130.204196 2.52062 33.586006-3.238412 33.586006-3.238412-18.896301-309.952759-29.412794-329.182917c-8.713665-15.908282-54.919462-17.811266-54.919463-17.811266z" fill="#5377C4" p-id="7588"></path><path d="M902.782481 335.213675s-25.323047 60.294559-31.716407 95.549849-9.514922 37.642367-9.514922 37.642367l-52.315379 10.683421v17.210324h133.693001z" fill="#F89900" p-id="7589"></path><path d="M654.359551 380.501365s7.912409-4.45699 15.507654-8.246266 49.27728 3.088176 49.27728 3.088177-1.669285 5.291632-3.588962 6.293203-22.552035-1.201885-22.552034-1.201885a13.354277 13.354277 0 0 1 1.201885 5.976039c0 3.805969 0 8.196187-5.491947 10.983892s-23.837384 0-23.837383 0z" fill="#FBAD83" p-id="7590"></path><path d="M546.740775 351.37235s11.100742 53.283563 16.19206 78.456374c2.437155 12.052235 91.576951-50.362315 91.576952-50.362315s10.983892 4.57384 13.738212 11.901999l2.754319 7.328159s-85.450677 67.873111-103.028243 75.651977c-21.984478 9.731929-37.19166 4.473683-46.072255-18.195202s24.838954-104.780992 24.838955-104.780992z" fill="#E2E2E2" p-id="7591"></path><path d="M996.395959 312.160855s45.805169 4.540454 61.279437 30.297515 12.90357 218.108722 12.903569 218.108722H880.998317s9.03083-209.695528 23.219748-227.823958S960.489648 312.160855 960.489648 312.160855z" fill="#F9C200" p-id="7592"></path><path d="M944.614752 312.77849l-12.31932 21.149836 21.016292-5.725646 16.375682 10.750192 21.867628-26.825403-46.940282 0.651021z" fill="#FFFFFF" p-id="7593"></path><path d="M991.555034 251.949761v60.094244s-10.115864 8.580123-27.893745 7.561859c-16.442453-0.951492-19.06323-6.910838-19.06323-6.910838l-6.793988-31.215621 53.750963-29.529644" fill="#FBAD83" p-id="7594"></path><path d="M943.462946 307.503551a70.944594 70.944594 0 0 0 18.211894-10.867042 52.766085 52.766085 0 0 0 17.727802-25.039269l-36.056546 6.86076-5.542025 3.05479 5.658875 25.940683" fill="#E68D5C" p-id="7595"></path><path d="M898.141869 216.944863h30.547908v1.669285h-30.547908z" fill="#21170C" p-id="7596"></path><path d="M907.23947 174.762042s-5.174782 12.820105-5.174782 24.037698c0 9.03083 3.63904 26.107611 3.639041 26.107611L926.452936 171.940951z" fill="#21170C" p-id="7597"></path><path d="M908.508127 276.354701c16.42576 34.570883 57.206382 14.155533 74.667098-3.338569s15.023561-84.048478 10.216022-96.651577S948.153635 153.578821 926.903643 161.708237s-34.837969 80.125659-18.362131 114.646464" fill="#FBAD83" p-id="7598"></path><path d="M902.064688 252.066611a78.556532 78.556532 0 0 0 6.426746 24.338169c6.526903 13.754905 16.909853 18.796144 28.16083 18.796144-11.234285 0-21.700699-5.007854-28.144137-18.796144a78.556532 78.556532 0 0 1-6.443439-24.338169" fill="#DDDCDA" p-id="7599"></path><path d="M996.562888 224.907351h-18.362131s-12.185777 31.966799-22.652191 35.054976a8.964058 8.964058 0 0 1-2.587391 0.350549c-8.713665 0-20.315193-10.583264-34.954819-11.200899-1.368813 0-2.587391-0.100157-3.705812-0.100157-6.259817 0-9.064215 0.934799-12.169084 3.038098a78.556532 78.556532 0 0 0 6.443438 24.338169c6.526903 13.754905 16.909853 18.796144 28.144138 18.796144 17.026703 0 35.989775-11.568142 46.506268-22.067942 8.463273-8.44658 12.252549-28.377838 13.354276-48.175553" fill="#DA9671" p-id="7600"></path><path d="M991.037556 229.130641a22.134713 22.134713 0 0 1-19.914565-24.788876c0.934799-7.495088 3.138255-9.882165 1.201885-16.976624-3.889433-14.13884-20.832671-12.820105-32.283964-7.561859s-23.920848 5.274939-33.769627-2.17007a17.978195 17.978195 0 0 1-4.206597-23.703841c6.376667-10.299486 29.045551-22.652192 29.045552-22.652192s-2.75432 6.176353-1.836213 9.381379 61.129201-14.873326 73.448521 11.901999-4.123133 77.271183-4.123133 77.271183z" fill="#21170C" p-id="7601"></path><path d="M1001.570741 229.48119c0 8.91398-11.85192 16.826388-19.113308 16.826389s-7.211309-7.912409-7.211309-16.826389 5.892575-16.141982 13.153962-16.141981 13.170655 7.228002 13.170655 16.141981z" fill="#FBAD83" p-id="7602"></path><path d="M996.195645 228.696627c0.834642 3.98959-3.705812 8.663587-6.960917 9.347993s3.739197-4.757461 2.887863-8.747051-6.677138-5.875882-3.338569-6.576981 6.560288 1.969756 7.411623 5.976039z" fill="#E68D5C" p-id="7603"></path><path d="M909.476312 236.725885c-6.677138 0-12.169085-7.044381-12.169085-15.707967s5.458561-15.724661 12.169085-15.724661 12.169085 7.061074 12.169084 15.724661-5.458561 15.707968-12.169084 15.707967z m0-29.763344c-5.792417 0-10.4998 6.309896-10.4998 14.055377s4.707382 14.038683 10.4998 14.038683 10.4998-6.293203 10.4998-14.038683-4.707382-14.02199-10.4998-14.021991zM937.804071 236.725885c-6.677138 0-12.169085-7.044381-12.169085-15.707967s5.458561-15.724661 12.169085-15.724661 12.169085 7.061074 12.169084 15.724661-5.458561 15.707968-12.169084 15.707967z m0-29.763344c-5.792417 0-10.4998 6.309896-10.4998 14.055377s4.707382 14.038683 10.4998 14.038683 10.4998-6.293203 10.4998-14.038683-4.707382-14.02199-10.4998-14.021991z" fill="#21170C" p-id="7604"></path><path d="M948.871428 216.944863h28.210909v1.669285h-28.210909z" fill="#21170C" p-id="7605"></path><path d="M988.450165 452.247216l-104.88115 58.42496c-1.669285 29.062244-2.570698 49.86153-2.570698 49.86153h189.580648s1.786134-134.193786-6.677138-193.420003l-46.623118 10.950507z" fill="#EDB607" p-id="7606"></path><path d="M920.810754 216.944863h5.658875v1.669285h-5.658875z" fill="#21170C" p-id="7607"></path><path d="M467.182672 327.952287s-47.557917 9.398072-57.172996 19.013151-54.952848 111.725216-52.882935 133.926701 25.406511 22.218178 25.406511 22.218178h149.718133a30.91515 30.91515 0 0 0 6.27651-24.271398l-136.080078-13.738212 27.476424-66.621147-7.344852 186.792943 129.419632-11.033971s6.526903-227.990886-12.102313-235.536052-42.082664-10.783578-42.082664-10.783579z" fill="#F0F1F4" p-id="7608"></path><path d="M854.222992 496.232864h-128.651761a5.258246 5.258246 0 0 1-5.27494-5.274939v-90.642152a5.274939 5.274939 0 0 1 5.27494-5.274939h128.651761z" fill="#A9C2DC" p-id="7609"></path><path d="M857.628333 496.232864h-2.821091a3.922819 3.922819 0 0 1-3.922819-3.906125V398.963653a3.922819 3.922819 0 0 1 3.922819-3.922819h2.821091z" fill="#5377C4" p-id="7610"></path><path d="M795.147012 445.703621c0 5.825803-3.52219 10.533186-7.895716 10.533185s-7.895716-4.707382-7.895716-10.533185 3.538883-10.516493 7.895716-10.516493 7.895716 4.640611 7.895716 10.516493z" fill="#FFFFFF" p-id="7611"></path><path d="M857.628333 496.232864h74.650406v6.86076h-74.650406z" fill="#5377C4" p-id="7612"></path><path d="M724.636431 496.232864h132.991902v6.86076H724.636431z" fill="#A9C2DC" p-id="7613"></path><path d="M467.182672 327.952287s10.7335 16.358989 20.181651 18.36213 16.30891-2.737627 18.111737-6.677138 1.185192-10.132557 1.185192-10.132557z" fill="#FFFFFF" p-id="7614"></path><path d="M497.814044 309.106064l48.192246 7.545166v-75.167884l-48.192246 67.622718z" fill="#21170C" p-id="7615"></path><path d="M467.182672 269.143392v58.808895s8.530044 8.346423 23.553606 7.378238c11.033971-0.734485 15.924975-5.875882 15.924974-5.875882l5.909268-31.365857z" fill="#FBAD83" p-id="7616"></path><path d="M467.182672 279.159099a22.58542 22.58542 0 0 0 1.468971 2.988019c7.762173 12.920263 23.369984 31.933414 39.895901 37.291818l4.022976-21.35015-45.387848-28.945394z" fill="#E68D5C" p-id="7617"></path><path d="M548.326595 292.997468c-16.058518 33.769627-56.48859 6.593674-73.565371-10.433028S460.722541 207.663641 465.379845 195.310935s44.152577-22.335028 64.968555-14.37254 34.036712 78.272753 17.978195 112.059073z" fill="#FBAD83" p-id="7618"></path><path d="M489.534393 322.894355l-40.697158-13.788291s-5.959346-93.580093 7.061074-117.016848 47.407682-31.332471 69.625859-22.969356c32.317349 12.152392 31.84995 55.086391 32.317349 58.858974a65.652962 65.652962 0 0 0-22.70227-0.150235 83.748007 83.748007 0 0 1-25.256275 0.734485l-15.858204-1.902985z" fill="#21170C" p-id="7619"></path><path d="M469.068964 260.880433c0 6.343281 8.429887 11.985463 13.604669 11.985463s5.141396-5.642182 5.141397-11.985463-4.189904-11.484678-9.364687-11.484678-9.381379 5.141396-9.381379 11.484678z" fill="#FBAD83" p-id="7620"></path><path d="M493.173433 277.322886a9.114294 9.114294 0 1 1-9.114294-9.097601 9.097601 9.097601 0 0 1 9.114294 9.097601z" fill="#FFFFFF" p-id="7621"></path><path d="M551.999021 270.078191c-7.895716 0-14.305769-7.645323-14.305769-17.043395v-0.834643h28.611538v0.834643c0.016693 9.398072-6.410053 17.043395-14.305769 17.043395z m-12.619791-16.342296c0.333857 8.129416 5.859189 14.60624 12.619791 14.60624s12.302627-6.476824 12.636484-14.60624zM518.780258 270.078191c-7.895716 0-14.305769-7.645323-14.305768-17.043395v-0.834643h28.611537v0.834643c0 9.398072-6.410053 17.043395-14.305769 17.043395z m-12.636484-16.342296c0.35055 8.129416 5.875882 14.60624 12.636484 14.60624s12.285934-6.476824 12.619792-14.60624z" fill="#21170C" p-id="7622"></path><path d="M382.533252 503.110317h43.267856l-3.221719 82.162186 129.419632-11.033971s1.368813-47.69146 1.068342-100.157074l-1.068342-5.675567-122.07478-69.926331-2.720934 69.125074-24.75549-2.503927 12.519634-30.347593-50.813022 14.172226c-4.707382 14.205612-7.578552 25.990761-7.027688 31.966799 2.05322 22.218178 25.406511 22.218178 25.406511 22.218178z" fill="#E5E5E5" p-id="7623"></path><path d="M914.484165 492.577131s-11.067357 3.655733-19.530629 3.655733-13.955219-7.945795-13.955219-7.945794l35.889618-1.034957z" fill="#E68D5C" p-id="7624"></path><path d="M485.594881 252.133382h54.31852v1.669284H485.594881z" fill="#21170C" p-id="7625"></path><path d="M933.664245 473.346973s-7.094459-4.473683-21.300071-4.92439-43.267856 17.961502-44.753519 20.682436a5.007854 5.007854 0 0 0 4.356832 7.21131c3.889433 0 14.188919-5.375096 19.564016-5.942653s21.066371 5.942653 27.826973 5.942653 15.223875-4.239983 15.223876-4.239983z" fill="#FBAD83" p-id="7626"></path><path d="M1042.668527 328.686772s26.291232 7.97918 33.385692 70.527273c6.410053 56.438511 5.491946 97.018819 0 100.457546s-146.112478-3.438726-146.112478-3.438727a26.608396 26.608396 0 0 1-3.088177-18.512365c1.969756-10.816964 3.689119-10.015707 3.689119-10.015708l108.887432-2.570698s-26.558317-74.166313-21.984477-103.028244 25.22289-33.419077 25.222889-33.419077z" fill="#F9C200" p-id="7627"></path><path d="M599.473474 503.110317h-53.467184l29.846808-59.994088H629.320282l-29.846808 59.994088z" fill="#FFFFFF" p-id="7628"></path><path d="M539.045373 480.992296s6.677138-4.907697 12.452863-5.007853 7.461702 1.101728 7.461702 1.101727l-12.569713 25.256276-7.578552-1.018264a37.525517 37.525517 0 0 0 0.2337-20.315193z" fill="#E68D5C" p-id="7629"></path><path d="M539.045373 480.992296a56.37174 56.37174 0 0 1 16.475839-0.350549c8.346423 1.201885 26.441468 3.255105 29.279251 9.615079s-5.759032 12.853491-8.663587 12.853491-30.831686 0.651021-33.385691 0a12.78672 12.78672 0 0 1-4.006283-1.802827s3.772583-14.055376 0.300471-20.315194z" fill="#FBAD83" p-id="7630"></path><path d="M190.648991 161.457844s25.33974 43.11762 36.49056 78.306139c10.583264 33.385691 10.833657 47.45776 10.833657 47.457761V160.105724z" fill="#FFFFFF" p-id="7631"></path><path d="M190.648991 101.296828v60.094245s10.099172 8.596816 27.877052 7.561859c16.442453-0.951492 19.06323-6.910838 19.06323-6.910838l6.793988-31.215622z" fill="#A55B3A" p-id="7632"></path><path d="M238.707693 156.91739c-8.830515 1.969756-19.06323-3.52219-26.708553-9.598386-14.072069-11.184207-19.764329-33.385691-19.764329-33.385692l46.573039 13.988605 5.542025 3.054791z" fill="#8E4A2F" p-id="7633"></path><path d="M272.71102 28.883264s7.97918 2.988019 7.428316 22.00117c-0.267086 9.03083-3.63904 26.107611-3.63904 26.107611l-20.782593-53.066557z" fill="#21170C" p-id="7634"></path><path d="M273.762669 128.439395c-16.442453 34.570883-57.223075 14.155533-74.683791-3.338569s-15.023561-84.031785-10.216022-96.651576 45.204226-22.852506 66.487605-14.706397 34.771198 80.125659 18.412208 114.696542z" fill="#A55B3A" p-id="7635"></path><path d="M138.049834 506.515657s12.987034 1.669285 31.115464 3.22172l115.080478-244.616961-93.596785 54.31852-55.303398-73.882535C134.677879 314.881789 138.550619 418.727982 140.219904 450.344232a189.163327 189.163327 0 0 1 0 20.866057z" fill="#4871B3" p-id="7636"></path><path d="M211.698669 70.682149s4.540454 38.276695 15.023561 41.331486c8.947365 2.620777 21.400228-10.165943 37.54221-10.867042 8.980751-0.383935 12.219163 0.484093 15.874896 2.954633A78.556532 78.556532 0 0 1 273.762669 128.439395c-16.42576 34.570883-57.206382 14.155533-74.667098-3.338569-8.44658-8.346423-12.252549-28.377838-13.354277-48.15886z" fill="#21170C" p-id="7637"></path><path d="M204.854602 84.403668s5.007854 0.500785 7.09446-2.503926-3.856047-19.897872 2.119991-37.842682c4.256676-12.803413 23.603684-20.231729 39.428502-17.110166s19.831101 4.507068 21.450306-0.100158-4.740768-15.407497-10.232714-19.71425S233.46614-4.702742 211.99914 4.044309s-25.757061 14.60624-30.5646 28.511381-1.669285 48.759802 0 50.996643 23.420063 0.851335 23.420062 0.851335z" fill="#21170C" p-id="7638"></path><path d="M180.566512 81.565885c0 8.91398 11.85192 16.826388 19.113308 16.826388s7.211309-7.912409 7.211309-16.826388-5.892575-16.141982-13.153962-16.141982-13.170655 7.228002-13.170655 16.141982z" fill="#A55B3A" p-id="7639"></path><path d="M280.139336 104.101226s0 41.88235-5.007853 49.444209-21.133143 9.197758-28.461302 6.04281-19.230158-14.522776-22.201485-24.137854 43.401399-23.369984 43.401399-23.369984z" fill="#21170C" p-id="7640"></path><path d="M215.337709 486.117l-72.981121-4.840925c-1.869599 30.230744 25.45659 131.639781 37.024732 172.921188z" fill="#4871B3" p-id="7641"></path><path d="M367.242605 265.287344h-62.681635a5.441868 5.441868 0 0 1-4.874311-5.842496l13.053805-113.51135a5.441868 5.441868 0 0 1 4.874311-5.842496h62.715021a5.425175 5.425175 0 0 1 4.874311 5.842496l-13.053805 113.51135a5.458561 5.458561 0 0 1-4.907697 5.842496z" fill="#5377C4" p-id="7642"></path><path d="M373.802894 265.287344h-62.715022a5.458561 5.458561 0 0 1-4.874311-5.842496l13.070498-113.51135a5.425175 5.425175 0 0 1 4.857619-5.842496h62.715021a5.425175 5.425175 0 0 1 4.874311 5.842496l-13.053806 113.51135a5.441868 5.441868 0 0 1-4.87431 5.842496z" fill="#A9C2DC" p-id="7643"></path><path d="M356.943119 187.148134c-0.500785 6.176353-3.75589 10.867043-7.27808 10.466414s-5.976039-5.759032-5.475254-11.952078 3.75589-10.883735 7.278081-10.466414 5.976039 5.759032 5.475253 11.952078z" fill="#FFFFFF" p-id="7644"></path><path d="M298.918788 239.763983s35.37214-11.467985 40.697158-19.196772 5.491946-21.800856 1.886291-25.590133-30.047122 6.009424-35.054976 6.526903 0.166928-2.003141 0.166929-2.003142l1.485663-10.650035a38.393545 38.393545 0 0 0-13.170655 8.530044c-7.211309 6.677138-6.86076 14.422619-7.895716 17.176938s-6.927531 9.097601-6.927531 9.097601z" fill="#A55B3A" p-id="7645"></path><path d="M149.300812 175.27952s11.684992-1.886292 19.296929 7.027688 21.917706 124.929257 21.917707 124.929258l90.708923-91.810652s13.738212 8.646894 17.176939 16.575996l3.422033 7.929102s-77.004097 114.529614-111.307895 124.578707-65.102098-113.811822-65.102098-146.997199S149.300812 175.27952 149.300812 175.27952z" fill="#5377C4" p-id="7646"></path><path d="M185.374051 77.392673c-0.834642 3.98959 3.705812 8.663587 6.960917 9.347994s-3.739197-4.757461-2.887862-8.747051 6.677138-5.875882 3.338569-6.576982-6.560288 2.036527-7.411624 5.976039z" fill="#8E4A2F" p-id="7647"></path><path d="M145.444764 912.953064H124.378393l69.876252-389.711175h21.066372L145.444764 912.953064zM409.609048 912.953064H430.675419l-69.876252-389.711175h-21.066372l69.876253 389.711175z" fill="#A9C2DC" p-id="7648"></path><path d="M399.693497 912.953064h21.066371L350.883616 523.241889h-21.066371l69.876252 389.711175zM912.731417 547.930608s-76.636855-10.115864-96.818505 9.631771c-58.842281 57.473468 118.252119 292.575506 118.252118 292.575507s11.835228 2.75432 24.404941-7.545166l12.55302-10.299486L882.567444 632.663492z" fill="#204A99" p-id="7649"></path><path d="M382.383016 503.110317h-33.919862l-5.825803-67.138626h45.571468l-5.825803 67.138626z" fill="#FFFFFF" p-id="7650"></path><path d="M378.092955 499.771748h-25.33974l-4.356833-50.078537a28.377838 28.377838 0 0 1 13.103884-0.58425c6.994302 1.418892 11.000585 5.291632 16.242139 3.672426a11.067357 11.067357 0 0 0 4.707383-3.088176z" fill="#5377C4" p-id="7651"></path><path d="M650.653739 503.110317h33.919863l5.825803-67.138626h-45.571469l5.825803 67.138626z" fill="#F0F1F4" p-id="7652"></path><path d="M654.943801 499.771748h25.339739l3.121563-36.039854a17.727802 17.727802 0 0 0-10.4998-0.250393c-6.994302 1.418892-10.2661-0.767871-15.524347-2.40377-2.203456-0.684407-4.774154 2.086606-5.708953 1.068343 1.452278 16.709539 1.81952 20.899443 3.271798 37.625674zM1031.868256 618.324338h-124.511936l-77.171025 254.015033s-38.393545 2.069913-42.933999-3.422034l-4.45699-5.508639s53.099942-276.767382 68.090117-296.698639 28.695002-19.914565 36.624104-21.283378 179.064156 15.107025 179.064155 15.107025v23.203056c-7.244695 11.367828-21.2333 34.587576-34.704426 34.587576z" fill="#5377C4" p-id="7653"></path><path d="M888.309783 545.426681l-1.535741 0.250392 81.978565 72.647265h63.916906c13.471126 0 27.476424-23.219748 34.704426-34.587576v-23.203056s-171.135054-16.475839-179.064156-15.107025z" fill="#4871B3" p-id="7654"></path><path d="M559.343873 848.769073l-9.598386 30.047122 23.987619 16.692845a19.797715 19.797715 0 0 1 8.513352 16.292218v1.485663h-31.599557L517.478216 886.761989l4.10644-45.070683zM875.172514 912.953064h-21.066371l69.876252-389.711175h21.066371l-69.876252 389.711175z" fill="#204A99" p-id="7655"></path><path d="M536.574832 850.471743l-7.21131 22.251563 13.220734 23.369984 3.088177 1.185192a16.843081 16.843081 0 0 1 10.816964 15.724661h-28.845238l-34.003326-34.771198 12.018849-38.810866z" fill="#5377C4" p-id="7656"></path><path d="M527.493924 564.473218s93.479936-12.102313 112.977179 7.74548c42.917306 43.651791-75.000956 278.253045-75.000955 278.253045s-13.187348 9.130987-24.655333 3.138255l-11.467985-5.992732L580.91103 605.170375z" fill="#0CBFD1" p-id="7657"></path><path d="M863.086894 912.953064h-21.066372l69.892945-389.711175h21.066371l-69.892944 389.711175z" fill="#A9C2DC" p-id="7658"></path><path d="M962.442711 635.267576h46.506268v30.214051h-46.506268z" fill="#5377C4" p-id="7659"></path><path d="M423.096867 572.135234l-0.7011 10.883735a33.218763 33.218763 0 0 0 33.151992 35.305369h90.458531l-45.371155 228.157815s2.821091 14.873326 18.762759 14.873325c8.346423 0 21.433614-7.74548 21.433613-7.74548s75.752134-237.439037 71.629001-260.792328-49.661216-29.529644-73.932613-28.845238-115.431028 8.162802-115.431028 8.162802z" fill="#60D6E6" p-id="7660"></path><path d="M172.570639 435.220513l-1.502356 70.109952 16.208753 1.302042a47.557917 47.557917 0 0 0 51.313807-45.321076l1.118421-25.573439s-56.755675 3.288491-67.138625-0.517479z" fill="#4871B3" p-id="7661"></path><path d="M124.378393 503.110317h1032.202113v20.148265H124.378393z" fill="#FFFFFF" p-id="7662"></path><path d="M124.378393 513.176103h1032.202113v10.065786H124.378393z" fill="#A9C2DC" p-id="7663"></path><path d="M842.020522 503.110317h314.559984v20.148265H842.020522z" fill="#5377C4" p-id="7664"></path><path d="M842.020522 513.176103h314.559984v10.065786H842.020522z" fill="#204A99" p-id="7665"></path><path d="M296.431554 427.174562l-24.538483 3.939511S282.943734 472.412174 289.470637 484.097166a30.68145 30.68145 0 0 0 9.865472 11.26767 2.52062 2.52062 0 0 0 3.87274-2.286919l-3.956204-63.566357a2.537313 2.537313 0 0 0-2.821091-2.336998z" fill="#4871B3" p-id="7666"></path><path d="M914.767944 260.029098h27.993902s-5.658875 12.119006-15.107025 12.452863-12.886877-12.452863-12.886877-12.452863z" fill="#FFFFFF" p-id="7667"></path><path d="M903.183109 260.563269h42.917306s-0.651021-8.947365-8.062644-12.43617-15.424189 0.884721-17.961502 0.751178-9.431458-4.657304-13.354277-2.654162-3.538883 14.339154-3.538883 14.339154z" fill="#21170C" p-id="7668"></path><path d="M271.659371 117.806053s-17.377252 0.450707-20.265115-0.4674l-2.904555-0.918107s0 8.496658 8.129416 11.4346 12.469556-2.487234 13.55459-5.491946 1.485663-4.557147 1.485664-4.557147z" fill="#FFFFFF" p-id="7669"></path><path d="M1135.514135 912.953064h21.066371L1086.704254 523.241889h-21.066371l69.876252 389.711175z" fill="#A9C2DC" p-id="7670"></path><path d="M1125.598585 912.953064h21.066371l-69.876252-389.711175h-21.066371l69.876252 389.711175z" fill="#204A99" p-id="7671"></path><path d="M1082.197186 757.525978m21.734085 0l0.484093 0q21.734085 0 21.734085 21.734085l0 91.326559q0 21.734085-21.734085 21.734085l-0.484093 0q-21.734085 0-21.734085-21.734085l0-91.326559q0-21.734085 21.734085-21.734085Z" fill="#A9C2DC" p-id="7672"></path><path d="M1086.537326 757.525978m21.734085 0l0.484093 0q21.734085 0 21.734085 21.734085l0 91.326559q0 21.734085-21.734085 21.734085l-0.484093 0q-21.734085 0-21.734085-21.734085l0-91.326559q0-21.734085 21.734085-21.734085Z" fill="#5377C4" p-id="7673"></path><path d="M1032.736284 778.442114m21.734085 0l107.40177 0q21.734085 0 21.734085 21.734085l0 91.326558q0 21.734085-21.734085 21.734086l-107.40177 0q-21.734085 0-21.734085-21.734086l0-91.326558q0-21.734085 21.734085-21.734085Z" fill="#5377C4" p-id="7674"></path><path d="M1021.752392 778.442114m21.734085 0l0.484092 0q21.734085 0 21.734085 21.734085l0 91.326558q0 21.734085-21.734085 21.734086l-0.484092 0q-21.734085 0-21.734085-21.734086l0-91.326558q0-21.734085 21.734085-21.734085Z" fill="#FF9398" p-id="7675"></path><path d="M1032.736284 895.342112V796.25338a17.878038 17.878038 0 0 1 16.492532-17.811266h-9.581694A17.894731 17.894731 0 0 0 1021.752392 796.25338v99.021961a17.894731 17.894731 0 0 0 17.89473 17.89473h9.581694a17.894731 17.894731 0 0 1-16.492532-17.827959z" fill="#FFB0B2" p-id="7676"></path><path d="M1149.920061 887.29616h-47.541225a19.847794 19.847794 0 0 1-19.847793-19.847793V816.284795h87.220119v51.180265a19.831101 19.831101 0 0 1-19.831101 19.8311z" fill="#204A99" p-id="7677"></path><path d="M1154.260201 887.29616H1106.735669a19.847794 19.847794 0 0 1-19.847793-19.847793V816.284795h87.220118v51.180265a19.847794 19.847794 0 0 1-19.847793 19.8311z" fill="#FFB0B2" p-id="7678"></path><path d="M0 912.118422h1433.197652v1.669284H0z" fill="#FFFFFF" p-id="7679"></path><path d="M969.854335 665.49832h31.683021v27.843666H969.854335zM480.72057 665.49832h31.683021v27.843666h-31.683021z" fill="#204A99" p-id="7680"></path><path d="M1202.368982 786.170901h162.588317v1.669285h-162.588317z" fill="#5377C4" p-id="7681"></path><path d="M267.335924 64.906425a1.669285 1.669285 0 0 1-1.569128-1.101728 1.669285 1.669285 0 0 1 1.018264-2.136684 27.27611 27.27611 0 0 1 15.390804 0 1.669285 1.669285 0 0 1-0.901414 3.221719 23.954234 23.954234 0 0 0-13.354277 0 1.669285 1.669285 0 0 1-0.584249 0.016693zM238.006594 69.246565a1.669285 1.669285 0 0 1-1.085035-0.417322 1.669285 1.669285 0 0 1-0.166929-2.353691c0.300471-0.35055 7.728788-8.696973 20.88275-4.490375a1.669285 1.669285 0 0 1 1.085035 2.086605 1.669285 1.669285 0 0 1-2.103298 1.085035c-11.08405-3.538883-17.277095 3.438726-17.343867 3.505498a1.669285 1.669285 0 0 1-1.268656 0.58425z" fill="#21170C" p-id="7682"></path><path d="M1240.044735 272.481961h1.669284v493.03989h-1.669284zM1260.576935 317.035166h1.669285v493.03989h-1.669285zM1253.298854 418.594439h1.669285v407.822913h-1.669285zM1216.157273 472.746031h1.669284v407.822913h-1.669284zM1273.046491 546.578487h1.669284v340.350431h-1.669284z" fill="#5377C4" p-id="7683"></path><path d="M1208.011164 367.814803c24.655333-12.486249 52.599157-6.86076 62.431243 12.553019s-2.17007 45.304383-26.825403 57.757247-76.90394 59.192831-86.802798 39.762358 26.541625-97.586376 51.196958-110.072624zM1179.165927 616.254425c21.149835-22.802427 57.473468-23.503527 81.143923-1.569128s25.673597 58.224646 4.523761 81.027073-53.417106 96.918662-77.02079 74.96757-29.79673-131.623088-8.646894-154.425515zM1356.126784 663.027779c-36.273554-10.015707-74.116235 12.352706-84.515878 49.97838s10.599957 76.269612 46.873511 86.285319 116.566141 65.786505 126.865627 28.160831-52.949707-154.408823-89.22326-164.42453z" fill="#5377C4" p-id="7684"></path><path d="M1160.152775 479.089312c28.695002-19.447165 64.384306-16.876467 79.691646 5.725646s4.473683 56.755675-24.221319 76.136069-86.335398 85.851305-101.659431 63.249192S1131.524545 498.503091 1160.152775 479.089312z" fill="#00C99C" p-id="7685"></path><path d="M1160.152775 479.089312c-27.009024 18.36213-57.640396 110.623488-48.409252 140.219904 24.922419-75.351505 41.114479-97.636454 66.921618-125.012722a125.997599 125.997599 0 0 1 36.006468-26.608396c-16.492532-4.206597-36.791032-0.58425-54.518834 11.401214z" fill="#00B98F" p-id="7686"></path><path d="M1325.128169 386.994882c-32.934985-10.816964-66.537683 1.452278-75.117805 27.39296s11.267671 55.737412 44.202655 66.554376 106.58382 58.858974 115.097171 32.901599-51.247036-116.03197-84.182021-126.848935z" fill="#00C99C" p-id="7687"></path><path d="M1325.128169 386.994882c30.998614 10.182636 85.801227 90.541995 85.133513 121.607381-44.670055-65.602884-66.337369-82.5962-98.688103-101.826359a125.980906 125.980906 0 0 0-41.932429-15.707967c14.706397-8.630201 35.221904-10.7335 55.487019-4.073055z" fill="#00B98F" p-id="7688"></path><path d="M1285.349118 286.988044c-21.2333 8.930672-32.751363 29.713265-25.723675 46.439496s29.946965 23.05282 51.180265 14.122148 79.090703-16.909853 72.063015-33.636084-76.336383-35.83954-97.519605-26.92556z" fill="#00C99C" p-id="7689"></path><path d="M1240.028042 236.826042c13.270812 9.097601 18.195202 24.955804 11.017278 35.405526s-23.737227 11.518064-36.991346 2.40377-51.747822-22.769042-44.536512-33.20207 57.256461-13.721519 70.51058-4.607226z" fill="#5377C4" p-id="7690"></path><path d="M1285.349118 286.988044c20.031415-8.346423 82.479351 8.045952 95.650006 23.954233-50.979951-13.454434-69.258617-12.536327-93.863871-8.09603a83.798085 83.798085 0 0 0-27.877053 10.38295c3.605655-10.766885 12.970341-20.749207 26.090918-26.241153z" fill="#00B98F" p-id="7691"></path><path d="M1351.619715 559.699064c-38.209924-26.224461-88.906096-26.174382-113.227572 0.11685s-13.037112 68.841296 25.256276 95.065756 111.725216 112.292773 136.029999 86.018234S1389.846332 585.923524 1351.619715 559.699064z" fill="#00C99C" p-id="7692"></path><path d="M1351.636408 559.699064c35.95639 24.672026 68.257046 140.069668 51.747822 175.508579-26.257846-94.181035-46.472882-122.792573-79.674953-158.465184a171.418832 171.418832 0 0 0-47.69146-35.60584c23.854076-3.75589 52.081679 2.420463 75.618591 18.562445z" fill="#00B98F" p-id="7693"></path><path d="M1334.609706 772.633003h-126.231299c-8.346423 0-15.273954 31.332471-15.273954 69.976409v69.97641h156.762514v-69.97641c0-38.643938-6.827374-69.976409-15.257261-69.976409z" fill="#FF9398" p-id="7694"></path><path d="M1240.879377 772.633003h-32.50097c-8.346423 0-15.273954 31.332471-15.273954 69.976409v69.97641h32.517663v-69.97641c0-38.643938 6.827374-69.976409 15.257261-69.976409z" fill="#F4828B" p-id="7695"></path><path d="M1338.766224 786.638301h-134.594415a13.354277 13.354277 0 0 1-13.354276-13.270812v-15.157104H1352.120501v15.157104a13.254119 13.254119 0 0 1-13.354277 13.270812z" fill="#FFB0B2" p-id="7696"></path><path d="M1115.082092 721.035417c16.19206-30.648065 48.893345-45.070683 73.047893-32.38412s30.5646 47.941853 14.37254 78.589917-35.872925 116.349134-60.01078 103.495643-43.568327-119.053375-27.409653-149.70144z" fill="#00C99C" p-id="7697"></path><path d="M1115.082092 721.035417c-15.257261 28.845237 1.085035 124.728943 23.186363 146.579878-13.354277-78.222675-9.581693-105.498785 0.333857-141.805724a125.830671 125.830671 0 0 1 19.296929-40.396686C1141.323245 689.419168 1125.097799 702.172502 1115.082092 721.035417z" fill="#00B98F" p-id="7698"></path></svg>