<?xml version="1.0" standalone="no"?><!DOCTYPE svg PUBLIC "-//W3C//DTD SVG 1.1//EN" "http://www.w3.org/Graphics/SVG/1.1/DTD/svg11.dtd"><svg t="1689734770600" class="icon" viewBox="0 0 1678 1024" version="1.1" xmlns="http://www.w3.org/2000/svg" p-id="7840" xmlns:xlink="http://www.w3.org/1999/xlink" width="327.734375" height="200"><path d="M1413.02907 691.670452s2.359606-73.346256 0-181.425029 118.443397-206.520651 218.318681-157.299712c0 0-64.084251 0.793886-109.666546 40.422035s-71.471802 62.87137-75.176604 130.72658-17.311128 167.598179-17.311128 167.598179z" fill="#00B98F" p-id="7841"></path><path d="M1369.122758 691.449929s-7.916809-214.481565-33.674003-298.082183 8.820957-270.913636 8.820957-270.913636 1.234934 144.685744 22.184706 215.892918 56.784909 163.187701 49.948668 246.6119-24.52226 106.711525-24.52226 106.711524z" fill="#00B98F" p-id="7842"></path><path d="M1386.830828 408.561844l-53.344736-17.641914c0.242576 0.815939 0.4631 1.631877 0.705677 2.425763 25.757194 83.600618 33.65195 298.082183 33.65195 298.082183l22.713964 0.220524s17.641914-23.331431 24.52226-106.711525c4.763317-57.909581-11.092353-119.987065-28.249115-176.375031z" fill="#068E6A" p-id="7843"></path><path d="M1371.658783 691.670452s33.916579-106.976154-25.183832-277.352934-132.270247-209.321305-132.270247-209.321305 65.870495 143.605177 93.435985 255.807748 27.896276 230.800335 27.896276 230.800334z" fill="#00C99C" p-id="7844"></path><path d="M1451.488442 403.974946c-24.257631 29.925096-39.253258 67.48032-38.415267 106.270477 2.315501 108.056721 0 181.425029 0 181.425029h16.142351s13.606326-99.742969 17.311128-167.598179c2.668339-48.757839 16.759818-74.49298 41.414392-99.809126z" fill="#068E6A" p-id="7845"></path><path d="M1387.536505 691.670452s17.88449-102.896461-1.852401-248.530457 167.951018-273.846604 167.951017-273.846604-98.485983 115.488377-116.392525 209.144885-3.638645 209.497724-14.929469 267.671935c-6.946503 35.835137-7.541918 45.560242-7.541918 45.560241z" fill="#00C99C" p-id="7846"></path><path d="M1429.171421 691.670452s9.923576-64.326827 8.688642-159.659318 59.342987-175.184202 0-316.385668S1336.816003 78.150855 1336.816003 78.150855s70.236869-6.17467 119.523965 82.564155 59.541458 202.882006 27.10239 312.460343-30.476406 218.539205-30.476406 218.539204z" fill="#00C99C" p-id="7847"></path><path d="M1371.658783 691.670452s26.793656-84.592976-8.820957-223.170207l-57.049538-15.436674c0.661572 2.58013 1.323144 5.16026 1.94061 7.718337 27.56549 112.268728 27.896276 230.800335 27.896276 230.800335zM1391.307464 491.148052c10.518991 119.722436-3.50633 200.5224-3.50633 200.5224h27.212651s0.617467-9.725105 7.563971-45.560241c7.299342-37.643433 3.903273-99.390131 5.446941-163.672854zM1437.948273 539.685367c0.617467 91.076379-8.820957 151.985086-8.820957 151.985085h23.816584a825.112299 825.112299 0 0 1 11.467243-134.651905z" fill="#00B98F" p-id="7848"></path><path d="M1326.341117 689.597528c-31.843654 37.489066-52.683164 100.184017-52.683164 171.060404 0 64.392985 17.200866 121.949728 44.215046 160.122419h156.461721c27.01418-38.172691 44.215046-95.729434 44.215046-160.122419 0-70.876388-20.83951-133.483129-52.683165-171.060404z" fill="#FF9398" p-id="7849"></path><path d="M1419.468369 689.597528h-93.127252c-31.843654 37.489066-52.683164 100.184017-52.683164 171.060404 0 64.392985 17.200866 121.949728 44.215046 160.122419h101.59537z" fill="#F4828B" p-id="7850"></path><path d="M224.934398 801.028264h24.742784A45.824871 45.824871 0 0 1 295.502053 846.831083v116.877677a45.824871 45.824871 0 0 1-45.802818 45.780766h-27.874224v-15.436674h27.852171A30.344091 30.344091 0 0 0 280.065378 963.79697v-116.877678a30.344091 30.344091 0 0 0-30.344091-30.344091H224.934398z" fill="#204A99" p-id="7851"></path><path d="M135.379635 760.60623m15.061783 0l18.744533 0q15.061784 0 15.061784 15.061784l0 23.441692q0 15.061784-15.061784 15.061784l-18.744533 0q-15.061784 0-15.061783-15.061784l0-23.441692q0-15.061784 15.061783-15.061784Z" fill="#204A99" p-id="7852"></path><path d="M126.558678 760.60623m15.061783 0l18.744534 0q15.061784 0 15.061783 15.061784l0 23.441692q0 15.061784-15.061783 15.061784l-18.744534 0q-15.061784 0-15.061783-15.061784l0-23.441692q0-15.061784 15.061783-15.061784Z" fill="#E57A87" p-id="7853"></path><path d="M101.330741 781.489845m26.462871 0l107.725935 0q26.46287 0 26.46287 26.462871l0 188.217165q0 26.46287-26.46287 26.462871l-107.725935 0q-26.46287 0-26.462871-26.462871l0-188.217165q0-26.46287 26.462871-26.462871Z" fill="#5377C4" p-id="7854"></path><path d="M64.26067 781.489845m26.462871 0l107.725935 0q26.46287 0 26.46287 26.462871l0 188.217165q0 26.46287-26.46287 26.462871l-107.725935 0q-26.46287 0-26.462871-26.462871l0-188.217165q0-26.46287 26.462871-26.462871Z" fill="#FF9398" p-id="7855"></path><path d="M64.26067 906.504855v89.665026a26.46287 26.46287 0 0 0 26.462871 26.462871H198.471528a26.46287 26.46287 0 0 0 26.46287-26.462871v-60.644078z" fill="#F4828B" p-id="7856"></path><path d="M106.557158 1005.211362h76.0587a26.46287 26.46287 0 0 0 26.462871-26.46287v-117.980298H106.557158a26.46287 26.46287 0 0 0-26.46287 26.462871v91.517427a26.46287 26.46287 0 0 0 26.46287 26.46287z" fill="#204A99" p-id="7857"></path><path d="M99.610655 1005.211362h76.0587a26.46287 26.46287 0 0 0 26.46287-26.46287v-117.980298H73.147784v117.980298a26.46287 26.46287 0 0 0 26.462871 26.46287z" fill="#F9C200" p-id="7858"></path><path d="M80.094288 799.242021m15.061783 0l98.860874 0q15.061784 0 15.061784 15.061783l0 23.441693q0 15.061784-15.061784 15.061784l-98.860874 0q-15.061784 0-15.061783-15.061784l0-23.441693q0-15.061784 15.061783-15.061783Z" fill="#204A99" p-id="7859"></path><path d="M73.147784 799.242021m15.061784 0l98.860873 0q15.061784 0 15.061784 15.061783l0 23.441693q0 15.061784-15.061784 15.061784l-98.860873 0q-15.061784 0-15.061784-15.061784l0-23.441693q0-15.061784 15.061784-15.061783Z" fill="#F9C200" p-id="7860"></path><path d="M99.610655 1005.211362h76.0587a26.46287 26.46287 0 0 0 26.46287-26.46287v-60.269188l-128.984441-23.265273v83.534461a26.46287 26.46287 0 0 0 26.462871 26.46287z" fill="#EDB607" p-id="7861"></path><path d="M1263.734376 747.948157a42.583169 42.583169 0 0 1-42.450854-42.450855V43.418337a42.450855 42.450855 0 1 1 84.879656 0v662.078965a42.561117 42.561117 0 0 1-42.428802 42.450855z" fill="#5377C4" p-id="7862"></path><path d="M250.052073 0.967483m46.420285 0l957.448704 0q46.420285 0 46.420285 46.420285l0 654.140104q0 46.420285-46.420285 46.420285l-957.448704 0q-46.420285 0-46.420285-46.420285l0-654.140104q0-46.420285 46.420285-46.420285Z" fill="#F0F1F4" p-id="7863"></path><path d="M500.633403 547.293442l22.383178 147.486398 54.337094 142.612819-30.14562 14.686893-46.486442-99.037293-12.283183-189.82699 12.194973-15.921827z" fill="#0CBFD1" p-id="7864"></path><path d="M295.898996 38.456549a9.658948 9.658948 0 1 1-9.636895-9.658948 9.636895 9.636895 0 0 1 9.636895 9.658948z" fill="#60D6E6" p-id="7865"></path><path d="M573.097563 978.131025l-5.248469 44.501727h65.186871a15.85567 15.85567 0 0 0-12.503706-15.436675l-25.668985-5.557202 3.307859-23.441693z" fill="#204A99" p-id="7866"></path><path d="M498.935369 799.506649s114.672438-3.859169 127.352564 20.398463 4.410478 49.066572 0 65.605866-25.911561 98.684454-25.911561 98.684454-24.257631 6.615718-39.142995 0l15.899774-118.178768s-78.131625 26.661342-133.571338 19.494314L388.122099 878.343951l47.10391-76.080753z" fill="#204A99" p-id="7867"></path><path d="M453.353075 886.393074s9.372267-19.075319 36.210027-40.025092S523.016581 799.264073 523.016581 799.264073H436.637362z" fill="#5377C4" p-id="7868"></path><path d="M443.253079 797.169096s40.069196 203.65384-37.334699 221.472173S207.292485 989.024906 207.292485 989.024906s-1.653929-25.360251 6.615717-35.283827l162.085082 10.055891s-28.227062-127.220249-28.138853-167.311498 6.08646-21.368768 6.086461-21.368768z" fill="#5377C4" p-id="7869"></path><path d="M335.637406 38.456549a9.658948 9.658948 0 1 1-9.658947-9.658948A9.658948 9.658948 0 0 1 335.637406 38.456549zM374.251145 38.456549a9.658948 9.658948 0 1 1-9.658948-9.658948 9.658948 9.658948 0 0 1 9.658948 9.658948z" fill="#60D6E6" p-id="7870"></path><path d="M349.376047 773.462774c-0.860043 3.285806-1.499563 10.077943-1.521616 23.022698 0 40.091249 28.138852 167.311498 28.138853 167.311498l5.07205-99.235764 37.489066-65.297133z" fill="#4F69D1" p-id="7871"></path><path d="M698.928512 655.372215a289.856641 289.856641 0 0 1-158.534646-100.647117 285.534372 285.534372 0 0 1-63.180103-180.278304c0-159.21827 129.535751-288.731969 288.731968-288.731969v6.615718A282.447037 282.447037 0 0 0 483.829481 374.446794a279.16123 279.16123 0 0 0 61.746697 176.154507 283.417342 283.417342 0 0 0 154.896002 98.331616z" fill="#FFB0B2" p-id="7872"></path><path d="M765.945731 663.200814v-6.615717a282.270618 282.270618 0 0 0 70.699969-555.323336l1.65393-6.417246a288.621707 288.621707 0 0 1 216.400122 279.602279c0 159.21827-129.535751 288.754021-288.754021 288.75402z" fill="#60D6E6" p-id="7873"></path><path d="M447.817924 525.351312l52.925741 22.052392 14.708946 249.941811s-86.75411 58.791677-170.5532-2.955021l1.852401-230.690072a30.432301 30.432301 0 0 1 22.052392-28.998896l34.335574-9.857419z" fill="#60D6E6" p-id="7874"></path><path d="M383.248521 607.827258l-35.746928-27.146494-1.698034 213.599468a142.833343 142.833343 0 0 0 52.925741 24.764837z" fill="#50CAD3" p-id="7875"></path><path d="M402.985411 467.287364v57.336219s9.658948 8.20349 26.63929 7.233185c15.701303-0.9262 18.193223-6.615718 18.193223-6.615718l6.461351-29.68252z" fill="#FBAD83" p-id="7876"></path><path d="M448.920544 520.323367c-8.446066 1.874453-18.215276-3.374016-25.492565-9.151743-13.451959-10.69541-18.8989-31.887759-18.8989-31.887759l44.479675 13.451959 5.292574 2.910916z" fill="#E68D5C" p-id="7877"></path><path d="M481.359613 398.175167s7.608075 2.822706 7.078817 20.993878a207.027856 207.027856 0 0 1-3.484277 24.919202l-19.847153-50.720501z" fill="#21170C" p-id="7878"></path><path d="M482.285813 493.220977c-15.701303 33.078588-54.623775 13.496064-71.295383-3.13144s-14.37816-80.248655-9.636896-92.178998 43.134479-21.831868 63.466785-14.047374 33.144745 76.345381 17.465494 109.357812z" fill="#FBAD83" p-id="7879"></path><path d="M423.097193 438.067944s4.410478 36.540814 14.334055 39.45173c8.556328 2.513973 20.442567-9.703052 35.857189-10.364624 8.556328-0.352838 11.665715 0.4631 15.149993 2.822706a75.904333 75.904333 0 0 1-6.130564 23.243221c-15.701303 33.078588-54.623775 13.496064-71.295384-3.13144-8.093228-8.071175-11.70982-27.124442-12.768335-46.00129z" fill="#21170C" p-id="7880"></path><path d="M416.569685 451.167065s4.807421 0.485153 6.770084-2.381658-3.682749-19.009162 2.006768-36.143871c4.079693-12.217025 22.559597-19.295843 37.665486-16.340822s18.920952 4.300216 20.464619 0-4.52074-14.708945-9.769209-18.81069-29.814834-11.312877-50.323559-2.955021-24.588417 13.937112-29.175315 27.212652-1.631877 46.5526 0 48.691681 22.361125 0.727729 22.361126 0.727729z" fill="#21170C" p-id="7881"></path><path d="M393.370569 448.454621c0 8.512223 11.312877 16.076194 18.25938 16.076194s6.880346-7.56397 6.880346-16.076194-5.62336-15.436674-12.569863-15.436674-12.569863 6.924451-12.569863 15.436674z" fill="#FBAD83" p-id="7882"></path><path d="M488.43843 469.977756s0 39.980987-4.697159 47.192119-20.177939 8.820957-27.190599 5.777726-18.34759-13.848902-21.192349-23.044749 41.436445-22.272916 41.436445-22.272916z" fill="#21170C" p-id="7883"></path><path d="M397.957466 444.485191c-0.793886 3.815064 3.550435 8.269647 6.615718 8.820956s-3.572488-4.564845-2.756549-8.357856 6.306984-5.62336 3.197597-6.284932a6.615718 6.615718 0 0 0-7.056766 5.821832z" fill="#E68D5C" p-id="7884"></path><path d="M480.345203 483.054824s-16.583399 0.441048-19.362001-0.441048l-2.756549-0.882095a12.17292 12.17292 0 0 0 7.762442 11.026196 9.570738 9.570738 0 0 0 12.944755-5.226417c1.01441-2.977073 1.411353-4.476636 1.411353-4.476636z" fill="#FFFFFF" p-id="7885"></path><path d="M489.960046 433.194366a2.205239 2.205239 0 0 1-0.617467 0 22.537545 22.537545 0 0 0-12.393445 0 2.205239 2.205239 0 0 1-1.455458-4.14585 26.46287 26.46287 0 0 1 15.061784 0 2.205239 2.205239 0 0 1 1.521615 2.712444 2.205239 2.205239 0 0 1-2.117029 1.433406zM448.214867 437.296111a2.205239 2.205239 0 0 1-1.433405-0.55131 2.205239 2.205239 0 0 1-0.220524-3.087335c0.308733-0.352838 7.65218-8.600433 20.596934-4.410478a2.205239 2.205239 0 1 1-1.345196 4.189954c-10.122048-3.219649-15.701303 2.910916-15.943879 3.175545a2.205239 2.205239 0 0 1-1.65393 0.683624z" fill="#21170C" p-id="7886"></path><path d="M692.18048 616.912844l8.181438 35.305879-27.918329-25.514617-63.70936-128.23466 19.736891-9.813314 63.70936 128.256712z" fill="#FF9398" p-id="7887"></path><path d="M649.663468 633.297771s23.574007-9.592791 37.974219-3.197597 19.185581 4.60895 21.589292 0.507205-1.609825-16.098246-11.599558-25.691037-36.033609 0-36.033608 0l-4.653055-9.350214a18.81069 18.81069 0 0 0-7.27729 8.953271 29.329681 29.329681 0 0 1-7.211132 10.430782z" fill="#FBAD83" p-id="7888"></path><path d="M349.442204 551.086453a65.186871 65.186871 0 0 0 2.006767 48.66963c11.775977 24.98536 126.955621 88.937297 126.955621 88.937297l177.367389-50.852816s-5.910041-21.523135-9.2179-30.873349l-158.777222 29.925096s-89.356292-80.932279-118.377241-92.620047c-12.371392-5.005893-19.957415 6.814189-19.957414 6.814189z" fill="#60D6E6" p-id="7889"></path><path d="M1223.091818 753.527412l-9.681 240.018235-31.71134-4.807422-17.289075-244.142032 58.681415 8.931219z" fill="#E68D5C" p-id="7890"></path><path d="M1179.185505 976.675567l37.3347 3.065282-4.189955 44.259151h-70.567654a16.561346 16.561346 0 0 1 11.70982-15.833617l25.602827-7.8286z" fill="#204A99" p-id="7891"></path><path d="M1246.555563 753.042259l26.506975 238.761249h-32.08623l-53.763732-238.761249h59.342987z" fill="#FBAD82" p-id="7892"></path><path d="M1246.555563 753.042259l7.806547 69.266564-52.925741-4.035588-14.223793-65.230976h59.342987z" fill="#F7A379" p-id="7893"></path><path d="M1254.097481 295.080235s29.087105 3.770959 63.488836 132.314352c7.365499 27.543438-85.563281 160.982462-85.563281 160.982461l-3.903273-31.314396L1280.538299 430.989127l-37.489067-63.951937z" fill="#F89900" p-id="7894"></path><path d="M1145.930498 493.551763l-38.282952 276.02979s87.966992 22.95654 150.529627 8.490171l62.562637-14.466369-46.684914-267.297043z" fill="#5377C4" p-id="7895"></path><path d="M1258.838745 777.917358l61.901065-14.312003-46.684914-267.297043-27.940381-0.595415z" fill="#4F69D1" p-id="7896"></path><path d="M1189.263448 287.516264l-58.438838 19.031215 2.668339 58.571153 6.990608 148.147969c0.264629 5.53515 46.773123 17.377285 70.920493 17.289076 23.265274-0.110262 62.143641-7.365499 65.561761-10.342572a9.791262 9.791262 0 0 0 3.484278-7.144975l-9.306109-193.906683a27.389071 27.389071 0 0 0-23.706322-25.823351l-18.700428-2.491921z" fill="#F9C200" p-id="7897"></path><path d="M1150.252767 225.350571c-8.071175 0-14.642788-7.806547-14.642788-17.399337v-1.10262h29.285576v1.10262c0 9.614843-6.571613 17.399337-14.642788 17.399337z m-12.34934-16.362875c0.441048 7.916809 5.843884 14.157636 12.393445 14.157636s11.974449-6.262879 12.415496-14.157636z" fill="#21170C" p-id="7898"></path><path d="M1236.036572 232.208865l-7.211132 58.63731a32.08623 32.08623 0 0 1-24.389946 4.410479c-10.915934-2.072925-15.172046-7.806547-15.172046-7.806547l-2.050872-32.020073z" fill="#FBAD83" p-id="7899"></path><path d="M1234.801638 242.176546a23.904793 23.904793 0 0 1-1.830349 2.822706c-9.328162 11.930344-27.278809 28.976843-44.369412 32.284702l-1.389301-21.787763 48.823996-23.287326z" fill="#E68D5C" p-id="7900"></path><path d="M1153.935516 248.10864c16.142351 33.938631 56.784909 6.615718 73.919618-10.474886s14.20174-75.264814 9.460477-87.658259S1193.034407 127.52616 1172.018478 135.487074s-34.11505 78.682935-18.082962 112.621566z" fill="#FBAD83" p-id="7901"></path><path d="M1172.393369 274.681772a100.404541 100.404541 0 0 0 52.131854 4.763317 97.515677 97.515677 0 0 0 29.395839-10.342572c9.041481-41.899545 11.70982-88.540354-7.10087-122.390776-13.077068-23.551955-47.633167-31.490816-69.950188-23.088854-32.483173 12.239078-31.998021 55.351504-32.483173 59.166568a65.517657 65.517657 0 0 1 22.802173-0.17642z" fill="#21170C" p-id="7902"></path><path d="M1182.890307 220.873936c0 6.373141-8.468119 12.040606-13.672483 12.040606s-5.16026-5.667465-5.16026-12.040606 4.234059-11.555453 9.416372-11.555454 9.416371 5.182312 9.416371 11.555454z" fill="#FBAD83" p-id="7903"></path><path d="M1169.394243 236.266505m-9.151742 0a9.151743 9.151743 0 1 0 18.303485 0 9.151743 9.151743 0 1 0-18.303485 0Z" fill="#FFFFFF" p-id="7904"></path><path d="M1136.712598 206.782457h80.270707v2.205239h-80.270707z" fill="#21170C" p-id="7905"></path><path d="M1273.062538 976.675567l5.380784 47.324433h-75.198657a16.517242 16.517242 0 0 1 10.496939-15.436674l25.845403-10.144101-3.087335-17.33318z" fill="#5377C4" p-id="7906"></path><path d="M1134.022206 365.118632l6.990609 148.147969c0.220524 5.027945 38.613738 15.260255 63.731413 17.024447z" fill="#EDB607" p-id="7907"></path><path d="M216.113442 957.732562l-51.271812-12.128816-21.236453 77.029006h27.852171a20.288201 20.288201 0 0 0 5.579255-25.249989l1.56572-8.049123 31.998021-2.205239z" fill="#5377C4" p-id="7908"></path><path d="M973.877736 118.48468s7.541918-9.725105 6.990608-15.613094-4.410478-10.607201-9.195848-10.849777-10.188205 7.541918-10.188205 7.541918z" fill="#FBAD83" p-id="7909"></path><path d="M872.657256 107.348222l-35.59256-6.858294 34.644308-15.172046 143.053866-6.17467 0.948253 22.03034-143.053867 6.17467z" fill="#60D6E6" p-id="7910"></path><path d="M976.215289 123.424415s-7.850652-28.359376-16.384927-41.326182-28.1168-7.982966-34.181208-5.777727-6.417246 6.858294-6.417246 6.858294 13.848902 4.719212 18.259381 14.356107 4.697159 12.680125 4.98384 15.723356 14.223793 19.406105 14.223793 19.406105z" fill="#FBAD83" p-id="7911"></path><path d="M1130.82461 306.547479L1027.641467 254.74641l-47.787533-132.799505s-20.729248-0.396943-28.66811 12.878597c0 0 38.415267 133.549286 46.684914 152.690762s126.933568 73.191889 135.688368 77.051058 16.362875-12.72423 16.693661-23.199116-19.428157-34.820727-19.428157-34.820727z" fill="#F9C200" p-id="7912"></path><path d="M1490.168337 832.541133l-29.263524 189.981357h-8.57838l11.202615-189.981357h26.639289z" fill="#204A99" p-id="7913"></path><path d="M1478.723146 832.541133l-23.110907 189.981357h-8.57838l11.224667-189.981357h20.46462zM1350.70901 832.541133l-29.263524 189.981357h-8.57838l11.224667-189.981357h26.617237z" fill="#204A99" p-id="7914"></path><path d="M1339.263819 832.541133l-23.088855 189.981357h-8.57838l11.202615-189.981357h20.46462z" fill="#A9C2DC" p-id="7915"></path><path d="M1481.634062 832.541133l29.263524 189.981357h8.57838l-11.224667-189.981357h-26.617237z" fill="#204A99" p-id="7916"></path><path d="M1621.821118 629.460655H1495.152178a49.397358 49.397358 0 0 0-49.375306 49.375305 49.353253 49.353253 0 0 1-49.375306 49.375306H1349.606391a49.375306 49.375306 0 0 0-49.375306 49.375306v54.932508h363.864468v-160.651676A42.40675 42.40675 0 0 0 1621.821118 629.460655z" fill="#60D6E6" p-id="7917"></path><path d="M1493.079253 832.541133l23.088854 189.981357h8.578381l-11.202615-189.981357h-20.46462z" fill="#A9C2DC" p-id="7918"></path><path d="M1621.071336 832.541133l29.263524 189.981357h8.578381l-11.224668-189.981357H1621.071336z" fill="#204A99" p-id="7919"></path><path d="M1632.516528 832.541133l23.110906 189.981357h8.578381l-11.224668-189.981357h-20.464619z" fill="#A9C2DC" p-id="7920"></path><path d="M1664.205815 832.541133v-115.863268l-363.88652 84.218085v31.645183h363.88652z" fill="#0CBFD1" p-id="7921"></path><path d="M0 1021.530132h1676.599259v2.205239H0z" fill="#FFFFFF" p-id="7922"></path></svg>