<?xml version="1.0" standalone="no"?><!DOCTYPE svg PUBLIC "-//W3C//DTD SVG 1.1//EN" "http://www.w3.org/Graphics/SVG/1.1/DTD/svg11.dtd"><svg t="1689734772666" class="icon" viewBox="0 0 1721 1024" version="1.1" xmlns="http://www.w3.org/2000/svg" p-id="8062" xmlns:xlink="http://www.w3.org/1999/xlink" width="336.1328125" height="200"><path d="M1356.006587 761.914844a37.796221 37.796221 0 0 1-37.617091-37.617091V136.163482a37.617092 37.617092 0 0 1 75.395399 0v588.062619A37.814134 37.814134 0 0 1 1356.006587 761.914844z" fill="#5377C4" p-id="8063"></path><path d="M455.596718 98.403087m37.706656 0l857.526385 0q37.706656 0 37.706656 37.706656l0 588.098445q0 37.706656-37.706656 37.706656l-857.526385 0q-37.706656 0-37.706656-37.706656l0-588.098445q0-37.706656 37.706656-37.706656Z" fill="#F0F1F4" p-id="8064"></path><path d="M797.858513 178.849925h136.22761v136.22761h-136.22761z" fill="#A9C2DC" p-id="8065"></path><path d="M1070.331646 315.077535h-136.22761V178.849925h136.22761v136.22761z" fill="#60D6E6" p-id="8066"></path><path d="M934.104036 225.889202l130.997043 88.973378-130.997043 0.214955v-89.188333z" fill="#50CAD3" p-id="8067"></path><path d="M907.664594 452.218703h-110.701726v-110.701727h110.701726z m-108.910436-1.79129h107.119146v-107.119147h-107.119146z" fill="#60D6E6" p-id="8068"></path><path d="M1070.331646 451.323058h136.22761v136.22761h-136.22761z" fill="#FFB0B2" p-id="8069"></path><path d="M797.858513 178.849925h6.269515v136.22761h-6.269515z" fill="#5377C4" p-id="8070"></path><path d="M934.104036 315.077535h136.22761v136.22761h-136.22761z" fill="#A9C2DC" p-id="8071"></path><path d="M934.104036 315.077535h6.269515v136.22761h-6.269515z" fill="#5377C4" p-id="8072"></path><path d="M1338.541509 676.165788l-10.353656 256.351523-33.855383-5.158915-18.468201-260.704358 62.67724 9.51175z" fill="#E68D5C" p-id="8073"></path><path d="M1291.645535 914.47902l39.856204 3.278061-4.478225 47.272145h-75.234183a17.697946 17.697946 0 0 1 12.53903-16.927691l27.335087-8.347412z" fill="#204A99" p-id="8074"></path><path d="M1363.601657 675.664227l28.284471 254.990142h-34.249467l-57.428759-254.990142h63.393755z" fill="#FBAD82" p-id="8075"></path><path d="M1371.64455 186.588298s31.06097 4.048316 67.782416 141.225309c7.881676 29.430896-91.355794 171.963847-91.355794 171.963848l-4.173705-33.425473 55.977814-134.651275L1359.714558 263.345077z" fill="#F89900" p-id="8076"></path><path d="M882.461143 114.775479h136.22761v136.22761h-136.22761z" fill="#FFFFFF" p-id="8077"></path><path d="M1018.706666 114.775479h6.269515v136.22761h-6.269515z" fill="#5377C4" p-id="8078"></path><path d="M1314.000835 736.890522l57.195892 7.236812-7.59507-68.463107h-63.393755l13.792933 61.226295z" fill="#F7A379" p-id="8079"></path><path d="M1033.574374 263.703335s-14.20493-5.821693-27.926212-6.05456-28.409861-9.547576-32.368612-17.465078c-2.937716-5.875431-3.260148-14.652753 1.397206-18.145769s38.65604 10.246179 43.994084 8.383238 6.287428-3.58258 6.287429-3.58258v-10.013312s9.780444 5.37387 11.410517 12.109121 7.451767 15.118488 7.451767 15.118488z" fill="#FBAD82" p-id="8080"></path><path d="M1256.142166 398.551652L1215.247013 693.254696s93.953164 24.522761 160.750372 9.063927l66.81512-15.458833-49.851603-285.370422z" fill="#60D6E6" p-id="8081"></path><path d="M1380.511436 701.351327l62.301069-14.330321-49.851603-285.531638-42.578965-0.913558z" fill="#50CAD3" p-id="8082"></path><path d="M1302.393275 178.509579L1240.002642 198.858635l10.407395 220.776502c0.268694 5.893344 49.941167 18.539852 75.717832 18.432374 24.863106-0.089565 66.38521-7.845851 70.039442-11.034346a10.461134 10.461134 0 0 0 3.70797-7.630896L1390.041099 212.311223a29.233854 29.233854 0 0 0-25.328842-27.567954l-19.972884-2.669022z" fill="#F9C200" p-id="8083"></path><path d="M1260.745781 111.855676c-8.454889 0-15.351356-8.222021-15.351356-18.306985v-0.895645h30.720625v0.895645c-0.017913 10.102876-6.896467 18.306985-15.369269 18.306985z m-13.542153-17.482991c0.376171 8.759408 6.305341 15.691701 13.542153 15.691701s13.201808-6.968118 13.560066-15.691701z" fill="#21170C" p-id="8084"></path><path d="M1352.424007 119.450746l-7.702547 62.695152s-10.210353 7.756286-26.117009 4.711093c-11.661298-2.2212-16.121611-8.347412-16.121611-8.347412l-2.185374-34.177814z" fill="#FBAD83" p-id="8085"></path><path d="M1351.044714 130.108922a24.003287 24.003287 0 0 1-1.970419 2.991454c-9.959573 12.753985-29.126377 30.953493-47.379623 34.500247l-1.48677-23.286771L1352.424007 119.450746z" fill="#E68D5C" p-id="8086"></path><path d="M1264.650794 136.432176c17.232211 36.255711 60.635169 7.075596 78.942153-11.195563s15.154314-80.375186 10.084963-93.594907S1306.316201 7.674245 1283.996726 16.147047 1247.454409 100.176464 1264.650794 136.432176z" fill="#FBAD83" p-id="8087"></path><path d="M1284.354984 164.824123a107.137059 107.137059 0 0 0 55.673296 5.105177 105.094989 105.094989 0 0 0 31.383402-11.05226c9.672966-44.782252 12.539031-94.562203-7.559244-130.764175-13.989975-25.078061-50.872638-33.622515-74.714709-24.648152-34.679376 13.058505-34.177815 59.112573-34.679376 63.178801a70.111094 70.111094 0 0 1 24.343632-0.179129z" fill="#21170C" p-id="8088"></path><path d="M1295.604286 107.341625c0 6.824815-8.95645 12.861463-14.599014 12.861463s-5.499261-6.036648-5.499261-12.861463 4.496138-12.377814 10.049138-12.377815 10.049137 5.570912 10.049137 12.377815z" fill="#FBAD83" p-id="8089"></path><path d="M1271.42187 123.785668a9.762531 9.762531 0 1 0 9.762531-9.762531 9.762531 9.762531 0 0 0-9.762531 9.762531z" fill="#FFFFFF" p-id="8090"></path><path d="M1246.29007 92.581395h85.731143v1.79129h-85.731143z" fill="#21170C" p-id="8091"></path><path d="M1391.832389 914.47902l5.750041 50.550206h-80.249795a17.644207 17.644207 0 0 1 11.213476-16.444043l27.585867-10.74774-3.278061-18.504027z" fill="#5377C4" p-id="8092"></path><path d="M502.958428 133.476547a8.580279 8.580279 0 1 1-8.562367-8.580279 8.580279 8.580279 0 0 1 8.562367 8.580279zM538.228929 133.476547a8.580279 8.580279 0 1 1-8.580279-8.580279 8.562367 8.562367 0 0 1 8.580279 8.580279zM572.550047 133.476547a8.580279 8.580279 0 1 1-8.580279-8.580279 8.580279 8.580279 0 0 1 8.580279 8.580279z" fill="#60D6E6" p-id="8093"></path><path d="M305.612 545.634481a4.191619 4.191619 0 0 0 1.056861 0 4.979786 4.979786 0 0 0 3.869187-5.624651l-4.531964-44.209039a4.603615 4.603615 0 0 0-4.872309-4.478226 4.943961 4.943961 0 0 0-3.779622 5.606738l4.496138 44.298604a4.746919 4.746919 0 0 0 3.761709 4.406574z" fill="#A9C2DC" p-id="8094"></path><path d="M500.199841 559.355763c0.770255 0.107477 1.540509 0.161216 2.328677 0.214954a29.180115 29.180115 0 0 0 23.519639-10.210353 33.53295 33.53295 0 0 0 7.881676-25.794577l-3.475103-32.135744a6.233689 6.233689 0 0 0-6.48447-5.785867 5.982909 5.982909 0 0 0-5.158915 6.824815l3.45719 32.243221a20.778965 20.778965 0 0 1-4.854397 15.942482 17.912901 17.912901 0 0 1-14.473623 6.251602c-9.959573-0.5553-17.912901-9.458012-18.145769-20.295316v-4.155793a6.305341 6.305341 0 0 0-6.000822-6.412819 6.018735 6.018735 0 0 0-5.750041 6.412819v4.191619c0.322432 16.802301 12.055382 30.720625 27.155958 32.708957z" fill="#5377C4" p-id="8095"></path><path d="M349.301565 822.567926l-109.447824-58.199014 75.484964-216.029583a4.26327 4.26327 0 0 1 5.750041-2.812326 5.24848 5.24848 0 0 1 2.436155 6.520296l-72.403945 206.92983 102.461792 54.616434a4.890222 4.890222 0 0 1 1.79129 6.502383 4.531964 4.531964 0 0 1-6.072473 2.47198z" fill="#00B98F" p-id="8096"></path><path d="M337.22827 824.018871a5.606738 5.606738 0 0 0 1.433032-0.12539 7.16516 7.16516 0 0 0 5.158915-7.756286l-29.860805-264.985541L467.52671 530.87425a6.448644 6.448644 0 0 0-1.468858-12.771898l-165.24651 21.370091 31.204274 279.315861a5.624651 5.624651 0 0 0 5.212654 5.230567z" fill="#00B98F" p-id="8097"></path><path d="M337.138705 824.860778A7.16516 7.16516 0 0 0 343.927695 820.436291l129.43862-274.246511a7.648809 7.648809 0 0 0-2.794412-9.780443 6.269515 6.269515 0 0 0-8.95645 2.919802l-129.61775 275.177982a7.380115 7.380115 0 0 0 2.794412 9.744618 5.857519 5.857519 0 0 0 2.34659 0.609039z" fill="#00B98F" p-id="8098"></path><path d="M509.102552 782.371377a3.58258 3.58258 0 0 0 1.146426-0.089565 4.961874 4.961874 0 0 0 3.743796-5.517173l-29.878718-210.261629-26.403616-3.58258a4.496138 4.496138 0 0 0-4.872309 4.227444 4.764832 4.764832 0 0 0 3.869187 5.373871l19.704191 2.561544L505.143801 778.645494a4.209532 4.209532 0 0 0 3.958751 3.725883z" fill="#00C99C" p-id="8099"></path><path d="M423.460974 772.465543c-11.034347 106.778801 12.539031 193.298112 52.807231 193.244373S557.50321 883.131444 567.838954 781.242864 554.672972 592.942451 515.103374 587.998491s-80.608053 77.706163-91.6424 184.467052z m10.550698 0.644864c9.38636-90.854233 44.423994-161.377323 78.243551-157.526049s54.025309 77.741989 45.104684 165.013642-43.958258 157.794743-78.24355 157.526049-54.473131-74.159409-45.104685-165.013642z" fill="#5377C4" p-id="8100"></path><path d="M414.128353 771.910243c-11.070173 107.083321 12.539031 193.853412 52.735579 193.817586s81.270831-82.882992 91.714052-185.058178-13.165982-188.927364-52.735579-193.817586-80.625966 77.974857-91.714052 185.058178z m10.550698 0.644864c9.422186-91.140839 44.477733-161.878884 78.315202-158.02761s53.989483 77.956944 45.033033 165.515203-44.02991 158.278391-78.315202 158.009697-54.437305-74.374364-45.033033-165.49729z" fill="#A9C2DC" p-id="8101"></path><path d="M163.096961 756.666364C150.934102 872.383703 173.755137 965.996523 213.862122 965.960697s82.13065-89.815284 93.666558-200.534924-11.195563-204.404111-50.765161-209.294333-81.503698 84.90715-93.666558 200.534924z m10.550699 0.644865c10.335744-98.43139 46.161545-175.098605 79.981102-171.229419s53.237141 83.868201 43.34922 178.717011-45.69581 171.498112-79.981102 171.229419-53.702876-80.303534-43.34922-178.717011z" fill="#5377C4" p-id="8102"></path><path d="M153.76434 756.093152c-12.216598 115.950207 10.479047 209.921284 50.693509 209.867545S286.606412 875.966283 298.196059 764.906299s-11.123911-204.995236-50.693509-209.885458-81.539524 85.122104-93.73821 201.072311z m10.550699 0.644864c10.37157-98.700083 46.215284-175.546427 80.03484-171.73098s53.219228 84.101069 43.295481 179.218573-45.767461 171.963847-80.052753 171.713066-53.667051-80.500576-43.277568-179.200659z" fill="#A9C2DC" p-id="8103"></path><path d="M493.177984 801.269487c5.158915 0.268694 10.461134-10.407395 11.840427-23.842071s-1.6659-24.630239-6.824815-25.060148-10.443221 10.335744-11.840427 23.842071 1.6659 24.791455 6.824815 25.060148z" fill="#5377C4" p-id="8104"></path><path d="M231.846675 794.158066c6.448644 0.322432 13.219721-14.169105 15.136401-32.404438s-1.79129-33.353821-8.204109-33.819556-13.219721 14.061627-15.136401 32.404437 1.755464 33.497124 8.204109 33.819557z" fill="#A9C2DC" p-id="8105"></path><path d="M485.86952 781.027909a4.209532 4.209532 0 0 0 1.146426-0.107477 4.961874 4.961874 0 0 0 3.725883-5.552999l-29.180115-208.29121a4.531964 4.531964 0 0 0-5.015612-4.084142 4.746919 4.746919 0 0 0-3.707971 5.463435l29.108464 208.792771a4.299096 4.299096 0 0 0 3.922925 3.779622zM468.350703 573.238261a6.000822 6.000822 0 0 0 1.271816 0 6.986031 6.986031 0 0 0 6.072474-7.702548l-5.373871-75.395399a7.16516 7.16516 0 0 0-7.16516-6.878554 6.842728 6.842728 0 0 0-6.072473 7.630896l5.37387 75.682006a6.986031 6.986031 0 0 0 5.893344 6.663599zM337.407399 822.40671a4.800657 4.800657 0 0 0 4.424486-2.919803 4.908135 4.908135 0 0 0-1.79129-6.520296l-102.425966-54.831389 72.547248-207.789649a5.37387 5.37387 0 0 0-2.436155-6.556121 4.281183 4.281183 0 0 0-5.750041 2.848151l-75.592441 216.925228 109.394085 58.396057a4.119967 4.119967 0 0 0 1.630074 0.447822z" fill="#00C99C" p-id="8106"></path><path d="M396.914055 478.711883l127.414463 19.542975a5.732128 5.732128 0 0 0 6.466557-5.37387 6.538209 6.538209 0 0 0-5.194741-7.16516l-127.342811-20.080362a5.893344 5.893344 0 0 0-6.502383 5.624651 6.645686 6.645686 0 0 0 5.158915 7.451766z" fill="#A9C2DC" p-id="8107"></path><path d="M370.797046 542.248942q1.146426 0.161216 2.310764 0.214955a29.036812 29.036812 0 0 0 23.609203-10.74774 36.291537 36.291537 0 0 0 8.02498-26.869351l-3.295974-33.479212a5.893344 5.893344 0 1 0-11.661298 1.164339l3.27806 33.568776a22.409039 22.409039 0 0 1-4.94396 16.641084 17.751685 17.751685 0 0 1-14.527363 6.591948c-9.959573-0.519474-17.912901-9.744618-18.038291-21.029746v-4.334922a6.35908 6.35908 0 0 0-5.964996-6.627773 6.251602 6.251602 0 0 0-5.785867 6.717338v4.352835c0.12539 17.429252 11.876253 31.849138 26.994742 33.837469z" fill="#A9C2DC" p-id="8108"></path><path d="M319.494498 505.025935l-44.209039-6.35908a8.15037 8.15037 0 0 1 2.328677-16.121611l44.209039 6.35908a8.15037 8.15037 0 0 1-2.328677 16.121611M336.475928 871.291016c10.74774 0.304519 22.10452-23.286771 25.078061-52.753492s-3.224322-53.84618-14.025801-54.508957S325.549058 786.974992 322.432214 816.853711s3.188496 54.114873 14.043714 54.437305z" fill="#5377C4" p-id="8109"></path><path d="M332.338048 871.165626c10.837305 0.304519 22.122432-23.286771 25.185538-52.807231s-3.224322-53.917831-14.025801-54.598522-22.068694 22.982252-25.185539 52.825144 3.170583 54.276089 14.025802 54.580609z" fill="#A9C2DC" p-id="8110"></path><path d="M0 964.133581h1666.849154v1.79129H0z" fill="#FFFFFF" p-id="8111"></path><path d="M504.337721 734.543932s-5.37387 23.071816-3.869187 39.89203 86.877569 43.098439 86.877569 43.098439v-49.475432z" fill="#8E4A2F" p-id="8112"></path><path d="M797.41069 841.125691h-137.356123l11.48217 76.63139 125.873953-76.63139z" fill="#50CAD3" p-id="8113"></path><path d="M746.072317 833.261928h85.498275v7.863763H746.072317zM832.05424 833.261928h-0.483648v-117.634019h0.483648a7.380115 7.380115 0 0 1 7.380115 7.362202v102.909615a7.380115 7.380115 0 0 1-7.380115 7.362202z" fill="#5377C4" p-id="8114"></path><path d="M679.257197 715.627909h152.295482v117.634019H679.257197zM593.776834 833.261928h152.295483v7.863763h-152.295483z" fill="#A9C2DC" p-id="8115"></path><path d="M683.287599 719.103011h144.25259v109.017915h-144.25259z" fill="#FFFFFF" p-id="8116"></path><path d="M734.60806 956.574337s21.495481 11.947905 56.085292 11.947905 58.521447-26.152835 62.104027-37.617092-6.968118-17.805423-28.660641-16.461956-66.868859 7.577157-81.199179 16.461956S734.60806 956.574337 734.60806 956.574337zM619.338544 956.574337s-21.495481 11.947905-56.085293 11.947905-58.503534-26.152835-62.086114-37.617092 6.950205-17.805423 28.660642-16.461956 66.868859 7.577157 81.199179 16.461956 8.311586 25.669187 8.311586 25.669187z" fill="#5377C4" p-id="8117"></path><path d="M519.474122 901.474254s-11.195563 62.462285 39.265078 80.160231c78.816763 27.621693 176.728679-4.299096 243.615451-74.392277s3.58258-75.484964-14.939359-66.528513c-14.169105 6.860641-101.924405 61.118817-101.924406 61.118817z" fill="#60D6E6" p-id="8118"></path><path d="M714.72474 682.005394l34.303205 81.629089s34.356944 47.61249 44.441907 48.526048c26.188661 2.400329 27.979951 15.960395 27.979951 15.960395h-44.226952l-61.512901-44.621036-28.660641-51.571242z" fill="#A55B3A" p-id="8119"></path><path d="M546.343473 626.976963s-24.433197 17.339688-34.571898 42.990962-11.356779 72.242729-11.356779 72.242728 8.95645 8.95645 27.478389 6.574035l18.504027-2.382416z" fill="#204A99" p-id="8120"></path><path d="M572.209702 553.963979v59.829089s10.031224 8.526541 27.711257 7.505505c16.354478-0.949384 18.951849-6.860641 18.951849-6.860641l6.771077-31.043057z" fill="#A55B3A" p-id="8121"></path><path d="M657.403458 591.903503c-16.336565 34.374857-56.891373 14.07954-74.248974-3.260148s-14.903533-83.474118-10.102876-96.013148 44.943468-22.731471 66.098604-14.63484 34.64355 79.533279 18.253246 113.908136z" fill="#A55B3A" p-id="8122"></path><path d="M557.198691 572.038096c4.317009 9.619228 10.299918 12.019556 16.712736 14.330321 8.95645 3.206409 17.590469 4.13788 34.213641 1.307642 26.009532-4.424486 21.208874-9.959573 17.518817-22.695646s18.718981 0 20.940181-11.016434-10.246179-29.359244-5.266393-35.44963 19.130978 0 23.394248-8.311586 8.95645-22.803123 0-35.180937-22.838948-5.750041-32.243221-7.971241-6.090386-13.828759-24.343632-13.828759-23.161381 22.140345-35.915366 27.120131-28.821857 22.677732-19.417585 37.617092 9.94166 20.922268 6.23369 28.499425c-3.188496 6.502383-5.015612 18.504026-1.827116 25.579622z" fill="#21170C" p-id="8123"></path><path d="M622.240434 564.102681c0 8.95645 11.768776 16.748562 19.005587 16.748562s7.16516-7.881676 7.165161-16.748562-5.857519-16.032046-13.094331-16.032046-13.076418 7.254725-13.076417 16.032046z" fill="#A55B3A" p-id="8124"></path><path d="M519.474122 901.527993s-9.708792 54.258176 29.842893 75.950699l136.138045-75.592441z" fill="#50CAD3" p-id="8125"></path><path d="M627.381436 565.087891c1.612161 3.70797 7.989154 4.890222 11.034347 3.58258s-5.785867-1.79129-7.380115-5.37387 1.988332-8.562367-1.056861-7.254725-4.191619 5.320132-2.597371 9.046015zM669.942488 802.021829s16.318653 8.508628 20.796878 8.95645 17.680033 3.278061 23.053903 6.556122 7.612983 10.586524 7.612983 10.586525h-61.351685z" fill="#8E4A2F" p-id="8126"></path><path d="M619.06985 612.933249s44.603123 11.428431 57.98406 15.31553c32.691044 9.458012 68.069023 92.753 68.069023 92.753s3.134758 12.539031-30.451931 32.064092a48.185703 48.185703 0 0 1-14.330321 6.000822l-19.435497-36.828924 4.531964 179.594743s-61.065079 33.550863-136.639607 16.515695c-35.180937-7.935415-33.210518-14.043714-33.210518-14.043715s-2.561545-225.236814 12.628595-254.488581a74.499754 74.499754 0 0 1 42.292358-36.613969z" fill="#5377C4" p-id="8127"></path><path d="M1266.17339 254.854363l-22.78521 12.66442 7.165161 152.098441c0.179129 3.887099 21.835826 10.74774 43.958258 14.867707z" fill="#EDB607" p-id="8128"></path><path d="M1226.102231 209.480985l-60.742646 94.598029-121.073297-64.486443s-10.586524 13.004766-12.377814 21.961216l-1.074774 5.373871s104.808382 88.525556 129.152014 89.564503c42.399836 1.79129 140.222187-127.629418 140.222188-127.629417l-38.96056-26.529007a25.078061 25.078061 0 0 0-35.145111 7.147248z" fill="#F9C200" p-id="8129"></path><path d="M1070.331646 465.59964l92.681349 122.201809-92.681349-0.250781v-121.951028z" fill="#FF9398" p-id="8130"></path><path d="M685.687928 901.832512l-4.531964-179.594743-101.136237 200.499098c60.599343 3.815448 105.668202-20.904355 105.668201-20.904355z" fill="#4F69D1" p-id="8131"></path></svg>