<?xml version="1.0" standalone="no"?><!DOCTYPE svg PUBLIC "-//W3C//DTD SVG 1.1//EN" "http://www.w3.org/Graphics/SVG/1.1/DTD/svg11.dtd"><svg t="1689734775639" class="icon" viewBox="0 0 1656 1024" version="1.1" xmlns="http://www.w3.org/2000/svg" p-id="8275" xmlns:xlink="http://www.w3.org/1999/xlink" width="323.4375" height="200"><path d="M793.111836 304.430384s6.840106-1.238028 18.771603 1.547535 27.654456 33.519614 27.654455 33.519614a3.621233 3.621233 0 0 1-4.503327 2.073698c-3.234349-1.036849-15.088469-14.964666-15.088469-14.964666s1.067799 6.963909-8.495969 8.774525-14.206374-1.810616-15.753909-3.621233-2.584384-8.820951-2.584384-8.820951z" fill="#FBAD83" p-id="8276"></path><path d="M670.825597 817.237153v40.328769H762.934898a18.075212 18.075212 0 0 0-12.070776-17.022888l-40.545424-14.221849-4.642606-17.425248zM535.261506 810.845832l-3.29625 46.426059h86.275092a18.18354 18.18354 0 0 0-12.813592-17.363346l-39.214544-12.132677-2.909367-18.879931z" fill="#204A99" p-id="8277"></path><path d="M673.394506 432.95319l27.515177 207.214975 12.612413 176.72853s-16.063416 7.118662-31.105459 5.911585l-15.042043-1.222553L640.67961 642.737073l-67.317785-198.378548z" fill="#204A99" p-id="8278"></path><path d="M642.335473 442.733613s-3.791461 194.648989-3.714085 206.76619-70.087873 174.577456-70.087873 174.577456-14.856339 2.677236-27.066393-4.224772l-12.210053-6.917482 47.725988-181.897298s-41.783453-143.239866-39.4931-179.065309l2.259401-35.840917z" fill="#5377C4" p-id="8279"></path><path d="M539.764834 416.131481L537.505432 452.018824c-1.377306 21.928575 13.726638 84.093068 25.658135 129.018017l78.305286-92.248578c0.510687-26.756885 0.882095-46.008224 0.882095-46.008224zM661.029699 169.655535l32.049456 120.413721 104.025322 12.92192a19.421568 19.421568 0 0 1 0 16.21817l-4.085493 8.232888s-98.500621 5.06044-119.562577-4.642606-12.426708-153.144092-12.426708-153.144093z" fill="#4871B3" p-id="8280"></path><path d="M582.848216 151.796978s-35.856393 8.697148-46.812942 17.920459c-9.88875 8.32574-3.002218 208.422053-0.603539 253.316051a176.047615 176.047615 0 0 1 0 19.591797l-1.934419 33.163681s89.416589 11.281532 122.255288 2.367729 31.492343-3.095071 31.492343-3.09507-17.75023-291.060437-27.623505-309.120174c-8.186462-14.91824-51.563876-16.713381-51.563876-16.713381z" fill="#5377C4" p-id="8281"></path><path d="M582.848216 151.796978s23.785617 40.483523 34.277907 73.523402c9.935177 31.33759 10.151831 44.553541 10.151831 44.553541V150.466098z" fill="#FFFFFF" p-id="8282"></path><path d="M582.848216 95.234563V151.796978s9.486391 8.062659 26.168822 7.103187c15.475353-0.89757 17.904983-6.499648 17.904983-6.499648l6.391321-29.294843z" fill="#FBAD83" p-id="8283"></path><path d="M628.005296 147.401978c-8.310265 1.841567-17.904983-3.327201-25.070072-9.022131-13.215951-10.507765-18.570423-31.353065-18.570423-31.353065l43.733347 13.138575 5.215194 2.878416z" fill="#E68D5C" p-id="8284"></path><path d="M659.899998 27.251338s7.490071 2.801039 6.963909 20.659596c-0.23213 8.480493-3.404578 24.512959-3.404578 24.512959l-19.51442-49.815161z" fill="#21170C" p-id="8285"></path><path d="M660.797569 120.737945c-15.475353 32.498241-53.730425 13.277853-70.118824-3.095071s-14.128997-78.9243-9.594719-90.762944 42.433418-21.448839 62.427573-13.804015S676.272921 88.348031 660.797569 120.737945z" fill="#FBAD83" p-id="8286"></path><path d="M602.625717 66.512308s4.255722 35.918294 14.082571 38.79671c8.418592 2.460581 20.117959-9.548293 35.252854-10.198257 8.434067-0.355933 11.482712 0.448785 14.902765 2.770088A73.740057 73.740057 0 0 1 660.797569 120.737945c-15.475353 32.498241-53.71495 13.277853-70.103349-3.095071-7.938856-7.923381-11.498187-26.664033-12.550511-45.234456z" fill="#21170C" p-id="8287"></path><path d="M596.18797 79.387802s4.719983 0.464261 6.654402-2.352254-3.605757-18.694226 1.99632-35.593311c3.992641-12.024349 22.160705-18.988258 37.03252-16.078892s18.570423 4.240247 20.117959-0.077377-4.441426-14.48493-9.610194-18.570423-29.40317-11.126779-49.52113-2.909366-24.079649 13.834965-28.644878 26.896163-1.624912 45.776094 0 47.880742 21.975001 0.804718 21.975001 0.804718z" fill="#21170C" p-id="8288"></path><path d="M573.392775 76.710566c0 8.372166 11.111303 15.800335 17.95141 15.800335s6.762729-7.428169 6.762729-15.800335-5.524701-15.15037-12.380282-15.15037-12.333856 6.79368-12.333857 15.15037z" fill="#FBAD83" p-id="8289"></path><path d="M666.863907 97.880849s0 39.322872-4.642606 46.426058-19.839402 8.619772-26.710459 5.66398S617.46658 136.321625 614.665542 127.31497 655.427621 105.37092 655.427621 105.37092z" fill="#21170C" p-id="8290"></path><path d="M748.697573 239.433902h-58.899193a4.642606 4.642606 0 0 1-4.565229-4.642606l12.256479-88.766624a4.642606 4.642606 0 0 1 4.642606-4.642606h58.883718a4.642606 4.642606 0 0 1 4.565229 4.642606l-12.256479 88.766624a4.642606 4.642606 0 0 1-4.627131 4.642606z" fill="#5377C4" p-id="8291"></path><path d="M754.825813 239.433902h-58.883718a4.642606 4.642606 0 0 1-4.642606-4.642606l12.25648-88.766624a4.642606 4.642606 0 0 1 4.642605-4.642606h58.883718a4.642606 4.642606 0 0 1 4.642606 4.642606l-12.256479 88.766624a4.642606 4.642606 0 0 1-4.642606 4.642606z" fill="#EDF2F7" p-id="8292"></path><path d="M738.994527 178.290782c-0.464261 4.843785-3.52838 8.511444-6.840106 8.186462s-5.617553-4.503328-5.137817-9.285212 3.52838-8.511444 6.840106-8.201937 5.602078 4.472377 5.137817 9.300687z" fill="#A9C2DC" p-id="8293"></path><path d="M684.505809 225.258478s33.210107-10.832747 38.208646-18.028786 5.168768-20.473892 1.779666-24.017747-28.211568 5.648504-32.885125 6.190141 0.154754-1.872518 0.154754-1.872518l1.392781-10.012553a36.19685 36.19685 0 0 0-12.380282 8.016233c-6.778205 6.282993-6.453222 13.540934-7.412694 16.125317s-6.530599 8.542395-6.530599 8.542395z" fill="#FBAD83" p-id="8294"></path><path d="M544.020556 164.765324s11.033927-1.76419 18.121638 6.607976 20.582219 117.303175 20.582219 117.303175l85.114441-86.135815s12.95287 8.062659 16.171744 15.55273l3.218873 7.45912s-72.316324 107.538227-104.520533 116.962717S521.519393 235.657916 521.519393 204.490555s22.501163-39.725231 22.501163-39.725231z" fill="#5377C4" p-id="8295"></path><path d="M577.896103 72.872678c-0.789243 3.745035 3.481954 8.12456 6.546074 8.774526s-3.512905-4.472377-2.723662-8.217413 6.190141-5.524701 3.095071-6.190141-6.035388 1.826092-6.917483 5.633028z" fill="#E68D5C" p-id="8296"></path><path d="M565.887229 408.780688l-1.423732 65.878578 15.227747 1.222553a44.646393 44.646393 0 0 0 48.174774-42.557221l1.052324-24.002272s-53.235214 3.017694-63.031113-0.541638zM682.169031 401.228716l-23.042801 3.69861s10.383962 38.688382 16.512202 49.753259a28.73773 28.73773 0 0 0 9.285212 10.569666 2.367729 2.367729 0 0 0 3.636708-2.135599l-3.72956-59.688436a2.352254 2.352254 0 0 0-2.661761-2.1975z" fill="#4871B3" p-id="8297"></path><path d="M658.925051 110.740867s-16.326497 0.43331-19.05016-0.43331l-2.708186-0.86662s0 7.969807 7.629349 10.739895 11.714842-2.336778 12.72074-5.153292 1.408257-4.286673 1.408257-4.286673z" fill="#FFFFFF" p-id="8298"></path><path d="M654.855033 61.064984a1.547535 1.547535 0 0 1-1.454683-1.036848 1.547535 1.547535 0 0 1 0.943996-1.96537 25.596234 25.596234 0 0 1 14.45398 0 1.547535 1.547535 0 0 1-0.851144 2.971268 22.795195 22.795195 0 0 0-12.565987 0 1.547535 1.547535 0 0 1-0.526162 0.03095zM627.32438 65.135002a1.547535 1.547535 0 0 1-1.021373-0.386884 1.547535 1.547535 0 0 1-0.154754-2.182025c0.294032-0.340458 7.257941-8.155511 19.607273-4.224771a1.547535 1.547535 0 0 1 0.990422 1.949895 1.547535 1.547535 0 0 1-1.934419 1.005898c-10.445863-3.327201-16.264596 3.234349-16.326497 3.29625a1.547535 1.547535 0 0 1-1.160652 0.541637z" fill="#21170C" p-id="8299"></path><path d="M410.90157 817.747839v39.353823h80.611113v-10.739895l-42.170336-10.987501-6.747254-20.195335-31.693523 2.568908z" fill="#204A99" p-id="8300"></path><path d="M322.413502 804.85687l-7.22699 52.507873h78.9243a17.827607 17.827607 0 0 0-12.751691-17.022888L350.671497 831.16497v-22.052378z" fill="#5377C4" p-id="8301"></path><path d="M463.873703 205.728583L484.378546 304.430384l129.992964 32.9006-4.642606 21.835723s-116.065147-7.288891-146.242085-21.835723-34.045776-124.731344-34.045776-124.731344z" fill="#F89900" p-id="8302"></path><path d="M433.309881 441.186077l14.206374 165.586276v215.447863s-19.251339 5.153293-29.109139 2.785564L408.549316 822.653526s-7.304367-197.434552-9.45544-208.917264S328.077481 438.369563 328.077481 438.369563z" fill="#204A99" p-id="8303"></path><path d="M310.03322 416.239808s-8.217412 21.092906-9.687571 57.87782 44.274985 125.752718 44.274985 125.752718l-27.654456 215.277634s20.334614 7.985282 28.815107 6.979384l8.495969-0.990422s46.503435-199.632052 46.735566-222.736755-6.685352-122.162436-7.474596-131.33932 3.373627-29.913857 3.373627-29.913857z" fill="#5377C4" p-id="8304"></path><path d="M398.258207 190.052051l-38.487203 12.51956-55.927925 221.080892s77.980303 32.343488 112.536766 30.424543 42.851252-17.022888 42.851252-17.022888l7.180564-219.750011a24.559385 24.559385 0 0 0-15.367026-23.584438l-15.568205-6.174666z" fill="#F9C200" p-id="8305"></path><path d="M810.459706 817.237153l-3.218873 40.12759h-71.434229a19.297765 19.297765 0 0 1 13.076673-18.260917l25.673611-8.712623 3.667658-21.278611z" fill="#204A99" p-id="8306"></path><path d="M463.208263 95.97738s7.6603 62.118067 4.642606 74.281694-33.736269 9.672096-49.072344 8.434068-23.429684 0.820194-30.115037-2.893891S394.188189 133.226555 394.188189 133.226555z" fill="#E56107" p-id="8307"></path><path d="M447.516255 182.252473a18.895406 18.895406 0 0 1-4.952113-37.140847 0.789243 0.789243 0 0 1 0.959472 0.541637 0.773768 0.773768 0 0 1-0.541637 0.943997 17.347871 17.347871 0 1 0 4.534278-0.603539 0.773768 0.773768 0 0 1-0.773768-0.773768 0.789243 0.789243 0 0 1 0.773768-0.773767 18.895406 18.895406 0 0 1 0 37.790811z" fill="#FFFFFF" p-id="8308"></path><path d="M945.838094 606.725927h29.372219v250.375735h-29.372219z" fill="#5377C4" p-id="8309"></path><path d="M864.391311 857.364743a21.990476 21.990476 0 0 1 21.990477-21.990477h148.300306a21.990476 21.990476 0 0 1 21.990477 21.990477zM896.672897 599.669166H1030.658503a53.575672 53.575672 0 0 0 53.591147-53.591147V352.202798a18.570423 18.570423 0 0 0-18.570424-18.570423h-150.435905a18.570423 18.570423 0 0 0-18.570424 18.570423z" fill="#5377C4" p-id="8310"></path><path d="M881.414199 583.961683h145.7933a41.783453 41.783453 0 0 0 41.783453-41.783453V352.202798a18.570423 18.570423 0 0 0-18.570424-18.570423h-150.435905a18.570423 18.570423 0 0 0-18.570424 18.570423z" fill="#A9C2DC" p-id="8311"></path><path d="M814.932083 583.961683h213.730099v15.707483H814.932083a7.861479 7.861479 0 1 1 0-15.707483z" fill="#A9C2DC" p-id="8312"></path><path d="M1002.044575 583.961683h33.442238v15.707483h-33.442238a7.861479 7.861479 0 0 1 0-15.707483zM938.967037 599.669166h43.114333v28.010389h-43.114333z" fill="#5377C4" p-id="8313"></path><path d="M945.838094 627.679555h29.372219v25.812889h-29.372219z" fill="#204A99" p-id="8314"></path><path d="M863.69492 289.728799l-51.811481 142.682753-106.594231 17.285969v27.731833h111.035657c7.350793 0 27.855635-6.809155 39.849034-45.884422s7.521022-141.816134 7.521021-141.816133z" fill="#0CBFD1" p-id="8315"></path><path d="M950.51165 260.41848l62.613278 23.398734 14.732536 246.816403c-54.008982 4.008116-110.169037 7.846004-173.416805-2.39868-8.310265-1.346356-5.106866 0-13.138574-1.547535 13.262377-79.558789 7.737676-152.648881 20.535793-230.768462a25.317677 25.317677 0 0 1 13.35523-18.384719l31.80185-16.496727z" fill="#60D6E6" p-id="8316"></path><path d="M899.876295 439.793296l-46.240354 11.451761-4.998539 12.457659c-1.547535 20.675071-3.775986 41.582273-7.335317 62.953735 8.031708 1.547535 4.82831 0.23213 13.138574 1.547536 63.247767 10.244684 119.407823 6.406796 173.416805 2.398679l-10.167307-170.39911-47.664087-39.384773-4.16287 42.588171a87.420268 87.420268 0 0 1-65.986905 76.386342z" fill="#0CBFD1" p-id="8317"></path><path d="M889.322105 527.337367s-45.141604-1.29993-72.99724 0S785.126554 556.106048 781.505321 578.916718s-8.372166 242.96304-8.372166 242.963041H817.098633l43.330988-263.854767z" fill="#204A99" p-id="8318"></path><path d="M1023.802921 530.943124l-1.547535 16.605054a39.988312 39.988312 0 0 1-39.833558 36.428981h-85.748931L851.871751 824.974829l-39.988312-6.994859s10.306585-255.080242 32.498241-276.23505 81.152751-13.927818 81.152751-13.927817z" fill="#5377C4" p-id="8319"></path><path d="M950.51165 204.629833v55.788647s-9.362589 7.954331-25.843839 6.99486c-15.243223-0.882095-17.672853-6.406796-17.672853-6.406796L900.665538 232.083109l49.815161-27.453276" fill="#A55B3A" p-id="8320"></path><path d="M905.927158 256.131807a65.677398 65.677398 0 0 0 16.88361-10.08993 48.809263 48.809263 0 0 0 16.450301-23.213029l-33.426763 6.36037-5.168768 2.893891 5.23067 24.048698" fill="#8E4A2F" p-id="8321"></path><path d="M863.927051 172.178018h28.319895v1.547535h-28.319895z" fill="#21170C" p-id="8322"></path><path d="M872.361118 133.071801s-4.812835 11.885071-4.812835 22.284508c0 8.372166 3.373627 24.187977 3.373627 24.187977l19.266814-49.180672z" fill="#21170C" p-id="8323"></path><path d="M873.521769 227.254799c15.243223 32.049456 53.04951 13.107624 69.236729-3.095071s13.927818-77.902926 9.470916-89.602293-41.907256-21.185758-61.63833-13.633786-32.297061 74.281694-17.022889 106.284724" fill="#A55B3A" p-id="8324"></path><path d="M867.563759 204.676259a73.244845 73.244845 0 0 0 5.95801 22.57854C879.572632 240.00649 889.198302 244.649096 899.613214 244.649096c-10.414912 0-20.117959-4.642606-26.10692-17.425248a73.353173 73.353173 0 0 1-5.958011-22.57854" fill="#DDDCDA" p-id="8325"></path><path d="M955.138781 179.544286h-17.022889s-11.297008 29.635301-21.015529 32.498241a8.681673 8.681673 0 0 1-2.383204 0.324982c-8.078134 0-18.84898-9.826849-32.420864-10.399437h-3.420053c-5.803257 0-8.403117 0.86662-11.281533 2.801039a73.353173 73.353173 0 0 0 5.958011 22.57854C879.588108 240.00649 889.213777 244.649096 899.62869 244.649096c15.769385 0 33.364861-10.739895 43.114333-20.473892 7.830529-7.737676 11.343434-26.3081 12.380282-44.661869" fill="#915033" p-id="8326"></path><path d="M950.047389 183.45955A20.504843 20.504843 0 0 1 931.616244 160.494127c0.86662-6.948433 2.909366-9.176884 1.09875-15.75391-3.590282-13.107624-19.31324-11.885071-29.929332-6.994859s-22.238082 4.874736-31.33759-2.027271a16.68243 16.68243 0 0 1-3.899789-21.959526c5.92706-9.548293 26.927114-21.015529 26.927114-21.015529s-2.553433 5.725881-1.702289 8.697148 56.670742-13.788539 68.091553 11.049402-3.822412 71.619933-3.822412 71.619933z" fill="#21170C" p-id="8327"></path><path d="M959.858763 183.800008c0 8.263838-10.987501 15.599156-17.734754 15.599156s-6.685352-7.335317-6.685353-15.599156S940.901456 168.819866 947.64871 168.819866s12.210053 6.716303 12.210053 14.980142z" fill="#A55B3A" p-id="8328"></path><path d="M954.829274 183.057191c0.789243 3.698609-3.435528 8.016233-6.453223 8.666198s3.466479-4.425951 2.692712-8.124561-6.190141-5.447324-3.095071-6.081813 6.066338 1.841567 6.855582 5.540176z" fill="#8E4A2F" p-id="8329"></path><path d="M874.357438 190.48536c-6.190141 0-11.266057-6.546074-11.266056-14.577782s5.06044-14.562307 11.266056-14.562307 11.281532 6.530599 11.281533 14.562307S880.640432 190.48536 874.357438 190.48536z m0-27.592554c-5.354472 0-9.718522 5.834208-9.718521 13.014772S869.064868 188.937825 874.357438 188.937825s9.733997-5.849683 9.733997-13.030247-4.302148-12.983821-9.733997-12.983821zM900.665538 190.48536c-6.190141 0-11.281532-6.546074-11.281532-14.577782s5.06044-14.562307 11.281532-14.562307 11.281532 6.530599 11.281533 14.562307S906.85568 190.48536 900.665538 190.48536z m0-27.592554c-5.369947 0-9.733997 5.834208-9.733997 13.014772S895.326542 188.937825 900.665538 188.937825s9.733997-5.849683 9.733997-13.030247-4.348574-12.983821-9.733997-12.983821z" fill="#21170C" p-id="8330"></path><path d="M910.941173 172.178018h26.153346v1.547535h-26.153346zM884.927105 172.178018h5.246144v1.547535h-5.246144z" fill="#21170C" p-id="8331"></path><path d="M879.263125 212.150855h25.952167s-5.26162 11.219631-14.02067 11.544613-11.931497-11.544613-11.931497-11.544613z" fill="#FFFFFF" p-id="8332"></path><path d="M868.585132 212.59964H908.403215s-0.619014-8.279314-7.474596-11.529138-14.299226 0.820194-16.651479 0.696391-8.743574-4.302148-12.380283-2.460581-3.311726 13.293328-3.311725 13.293328z" fill="#21170C" p-id="8333"></path><path d="M247.466368 857.364743h-19.529895l64.779827-361.287589h19.529895l-64.779827 361.287589z" fill="#204A99" p-id="8334"></path><path d="M1023.323185 547.532702l1.547536-16.605053-98.191114-3.095071a208.158972 208.158972 0 0 0-21.402413-1.176127l52.476921 57.258806h25.797414a39.988312 39.988312 0 0 0 39.771656-36.382555z" fill="#4871B3" p-id="8335"></path><path d="M236.262213 857.364743h-19.529896l64.795303-361.287589h19.529895l-64.795302 361.287589zM481.175148 857.364743h19.529895l-64.795303-361.287589h-19.529895l64.795303 361.287589z" fill="#A9C2DC" p-id="8336"></path><path d="M471.982788 857.364743h19.529895l-64.795302-361.287589h-19.529896l64.795303 361.287589zM912.767264 857.364743H893.237369l64.795303-361.287589h19.529895l-64.795303 361.287589z" fill="#204A99" p-id="8337"></path><path d="M901.578584 857.364743h-19.529895l64.779827-361.287589h19.529895l-64.779827 361.287589z" fill="#A9C2DC" p-id="8338"></path><path d="M882.048689 477.398403h291.61755v18.678751H882.048689z" fill="#5377C4" p-id="8339"></path><path d="M882.048689 486.730041h291.61755v9.331638H882.048689z" fill="#204A99" p-id="8340"></path><path d="M1154.120868 857.364743h19.529895l-64.779827-361.287589h-19.529895l64.779827 361.287589z" fill="#A9C2DC" p-id="8341"></path><path d="M1144.943984 857.364743h19.529895L1099.678577 496.077154h-19.529896l64.795303 361.287589z" fill="#204A99" p-id="8342"></path><path d="M635.975103 468.175093h57.846869v9.254261h-57.846869z" fill="#5377C4" p-id="8343"></path><path d="M216.732317 477.429354h665.22352v18.678751H216.732317z" fill="#FFFFFF" p-id="8344"></path><path d="M216.732317 486.760992h665.22352v9.331637H216.732317zM777.388877 451.245057h-267.723605a11.544613 11.544613 0 0 1-11.560088-11.560089v-188.644552a11.544613 11.544613 0 0 1 11.560088-11.560088h267.723605z" fill="#A9C2DC" p-id="8345"></path><path d="M777.388877 451.245057a8.511444 8.511444 0 0 1-8.511444-8.511444V247.991772a8.511444 8.511444 0 0 1 8.511444-8.511444z" fill="#5377C4" p-id="8346"></path><path d="M641.979539 477.429354H576.456895l24.249878-140.09837h65.522644l-24.249878 140.09837z" fill="#A9C2DC" p-id="8347"></path><path d="M666.229417 337.330984v114.811643h-19.870353l19.870353-114.811643z" fill="#5377C4" p-id="8348"></path><path d="M646.467392 304.430384c0 8.697148-5.292571 15.753909-11.82317 15.753909s-11.807694-7.056761-11.807694-15.753909 5.292571-15.753909 11.807694-15.753909 11.82317 7.041286 11.82317 15.753909z" fill="#FFFFFF" p-id="8349"></path><path d="M810.939442 477.429354h31.445917l5.400899-62.24187h-42.263189l5.416373 62.24187z" fill="#F0F1F4" p-id="8350"></path><path d="M814.916608 474.334283h23.47611l2.909367-33.411287a16.465775 16.465775 0 0 0-9.749473-0.216655c-6.484173 1.29993-9.501867-0.727342-14.376602-2.22845-2.058222-0.649965-4.425951 1.918944-5.292571 0.974947 1.346356 15.506304 1.686813 19.375142 3.033169 34.881445z" fill="#5377C4" p-id="8351"></path><path d="M438.416747 162.273792l-2.940317 25.271251s-3.466479 5.849683-21.773821 5.849684a34.138628 34.138628 0 0 1-15.305124-3.342676V145.467559z" fill="#FBAD83" p-id="8352"></path><path d="M438.416747 162.273792L436.404952 179.652613a33.891023 33.891023 0 0 1-9.981603-0.758292c-4.302148-0.990423-16.620529-13.726638-24.420107-31.941128z" fill="#E68D5C" p-id="8353"></path><path d="M462.001185 81.92576s4.271197 42.356041-1.686813 62.860883-24.528434 29.186516-40.932309 25.41053c-6.081814-1.392782-28.118716-26.153346-30.950705-56.748119s-0.123803-39.833558 4.85926-46.286781 50.202045-14.531356 58.403982-7.45912 10.306585 22.222607 10.306585 22.222607z" fill="#FBAD83" p-id="8354"></path><path d="M447.516255 80.3937s13.927818 19.576321 17.332395 20.117959 3.884314-12.380282 3.017694-24.141551c-1.377306-18.462096-14.221849-26.648558-14.221849-26.648557z" fill="#F76A00" p-id="8355"></path><path d="M460.701256 64.887396s-4.178345 22.826146-12.813593 36.475407S406.522045 110.013525 400.81164 110.462311s0.835669 46.302256 4.967588 61.60738-25.64266 10.832747-35.144526 8.681673-14.48493-82.684811-2.073697-113.914073 63.681077-30.006709 77.748172-23.213029a25.87479 25.87479 0 0 1 14.392079 21.263134z" fill="#F76A00" p-id="8356"></path><path d="M370.54185 180.751364c9.517342 2.073697 39.291921 6.623451 35.160001-8.681673a290.008113 290.008113 0 0 1-6.963908-44.878524l-37.450354-14.608733c-1.160651 32.482766 3.095071 66.838049 9.254261 68.16893z" fill="#E56107" p-id="8357"></path><path d="M386.620741 135.965692c0 6.019912 8.000757 11.374384 12.906445 11.374385s4.874736-5.354472 4.874736-11.374385-3.992641-10.832747-8.898328-10.832747-8.882853 4.812835-8.882853 10.832747z" fill="#FBAD83" p-id="8358"></path><path d="M390.474104 133.303932c0.572588-2.940317 5.014014-4.812835 7.412694-4.333099s-3.899789 2.151074-4.472377 5.106866 2.785564 5.880634 0.386884 5.416374-3.822412-3.172447-3.327201-6.190141z" fill="#E68D5C" p-id="8359"></path><path d="M424.984141 122.161677a1.547535 1.547535 0 0 1-1.299929-0.69639 1.547535 1.547535 0 0 1 0.448785-2.135599l10.198257-6.623451a1.547535 1.547535 0 0 1 1.238029-0.20118l7.536496 1.980845a1.547535 1.547535 0 1 1-0.773767 2.986744l-6.886532-1.795141-9.62567 6.190141a1.547535 1.547535 0 0 1-0.835669 0.294031zM466.736643 119.453491a1.547535 1.547535 0 0 1-0.835669-0.247606l-5.431849-3.52838-6.886532 1.795141a1.547535 1.547535 0 0 1-0.789243-2.986744l7.551973-1.980845a1.547535 1.547535 0 0 1 1.222552 0.20118l6.019913 3.899789a1.547535 1.547535 0 0 1 0.448785 2.135598 1.547535 1.547535 0 0 1-1.29993 0.711867z" fill="#F76A00" p-id="8360"></path><path d="M398.397485 182.252473a18.895406 18.895406 0 0 1-4.952113-37.140847 0.773768 0.773768 0 1 1 0.402359 1.547535 17.347871 17.347871 0 1 0 4.549754-0.603539 0.773768 0.773768 0 0 1-0.773768-0.773767 0.773768 0.773768 0 0 1 0.773768-0.773768 18.895406 18.895406 0 0 1 0 37.790812z" fill="#FFFFFF" p-id="8361"></path><path d="M303.316917 423.652503s56.515989 23.44516 94.647258 29.232941L357.681831 208.90103z" fill="#EDB607" p-id="8362"></path><path d="M847.786258 817.237153l-3.218874 40.12759h-71.434229a19.297765 19.297765 0 0 1 13.076673-18.260917l25.673611-8.712623 3.667658-21.278611z" fill="#5377C4" p-id="8363"></path><path d="M858.63448 474.334283s-15.475353 2.83199-25.286727 1.408257-19.467994-5.772307-21.464314-16.945511 3.420053-13.231427 6.515123-14.005194 26.3081 6.453222 26.3081 6.453222l0.882095-10.012554a10.631567 10.631567 0 0 1 4.302149 5.075916c1.841567 3.899789 3.311726 7.087712 3.311725 7.087712z" fill="#A55B3A" p-id="8364"></path><path d="M970.768887 323.913853l34.045776 118.309073-151.240623 9.022131s-3.977166 14.964666 0 26.184297h165.276768a25.967642 25.967642 0 0 0 25.828364-28.70678c-5.400898-51.471024-17.022888-154.645201-23.367782-160.015149a41.102537 41.102537 0 0 0-35.06715-7.92338c-4.240247 1.005898-7.737676 4.441426-10.554191 8.666197a41.504896 41.504896 0 0 0-4.921162 34.463611z" fill="#60D6E6" p-id="8365"></path><path d="M407.187485 449.960602a46.193928 46.193928 0 0 1 4.983064 6.685353c2.568909 4.147395 38.688382 11.62199 42.294139 13.432606s4.070018 7.350793 4.070018 7.350793h-50.88296a19.731075 19.731075 0 0 1-19.545371-17.022888l-1.470158-10.49229z" fill="#FBAD83" p-id="8366"></path><path d="M365.434983 201.550238a15.908663 15.908663 0 0 0-15.58368 15.397976c-1.052324 30.068611-3.311726 99.042259-2.39868 113.403386 1.160651 18.570423 38.286023 125.056327 38.286023 125.056327a29.728153 29.728153 0 0 0 16.821709 0l8.341215-2.801039s-24.404632-113.743844-25.162924-122.255288 7.567448-103.684864 5.137817-118.773334c-1.377306-8.712624-14.500406-10.260159-25.44148-10.028028z" fill="#F9C200" p-id="8367"></path><path d="M1106.271077 657.841018h-22.269033a41.164439 41.164439 0 0 0-41.179914 41.179914v105.2324a41.164439 41.164439 0 0 0 41.179914 41.179914h25.039121v-13.927818h-25.039121a27.267572 27.267572 0 0 1-27.283047-27.283047v-105.2324A27.283047 27.283047 0 0 1 1084.002044 671.768835h22.269033z" fill="#204A99" p-id="8368"></path><path d="M1142.854811 621.442988m10.569666 0l22.81067 0q10.569666 0 10.569666 10.569666l0 27.019966q0 10.569666-10.569666 10.569666l-22.81067 0q-10.569666 0-10.569666-10.569666l0-27.019966q0-10.569666 10.569666-10.569666Z" fill="#204A99" p-id="8369"></path><path d="M1150.778192 621.442988m10.569666 0l22.81067 0q10.569666 0 10.569666 10.569666l0 27.019966q0 10.569666-10.569666 10.569666l-22.81067 0q-10.569666 0-10.569666-10.569666l0-27.019966q0-10.569666 10.569666-10.569666Z" fill="#0CBFD1" p-id="8370"></path><path d="M1072.921691 640.214591m18.570424 0l107.352523 0q18.570423 0 18.570423 18.570423l0 179.746224q0 18.570423-18.570423 18.570424l-107.352523 0q-18.570423 0-18.570424-18.570424l0-179.746224q0-18.570423 18.570424-18.570423Z" fill="#5377C4" p-id="8371"></path><path d="M1106.271077 640.214591m18.570423 0l107.352523 0q18.570423 0 18.570424 18.570423l0 179.746224q0 18.570423-18.570424 18.570424l-107.352523 0q-18.570423 0-18.570423-18.570424l0-179.746224q0-18.570423 18.570423-18.570423Z" fill="#60D6E6" p-id="8372"></path><path d="M1124.8415 857.101662h107.352523a18.570423 18.570423 0 0 0 18.570424-18.570424V765.39472l-144.49337 49.691359v23.445159a18.570423 18.570423 0 0 0 18.570423 18.570424z" fill="#0CBFD1" p-id="8373"></path><path d="M1217.910273 841.440605h-78.9243a18.570423 18.570423 0 0 1-18.570424-18.570424v-111.345164h97.494724a18.570423 18.570423 0 0 1 18.570423 18.570424v92.77474a18.570423 18.570423 0 0 1-18.570423 18.570424z" fill="#204A99" p-id="8374"></path><path d="M1224.208741 841.440605h-78.924299a18.570423 18.570423 0 0 1-18.570424-18.570424v-111.345164h116.065147v111.345164a18.570423 18.570423 0 0 1-18.570424 18.570424z" fill="#5377C4" p-id="8375"></path><path d="M1120.508402 656.185155m10.569666 0l94.879388 0q10.569666 0 10.569666 10.569666l0 27.019966q0 10.569666-10.569666 10.569666l-94.879388 0q-10.569666 0-10.569666-10.569666l0-27.019966q0-10.569666 10.569666-10.569666Z" fill="#204A99" p-id="8376"></path><path d="M1126.760444 656.185155m10.569666 0l94.879389 0q10.569666 0 10.569666 10.569666l0 27.019966q0 10.569666-10.569666 10.569666l-94.879389 0q-10.569666 0-10.569666-10.569666l0-27.019966q0-10.569666 10.569666-10.569666Z" fill="#5377C4" p-id="8377"></path><path d="M241.63216 652.625824L273.43401 859.020605h9.316163l-12.194578-206.394781h-28.923435z" fill="#204A99" p-id="8378"></path><path d="M254.074344 652.625824L279.175366 859.020605h9.316163l-12.194578-206.394781h-22.222607zM393.135865 652.625824L424.92224 859.020605h9.316162l-12.179103-206.394781h-28.923434z" fill="#204A99" p-id="8379"></path><path d="M405.562573 652.625824L430.663596 859.020605h9.316162l-12.179103-206.394781h-22.238082z" fill="#A9C2DC" p-id="8380"></path><path d="M250.901896 652.625824L219.115522 859.020605h-9.331638l12.194578-206.394781h28.923434z" fill="#204A99" p-id="8381"></path><path d="M98.608949 432.040144h137.529461a53.637573 53.637573 0 0 1 53.637573 53.637573 53.637573 53.637573 0 0 0 53.637573 53.637573h50.821059a53.637573 53.637573 0 0 1 53.637573 53.637573v59.657486H52.6162V478.079319a46.05465 46.05465 0 0 1 45.992749-46.039175z" fill="#60D6E6" p-id="8382"></path><path d="M238.475188 652.625824L213.374166 859.020605h-9.316163l12.194578-206.394781h22.222607z" fill="#A9C2DC" p-id="8383"></path><path d="M99.413667 652.625824L67.627292 859.020605h-9.331638l12.194578-206.394781h28.923435z" fill="#204A99" p-id="8384"></path><path d="M86.986959 652.625824L61.885936 859.020605h-9.331638l12.194579-206.394781h22.238082z" fill="#A9C2DC" p-id="8385"></path><path d="M0 856.590975h1389.083151v1.547535H0z" fill="#FFFFFF" p-id="8386"></path><path d="M52.554298 652.625824V526.764779l395.31789 91.490286v34.370759H52.554298z" fill="#0CBFD1" p-id="8387"></path><path d="M1126.760444 790.402891v32.498241a18.570423 18.570423 0 0 0 18.570424 18.570423h78.924299a18.570423 18.570423 0 0 0 18.570424-18.570423v-75.473296z" fill="#4871B3" p-id="8388"></path></svg>