<?xml version="1.0" standalone="no"?><!DOCTYPE svg PUBLIC "-//W3C//DTD SVG 1.1//EN" "http://www.w3.org/Graphics/SVG/1.1/DTD/svg11.dtd"><svg t="1689734777558" class="icon" viewBox="0 0 1411 1024" version="1.1" xmlns="http://www.w3.org/2000/svg" p-id="8530" xmlns:xlink="http://www.w3.org/1999/xlink" width="275.5859375" height="200"><path d="M632.932455 728.100181v190.84838H403.002967l-6.80615-173.882326 236.735638-16.966054z" fill="#303763" p-id="8531"></path><path d="M365.677648 282.109968l-41.014449 222.926059-141.528455 10.258544s-7.180981 19.037491-3.590491 34.563403l3.590491 15.525912s156.423072 2.781644 181.832697-5.523831 25.291257-210.438254 24.837514-232.651948S365.677648 282.109968 365.677648 282.109968zM595.252033 269.918083l109.687512 91.103764 200.870188-36.477016s13.178284 26.159288 14.164682 35.885177l0.986399 9.745617s-198.108273 60.643779-223.833545 59.420645-121.484838-79.464262-121.484838-79.464262z" fill="#5377C4" p-id="8532"></path><path d="M445.852117 247.763573L365.677648 282.109968 370.885832 758.757446s154.055716 30.459985 214.817863 14.736794l60.762147-15.782376-43.204254-474.280122a18.46538 18.46538 0 0 0-13.809579-16.176935l-71.573074-18.544292z" fill="#5377C4" p-id="8533"></path><path d="M364.967441 357.845644l4.340153 400.911802s122.214773 24.166763 191.874235 18.327284z" fill="#4871B3" p-id="8534"></path><path d="M741.120641 459.148769l-10.455824 112.469156-88.184025 162.696567 27.934805 13.809578 119.117482-165.28093 4.08369-128.527724-52.496128 4.833353z" fill="#E68D5C" p-id="8535"></path><path d="M965.624937 819.125034s4.340153 40.560706 4.340154 59.637652-8.344931 47.662775-8.344931 47.662775h-142.574038l10.337456-120.024968z" fill="#5377C4" p-id="8536"></path><path d="M732.026047 456.99842S744.316572 380.749817 767.418025 359.463338c16.571495-15.308905 32.728702-14.874889 44.0131-12.310254s21.700767 41.330097 10.712288 93.609217c-7.555812 36.240281-8.542211 40.047779-8.542211 40.047779s-59.460101 1.992525-81.575155-23.81166z" fill="#0CBFD1" p-id="8537"></path><path d="M891.309675 324.465919l93.116018 41.527377-17.10415 457.116788H741.120641L761.499634 374.476323a25.646361 25.646361 0 0 1 12.92182-21.0892l49.319925-27.993989z" fill="#60D6E6" p-id="8538"></path><path d="M409.671021 563.924016l19.727969 195.800101 211.089277 89.68335s15.782376 18.583748 0 42.868879l-237.4853-69.166262z" fill="#E2E2E2" p-id="8539"></path><path d="M272.245983 519.555812l-71.967634 27.737526A32.314415 32.314415 0 0 0 179.524525 578.46353l11.106847 350.546295h224.898856l-5.484376-359.818441A40.343698 40.343698 0 0 0 382.722614 531.589874l-47.781143-16.275575z" fill="#F0F1F4" p-id="8540"></path><path d="M1180.896544 309.275382h1.972797V933.132971h-1.972797zM1208.732709 369.662698h1.972797v548.851848h-1.972797zM1198.868724 482.723693h1.972797v453.980041h-1.972797zM1148.503217 580.811159h1.972797v355.892575h-1.972797zM1225.639579 680.930605h1.972797v252.182638h-1.972797z" fill="#5377C4" p-id="8541"></path><path d="M1137.297731 438.53304c33.537549-16.926598 71.336339-9.311602 84.672446 17.025238s-2.959195 61.31453-36.319193 78.32004-104.36096 80.253381-117.697067 54.015182 35.924633-132.433861 69.343814-149.36046zM1098.177166 775.407853c28.684468-30.913729 77.945209-31.880399 110.042616-2.110893s34.819867 78.911879 6.135399 109.865064-72.362193 131.408007-104.439873 101.658228-40.42261-178.478943-11.738142-209.412399z" fill="#5377C4" p-id="8542"></path><path d="M1072.49135 589.392825c38.923284-26.356568 87.315994-22.884445 108.069818 7.772821s6.056487 76.939082-32.847069 103.236466-117.065773 116.395022-137.839325 85.757484 23.71302-170.410203 62.616576-196.766771z" fill="#00C99C" p-id="8543"></path><path d="M1072.49135 589.392825c-36.615112 24.798058-78.162216 149.93257-65.615228 190.236813 33.794012-102.171156 55.751243-132.394405 90.748661-169.522444A170.607483 170.607483 0 0 1 1146.451508 574.083921c-22.470158-5.819751-50.010403-0.907487-73.960158 15.308904z" fill="#00B98F" p-id="8544"></path><path d="M1296.127615 464.554233c-44.664124-14.67761-90.235734 1.972797-101.776596 37.128039s15.269449 75.59758 59.933572 90.255462 144.527107 79.799638 156.067969 44.624667-69.580549-157.350287-114.224945-172.008168z" fill="#00C99C" p-id="8545"></path><path d="M1296.127615 464.534505c42.020576 13.809579 116.395022 122.786884 115.329712 164.906099-60.545139-88.953416-89.959542-111.995685-133.814819-138.095788a170.548299 170.548299 0 0 0-56.856009-21.28648c20.102801-11.698686 47.860055-14.539514 75.341116-5.523831z" fill="#00B98F" p-id="8546"></path><path d="M182.168073 660.452973l8.502755 268.556852h224.898856l-2.130621-65.615227-186.113667-101.83578 16.847686-135.116865-62.005009 34.01102z" fill="#E2E2E2" p-id="8547"></path><path d="M1242.112434 328.92444c-28.802836 12.112973-44.40766 40.304242-34.879051 62.97168s40.600162 31.268832 69.38327 19.155859 107.260972-22.923901 97.732363-45.611067-103.453474-48.609718-132.236582-36.516472z" fill="#00C99C" p-id="8548"></path><path d="M1180.718992 260.9024c17.991908 12.349709 24.67969 33.853196 14.934073 48.017879s-32.196047 15.624552-50.168227 3.274843-70.113205-30.894001-60.446499-45.038955 77.708473-18.583748 95.680653-6.253767z" fill="#5377C4" p-id="8549"></path><path d="M1242.112434 328.92444c27.086503-11.383039 111.837861 10.909567 129.691673 32.472239-69.047894-18.248372-93.924864-16.985782-127.284861-10.968752a114.165761 114.165761 0 0 0-37.79879 14.085771c4.95172-14.598698 17.676261-28.132085 35.391978-35.589258z" fill="#00B98F" p-id="8550"></path><path d="M0 908.867568h1367.79933v20.142257H0z" fill="#A9C2DC" p-id="8551"></path><path d="M0 929.009825h1367.79933v10.080993H0z" fill="#5377C4" p-id="8552"></path><path d="M1080.639001 825.319616c40.817169-23.31846 88.775864-16.176935 107.162332 15.979656s0.19728 77.116634-40.600162 100.435094-125.588256 107.162332-144.014179 74.966285 36.654568-168.042847 77.452009-191.381035z" fill="#00C99C" p-id="8553"></path><path d="M1080.639001 825.319616c-38.390629 21.95723-89.328247 143.639348-79.898277 184.693253 41.428737-99.290872 65.654683-127.77806 103.374561-162.124455a171.21905 171.21905 0 0 1 51.430818-32.274959c-21.976958-7.437445-49.793396-4.655801-74.907102 9.706161z" fill="#00B98F" p-id="8554"></path><path d="M1332.03252 698.725234c-51.825377-35.510346-120.557623-35.510346-153.523061 0.157824s-17.755173 93.352753 34.149116 128.902554 151.49108 152.280199 184.456518 116.651486-13.257196-210.162062-65.082573-245.711864z" fill="#00C99C" p-id="8555"></path><path d="M1332.052248 698.725234c48.767541 33.537549 92.563634 189.940893 70.093477 237.9785-35.510346-127.67942-63.011136-166.504065-108.050091-214.857319a231.330174 231.330174 0 0 0-64.668285-48.274342c32.432782-5.109544 70.64586 3.274843 102.624899 25.153161z" fill="#00B98F" p-id="8556"></path><path d="M371.438215 850.729241s39.45594 11.343583 59.677109 17.755173 32.787886 16.512311 31.801487 19.964706-2.465996 4.18233-2.465996 4.182329h-82.364274l-34.523947-19.846337z" fill="#FBAD83" p-id="8557"></path><path d="M184.772165 559.860055s-74.966285 184.870805-59.183909 242.358109S370.885832 892.276346 370.885832 892.276346s6.687782-16.768774 7.891188-29.591955l1.282318-12.82318L179.524525 780.77386s64.471005-129.928409 68.002312-171.633337-62.754672-49.280469-62.754672-49.280468z" fill="#F0F1F4" p-id="8558"></path><path d="M516.123146 892.631449h308.387623a12.251069 12.251069 0 0 0 12.25107-12.251069V665.661157a12.251069 12.251069 0 0 0-12.25107-12.25107H516.123146z" fill="#A9C2DC" p-id="8559"></path><path d="M512.09864 892.631449h4.971448a10.968751 10.968751 0 0 0 10.949023-10.949023V664.359111a10.968751 10.968751 0 0 0-10.949023-10.949024h-4.971448z" fill="#204A99" p-id="8560"></path><path d="M659.782222 773.020768c0 13.809579 8.364659 24.896698 18.682387 24.896698s18.662659-11.146303 18.66266-24.896698-8.364659-24.896698-18.66266-24.896698-18.682387 11.146303-18.682387 24.896698z" fill="#FFFFFF" p-id="8561"></path><path d="M335.592494 892.631449h176.486418v16.236119h-176.486418z" fill="#204A99" p-id="8562"></path><path d="M512.09864 892.631449h314.404654v16.236119H512.09864z" fill="#5377C4" p-id="8563"></path><path d="M967.104535 823.110084l14.598698-390.357339-38.035526-8.778946-90.058182 399.136285h113.49501z" fill="#0CBFD1" p-id="8564"></path><path d="M272.245983 519.555812s16.946326 30.815089 42.928062 30.32189 19.82661-34.563403 19.82661-34.563403z" fill="#FFFFFF" p-id="8565"></path><path d="M381.874311 360.351096s12.981004 105.150079 7.891188 125.706624-57.211112 16.374215-83.074481 14.28305-39.633491 1.400686-50.957346-4.912265 9.42997-72.086002 9.42997-72.086001z" fill="#F9C200" p-id="8566"></path><path d="M355.320464 506.042153a31.564752 31.564752 0 0 1-8.285747-62.202289 0.986398 0.986398 0 0 1 1.203406 0.690479 1.006126 1.006126 0 0 1-0.690479 1.223134 29.591955 29.591955 0 1 0 7.77282-1.045582 0.986398 0.986398 0 0 1-0.986399-0.986398 1.006126 1.006126 0 0 1 0.986399-0.986399 31.564752 31.564752 0 0 1 0 63.307055z" fill="#FFFFFF" p-id="8567"></path><path d="M339.91292 472.563788l-4.971449 42.750511s-5.918391 9.863985-36.851847 9.863985a57.42812 57.42812 0 0 1-25.843641-5.622472v-75.439756z" fill="#FBAD83" p-id="8568"></path><path d="M339.91292 472.563788l-3.412939 29.414403a56.520633 56.520633 0 0 1-16.887142-1.26259c-7.299349-1.676877-28.151813-23.21982-41.428737-54.074365z" fill="#E68D5C" p-id="8569"></path><path d="M379.84233 336.578893s7.220437 71.671714-2.860555 106.373213-41.428737 49.319924-69.225446 43.026702c-10.298-2.367356-47.583863-44.289292-52.298848-96.075213s-0.217008-67.390745 8.206835-78.339768 84.968366-24.58105 98.876585-12.606173 17.30143 37.621238 17.301429 37.621239z" fill="#FBAD83" p-id="8570"></path><path d="M355.320464 333.955073S378.77702 367.098062 384.695411 368.064732s6.569414-21.049744 5.109544-40.856625C387.417871 295.919547 365.677648 282.109968 365.677648 282.109968z" fill="#F9C200" p-id="8571"></path><path d="M377.632798 307.756329s-7.003429 38.627365-21.700767 61.728817-69.876469 14.67761-79.740454 15.368089 1.400686 78.379224 8.404115 104.282048-43.401534 18.189188-59.499557 14.697338-24.502138-139.950218-3.49185-192.801449 107.773899-50.799522 131.56583-39.219204a43.756637 43.756637 0 0 1 24.462683 35.944361z" fill="#F9C200" p-id="8572"></path><path d="M252.241822 428.096944c0 10.179632 13.553115 19.234771 21.85859 19.234771s8.246291-9.055138 8.246292-19.234771-6.746966-18.445652-15.052441-18.445651-15.052441 8.187107-15.052441 18.445651z" fill="#FBAD83" p-id="8573"></path><path d="M258.791508 423.539783c0.966671-5.010904 8.463299-8.147652 12.527261-7.358532s-6.60887 3.649674-7.575541 8.64085 4.734713 9.982353 0.670751 9.193234-6.589142-5.484376-5.622471-10.475552z" fill="#E68D5C" p-id="8574"></path><path d="M317.16657 404.028821a1.972797 1.972797 0 0 1-1.06531-3.629946l17.261974-11.185759a1.972797 1.972797 0 0 1 1.558509-0.256464l12.783725 3.334027a1.972797 1.972797 0 0 1-1.006127 3.827226l-11.935422-3.117019-16.532038 10.712288a1.972797 1.972797 0 0 1-1.065311 0.315647zM387.851886 399.432204a1.972797 1.972797 0 0 1-1.06531-0.315647l-9.449698-6.115671-11.836782 3.117019a1.972797 1.972797 0 0 1-1.006126-3.827226l12.783724-3.334027a1.972797 1.972797 0 0 1 1.55851 0.256464l10.179632 6.589142a1.972797 1.972797 0 0 1-1.085038 3.629946z" fill="#F76A00" p-id="8575"></path><path d="M272.245983 506.042153a31.564752 31.564752 0 0 1-8.364659-62.162833 0.986398 0.986398 0 0 1 0.532655 1.972797 29.591955 29.591955 0 1 0 7.77282-1.045582 0.986398 0.986398 0 0 1-0.986398-0.986399 0.986398 0.986398 0 0 1 0.986398-0.986398 31.564752 31.564752 0 0 1 0 63.307055z" fill="#FFFFFF" p-id="8576"></path><path d="M891.309675 237.899588v86.566331s-14.539514 12.349709-40.106962 10.870112c-23.673564-1.36123-27.421878-9.863985-27.421878-9.863985l-9.863985-44.90086 77.313913-42.592686" fill="#FBAD83" p-id="8577"></path><path d="M822.123685 317.817593a102.092244 102.092244 0 0 0 26.179016-15.64428A75.854044 75.854044 0 0 0 873.949062 266.327592l-51.884561 9.863985-7.891188 4.379609 8.127924 37.325319" fill="#E68D5C" p-id="8578"></path><path d="M756.942473 187.751089h43.934189v1.972796h-43.934189z" fill="#21170C" p-id="8579"></path><path d="M770.022117 126.850846s-7.457173 18.445652-7.457173 34.583131c0 13.000732 5.24764 37.483143 5.24764 37.483142l29.887875-76.307787z" fill="#7A4029" p-id="8580"></path><path d="M771.83709 273.015374c23.673564 49.714484 82.30509 20.339537 107.438524-4.734713s21.700767-120.892999 14.697337-139.042731-65.1023-32.866798-95.641197-21.168111-50.128771 115.211344-26.494664 164.945555" fill="#FBAD83" p-id="8581"></path><path d="M762.584672 237.9785a113.69229 113.69229 0 0 0 9.252418 35.036874c9.410242 19.72797 24.344315 27.027319 40.52125 27.027319-16.157207 0-31.111008-7.259893-40.501522-27.027319a113.69229 113.69229 0 0 1-9.252418-35.036874" fill="#D7C5BE" p-id="8582"></path><path d="M898.470928 198.976303H871.976265s-17.538165 45.985898-32.590606 50.404963a13.809579 13.809579 0 0 1-3.708859 0.493199c-12.546989 0-29.236851-15.229993-50.306323-16.117751-1.972797 0-3.708858-0.138096-5.306823-0.138096-9.015682 0-13.059916 1.341502-17.518438 4.359882a113.69229 113.69229 0 0 0 9.252418 35.036874c9.390514 19.72797 24.344315 27.027319 40.501522 27.027319 24.482411 0 51.785921-16.650407 66.917274-31.762032 12.152429-12.132701 17.617077-40.836897 19.215042-69.304358" fill="#D48C68" p-id="8583"></path><path d="M890.57974 205.052518a31.821215 31.821215 0 0 1-28.645012-35.648441c1.341502-10.771472 4.517705-14.223866 1.716334-24.423227-5.484376-20.359265-29.986514-18.445652-46.439641-10.830655s-34.425307 7.57554-48.58999-3.136748c-6.746966-5.089816-15.229993-19.274226-6.056487-34.089931s41.803568-32.610334 41.803568-32.610334-3.945594 8.897314-2.643548 13.513659S889.731438 56.382538 907.48661 94.911263s-5.918391 111.147382-5.918391 111.147381z" fill="#7A4029" p-id="8584"></path><path d="M905.809733 205.565445c0 12.82318-17.044966 24.206219-27.50079 24.206219S868.030671 218.388626 868.030671 205.565445s8.483027-23.21982 18.938851-23.21982 18.840211 10.39664 18.840211 23.21982z" fill="#FBAD83" p-id="8585"></path><path d="M897.997457 204.421223c1.203406 5.740839-5.34628 12.448349-10.021809 13.434747s5.385736-6.845606 4.162602-12.586444-9.508881-8.463299-4.833353-9.449698 9.469425 2.860556 10.69256 8.601395z" fill="#E68D5C" p-id="8586"></path><path d="M773.336416 215.784534c-9.528609 0-17.281702-10.041537-17.281702-22.391246s7.753092-22.391246 17.281702-22.391246 17.281702 10.041537 17.281701 22.391246-7.851732 22.391246-17.281701 22.391246z m0-42.809695c-8.443571 0-15.308905 9.153778-15.308905 20.418449s6.865333 20.418449 15.308905 20.418449 15.308905-9.173506 15.308904-20.418449-6.963973-20.418449-15.308904-20.418449zM813.995762 215.784534c-9.528609 0-17.281702-10.041537-17.281702-22.391246s7.753092-22.391246 17.281702-22.391246 17.281702 10.041537 17.281701 22.391246-7.753092 22.391246-17.281701 22.391246z m0-42.809695c-8.443571 0-15.308905 9.153778-15.308905 20.418449s6.865333 20.418449 15.308905 20.418449 15.308905-9.173506 15.308904-20.418449-6.865333-20.418449-15.308904-20.418449z" fill="#21170C" p-id="8587"></path><path d="M829.896505 187.751089h40.580434v1.972796h-40.580434zM789.533079 187.751089h8.147652v1.972796h-8.147652z" fill="#21170C" p-id="8588"></path><path d="M773.49424 246.461527h36.812391s-7.378261 17.419797-19.885793 17.893268-16.926598-17.893269-16.926598-17.893268z" fill="#FFFFFF" p-id="8589"></path><path d="M1021.908835 459.148769l-57.211112 19.72797 27.619158 111.364389-61.353987 239.596193-17.400069 10.278273s-0.986398 25.646361 18.011637 30.578353 25.883096-9.114322 25.883096-9.114322v-18.800756c15.210265-38.430085 91.53778-231.724733 92.721458-244.19281 1.321774-13.849035-28.270181-139.43729-28.270181-139.43729z" fill="#FBAD83" p-id="8590"></path><path d="M958.345317 485.7618s-22.549069-66.601626-13.079644-93.471121c6.825878-19.372866 20.004161-25.902824 30.164065-28.625284s34.97769 24.048395 48.432166 70.764228c9.311602 32.35387 10.140176 35.825993 10.140177 35.825993s-46.893384 26.889223-75.656764 15.506184z" fill="#60D6E6" p-id="8591"></path><path d="M905.237622 324.07136s5.918391-5.918391 21.148383 0 18.307556 15.624552 17.49871 25.350441-19.43205 14.657882-31.189921 11.363311-22.174238-16.117751-21.325935-21.325936 13.868763-15.387816 13.868763-15.387816zM178.814318 576.549917a28.66474 28.66474 0 0 1-6.904789-42.217855c0.611567-0.769391 1.26259-1.519054 1.972797-2.288445 13.513659-14.993257 26.119832-14.105498 36.930759-8.83813s8.206835 28.86202-0.789119 40.915809-24.87697 16.157207-30.499441 12.882364z" fill="#A55B3A" p-id="8592"></path><path d="M445.891573 247.763573L469.939968 282.109968l24.995338-18.36674 26.534119 12.902092-3.551034-27.895349-72.026818-0.986398z" fill="#FFFFFF" p-id="8593"></path><path d="M445.852117 155.416946v92.346627s15.506184 13.158556 42.789967 11.580318c25.232073-1.45987 29.236851-10.59392 29.236851-10.59392l10.436096-47.899511z" fill="#A55B3A" p-id="8594"></path><path d="M519.693908 240.681231c-13.572843 3.018379-29.256579-5.425192-40.974993-14.736793-21.602127-17.163334-30.341618-51.292721-30.341618-51.292721l71.474435 21.483759 8.502755 4.675529z" fill="#8E4A2F" p-id="8595"></path><path d="M571.834932 44.328748s12.231341 4.557161 11.383039 33.754556c-0.414287 13.809579-5.583015 40.047779-5.583016 40.047779l-31.880399-81.417331z" fill="#21170C" p-id="8596"></path><path d="M573.334258 197.082418c-25.212345 53.048511-87.789466 21.700767-114.599776-5.030632s-23.081725-128.922283-15.664008-148.314877 69.343814-35.07633 102.013331-22.568797S598.546603 144.014179 573.334258 197.082418z" fill="#A55B3A" p-id="8597"></path><path d="M478.205988 108.503834s6.963973 58.710438 23.042268 63.405695c13.809579 3.945594 32.84707-15.604824 57.605672-16.650407 13.809579-0.591839 18.761299 0.710207 24.364043 4.497977a120.853543 120.853543 0 0 1-9.863985 37.364775c-25.212345 53.048511-87.789466 21.700767-114.599776-5.030632-12.902092-12.981004-18.820483-43.618541-20.497361-73.960159z" fill="#21170C" p-id="8598"></path><path d="M467.69098 129.514122s7.733364 0.769391 10.889839-3.827226-5.918391-30.558625 3.255115-58.098871c6.529958-19.72797 36.220553-31.032096 60.525412-26.257928s30.420529 6.924517 32.906253-0.138096-7.279621-23.673564-15.782376-30.242978-47.958695-18.189188-80.884676-4.734713-39.45594 22.391246-46.913112 43.73691-2.62382 74.828189 0 78.241128 36.003545 1.321774 36.003545 1.321774z" fill="#21170C" p-id="8599"></path><path d="M430.444573 125.15424c0 13.671483 18.16946 25.823912 29.315763 25.823913s11.067391-12.152429 11.067391-25.823913-9.03541-24.758602-20.201441-24.758602-20.181713 11.087119-20.181713 24.758602z" fill="#A55B3A" p-id="8600"></path><path d="M583.217971 159.796555s0 64.293454-7.57554 75.8935-32.413054 14.105498-43.657998 9.272146-29.591955-22.272878-34.070203-37.029399 66.581898-35.904905 66.581898-35.904905z" fill="#21170C" p-id="8601"></path><path d="M437.822834 118.762378c-1.302046 6.115671 5.681655 13.276924 10.672831 14.342234s-5.740839-7.299349-4.438793-13.434747 10.140176-9.015682 5.149-10.080993-10.100721 3.057835-11.383038 9.173506z" fill="#8E4A2F" p-id="8602"></path><path d="M570.138327 180.747659s-26.672215 0.710207-31.111008-0.710207l-4.399338-1.400686s0.118368 13.040188 12.487805 17.538166 19.136131-3.807498 20.79328-8.404116 2.229261-7.023157 2.229261-7.023157z" fill="#FFFFFF" p-id="8603"></path><path d="M563.588641 99.01468a1.972797 1.972797 0 0 1-0.651023-3.827226 40.955265 40.955265 0 0 1 23.259276 0 1.972797 1.972797 0 1 1-1.085038 3.78777 37.818518 37.818518 0 0 0-20.872192 0 1.972797 1.972797 0 0 1-0.651023 0.039456zM518.589142 105.643278a1.972797 1.972797 0 0 1-1.302046-0.473471 1.972797 1.972797 0 0 1-0.19728-2.781644c0.473471-0.532655 11.600046-13.059916 31.426656-6.727237a1.972797 1.972797 0 0 1-1.183678 3.768042c-17.30143-5.523832-26.869495 5.089816-27.264054 5.543559a1.972797 1.972797 0 0 1-1.479598 0.670751z" fill="#21170C" p-id="8604"></path></svg>