<?xml version="1.0" standalone="no"?><!DOCTYPE svg PUBLIC "-//W3C//DTD SVG 1.1//EN" "http://www.w3.org/Graphics/SVG/1.1/DTD/svg11.dtd"><svg t="1689734750490" class="icon" viewBox="0 0 1024 1024" version="1.1" xmlns="http://www.w3.org/2000/svg" p-id="5764" xmlns:xlink="http://www.w3.org/1999/xlink" width="200" height="200"><path d="M324.514185 701.622988l-6.098842 31.017933h55.109204a13.515439 13.515439 0 0 0-9.325653-12.805879l-20.898248-6.757719 2.703088-17.823486z" fill="#303763" p-id="5765"></path><path d="M338.9926 365.831903s-4.20668 30.156324-6.352257 59.130046 12.941033 114.391298 12.941033 114.391298l-25.1894 166.560893s14.34326 6.521199 20.948931 4.629038l6.605671-1.892162 41.509292-170.311427 27.35187-154.092901z" fill="#5377C4" p-id="5766"></path><path d="M416.80774 384.280477l-76.581857-18.161371-1.334649 0.388569c-0.287203 2.077999-1.199495 8.970873-2.314519 18.397891l51.20662 21.320605-23.533759 96.483341 10.13658 97.192902 15.002137-61.529036z" fill="#4F69D1" p-id="5767"></path><path d="M477.340013 154.686955l24.47984 94.793911 80.991269 12.586253a117.314012 117.314012 0 0 1 0 19.343972l-0.97987 7.298337s-80.24792-5.06829-97.46321-10.998189-30.240795-94.861488-30.240795-94.861488z" fill="#F89900" p-id="5768"></path><path d="M296.08108 1021.928759l28.455068-382.900838 1.686051 0.125018-28.455068 382.900838zM431.03443 1021.928759l28.455067-382.900838 1.684362 0.125018-28.453378 382.900838z" fill="#FFFFFF" p-id="5769"></path><path d="M290.269441 936.149646h147.977165v1.68943h-147.977165zM298.159079 829.732457h147.977164v1.68943h-147.977164zM305.271579 731.796206h147.977164v1.68943h-147.977164z" fill="#FFFFFF" p-id="5770"></path><path d="M699.939296 829.124262a64.772742 64.772742 0 1 0 2.28073-91.583995 64.806531 64.806531 0 0 0-2.28073 91.583995z" fill="#00C99C" p-id="5771"></path><path d="M699.888613 829.124262a64.789636 64.789636 0 0 0 109.390586-61.900711L682.200282 788.037327a64.502433 64.502433 0 0 0 17.688331 41.086935z" fill="#08BF8B" p-id="5772"></path><path d="M740.921486 749.362898l1.68943-0.054062 8.663397 272.6875-1.687741 0.054062z" fill="#FFFFFF" p-id="5773"></path><path d="M742.715661 796.381421l38.481834-34.16703 1.121781 1.263694-38.481834 34.16534z" fill="#FFFFFF" p-id="5774"></path><path d="M721.32241 767.811472l0.674083-1.549207 20.935415 9.089133-0.672393 1.550897z" fill="#5377C4" p-id="5775"></path><path d="M595.160854 766.057844l99.03438 90.300028v165.682389l-123.379065-52.102018 24.344685-203.880399z" fill="#FF9398" p-id="5776"></path><path d="M647.1784 813.480141L615.467801 988.910541l-44.651632-18.972298 24.344685-203.880399 52.017546 47.422297z" fill="#F4828B" p-id="5777"></path><path d="M423.548566 766.057844l-99.034381 90.300028v165.682389l123.379065-52.102018-24.344684-203.880399z" fill="#FF9398" p-id="5778"></path><path d="M423.548566 766.057844l-59.29899 54.264488 19.76633 176.545424 63.877344-26.929513-24.344684-203.880399z" fill="#F4828B" p-id="5779"></path><path d="M397.835443 134.66721l-48.300801 15.20487c-3.868794 1.21639-10.406888 6.301573-10.542042 10.812351l-6.352257 212.091028a197.308517 197.308517 0 0 0 156.964931-4.189786q-6.132631-106.940912-12.231472-213.898718L432.654593 135.157145z" fill="#F9C200" p-id="5780"></path><path d="M337.742421 202.599186l-1.148812 38.383848 14.900772-40.968675-13.75196 2.584827zM489.605274 368.602568q-1.824584-31.778176-3.632274-63.539459l-61.613508 8.159947-14.596674 52.608847-28.382422-3.37886 13.904008-90.773068-59.011787-18.752672-3.598485 119.729896a197.9505 197.9505 0 0 0 65.262676 14.225A199.994711 199.994711 0 0 0 489.605274 368.602568z" fill="#EDB607" p-id="5781"></path><path d="M396.179801 134.66721s4.578355 19.208818 21.557126 17.755909 16.894299-16.336787 16.894299-16.336787z" fill="#FFFFFF" p-id="5782"></path><path d="M396.179801 84.474248v50.682897s8.447149 6.656354 23.246556 5.794745c13.718171-0.794032 15.204869-4.882452 15.204869-4.882453l6.318468-26.912618z" fill="#A55B3A" p-id="5783"></path><path d="M436.286867 130.798416c-7.365914 1.68943-15.897535-2.939608-22.266686-8.007898-11.741538-9.325653-16.488836-27.841805-16.488836-27.841804l38.856888 11.67396 4.629038 2.551039z" fill="#8E4A2F" p-id="5784"></path><path d="M464.635501 24.094024s6.639459 2.483462 6.183313 18.347209a182.965257 182.965257 0 0 1-3.040974 21.759857l-17.33355-44.246169z" fill="#21170C" p-id="5785"></path><path d="M465.446427 107.112609c-13.718171 28.838568-47.726394 11.826009-62.28928-2.719982s-12.552464-70.094446-8.44715-80.619595 37.623604-19.056769 55.379512-12.265261 29.058194 66.783164 15.356918 95.604838z" fill="#A55B3A" p-id="5786"></path><path d="M413.749872 58.946963s3.784323 31.913331 12.518676 34.46437c7.46728 2.196259 17.84038-8.447149 31.305136-9.055345 7.484174-0.304097 10.136579 0.405463 13.24513 2.466568a65.769506 65.769506 0 0 1-5.372387 20.273159c-13.701276 28.838568-47.7095 11.826009-62.272386-2.719982-7.044923-7.044923-10.221051-23.652018-11.150237-40.191538z" fill="#21170C" p-id="5787"></path><path d="M408.022705 70.401297s4.20668 0.405463 5.929899-2.094893-3.209917-16.607096 1.68943-31.55855c3.547803-10.694091 19.698753-16.894299 32.8932-14.275683s16.539519 3.750534 17.891062-0.084471-3.8519-12.856561-8.464043-16.438153-26.067903-9.883165-43.925178-2.567933-21.489548 12.163895-25.493497 23.770278-1.436015 40.664578 0 42.522951 19.479127 0.726455 19.479127 0.726454z" fill="#21170C" p-id="5788"></path><path d="M387.783335 68.019201c0 7.433492 9.866271 14.039162 15.931324 14.039163s6.01437-6.605671 6.01437-14.039163-4.916241-13.515439-10.981294-13.515439-10.9644 6.081948-10.9644 13.515439z" fill="#A55B3A" p-id="5789"></path><path d="M470.818814 86.822556s0 34.93741-4.122209 41.238984-17.620754 7.670012-23.652018 5.068289-16.049584-12.096318-18.583729-20.12111 36.204483-19.479127 36.204482-19.479126z" fill="#21170C" p-id="5790"></path><path d="M391.787284 64.55587c-0.709561 3.37886 3.091657 7.213866 5.811639 7.788272s-3.125445-3.97016-2.415885-7.298337 5.507541-4.899347 2.787559-5.473753-5.473753 1.655641-6.183313 4.983818z" fill="#8E4A2F" p-id="5791"></path><path d="M463.756997 98.243102s-14.495308 0.388569-16.894299-0.388569l-2.415885-0.760243a10.60962 10.60962 0 0 0 6.75772 9.528384c6.75772 2.449673 10.406888-2.061104 11.302286-4.56146s1.250178-3.818112 1.250178-3.818112z" fill="#FFFFFF" p-id="5792"></path><path d="M472.153464 54.436185a1.45291 1.45291 0 0 1-0.473041 0 20.12111 20.12111 0 0 0-10.981294 0 1.68943 1.68943 0 0 1-1.115024-3.176128 23.010035 23.010035 0 0 1 13.025505 0 1.68943 1.68943 0 0 1 1.165706 2.077998 1.68943 1.68943 0 0 1-1.621852 1.09813zM435.678672 58.034671a1.68943 1.68943 0 0 1-1.267072-2.78756c0.253414-0.304097 6.571882-7.399703 17.739014-3.835006a1.68943 1.68943 0 1 1-1.030553 3.209917c-8.970873-2.855137-13.954691 2.618616-14.157422 2.838242a1.68943 1.68943 0 0 1-1.283967 0.574407zM471.528375 64.589659h8.953978v1.689429h-8.953978z" fill="#21170C" p-id="5793"></path><path d="M469.923416 83.156493c-6.301573 0-11.420546-6.605671-11.420546-14.714934s5.06829-14.714934 11.420546-14.714935 11.403652 6.605671 11.403652 14.714935-5.118973 14.714934-11.403652 14.714934z m0-27.740439c-5.372387 0-9.731116 5.845427-9.731116 13.025505s4.358729 13.025504 9.731116 13.025504 9.714222-5.845427 9.714222-13.025504-4.358729-13.025504-9.714222-13.025505zM443.500733 83.156493c-6.284679 0-11.403652-6.605671-11.403652-14.714934s5.06829-14.714934 11.403652-14.714935 11.420546 6.605671 11.420546 14.714935-5.118973 14.714934-11.420546 14.714934z m0-27.740439c-5.355493 0-9.714222 5.845427-9.714222 13.025505s4.358729 13.025504 9.714222 13.025504 9.731116-5.845427 9.731116-13.025504-4.358729-13.025504-9.731116-13.025505z" fill="#21170C" p-id="5794"></path><path d="M409.729029 64.589659h23.466181v1.689429h-23.466181zM454.076564 64.589659h5.287915v1.689429h-5.287915z" fill="#21170C" p-id="5795"></path><path d="M430.120448 332.516345c-28.990617 72.273811-54.838894 165.091089-54.838894 266.321728 0 161.577075 29.480552 301.69839 72.645485 371.10017h122.939813c43.131145-69.40178 72.645485-209.489307 72.645486-371.10017 0-101.230639-25.848277-194.047917-54.838895-266.321728a410.700407 410.700407 0 0 1-79.234262 7.653118 410.700407 410.700407 0 0 1-79.318733-7.653118z" fill="#E2E2E2" p-id="5796"></path><path d="M644.323264 598.838073c0-101.230639-25.848277-194.047917-54.838894-266.321728a410.700407 410.700407 0 0 1-79.234262 7.653118c-6.048159 0-12.062529-0.152049-18.026217-0.405464A856.963313 856.963313 0 0 0 469.923416 530.48374c0 180.667633 28.331739 340.741115 71.902136 439.454503h29.886015c43.131145-69.469357 72.611697-209.523095 72.611697-371.10017z" fill="#F8F8F8" p-id="5797"></path><path d="M435.222526 293.321572a409.230603 409.230603 0 0 0 74.875533 27.030878 411.088976 411.088976 0 0 0 78.67675 12.180789c-13.059293-98.645811-39.397505-166.070958-39.397505-166.070958s-55.4133 46.543794-114.154778 126.859291z" fill="#5377C4" p-id="5798"></path><path d="M549.83345 166.445387l-0.152049 0.135154c-3.37886 2.821348-57.10273 48.993467-114.002729 126.707242a405.243548 405.243548 0 0 0 58.302226 22.384946z" fill="#4F69D1" p-id="5799"></path><path d="M496.329205 795.656656h26.034115v226.383605h-26.034115z" fill="#FF9398" p-id="5800"></path><path d="M496.329205 916.822568h26.034115v105.200799h-26.034115z" fill="#F4828B" p-id="5801"></path><path d="M717.492473 889.04834a94.168822 94.168822 0 1 0 94.168822-94.168822 94.185716 94.185716 0 0 0-94.168822 94.168822z" fill="#00B98F" p-id="5802"></path><path d="M793.082634 1021.820635l29.178144-177.594559 1.667467 0.273687-29.176454 177.592871z" fill="#FFFFFF" p-id="5803"></path><path d="M679.530983 976.8818l2.669299 47.1182h-69.959292a16.708462 16.708462 0 0 1 11.606384-15.91443l29.15956-9.410124-0.97987-21.793646z" fill="#5377C4" p-id="5804"></path><path d="M758.883505 979.078059l7.315231 32.42016-28.449999 12.501781h-32.77494a12.315944 12.315944 0 0 1 8.649881-11.826009l16.26921-5.06829 5.693379-26.304423z" fill="#204A99" p-id="5805"></path><path d="M811.286241 913.504527l68.89833-32.215738 0.716318 1.530623-68.898329 32.215739zM759.560966 848.620283l1.005211-1.359991 55.708951 41.162959-1.005211 1.358302z" fill="#FFFFFF" p-id="5806"></path><path d="M566.406757 439.0349a57.052047 57.052047 0 1 1-57.052047-57.068942 57.052047 57.052047 0 0 1 57.052047 57.068942z" fill="#A9C2DC" p-id="5807"></path><path d="M546.268753 439.0349a57.068942 57.068942 0 1 1-57.068942-57.068942 57.052047 57.052047 0 0 1 57.068942 57.068942z" fill="#5377C4" p-id="5808"></path><path d="M432.164658 436.737275v2.297625a57.052047 57.052047 0 0 0 99.406055 38.231798z" fill="#4F69D1" p-id="5809"></path><path d="M509.35471 559.204048m-13.143765 0a13.143765 13.143765 0 1 0 26.287529 0 13.143765 13.143765 0 1 0-26.287529 0Z" fill="#5377C4" p-id="5810"></path><path d="M509.35471 611.796001m-13.143765 0a13.143765 13.143765 0 1 0 26.287529 0 13.143765 13.143765 0 1 0-26.287529 0Z" fill="#5377C4" p-id="5811"></path><path d="M736.853339 392.524895m-6.200208 0a6.200208 6.200208 0 1 0 12.400416 0 6.200208 6.200208 0 1 0-12.400416 0Z" fill="#60D6E6" p-id="5812"></path><path d="M751.990631 459.03775L665.305983 481.861948l-39.684708-72.848217-15.525861 5.980581s27.605284 78.541596 35.79902 92.78349 109.542634-12.147001 109.542634-12.147001z" fill="#0CBFD1" p-id="5813"></path><path d="M761.603487 661.515922l-19.428444 148.889457 20.594151 172.1698s-6.859085 7.82206-16.15095 6.081948a48.435955 48.435955 0 0 1-15.965113-6.081948s-22.435629-145.122028-27.301187-172.1698-6.335362-143.686012-6.335362-143.686013z" fill="#204A99" p-id="5814"></path><path d="M703.351944 411.733713c-6.284679 0-11.403652-6.588777-11.403651-14.714935s5.06829-14.714934 11.403651-14.714934 11.420546 6.605671 11.420546 14.714934-5.118973 14.714934-11.420546 14.714935z m0-27.740439c-5.355493 0-9.714222 5.845427-9.714221 13.025504s4.358729 13.025504 9.714221 13.025505 9.731116-5.828533 9.731117-13.025505-4.358729-13.025504-9.731117-13.025504z" fill="#21170C" p-id="5815"></path><path d="M676.709635 414.166492c-5.710273 0-10.356205-5.980582-10.356205-13.346496s4.645932-13.329602 10.356205-13.329602 10.356205 5.980582 10.356205 13.329602-4.645932 13.346496-10.356205 13.346496z m0-24.986668c-4.781087 0-8.666775 5.220338-8.666775 11.640172s3.885689 11.657066 8.666775 11.657066 8.666775-5.237233 8.666775-11.657066-3.885689-11.640172-8.666775-11.640172z" fill="#FFFFFF" p-id="5816"></path><path d="M701.662515 426.009395l0.574406 21.253028s2.432779 5.06829 17.688331 6.504306a18.228949 18.228949 0 0 0 13.278919-4.764193l3.057868-34.008224z" fill="#FBAD83" p-id="5817"></path><path d="M701.307734 429.87819l0.861609 14.799406a7.180077 7.180077 0 0 0 4.223575-0.388569c7.281443-2.770665 6.402939-10.947506 10.930612-25.831383z" fill="#E68D5C" p-id="5818"></path><path d="M677.452984 365.477122s-3.564697 35.478028 1.419121 52.558164 20.509679 24.395368 34.194061 21.253028c5.06829-1.182601 23.516864-21.878117 25.831383-47.456085s0.11826-33.298663-4.054631-38.704839-41.965439-12.147001-48.824524-6.233996-8.56541 18.583729-8.56541 18.583728z" fill="#FBAD83" p-id="5819"></path><path d="M739.84363 346.48793s7.382809 8.548515 6.75772 29.835332-5.490647 37.015409-11.640172 43.536609-27.385659 6.183313-33.906858 2.63551-18.533046-17.299762-17.874169-25.476603c0.270309-3.49712 0.608195-8.058581 0.912293-12.130106a11.707749 11.707749 0 0 0-8.987767-12.231473l-2.601722-0.625089s-1.68943-21.016508 9.697327-29.75086 24.919091-9.376336 38.502107-5.828533 19.141241 10.035214 19.141241 10.035213z" fill="#21170C" p-id="5820"></path><path d="M700.040662 406.02344c0 5.06829-6.75772 9.51149-10.795457 9.51149s-4.071526-4.476989-4.071526-9.51149 3.37886-9.106027 7.433491-9.106027 7.433492 4.071526 7.433492 9.106027z" fill="#FBAD83" p-id="5821"></path><path d="M696.796956 403.776498c-0.47304-2.466568-4.172892-4.020843-6.183313-3.632274s3.2606 1.790796 3.73364 4.257363-2.331413 4.933135-0.320992 4.544566a4.172892 4.172892 0 0 0 2.770665-5.169655z" fill="#E68D5C" p-id="5822"></path><path d="M712.120086 362.503726a30.054958 30.054958 0 1 0 30.054957-30.054958 30.054958 30.054958 0 0 0-30.054957 30.054958z" fill="#21170C" p-id="5823"></path><path d="M667.198145 397.069461h20.94893v1.68943h-20.94893z" fill="#FFFFFF" p-id="5824"></path><path d="M760.353309 630.683827s6.217102 16.438153-1.267072 40.546317c-5.338598 17.249079-34.278533 18.972298-34.278533 18.972298l-46.966151 131.09976L683.889712 982.575179s-15.05282 9.545279-25.493497 6.081948l-10.423782-3.463332s-11.234709-157.11698-10.440677-175.143197 20.864459-179.366772 20.864459-179.366771z" fill="#5377C4" p-id="5825"></path><path d="M639.82938 786.432369l36.880255-119.003442 55.447089-21.81054-9.798693-14.93456h-63.928027s-13.177553 105.91036-18.600624 155.748542z" fill="#4F69D1" p-id="5826"></path><path d="M524.272376 499.144815l-9.916954-8.937084a51.527612 51.527612 0 0 1-11.606383 4.223575 50.429482 50.429482 0 0 1-10.829246 1.267072c-0.675772-7.196971-3.007185-9.427019-4.797981-10.677196-2.635511-1.824584-7.754483-0.895398-7.754483-0.895398s3.37886 15.204869 5.760956 20.526573 22.16532 7.011134 25.341449 6.571882a6.622565 6.622565 0 0 1 4.747298 0.760244z" fill="#FBAD83" p-id="5827"></path><path d="M702.236921 447.262423l-37.387084 15.204869L646.722254 634.180947s89.539784 34.650207 122.517456 0l-9.325653-161.678441a20.965825 20.965825 0 0 0-13.380285-18.347209l-13.397179-5.152761z" fill="#60D6E6" p-id="5828"></path><path d="M623.425016 409.87534s-0.658878-11.150237-5.89611-17.874168-9.477702-7.720695-9.477702-7.720695l3.49712 14.596674s0.827821 2.111787-2.584828 2.297625-3.767429-6.622565-7.889637-7.264549-4.510778 0-4.510778 0 4.223575 10.136579 7.720695 13.87022 6.250891 7.061817 6.25089 7.061817z" fill="#FBAD82" p-id="5829"></path><path d="M432.654593 281.79966s21.303711 11.08266 29.227137 13.971585 14.866983-0.827821 19.681858-5.89611-9.308759-14.57978-16.894299-19.88459l-7.619329-5.30481 6.977346-8.616092s-4.510778-1.976633-11.285392 1.588064a33.788598 33.788598 0 0 1-12.805878 3.868794z" fill="#A55B3A" p-id="5830"></path><path d="M376.160057 160.971634c12.028741 10.339311-31.507867 82.156976-31.507867 82.156976l97.986933 16.049584a17.671437 17.671437 0 0 1-1.115023 15.52586c-4.696615 7.7038-8.295101 10.457571-8.295101 10.457571s-91.820515 3.666063-115.033281-12.738301S337.269381 157.406937 341.965996 153.740874s22.16532-3.108551 34.194061 7.23076z" fill="#F9C200" p-id="5831"></path><path d="M587.085379 264.736418a7.517963 7.517963 0 0 0-4.645932-6.99424c-4.155998-1.68943-10.305522-3.37886-14.714934-1.030552-7.315231 4.020843-3.074762 24.057482 2.584827 28.534471s12.501781 2.601722 14.850089 0c1.672536-1.841479 1.92595-13.735065 1.92595-20.509679z" fill="#A55B3A" p-id="5832"></path><path d="M148.441802 805.438455m-131.876897 0a131.876897 131.876897 0 1 0 263.753794 0 131.876897 131.876897 0 1 0-263.753794 0Z" fill="#00C99C" p-id="5833"></path><path d="M132.525683 716.934291l1.672536-0.246657 45.095952 305.398242-1.672536 0.246657z" fill="#FFFFFF" p-id="5834"></path><path d="M151.099275 838.500598l56.42189-68.959149 1.307619 1.069409-56.42189 68.960838zM144.775739 795.31877l-97.496999-28.466894 0.47304-1.621853 97.497 28.483788-0.473041 1.604959z" fill="#FFFFFF" p-id="5835"></path><path d="M646.975669 634.180947a276.204893 276.204893 0 0 0 40.428057 11.43744l-4.426306-161.729124-20.796882 5.760956z" fill="#50CAD3" p-id="5836"></path><path d="M664.849837 462.399715l-68.134707 68.658431L522.971515 496.695142a39.059619 39.059619 0 0 0-6.892874 10.136579l-3.463331 6.892874s72.865111 43.164934 87.968614 48.098069 96.432658-77.713775 96.432658-77.713775z" fill="#60D6E6" p-id="5837"></path><path d="M16.564905 1021.195546h990.867526v1.68943H16.564905z" fill="#FFFFFF" p-id="5838"></path></svg>