<?xml version="1.0" standalone="no"?><!DOCTYPE svg PUBLIC "-//W3C//DTD SVG 1.1//EN" "http://www.w3.org/Graphics/SVG/1.1/DTD/svg11.dtd"><svg t="1689734753236" class="icon" viewBox="0 0 1483 1024" version="1.1" xmlns="http://www.w3.org/2000/svg" p-id="5978" xmlns:xlink="http://www.w3.org/1999/xlink" width="289.6484375" height="200"><path d="M1293.65273 736.795052s2.062838-63.803216 0-157.825199 103.033327-179.647853 189.853473-136.816822c0 0-55.732815 0.687613-95.397208 35.140625S1325.970525 531.995052 1322.749602 591.02117s-15.055098 145.773882-15.055098 145.773882z" fill="#00B98F" p-id="5979"></path><path d="M1255.454038 736.614101S1248.559816 550.090122 1226.176215 477.293656s7.618024-235.652094 7.618024-235.652094 1.067609 125.85121 19.289345 187.80873 49.399541 141.992013 43.428167 214.517052-21.334087 92.827708-21.334087 92.827708z" fill="#00B98F" p-id="5980"></path><path d="M1270.871037 490.503057l-46.413854-15.308429c0.199046 0.705708 0.398092 1.411415 0.615233 2.099028C1247.474112 550.090122 1254.350239 736.614101 1254.350239 736.614101l19.759816 0.180951s15.398904-20.302668 21.334087-92.827708c4.125676-50.449055-9.662767-104.390458-24.573105-153.464287z" fill="#068E6A" p-id="5981"></path><path d="M1257.607351 736.795052s29.494964-93.044849-21.913129-241.279661-114.976074-182.072592-114.976074-182.072592 57.307086 124.855982 81.301149 222.569359 24.265489 200.855275 24.265488 200.855274z" fill="#00C99C" p-id="5982"></path><path d="M1327.110514 486.522142c-21.080756 26.038805-34.145397 58.700406-33.421594 92.447711 2.026648 94.094363 0 157.825199 0 157.825199h14.041774s11.852271-86.76586 15.055099-145.773882c2.316169-42.414844 14.584626-64.798445 36.027284-86.856335z" fill="#068E6A" p-id="5983"></path><path d="M1271.468175 736.795052s15.56176-89.498215-1.610462-216.181799 146.099594-238.239689 146.099594-238.239689-85.66206 100.463828-101.332391 181.945927-3.166637 182.235448-12.99226 232.847358c-6.043753 31.177805-6.56851 39.628203-6.56851 39.628203z" fill="#00C99C" p-id="5984"></path><path d="M1307.694504 736.795052s8.631348-55.968051 7.56374-138.897756 51.607139-152.378583 0-275.226011-87.978229-119.626506-87.97823-119.626507 61.107051-5.428521 103.974271 71.819332 51.7519 176.535501 23.523591 271.824139-26.509277 190.106803-26.509277 190.106803z" fill="#00C99C" p-id="5985"></path><path d="M1257.607351 736.795052s23.324545-73.592649-7.654214-194.123909l-49.634777-13.354161c0.579042 2.243789 1.158084 4.487577 1.700937 6.713271 23.975967 97.713377 24.265489 200.855275 24.265488 200.855274zM1274.743382 562.376674c9.156105 104.137127-3.039972 174.418378-3.039972 174.418378h23.686447s0.524757-8.450398 6.56851-39.628203c6.351369-32.733981 3.401873-86.458244 4.740908-142.372009zM1315.330624 604.592472c0.542852 79.238311-7.636119 132.20258-7.63612 132.20258h20.70076a718.989503 718.989503 0 0 1 9.988479-117.129387z" fill="#00B98F" p-id="5986"></path><path d="M1218.250574 734.985545c-27.703552 32.697791-45.852907 87.163951-45.852907 148.813854 0 56.094716 14.964623 106.091394 38.470119 139.332038h136.111115c23.523591-33.204453 38.470118-83.237321 38.470118-139.332038 0-61.649903-18.09507-116.116063-45.834812-148.813854z" fill="#FF9398" p-id="5987"></path><path d="M1299.226012 734.985545h-80.993533c-27.685457 32.697791-45.834812 87.163951-45.834812 148.813854 0 56.094716 14.964623 106.091394 38.470119 139.332038H1299.226012z" fill="#F4828B" p-id="5988"></path><path d="M1012.093444 951.981622l-6.713271 71.113625H908.372504a23.975967 23.975967 0 0 1 16.84651-22.890264l47.825269-14.910337 5.428521-33.313024zM1137.655133 947.51214l14.005584 75.583107h-99.667644a23.523591 23.523591 0 0 1 16.575084-22.437887l41.61866-13.02845-3.92663-35.556812z" fill="#0CBFD1" p-id="5989"></path><path d="M976.663297 628.369394l-10.277999 102.454285L976.663297 955.419685s18.963633 7.400884 29.513059 3.980916l10.549426-3.419968 6.930412-216.380845L1062.180597 625.003711z" fill="#60D6E6" p-id="5990"></path><path d="M1038.114154 639.262626l10.531331 102.43619L1103.799258 959.581552s20.067432 3.438063 29.712104-2.026648l9.644673-5.428521-36.678707-213.395158L1121.170525 618.851387z" fill="#60D6E6" p-id="5991"></path><path d="M987.990811 245.857713l-32.462555 129.614985-87.471568 37.330129s2.388549 14.041774 9.662768 18.619827c0 0 95.451493-30.381622 110.21707-38.777734s0.054285-146.787206 0.054285-146.787207z" fill="#F89900" p-id="5992"></path><path d="M1062.180597 215.331331l67.132709 26.09309 5.428521 244.464393-164.556565-12.268457 16.991271-222.569359a34.507298 34.507298 0 0 1 20.682665-28.952111l11.490369-4.976144z" fill="#F9C200" p-id="5993"></path><path d="M721.070436 959.961548l1.574272 63.133699h-90.710585a17.208411 17.208411 0 0 1 10.965612-16.032232L693.041173 987.538434l-3.619014-25.839759z" fill="#204A99" p-id="5994"></path><path d="M779.897508 951.981622v71.113625h-90.72868a17.208411 17.208411 0 0 1 10.965613-16.032232l50.069058-19.524581L749.13589 955.419685z" fill="#5377C4" p-id="5995"></path><path d="M797.793532 519.74469s-19.289344 178.037392-27.667361 210.518042L783.968899 955.419685s-20.646475 8.95706-34.923485 0c0 0-37.112988-191.192508-36.40728-216.742746s16.285563-202.248595 16.285563-202.248595zM697.31161 523.436084s-2.5695 179.141191-7.871356 212.200884l34.814915 222.804594s-19.705531 10.857042-34.760629 3.257113c0 0-54.828061-186.885881-56.492808-212.39993S630.323661 546.471108 630.323661 546.471108z" fill="#5377C4" p-id="5996"></path><path d="M661.718608 231.544513l-48.965259 143.928185-71.403146 29.476869 6.731366 23.053119 100.771444-23.885492 12.865595-172.572681z" fill="#0CBFD1" p-id="5997"></path><path d="M738.278848 215.096095l43.428167 13.408446a37.058703 37.058703 0 0 1 26.074996 33.602545l13.589397 276.691712L625.347517 533.804559l34.380633-295.239159a25.224527 25.224527 0 0 1 17.642693-21.189326l17.244601-5.301856z" fill="#60D6E6" p-id="5998"></path><path d="M640.004524 413.219014l-12.431313 106.525676h193.382011l-7.382789-150.134794-41.256759-87.236332 5.500901 68.272699-86.023961 48.512882-51.78809 14.059869z" fill="#50CAD3" p-id="5999"></path><path d="M970.149072 457.190034l164.556565 28.73497-4.198056-188.623007-26.346422-14.928433-20.483619 125.851211-109.077081 7.038982-4.451387 41.926277z" fill="#EDB607" p-id="6000"></path><path d="M366.660399 951.981622v71.113625H466.852801a20.755045 20.755045 0 0 0-15.760806-20.139813l-43.030076-10.657996-2.207598-36.877753z" fill="#204A99" p-id="6001"></path><path d="M408.24287 559.137657l17.769358 170.093656L412.567591 958.712988s-19.723626 19.036013-51.263332 0L358.282382 738.604559l-64.020357-128.167379z" fill="#204A99" p-id="6002"></path><path d="M221.64651 509.104789s-10.35038 94.908641-5.880898 162.095635 9.518007 76.41548 9.518007 76.41548l-20.990281 213.322778s18.475066 9.246581 31.069235 6.731366l12.666549-2.515215 44.495776-220.054144 40.315816-223.401732z" fill="#5377C4" p-id="6003"></path><path d="M289.521117 516.759003l-67.585086-7.654214s-10.332285 94.908641-5.862803 162.095635 9.518007 76.41548 9.518007 76.41548l-1.013324 10.42276 67.34985-8.902774 0.814278-4.035201 35.792048-198.34006z" fill="#4F69D1" p-id="6004"></path><path d="M363.131861 197.236261l55.805195 22.781693 19.397915 300.77625s-156.775685 47.047181-234.041633-11.200848l28.59021-261.437569a41.075808 41.075808 0 0 1 26.581658-34.036826l52.059516-16.285563z" fill="#F0F1F4" p-id="6005"></path><path d="M438.334971 520.866584l-7.238028-111.42944h-145.665312l-12.829404-106.760911-45.418626-2.298074-22.890263 209.287577c77.265948 58.229935 234.041633 11.200848 234.041633 11.200848z" fill="#E2E2E2" p-id="6006"></path><path d="M1195.649832 713.054321h-952.343523V428.002686H1195.649832v285.051635z" fill="#FF9398" p-id="6007"></path><path d="M503.115321 428.002686l128.818802 285.051635H243.306309V428.002686h259.809012z" fill="#F4828B" p-id="6008"></path><path d="M306.349532 657.484361v-173.839335l1.32094 0.705707 155.6176 82.350663z m1.809507-170.835554v167.705107l151.455734-87.580138zM807.365824 656.851034h-172.57268v-172.608871h172.57268z m-170.763173-1.809507h168.953666v-168.989857h-168.953666zM1049.315003 656.851034a86.295388 86.295388 0 1 1 86.295388-86.277293A86.385863 86.385863 0 0 1 1049.315003 656.851034z m0-170.763174a84.485881 84.485881 0 1 0 84.485881 84.485881 84.558261 84.558261 0 0 0-84.485881-84.522071z" fill="#FFFFFF" p-id="6009"></path><path d="M311.524722 132.09401v65.847959s11.056088 9.391341 30.508287 8.269446c17.986499-1.049514 20.863615-7.563739 20.863616-7.563739l7.437074-34.145396L311.524722 132.09401" fill="#FBAD83" p-id="6010"></path><path d="M364.145185 192.857254a77.591659 77.591659 0 0 1-19.904577-11.888461A57.650892 57.650892 0 0 1 324.806503 153.627143l39.465347 7.509454 6.061849 3.347587-6.188514 28.37307" fill="#E68D5C" p-id="6011"></path><path d="M380.322177 93.768652h33.421594v1.809507h-33.421594z" fill="#21170C" p-id="6012"></path><path d="M403.773388 47.608129s5.681852 14.023679 5.681851 26.292136c0 9.879908-3.980915 28.572115-3.980915 28.572115l-22.745503-58.067079z" fill="#21170C" p-id="6013"></path><path d="M402.398162 158.784237c-17.986499 37.818696-62.608942 15.471285-81.717335-3.619013s-16.466514-91.959145-11.182753-105.765683 49.453826-25.007386 72.760276-16.104613 38.126312 87.634423 20.139812 125.471214" fill="#FBAD83" p-id="6014"></path><path d="M409.437144 132.09401a86.259198 86.259198 0 0 1-7.038982 26.654037c-7.147553 15.037003-18.511256 20.555999-30.761618 20.574095 12.304647 0 23.668351-5.537091 30.761618-20.574095a86.639194 86.639194 0 0 0 7.057077-26.654037" fill="#DDDCDA" p-id="6015"></path><path d="M326.181728 102.47238h-20.121717c1.230465 21.714084 5.428521 43.428168 14.638911 52.710939 11.508464 11.490369 32.263509 24.175013 50.901431 24.175013 12.286552 0 23.650256-5.537091 30.761619-20.574095A86.259198 86.259198 0 0 0 409.437144 132.09401c-3.383778-2.298074-6.45994-3.311398-13.299876-3.311398h-4.053296c-16.032232 0.687613-28.734971 12.286552-38.271072 12.286552a9.771338 9.771338 0 0 1-2.822831-0.398091c-11.454179-3.347588-24.808341-38.325358-24.808341-38.325358" fill="#DA9671" p-id="6016"></path><path d="M312.085669 107.086623a24.229298 24.229298 0 0 0 21.714084-27.142605c-1.031419-8.215162-3.438063-10.857042-1.302845-18.601731 4.234246-15.471285 22.799788-14.023679 35.321576-8.269447s26.183566 5.772327 36.950132-2.370454a19.669341 19.669341 0 0 0 4.614243-25.930235C402.470542 13.535112 377.662202 0 377.662202 0s3.003782 6.767556 2.008553 10.278-66.951758-16.285563-80.432586 13.02845 4.505672 84.558261 4.505673 84.558261z" fill="#21170C" p-id="6017"></path><path d="M300.486729 107.484715c0 9.753243 12.974165 18.402686 20.935996 18.402686S329.33027 117.237957 329.33027 107.484715s-6.45994-17.660788-14.476055-17.660789-14.367485 7.88945-14.367486 17.660789z" fill="#FBAD83" p-id="6018"></path><path d="M306.440007 106.598056c-0.922849 4.379007 4.053296 9.481817 7.618024 10.24181s-4.089486-5.21138-3.166637-9.590387 7.238028-6.42375 3.619014-7.238028-7.147553 2.225694-8.070401 6.586605z" fill="#E68D5C" p-id="6019"></path><path d="M401.330553 115.39226c-7.238028 0-13.299876-7.7085-13.299876-17.190316s5.971373-17.172221 13.299876-17.172221 13.317971 7.7085 13.317971 17.172221-5.971373 17.190316-13.317971 17.190316z m0-32.571126c-6.333274 0-11.490369 6.894222-11.490369 15.362715s5.157095 15.380809 11.490369 15.380809 11.508464-6.894222 11.508464-15.380809-5.157095-15.344619-11.508464-15.344619zM370.333699 115.39226c-7.346598 0-13.299876-7.7085-13.299877-17.190316s5.953278-17.172221 13.299877-17.172221S383.61548 88.665842 383.61548 98.201944s-5.953278 17.190316-13.281781 17.190316z m0-32.571126c-6.333274 0-11.490369 6.894222-11.49037 15.362715s5.157095 15.380809 11.49037 15.380809S381.805973 106.760912 381.805973 98.201944s-5.139-15.362714-11.472274-15.362714z" fill="#21170C" p-id="6020"></path><path d="M327.357908 93.768652h30.870189v1.809507h-30.870189zM382.728821 93.768652h6.206609v1.809507h-6.206609z" fill="#21170C" p-id="6021"></path><path d="M395.630606 140.906309h-30.634953s6.206609 13.263686 16.538894 13.643682 14.096059-13.643683 14.096059-13.643682z" fill="#FFFFFF" p-id="6022"></path><path d="M408.224775 141.485351h-47.047182s0.723803-9.789433 8.830394-13.607493 16.8827 0.977134 19.651246 0.814278 10.332285-5.084715 14.657007-2.895211 3.908535 15.688426 3.908535 15.688426z" fill="#21170C" p-id="6023"></path><path d="M223.890299 552.352006s6.297084 44.097685 8.812299 51.661424 10.857042 13.842728 21.008376 13.842728 12.177982-25.604524 8.396112-43.247216-1.682841-22.256936-1.682841-22.256936 7.979926 11.761795 13.010355 15.127478 12.051316 0.199046 12.051316 0.199046-12.88369-21.207422-20.863615-27.142605-19.741721-6.731366-19.741721-6.731366z" fill="#FBAD83" p-id="6024"></path><path d="M238.52921 231.508323s-85.752536 137.052059-94.709595 159.453755 74.189786 166.00417 74.189786 166.00417 11.417989 8.432303 24.772151-8.396112c7.238028-9.047535 8.540873-15.398904 8.540872-15.398904l-59.351828-136.418732s82.87542-71.855522 85.046828-109.927549-38.488213-55.316628-38.488214-55.316628z" fill="#F0F1F4" p-id="6025"></path><path d="M491.805902 412.24188s3.076162 29.531154 1.682842 41.003428-10.857042 20.302668-20.718855 18.619827-5.591377-43.844354-5.591377-43.844354h-12.666549a9.13801 9.13801 0 0 1 4.487578-9.156105 40.858668 40.858668 0 0 0 9.789432-9.427532z" fill="#FBAD83" p-id="6026"></path><path d="M418.937056 220.090334s96.392437 42.939601 110.669447 58.881357-35.285386 136.907298-35.285386 136.907298-11.761795 6.713271-22.673123 0l-6.297084-4.198056 24.500725-109.746598s-69.159357-10.857042-89.588691-24.066443 18.674112-57.777558 18.674112-57.777558z" fill="#F0F1F4" p-id="6027"></path><path d="M243.306309 958.712988l-5.428521 33.023503 36.533946 11.653224a20.682665 20.682665 0 0 1 14.476055 19.705532H198.141014l8.540873-67.675562z" fill="#5377C4" p-id="6028"></path><path d="M0 1022.190493h1442.140873v1.809507H0z" fill="#FFFFFF" p-id="6029"></path><path d="M738.278848 215.096095s-11.77989 21.424563-29.856865 21.080756-13.788443-24.030253-13.788444-24.030253z" fill="#FFFFFF" p-id="6030"></path><path d="M662.044319 104.372363s-9.047535 73.104082-5.428521 87.417282 39.718678 11.381799 57.777558 9.934193 27.576886 0.959039 35.448241-3.419968-6.550415-50.123343-6.550415-50.123343z" fill="#EDB607" p-id="6031"></path><path d="M680.50129 205.903799a22.238841 22.238841 0 0 1 0-44.459586 0.904753 0.904753 0 0 1 0 1.809507 20.393144 20.393144 0 1 0 5.428521 0.705707 0.904753 0.904753 0 0 1-0.633328-1.103799 0.868563 0.868563 0 0 1 1.1038-0.633327 22.220746 22.220746 0 0 1-5.826613 43.681498z" fill="#FFFFFF" p-id="6032"></path><path d="M691.231666 182.398304l3.474254 29.748294s4.071391 6.876127 25.622619 6.876127a40.008199 40.008199 0 0 0 18.095069-3.92663v-52.475703z" fill="#FBAD83" p-id="6033"></path><path d="M691.231666 182.398304l2.38855 20.465524a40.062485 40.062485 0 0 0 11.7437-0.886659c5.084715-1.158084 19.578866-16.158897 28.753066-37.601555z" fill="#E68D5C" p-id="6034"></path><path d="M663.455734 87.815374s-5.030429 49.851917 1.990458 73.99074 28.861636 34.380633 48.150981 29.929246c7.238028-1.646651 33.095883-30.761619 36.37109-66.825093s0.144761-46.866231-5.718042-54.484255-59.080403-17.099841-68.761265-8.758014-12.033221 26.147376-12.033222 26.147376z" fill="#FBAD83" p-id="6035"></path><path d="M680.50129 86.005867s-16.285563 23.035024-20.393144 23.722636-4.578053-14.638911-3.619014-28.427354c1.610461-21.714084 16.73794-31.358756 16.73794-31.358756z" fill="#F9C200" p-id="6036"></path><path d="M664.993815 67.766036s4.867574 26.853084 15.091288 42.921506 48.675738 10.223714 55.479484 10.712281-0.959039 54.520445-5.826612 72.52504 30.164481 12.666549 41.365329 10.223714 17.045556-97.33338 2.442835-134.102562-74.967874-35.321576-91.524863-27.26927a30.417812 30.417812 0 0 0-17.027461 24.989291z" fill="#F9C200" p-id="6037"></path><path d="M729.737975 193.924863c-4.867574 18.09507 30.182576 12.666549 41.365329 10.223714 7.563739-1.646651 12.666549-45.418625 10.712282-85.046828L738.278848 130.972115c0.271426 16.430323-4.939954 49.598586-8.540873 62.952748z" fill="#EDB607" p-id="6038"></path><path d="M752.193957 151.437639c0 7.075172-9.409436 13.372257-15.199859 13.372257s-5.736137-6.297084-5.736137-13.372257 4.686623-12.829404 10.477045-12.829404 10.45895 5.736137 10.458951 12.829404z" fill="#FBAD83" p-id="6039"></path><path d="M747.652094 148.379572c-0.669518-3.474253-5.898993-5.663757-8.721824-5.120904s4.596148 2.53331 5.265666 6.007563-3.293303 6.876127-0.488567 6.351369 4.614243-3.836155 3.944725-7.238028z" fill="#E68D5C" p-id="6040"></path><path d="M707.046757 135.170171a1.809507 1.809507 0 0 1-0.995228-0.289521l-11.327514-7.346598-8.106591 2.117123a1.809507 1.809507 0 0 1-2.207599-1.28475 1.809507 1.809507 0 0 1 1.28475-2.225693l8.884679-2.316169a1.809507 1.809507 0 0 1 1.447606 0.235236l11.997031 7.78088a1.809507 1.809507 0 0 1-0.977134 3.329492zM657.882453 131.985439a1.809507 1.809507 0 0 1-1.519986-0.832373 1.809507 1.809507 0 0 1 0.488567-2.49712l7.075172-4.596147a1.809507 1.809507 0 0 1 1.447606-0.235236l8.884679 2.316169a1.809507 1.809507 0 0 1 1.28475 2.225693 1.809507 1.809507 0 0 1-2.207599 1.28475l-8.106591-2.117123-6.405655 4.143771a1.809507 1.809507 0 0 1-0.940943 0.307616z" fill="#F76A00" p-id="6041"></path><path d="M738.278848 205.903799a22.238841 22.238841 0 1 1 0-44.459586 0.904753 0.904753 0 0 1 0 1.809507 20.375049 20.375049 0 1 0 5.428521 0.705707 0.904753 0.904753 0 1 1 0.470472-1.809507 22.238841 22.238841 0 0 1-5.898993 43.753879z" fill="#FFFFFF" p-id="6042"></path><path d="M542.309242 408.224775a169.387948 169.387948 0 0 0-19.904577 10.947517c-7.509454 5.193285-13.788443 26.310231-14.132249 30.960664s3.92663 11.63513 10.006573 13.245591 16.466514-19.687436 17.896024-23.52359a67.38604 67.38604 0 0 0 2.334264-11.834176h5.718042l3.293303-1.809507zM711.281004 408.224775s-21.261707 2.71426-30.218767 10.639901-13.734158 32.571126-9.807528 38.162502 15.127478 1.411415 21.84075-1.682842 11.472274-27.323555 11.472274-27.323555l18.764587-4.017105z" fill="#FBAD83" p-id="6043"></path><path d="M803.276339 246.219615s49.670967 100.789539 51.353808 135.224456-139.87489 46.57671-139.87489 46.57671-9.590387-11.309419-7.726595-22.636932l104.318078-39.049161s-38.632974-69.720304-43.247217-97.423856 35.176816-22.691218 35.176816-22.691217z" fill="#60D6E6" p-id="6044"></path><path d="M1028.903764 194.938187l-52.240467 8.178972V121.616964l52.240467 73.321223z" fill="#21170C" p-id="6045"></path><path d="M1062.180597 151.61859V215.331331s-9.246581 9.047535-25.532143 8.016116c-11.978936-0.814278-17.280792-6.369465-17.280792-6.369465l-6.405655-34.018731z" fill="#A55B3A" p-id="6046"></path><path d="M1062.180597 162.457537a24.73596 24.73596 0 0 1-1.592366 3.257112c-8.414207 14.005584-25.333098 34.615869-43.265312 40.424386l-4.360912-23.143594L1062.180597 151.61859z" fill="#8E4A2F" p-id="6047"></path><path d="M974.129988 177.476445c17.407457 36.624421 61.269906 7.238028 79.763067-11.309419s15.308429-81.228768 10.187525-94.58293-47.879555-24.229298-70.444107-15.59795-36.913942 84.847782-19.506485 121.490299z" fill="#A55B3A" p-id="6048"></path><path d="M1037.897014 209.90281l44.18816-14.964623s6.478035-101.459056-7.654214-126.882629S1022.950486 34.073016 998.847853 43.138646c-35.05015 13.191306-34.525393 59.71373-35.05015 63.839407a70.697438 70.697438 0 0 1 24.609295-0.162856 91.506768 91.506768 0 0 0 27.395935 0.796183l17.190317-2.062838z" fill="#21170C" p-id="6049"></path><path d="M1060.081569 142.643435c0 6.894222-9.156105 12.99226-14.765577 12.99226s-5.555186-6.098039-5.555186-12.99226 4.541863-12.358933 10.151334-12.358932 10.169429 5.428521 10.169429 12.358932z" fill="#A55B3A" p-id="6050"></path><path d="M1043.814101 160.467079m-9.861813 0a9.861813 9.861813 0 1 0 19.723626 0 9.861813 9.861813 0 1 0-19.723626 0Z" fill="#FFFFFF" p-id="6051"></path><path d="M970.149072 152.631914c-8.558968 0-15.52557-8.287542-15.52557-18.493162v-0.904753h31.01495v0.977134c0.03619 10.133239-6.930412 18.420781-15.48938 18.420781z m-13.679872-17.660788c0.379996 8.848489 6.369465 15.851281 13.679872 15.851281s13.336066-7.038982 13.697968-15.851281zM1006.176356 152.631914c-8.558968 0-15.52557-8.287542-15.52557-18.493162v-0.904753H1021.683831v0.904753c0 10.205619-6.948507 18.493161-15.507475 18.493162z m-13.679873-17.660788c0.379996 8.848489 6.369465 15.851281 13.679873 15.851281s13.336066-7.038982 13.697968-15.851281z" fill="#21170C" p-id="6052"></path><path d="M983.267998 133.161619h58.899452v1.809507h-58.899452z" fill="#21170C" p-id="6053"></path><path d="M868.56335 415.263757a145.991023 145.991023 0 0 0-18.456971 5.084714c-8.396112 3.094257-25.477858 24.916911-24.916911 28.554021s6.441845 10.857042 16.285563 7.238028 26.581658-28.174024 26.581657-28.174024h6.079944s-3.058067-3.528539-5.573282-12.702739zM1217.436296 460.953808s4.487577 18.185545 0 34.706344-18.746492 34.380633-25.749284 31.358756 3.96282-38.9044 3.96282-38.9044l1.646651-20.447429z" fill="#A55B3A" p-id="6054"></path><path d="M1088.943206 276.04029l70.570772 63.332744 36.190139 132.09401s1.628556 4.632338 15.073193-1.24856l11.255134-4.921859s-12.087507-119.24651-28.952112-152.849055-63.821311-71.113624-63.821311-71.113624z" fill="#F9C200" p-id="6055"></path><path d="M1109.62587 713.054321l-3.148542 25.676904-53.235695 21.153136-4.596148-18.185545-2.949496-28.644495h63.929881zM1032.558968 713.054321l-8.902774 26.473087-0.597138 18.27602-54.411875 22.184556-2.261883-49.164305 1.791412-17.769358h64.382258z" fill="#50CAD3" p-id="6056"></path><path d="M773.528044 713.054321l-3.401873 17.208411 1.230464 20.085527-56.076621 14.530341-2.64188-20.95409 1.592366-30.870189h59.297544zM691.575473 713.054321l-2.135219 22.582647 3.293303 21.026471-55.099487 16.719844-4.632338-24.084538-1.067609-36.244424h59.64135z" fill="#4F69D1" p-id="6057"></path></svg>