<?xml version="1.0" standalone="no"?><!DOCTYPE svg PUBLIC "-//W3C//DTD SVG 1.1//EN" "http://www.w3.org/Graphics/SVG/1.1/DTD/svg11.dtd"><svg t="1689734755580" class="icon" viewBox="0 0 1847 1024" version="1.1" xmlns="http://www.w3.org/2000/svg" p-id="6199" xmlns:xlink="http://www.w3.org/1999/xlink" width="360.7421875" height="200"><path d="M848.042039 299.849585s12.914346-28.433085 24.752496-39.238087 43.047819-10.761955 70.490804 25.032307c0 0-1.076195 3.443826-12.376248 9.3629s-30.133473-3.228586-36.33236-3.766684-28.777467 21.52391-28.777467 21.52391z" fill="#FBAD83" p-id="6200"></path><path d="M235.68681 111.407756h2.152391v702.109932h-2.152391zM264.91628 174.838718h2.152391v702.109932h-2.152391zM254.563279 319.47939h2.152391v580.736606h-2.152391zM201.679033 396.578035h2.152391v580.736605h-2.152391zM282.673505 501.722333h2.152391v484.653873h-2.152391z" fill="#5377C4" p-id="6201"></path><path d="M189.948502 247.159054c35.105497-17.778749 74.903205-9.771855 88.915271 17.886369s-3.099443 64.571729-38.20494 82.242859-109.535176 84.266106-123.525717 56.629406 37.70989-139.001408 72.815386-156.758634zM148.880883 600.947556c30.133473-32.47958 81.790857-33.491203 115.540347-2.15239s36.590646 82.9101 6.457173 115.389679-76.000925 138.011308-109.77194 106.758592-42.359054-187.516301-12.22558-219.995881zM400.861293 667.542533c-51.657383-14.270352-105.467157 17.606558-120.340179 71.179569s15.066737 108.609648 66.72412 122.858476 165.992391 93.715102 180.800841 40.120568-75.527399-219.888261-127.184782-234.158613z" fill="#5377C4" p-id="6202"></path><path d="M121.8899 405.596553c40.895428-27.701272 91.691855-24.042207 113.495576 8.157562s6.457173 80.736185-34.438256 108.415932-122.944572 122.255807-144.748292 90.056038 24.838592-178.949785 65.690972-206.629532z" fill="#00C99C" p-id="6203"></path><path d="M121.8899 405.575029c-38.463226 26.065455-82.070667 157.533494-68.876511 199.784929 35.492927-107.296689 58.545034-139.044456 95.307872-178.024256a179.294167 179.294167 0 0 1 51.269953-37.882081c-23.633253-6.048219-52.539863-0.904004-77.701314 16.121408z" fill="#00B98F" p-id="6204"></path><path d="M356.737278 274.472895c-46.900599-15.389595-94.705202 2.152391-106.887735 39.001325s16.056837 79.380179 62.957435 94.705202 151.765087 83.79258 163.904572 46.857551-73.073673-165.152958-119.974272-180.564078z" fill="#00C99C" p-id="6205"></path><path d="M356.737278 274.472895c44.145539 14.485591 122.169711 128.928219 121.115039 173.181377-63.581629-93.435292-94.468439-117.628166-140.508082-145.028103A179.401787 179.401787 0 0 0 277.658434 280.284351c21.007336-12.311676 50.215281-15.281976 79.078844-5.811456z" fill="#00B98F" p-id="6206"></path><path d="M300.021776 132.049185c-30.133473 12.720631-46.642312 42.316006-36.590646 66.142975s42.638865 32.823962 72.879958 20.103331 112.634619-24.063731 102.626001-47.890699-108.695744-51.054714-138.915313-38.355607z" fill="#00C99C" p-id="6207"></path><path d="M235.557667 60.611329c18.876469 12.914346 25.828692 35.535975 15.69093 50.408997s-33.85711 16.422743-52.690531 3.443825S124.838676 82.049143 135.127105 67.176122s81.554094-19.54371 100.430562-6.564793z" fill="#5377C4" p-id="6208"></path><path d="M300.021776 132.049185c28.454609-11.94577 117.54207 11.45072 136.2033 34.115397-72.600147-19.177803-98.644078-17.843321-133.663479-11.536815a119.242459 119.242459 0 0 0-39.711613 14.80845c5.208786-15.346548 18.55361-29.530804 37.171792-37.387032z" fill="#00B98F" p-id="6209"></path><path d="M394.468692 520.405087c-54.433967-37.343983-126.62516-37.279411-161.257131 0.150667s-18.55361 98.041408 35.837309 135.385392 159.10474 159.922648 193.715187 122.492569-13.882922-220.684645-68.295365-258.028628z" fill="#00C99C" p-id="6210"></path><path d="M394.468692 520.405087c51.205381 35.12702 97.201976 199.46207 73.61177 249.914114-37.387031-134.093957-66.186022-174.838718-113.452527-225.635144a243.88742 243.88742 0 0 0-67.929459-50.710331c34.007777-5.380977 74.279012 3.443826 107.770216 26.431361z" fill="#00B98F" p-id="6211"></path><path d="M370.211245 823.633925H190.465076c-11.988818 0-21.739149 44.597541-21.739149 99.655702v99.634178h223.245991V923.375723c0-55.144256-9.728807-99.741797-21.760673-99.741798z" fill="#FF9398" p-id="6212"></path><path d="M236.763006 823.633925H190.465076c-11.988818 0-21.739149 44.597541-21.739149 99.655702v99.634178H215.023857V923.375723c0-55.144256 9.728807-99.741797 21.739149-99.741798z" fill="#F4828B" p-id="6213"></path><path d="M378.002901 843.565066H182.694945a17.219128 17.219128 0 0 1-17.089984-17.046937v-23.439537h229.509448V826.518129a17.219128 17.219128 0 0 1-17.111508 17.046937z" fill="#FFB0B2" p-id="6214"></path><path d="M57.684078 750.151298c23.073631-43.628965 69.629848-64.291918 104.025055-46.104214s43.542869 68.273841 20.469238 111.92433-51.076238 165.734104-85.471445 147.503352-62.096479-169.67298-39.022848-213.323468z" fill="#00C99C" p-id="6215"></path><path d="M57.684078 750.151298c-21.717625 41.06762 1.549721 177.615302 33.017677 208.781923-19.070184-111.386232-13.646159-150.236889 0.49505-201.93732A179.380263 179.380263 0 0 1 118.661314 699.527063c-23.676301 5.639264-46.79298 23.676301-60.977236 50.624235z" fill="#00B98F" p-id="6216"></path><path d="M1625.528702 1022.923805H685.665665v-551.012087a95.910541 95.910541 0 0 1 95.889017-95.889017h748.106527a95.889017 95.889017 0 0 1 95.867493 95.889017z" fill="#303763" p-id="6217"></path><path d="M1548.042627 1022.923805H608.17959v-551.012087a95.910541 95.910541 0 0 1 95.889017-95.889017h748.106527a95.889017 95.889017 0 0 1 95.867493 95.889017z" fill="#FF9398" p-id="6218"></path><path d="M1087.775344 376.044225l-85.27773 262.914556 414.615071 20.512286 22.729249-122.729333-22.729249-160.697509H1087.775344zM758.179716 376.044225l26.840316 71.610047 63.129626-71.610047h47.546317l-80.757709 198.96702 46.620788 130.47794H622.98804l-8.953946-213.022133 58.394366-116.422827H758.179716z" fill="#F4828B" p-id="6219"></path><path d="M589.539884 612.139989H331.016206v410.783816h304.412654V658.050489a45.888975 45.888975 0 0 0-45.888976-45.9105z" fill="#5377C4" p-id="6220"></path><path d="M376.926705 1022.923805h-91.799474V658.050489a45.910499 45.910499 0 1 1 91.799474 0z" fill="#FF9398" p-id="6221"></path><path d="M365.88494 705.489185h842.618013v79.939801H365.88494z" fill="#FF9398" p-id="6222"></path><path d="M1197.740998 1022.923805H376.668418V785.428986h821.07258v237.494819z" fill="#FFB0B2" p-id="6223"></path><path d="M583.254903 785.428986l-36.784362 238.312727h133.405192l40.938476-238.291203-137.559306-0.021524zM985.321534 785.428986l25.591929 238.312727h133.405192l-0.365907-238.291203-158.631214-0.021524z" fill="#F4828B" p-id="6224"></path><path d="M1147.482669 302.970552l-42.186862 184.137047-135.600631 82.996195 13.990541 27.981083s123.8701-16.229028 159.276931-34.782638 4.520021-260.331687 4.520021-260.331687z" fill="#F89900" p-id="6225"></path><path d="M1274.947262 253.616227l93.069385 29.853663 13.495492 326.410089s-80.155039 63.194199-226.001051 30.88681l-29.423185-7.963846 19.371519-317.886621a54.842922 54.842922 0 0 1 32.845486-46.965171l30.865286-13.495492z" fill="#F9C200" p-id="6226"></path><path d="M1274.947262 169.220977v84.39525s-14.162733 12.031865-39.108944 10.589764c-23.052107-1.334482-26.732696-9.685759-26.732695-9.68576l-9.535092-43.758108 75.333683-41.541146" fill="#FBAD83" p-id="6227"></path><path d="M1207.491329 247.13753a99.526558 99.526558 0 0 0 25.527357-15.260452 73.82701 73.82701 0 0 0 24.88164-35.019401l-50.559664 9.621188-7.791655 4.304782 7.942322 36.375407" fill="#E68D5C" p-id="6228"></path><path d="M1143.952748 120.232559h42.83258v2.152391h-42.83258z" fill="#21170C" p-id="6229"></path><path d="M1156.716427 60.99876S1149.376774 78.971224 1149.376774 94.705202c0 12.656059 5.101167 36.590646 5.101166 36.590647l29.12185-74.386632z" fill="#7A4029" p-id="6230"></path><path d="M1158.481387 203.443994c23.052107 48.493368 80.241135 19.845045 104.713821-4.584593s21.114955-117.864929 14.334923-135.600631-63.387914-32.049101-93.220052-20.641429-48.859275 112.290236-25.828692 160.762081" fill="#FBAD83" p-id="6231"></path><path d="M1149.376774 169.307073a110.503752 110.503752 0 0 0 8.996994 34.136921c9.169185 19.371519 23.676301 26.366789 39.496374 26.366789-15.755502 0-30.305665-7.081366-39.47485-26.366789A111.084898 111.084898 0 0 1 1149.376774 169.307073" fill="#D7C5BE" p-id="6232"></path><path d="M1281.921009 131.295849h-25.828692s-17.089984 44.834304-31.76929 49.117561a12.656059 12.656059 0 0 1-3.616017 0.49505c-12.225581 0-28.497656-14.851498-49.031466-15.712454-1.915628 0-3.616017-0.129143-5.187262-0.129143-8.781755 0-12.720631 1.312958-17.068461 4.304782a111.084898 111.084898 0 0 0 9.018518 34.13692c9.169185 19.371519 23.676301 26.366789 39.474851 26.36679 23.870016 0 50.473568-16.250552 65.217446-30.951382 11.859674-11.83815 17.219128-39.819233 18.747325-67.563553" fill="#D48C68" p-id="6233"></path><path d="M1274.215449 137.214924a31.015954 31.015954 0 0 1-27.981082-34.73959c1.312958-10.525192 4.412401-13.861398 1.678865-23.826968-5.445549-19.823521-29.207945-17.972465-45.20021-10.589764s-33.555775 7.382701-47.352602-3.056395c-6.586316-4.972023-14.851498-18.768849-5.897551-33.211392S1190.272202 0 1190.272202 0s-3.85278 8.609564-2.561345 13.172633 85.708208-20.878192 103.056479 16.68103S1284.977404 138.205024 1284.977404 138.205024z" fill="#7A4029" p-id="6234"></path><path d="M1289.066947 137.753022c0 12.483868-16.616458 23.676301-26.797268 23.6763s-10.116238-11.106337-10.116237-23.6763 8.265181-22.643153 18.44599-22.643153 18.467514 10.116238 18.467515 22.643153z" fill="#FBAD83" p-id="6235"></path><path d="M1281.447483 136.59073c1.183815 5.596217-5.187262 12.139485-9.750331 13.108061s5.23031-6.672412 4.046495-12.268628-9.255281-8.243657-4.692212-9.212233 9.212233 2.776584 10.396048 8.3728z" fill="#E68D5C" p-id="6236"></path><path d="M1159.858917 147.783163c-9.362901 0-16.982365-9.836427-16.982364-21.932863s7.619464-21.954388 16.982364-21.954388 16.960841 9.836427 16.960841 21.954388-7.619464 21.932864-16.960841 21.932863z m0-41.73486c-8.179086 0-14.829974 8.889375-14.829973 19.801997s6.650888 19.780473 14.829973 19.780472 14.80845-8.867851 14.80845-19.780472-6.650888-19.801997-14.80845-19.801997zM1199.570531 147.783163c-9.341377 0-16.960841-9.836427-16.960841-21.932863s7.619464-21.954388 16.960841-21.954388 16.982365 9.836427 16.982364 21.954388-7.619464 21.932864-16.982364 21.932863z m0-41.73486c-8.157562 0-14.80845 8.889375-14.80845 19.801997s6.650888 19.780473 14.80845 19.780472 14.829974-8.867851 14.829973-19.780472-6.650888-19.801997-14.829973-19.801997z" fill="#21170C" p-id="6237"></path><path d="M1215.08927 120.232559h39.560945v2.152391h-39.560945zM1175.743563 120.232559h7.942322v2.152391h-7.942322z" fill="#21170C" p-id="6238"></path><path d="M1160.138728 177.572254h35.880358s-7.253558 16.982365-19.371519 17.477415S1160.138728 177.572254 1160.138728 177.572254z" fill="#FFFFFF" p-id="6239"></path><path d="M1325.162543 482.415386l-193.542995 73.353484-4.692212 77.034073 29.530804 7.963846c145.738392 32.285864 226.001051-30.88681 226.001051-30.88681l-6.457173-153.594619-33.534251-69.285465z" fill="#EDB607" p-id="6240"></path><path d="M1012.011182 931.576332v91.347473h-142.057803a45.480021 45.480021 0 0 1 31.575575-34.610447l56.672454-16.917793 1.076196-39.819233z" fill="#204A99" p-id="6241"></path><path d="M1096.686243 931.576332v91.347473h-142.057804a45.458497 45.458497 0 0 1 31.554052-34.610447l56.693978-16.917793 1.076195-39.819233z" fill="#5377C4" p-id="6242"></path><path d="M1183.126264 621.050888s-151.678991-17.219128-214.141377-16.035313-56.371119 101.678949-57.576458 135.966537 44.984971 207.598108 44.984971 207.598109a120.533894 120.533894 0 0 0 63.280294-7.31813l-12.161009-235.880525h184.589049z" fill="#0CBFD1" p-id="6243"></path><path d="M1291.434577 621.050888s-151.657467-17.219128-214.141377-16.035313-56.349595 101.678949-57.576458 135.966537 19.371519 199.548166 19.371519 199.548167 33.082249 13.473967 66.164498 0l10.525192-235.148713h184.589048z" fill="#60D6E6" p-id="6244"></path><path d="M1140.76721 705.381566h88.721555l60.740473-10.869574-7.834703-73.461104s-109.276889-12.419296-180.52103-15.432643z" fill="#50CAD3" p-id="6245"></path><path d="M1502.153652 612.139989H1243.629974v410.783816h304.412653V658.050489a45.888975 45.888975 0 0 0-45.888975-45.9105z" fill="#5377C4" p-id="6246"></path><path d="M1289.540473 1022.923805h-91.799475V658.050489a45.910499 45.910499 0 1 1 91.799475 0z" fill="#FF9398" p-id="6247"></path><path d="M1128.434009 563.517478s-33.36206-2.303058-57.03836 6.909175-27.981083 27.615176-27.981083 27.615176 46.168786 0.150667 61.343143 0 38.161892-17.369795 38.161892-17.369795z" fill="#FBAD83" p-id="6248"></path><path d="M1092.876511 598.041829h-198.019969a6.823079 6.823079 0 0 1-6.801555-6.801556v-141.218371a6.823079 6.823079 0 0 1 6.801555-6.801555h198.019969z" fill="#A9C2DC" p-id="6249"></path><path d="M1098.085297 598.041829h-5.251834a5.058119 5.058119 0 0 1-5.058119-5.058119v-144.705244a5.058119 5.058119 0 0 1 5.058119-5.058119h5.251834z" fill="#5377C4" p-id="6250"></path><path d="M1002.497614 520.64185c0 8.889375-5.402501 16.099884-12.074913 16.099884s-12.074913-7.21051-12.074913-16.099884 5.402501-16.121408 12.074913-16.121409 12.074913 7.21051 12.074913 16.121409z" fill="#FFFFFF" p-id="6251"></path><path d="M1098.085297 598.041829h114.227388v10.503668h-114.227388z" fill="#5377C4" p-id="6252"></path><path d="M894.619779 598.041829h203.465518v10.503668h-203.465518z" fill="#A9C2DC" p-id="6253"></path><path d="M1333.449249 288.420389l17.929416 216.164624-233.900326 54.261776s-7.167462 20.275523 0 39.19504c0 0 245.37257-14.80845 284.115607-36.33236s-6.091266-248.945539-15.777025-264.744088c-16.508839-26.904887-52.367672-8.544992-52.367672-8.544992z" fill="#F9C200" p-id="6254"></path><path d="M693.973894 285.643805l58.329795 157.576542L848.042039 293.392412s22.600105 7.533368 27.981082 20.447714c0 0-65.647924 154.304908-100.086179 190.680315s-75.20454-12.074913-75.204541-12.074913z" fill="#0CBFD1" p-id="6255"></path><path d="M635.536479 252.690699l-56.693978-2.152391s-41.971624 8.738707-67.800315 31.48948-9.685759 350.000294-9.685759 350.000294 99.741797 35.320736 160.353126 25.828692c44.662112-6.973747 59.190751-16.142932 59.190752-16.142933S710.439685 315.23918 691.993694 281.963216s-56.457215-29.272517-56.457215-29.272517z" fill="#60D6E6" p-id="6256"></path><path d="M661.709553 657.856774c44.662112-6.973747 59.190751-16.142932 59.190752-16.142933s-1.399054-44.016395-4.111067-101.377614l-201.033316-38.613894 27.701272-125.678108-46.900599 33.125297c-1.226863 100.322943 4.799832 222.85856 4.799832 222.85856s99.741797 35.320736 160.353126 25.828692z" fill="#50CAD3" p-id="6257"></path><path d="M622.98804 222.837036l69.177845 10.826527V125.764204l-69.177845 97.072832z" fill="#21170C" p-id="6258"></path><path d="M578.993169 165.475817v84.416774s12.268628 12.031865 33.814062 10.589763c15.841597-1.054672 22.879916-8.437373 22.879916-8.437372l8.48042-45.028019z" fill="#FBAD83" p-id="6259"></path><path d="M578.993169 179.853789a31.769291 31.769291 0 0 0 2.152391 4.304782c11.127861 18.55361 33.620347 45.845927 57.275123 53.529963l5.768408-30.650047L578.993169 165.475817z" fill="#E68D5C" p-id="6260"></path><path d="M695.523615 199.720357c-23.052107 48.493368-81.102091 9.47052-105.5963-15.066736s-20.275523-107.511929-13.495492-125.204583 63.409438-32.070625 93.263101-20.641429 48.880799 112.41938 25.828691 160.912748z" fill="#FBAD83" p-id="6261"></path><path d="M611.106842 242.639033l-58.394367-19.780473s-8.609564-134.33072 10.116238-167.994114 68.058602-44.963447 99.935512-32.97463c46.405549 17.455891 45.716784 79.05732 46.405549 84.502869a94.081009 94.081009 0 0 0-32.587199-0.215239 120.533894 120.533894 0 0 1-36.267788 1.054672l-22.750772-2.733537z" fill="#21170C" p-id="6262"></path><path d="M581.748229 153.616143c0 9.104614 12.096437 17.219128 19.522186 17.219128s7.382701-8.09299 7.382701-17.219128-6.026695-16.487315-13.452443-16.487315-13.452444 7.382701-13.452444 16.487315z" fill="#FBAD83" p-id="6263"></path><path d="M616.337152 177.206348a13.065013 13.065013 0 1 1-13.065013-13.065013 13.065013 13.065013 0 0 1 13.065013 13.065013z" fill="#FFFFFF" p-id="6264"></path><path d="M700.775449 166.70268c-11.257005 0-20.404666-10.912622-20.404666-24.365066v-1.076195h40.830857v1.076195c0 13.452444-9.147662 24.365066-20.426191 24.365066z m-18.230751-23.374966c0.408954 11.795102 8.437373 21.222575 18.230751 21.222575s17.843321-9.427472 18.252276-21.222575zM653.099989 166.70268c-11.257005 0-20.42619-10.912622-20.42619-24.365066v-1.076195h40.830857v1.076195c0 13.452444-9.147662 24.365066-20.404667 24.365066zM634.955334 143.327714c0.430478 11.795102 8.437373 21.222575 18.252275 21.222575s17.821797-9.427472 18.252275-21.222575z" fill="#21170C" p-id="6265"></path><path d="M605.446054 141.175323h77.9596v2.152391h-77.9596z" fill="#21170C" p-id="6266"></path><path d="M628.971687 616.810678s154.972149-19.801997 186.461629 2.023247 32.651771 64.679348 13.624635 99.289795c-12.569963 22.879916-205.660956 228.390205-205.660957 228.390205s-18.682754-10.353001-21.674577-26.452885l150.000126-214.571855-100.602753-0.839432z" fill="#303763" p-id="6267"></path><path d="M726.453473 623.37547h-86.181734l48.127462-96.706926h86.181734l-48.127462 96.706926z" fill="#FFFFFF" p-id="6268"></path><path d="M624.494714 612.139989a90.40042 90.40042 0 0 0 36.870457 3.745161c21.244099-2.152391 25.010783-12.010342 26.366789-19.823521s-30.606999-6.564792-30.606999-6.564792l3.314682-6.672412s-4.73526-2.991823-13.882922-2.152391-9.448996 8.394325-16.702554 9.750331-5.359453 21.717625-5.359453 21.717624z" fill="#FBAD83" p-id="6269"></path><path d="M507.146358 288.291245s-69.629848 173.525759-75.010825 223.56885 193.715187 103.034955 193.715187 103.034955 4.670688-16.013789 7.899275-27.851939L488.592748 504.520441s63.495533-101.35609 55.962165-157.318255-37.408555-58.910941-37.408555-58.910941z" fill="#60D6E6" p-id="6270"></path><path d="M608.17959 920.06104L568.231214 963.324099l47.352601 59.599706h49.504992v-2.281535a17.455891 17.455891 0 0 0-11.041765-16.229028l-24.235923-9.621187-9.384424-44.81278 4.024971-11.687483z" fill="#303763" p-id="6271"></path><path d="M651.141314 959.966369l-12.569964 63.022007h113.366432a21.114955 21.114955 0 0 0-15.884645-20.447714L679.122396 987.947451l2.86268-31.919958z" fill="#5377C4" p-id="6272"></path><path d="M501.507094 631.403889s146.706968-23.676301 210.568408-12.569964 44.31773 77.055596 39.367231 105.036679-62.419338 253.379464-62.419338 253.379464-17.219128 2.75506-31.575576-3.702112l-14.334924-6.457173 40.18514-262.591697-88.24803 0.538097A95.73835 95.73835 0 0 1 501.507094 631.403889z" fill="#5377C4" p-id="6273"></path><path d="M0 1021.847609h1847.978308v2.152391H0z" fill="#FFFFFF" p-id="6274"></path><path d="M666.982911 615.88515c-70.404708 0.215239-165.432769 15.518739-165.432769 15.518739a95.73835 95.73835 0 0 0 93.715102 73.633294l17.563511-0.107619z" fill="#4F69D1" p-id="6275"></path><path d="M1548.064151 775.743226L1290.143142 887.064887v135.858918h257.921009V775.743226z" fill="#4F69D1" p-id="6276"></path></svg>