<?xml version="1.0" standalone="no"?><!DOCTYPE svg PUBLIC "-//W3C//DTD SVG 1.1//EN" "http://www.w3.org/Graphics/SVG/1.1/DTD/svg11.dtd"><svg t="1689734758315" class="icon" viewBox="0 0 1527 1024" version="1.1" xmlns="http://www.w3.org/2000/svg" p-id="6418" xmlns:xlink="http://www.w3.org/1999/xlink" width="298.2421875" height="200"><path d="M1196.100651 663.941307s1.776798-55.213587 0-136.597584 89.188624-155.511351 164.395341-118.447674c0 0-48.255845 0.597801-82.579599 30.421441s-53.818717 47.359143-56.591851 98.437938-13.051994 126.202484-13.051994 126.202484z" fill="#00B98F" p-id="6419"></path><path d="M1163.022315 663.791856s-5.961407-161.505969-25.34013-224.474366 6.642236-203.983068 6.642236-203.983068 0.929913 108.949276 16.705224 162.568727 42.759394 122.881366 37.611661 185.700313-18.465416 80.337845-18.465416 80.337845z" fill="#00B98F" p-id="6420"></path><path d="M1176.37321 450.758742l-40.168923-13.284472c0.166056 0.597801 0.348717 1.228814 0.531379 1.810009 19.378724 62.968397 25.34013 224.474366 25.340131 224.474366l17.087152 0.14945s13.284472-17.568714 18.482022-80.337844c3.570202-43.589674-8.369217-90.384227-21.271761-132.811509z" fill="#068E6A" p-id="6421"></path><path d="M1164.865536 663.941307s25.522792-80.537112-18.963584-208.848506-99.533907-157.603655-99.533907-157.603655 49.600897 108.135602 70.374491 192.624844 21.006071 173.7775 21.006071 173.7775z" fill="#00C99C" p-id="6422"></path><path d="M1225.0608 447.321385c-18.266149 22.533786-29.55795 50.813106-28.943544 80.022338 1.760193 81.367391 0 136.597584 0 136.597584h12.138687s10.262255-75.090478 13.051993-126.202485c1.992671-36.698354 12.620248-56.077078 31.168693-75.140295z" fill="#068E6A" p-id="6423"></path><path d="M1176.887983 663.941307s13.467134-77.465078-1.39487-187.128395S1301.961287 270.671118 1301.961287 270.671118s-74.160565 86.980081-87.644304 157.504021-2.739922 157.753105-11.225379 201.558652c-5.247366 26.984084-5.695717 34.290543-5.695717 34.290544z" fill="#00C99C" p-id="6424"></path><path d="M1208.239337 663.941307s7.472516-48.438506 6.542602-120.224472S1259.467582 411.818633 1214.864967 305.542857s-76.169842-103.535854-76.169841-103.535854 52.888804-4.649565 90.018904 62.154723 44.835093 152.771428 20.40827 235.284606-22.965531 164.561397-22.965531 164.561397z" fill="#00C99C" p-id="6425"></path><path d="M1164.865536 663.941307s20.192397-63.699043-6.642236-168.031966l-42.958662-11.623913c0.514773 1.942854 0.996335 3.885708 1.477898 5.811956 20.756988 84.539059 21.006071 173.7775 21.006071 173.7775zM1179.727539 512.963282c7.920866 90.151748-2.640289 150.978025-2.640289 150.978025h20.507904s0.448351-7.30646 5.679112-34.290544c5.49645-28.345742 2.955795-74.841394 4.118186-123.246689zM1214.848362 549.512186c0.481562 68.581087-6.642236 114.429121-6.642236 114.429121h17.917431a623.440273 623.440273 0 0 1 8.634907-101.377128z" fill="#00B98F" p-id="6426"></path><path d="M1130.840682 662.396987c-23.961866 28.229503-39.670755 75.439196-39.670755 128.809562 0 48.488323 12.95236 91.812307 33.21118 120.573189h117.89969c20.341848-28.760882 33.310814-72.084866 33.310813-120.573189 0-53.370366-15.708888-100.513637-39.68736-128.809562z" fill="#FF9398" p-id="6427"></path><path d="M1200.932877 662.396987H1130.840682c-23.961866 28.229503-39.670755 75.42259-39.670755 128.809562 0 48.488323 12.95236 91.812307 33.21118 120.573189h76.501954z" fill="#F4828B" p-id="6428"></path><path d="M974.050701 258.582248l-9.863721 40.66709a35.984314 35.984314 0 0 1-31.002636 1.660559L916.030769 293.918944l7.572149-44.835093z" fill="#FBAD83" p-id="6429"></path><path d="M923.702552 249.083851l-6.642236 39.504698a88.839907 88.839907 0 0 0 21.155521-10.312071 77.880217 77.880217 0 0 0 7.123798-5.297183c4.36727-3.669835 7.920866-9.963354 10.760423-17.767982z" fill="#E68D5C" p-id="6430"></path><path d="M667.312241 837.386695l-42.277832 73.064596h-74.44286a18.266149 18.266149 0 0 1 12.80291-17.386053l41.281497-12.786304 39.703966-72.915146z" fill="#204A99" p-id="6431"></path><path d="M762.196583 840.093406l12.65346 70.142012h-102.240618a18.697894 18.697894 0 0 1 14.463469-18.266149l42.344254-14.828792-3.752863-33.77577z" fill="#5377C4" p-id="6432"></path><path d="M796.005564 601.720161l-125.272571 238.223794s-26.568944 2.059093-31.783099-8.900596l-5.180944-10.943084 87.627698-232.079726z" fill="#0CBFD1" p-id="6433"></path><path d="M875.280651 562.232068s-153.51868-18.266149-183.64122-6.393153-0.846885 178.908627 23.729388 264.709711l8.219767 29.209233s9.050047 5.479845 26.88445 0l17.834404-5.479845S747.251552 629.783608 750.473036 622.477148s21.23855-5.679112 21.23855-5.679111h103.569065z" fill="#60D6E6" p-id="6434"></path><path d="M874.466977 562.182251s-50.148882-5.961407-98.736838-8.85078l-32.596773 64.761802 6.426363 4.632959 0.099633-0.348717c3.23809-7.30646 21.255155-5.679112 21.255156-5.679112h103.552459z" fill="#50CAD3" p-id="6435"></path><path d="M510.10712 501.986987h60.029208v-140.599531h-60.029208v140.599531" fill="#3A3A63" p-id="6436"></path><path d="M517.629453 501.986987h60.045813v-140.599531h-60.045813v140.599531" fill="#A9C2DC" p-id="6437"></path><path d="M549.130257 493.302263h102.257224v8.684724h-102.257224z" fill="#A9C2DC" p-id="6438"></path><path d="M517.629453 493.302263h65.459236v8.684724h-65.459236z" fill="#3A3A63" p-id="6439"></path><path d="M885.476483 232.362021c-6.642236 0-12.122081-7.024165-12.12208-15.659071s5.446634-15.675677 12.12208-15.675677 12.138686 7.024165 12.138687 15.675677-5.446634 15.659071-12.138687 15.659071z m0-29.674189c-5.76214 0-10.461522 6.293519-10.461521 14.015118s4.699382 13.998512 10.461521 13.998512 10.478127-6.276913 10.478128-13.998512-4.699382-14.015118-10.478128-14.015118z" fill="#FFFFFF" p-id="6440"></path><path d="M892.085508 258.233531c12.321348 32.79604 48.156211 22.583602 69.610634 8.419034a80.238211 80.238211 0 0 0 7.123798-5.297183c19.378724-16.323295 22.699842-84.688509 18.847344-97.972982s-44.287109-27.399224-66.787683-20.906437-42.609944 78.942975-28.794093 115.757568z" fill="#FBAD83" p-id="6441"></path><path d="M956.481986 264.593472a28.677854 28.677854 0 0 0 27.880786-20.923044c7.837838-27.847574 17.751376-74.725155 0-87.378615-25.75527-18.266149-47.724466-23.49691-70.374491-14.945031s-23.745994 29.890062-20.175791 36.781382 11.358224 1.810009 13.898878 12.022448c1.262025 4.981677-1.27863 15.32696-4.184608 24.476639a17.851009 17.851009 0 0 0 12.437587 22.583603 21.122311 21.122311 0 0 0 20.026341 27.216562z" fill="#21170C" p-id="6442"></path><path d="M922.058598 231.432108c-1.12918 8.767752-9.963354 15.542832-14.945031 14.945031s-3.769469-8.419034-2.656894-17.219996 5.961407-15.376776 10.826845-14.745764 7.887655 8.252978 6.77508 17.020729z" fill="#FBAD83" p-id="6443"></path><path d="M1137.466312 910.517713h20.989466l-69.643845-388.454568h-21.006071l69.66045 388.454568z" fill="#204A99" p-id="6444"></path><path d="M1149.505365 910.517713h20.989466l-69.66045-388.454568h-20.989466l69.66045 388.454568zM886.190524 910.517713h-21.006072l69.660451-388.454568h21.006071l-69.66045 388.454568z" fill="#A9C2DC" p-id="6445"></path><path d="M896.07085 910.517713h-20.989466l69.643845-388.454568h21.006071l-69.66045 388.454568zM422.130704 910.517713h21.006072l-69.66045-388.454568h-21.006072l69.66045 388.454568z" fill="#204A99" p-id="6446"></path><path d="M434.169757 910.517713h21.006072l-69.660451-388.454568h-21.006071l69.66045 388.454568z" fill="#A9C2DC" p-id="6447"></path><path d="M141.629077 501.986987h1028.865754v20.076158H141.629077z" fill="#FFFFFF" p-id="6448"></path><path d="M141.629077 512.016763h1028.865754v10.046382H141.629077z" fill="#A9C2DC" p-id="6449"></path><path d="M141.629077 501.986987H455.159223v20.076158H141.629077z" fill="#5377C4" p-id="6450"></path><path d="M141.629077 512.016763H455.159223v10.046382H141.629077z" fill="#204A99" p-id="6451"></path><path d="M162.635149 910.517713H141.629077l69.660451-388.454568h20.989466L162.635149 910.517713z" fill="#A9C2DC" p-id="6452"></path><path d="M172.515475 910.517713H151.509404l69.66045-388.454568h21.006071l-69.66045 388.454568z" fill="#204A99" p-id="6453"></path><path d="M700.921956 467.44736H411.818633a10.146016 10.146016 0 0 1-10.146015-10.146016L384.236748 237.459938a10.162621 10.162621 0 0 1 10.146015-10.146016h289.136534a10.146016 10.146016 0 0 1 10.146016 10.146016l17.402658 219.774984a10.162621 10.162621 0 0 1-10.146015 10.146015" fill="#3A3A63" p-id="6454"></path><path d="M709.141723 467.44736H420.005189a10.146016 10.146016 0 0 1-10.146016-10.146016L392.456515 237.459938a10.146016 10.146016 0 0 1 10.146016-10.146016h289.136533a10.146016 10.146016 0 0 1 10.146016 10.146016l17.402658 219.774984a10.162621 10.162621 0 0 1-10.146015 10.146015" fill="#A9C2DC" p-id="6455"></path><path d="M686.059953 232.478261H409.012288a9.71427 9.71427 0 0 0-9.71427 9.71427l16.60559 210.575487a9.730876 9.730876 0 0 0 9.730876 9.730876h277.097481a9.730876 9.730876 0 0 0 9.71427-9.730876L695.774223 242.126108a9.71427 9.71427 0 0 0-9.71427-9.71427" fill="#EEF3F8" p-id="6456"></path><path d="M874.334132 212.651186h50.281727v1.660559h-50.281727z" fill="#FFFFFF" p-id="6457"></path><path d="M965.7313 292.872792s-19.162851 4.981677-32.580168 3.736257-17.120363-2.690106-17.120363-2.690105-44.038025 5.91159-61.440683 18.681289-32.79604 144.950195-31.882733 168.961878-1.295236 96.312422-1.295236 96.312422h184.7704s14.596314-239.452608 0-259.047204-40.451217-25.954537-40.451217-25.954537z" fill="#F9C200" p-id="6458"></path><path d="M925.645406 577.874533l-28.860516-205.477571-58.318832-15.642466c-9.664453 44.718854-16.356506 108.816432-15.758705 124.840826 0.913307 24.044894-1.295236 96.312422-1.295236 96.312423z" fill="#EDB607" p-id="6459"></path><path d="M534.733211 495.61044h148.786086v6.376547h-148.786086z" fill="#FFFFFF" p-id="6460"></path><path d="M464.557987 501.986987h70.175224v-6.393152l-70.175224-5.164339v11.557491z" fill="#3A3A63" p-id="6461"></path><path d="M464.557987 490.429496h148.786087l70.175223 5.164339h-148.786086l-70.175224-5.164339z" fill="#5FD6E6" p-id="6462"></path><path d="M639.913018 479.187512s-13.035388-12.205109-27.797758-13.915485-42.659761 10.893267-46.063907 14.76237-1.12918 7.970683 1.95946 10.079593 34.224121 4.981677 42.975267 3.885708 27.797758 5.728929 27.797758 5.728929z" fill="#FBAD83" p-id="6463"></path><path d="M851.268968 316.60218l-98.388121 148.503791-123.528984 5.845168s-9.581425 16.871279 0 31.035848h154.813916l49.069518-67.103189a119.958782 119.958782 0 0 0 22.168463-85.933929z" fill="#F9C200" p-id="6464"></path><path d="M1030.31044 347.422155H854.706325l-21.969196 234.803043-8.302795 25.34013-40.384795 25.888115H956.648042l0.714041-0.232478h8.651512a46.777947 46.777947 0 0 0 46.777947-46.777947l25.722059-230.817702a8.203161 8.203161 0 0 0-8.203161-8.203161z" fill="#A9C2DC" p-id="6465"></path><path d="M859.488735 641.042198h31.583832v269.19322h-31.583832z" fill="#5377C4" p-id="6466"></path><path d="M771.910853 910.517713a23.629755 23.629755 0 0 1 23.629755-23.64636h159.413664a23.64636 23.64636 0 0 1 23.64636 23.64636zM852.099247 633.453443h46.362808v30.122541h-46.362808z" fill="#5377C4" p-id="6467"></path><path d="M859.488735 663.575984h31.583832v27.764546h-31.583832z" fill="#204A99" p-id="6468"></path><path d="M846.503164 355.625316L820.781105 583.520434a33.21118 33.21118 0 0 1-33.211181 33.21118h-39.039742a8.219767 8.219767 0 0 0 0 16.422929H790.426086a46.777947 46.777947 0 0 0 46.777947-46.777947l25.722059-230.817702a8.219767 8.219767 0 0 0-16.422928 0z" fill="#5377C4" p-id="6469"></path><path d="M423.293096 501.986987h33.808981l5.811957-66.920528h-45.432895l5.811957 66.920528z" fill="#FFFFFF" p-id="6470"></path><path d="M427.560732 498.649263h25.257103l3.121851-35.917891a17.718165 17.718165 0 0 0-10.478128-0.232478c-6.974348 1.411475-10.212438-0.780463-15.459804-2.407811-2.208543-0.680829-4.765804 2.075699-5.695717 1.062758 1.444686 16.672012 1.810009 20.840016 3.254695 37.495422z" fill="#3A3A63" p-id="6471"></path><path d="M1030.60934 696.38863h-23.895444A44.187475 44.187475 0 0 0 962.526421 740.609316v112.918012a44.187475 44.187475 0 0 0 44.187475 44.187475h26.884451v-14.945031h-26.884451A29.275655 29.275655 0 0 1 977.438241 853.527328v-112.918012a29.308866 29.308866 0 0 1 29.275655-29.292261h23.895444z" fill="#204A99" p-id="6472"></path><path d="M1069.864955 657.365493m11.341618 0l24.47664 0q11.341618 0 11.341618 11.341618l0 28.99336q0 11.341618-11.341618 11.341618l-24.47664 0q-11.341618 0-11.341618-11.341618l0-28.99336q0-11.341618 11.341618-11.341618Z" fill="#204A99" p-id="6473"></path><path d="M1078.383623 657.365493m11.341618 0l24.47664 0q11.341618 0 11.341618 11.341618l0 28.99336q0 11.341618-11.341618 11.341618l-24.47664 0q-11.341618 0-11.341618-11.341618l0-28.99336q0-11.341618 11.341618-11.341618Z" fill="#0CBFD1" p-id="6474"></path><path d="M994.824294 677.508074m19.926708 0l115.192978 0q19.926708 0 19.926708 19.926708l0 192.873928q0 19.926708-19.926708 19.926708l-115.192978 0q-19.926708 0-19.926708-19.926708l0-192.873928q0-19.926708 19.926708-19.926708Z" fill="#5377C4" p-id="6475"></path><path d="M1030.60934 677.508074m19.926708 0l115.192979 0q19.926708 0 19.926708 19.926708l0 192.873928q0 19.926708-19.926708 19.926708l-115.192979 0q-19.926708 0-19.926708-19.926708l0-192.873928q0-19.926708 19.926708-19.926708Z" fill="#60D6E6" p-id="6476"></path><path d="M1030.60934 824.484151v65.824559a19.926708 19.926708 0 0 0 19.926708 19.926708H1165.712421a19.926708 19.926708 0 0 0 19.926708-19.926708v-39.288826z" fill="#0CBFD1" p-id="6477"></path><path d="M1150.451884 893.380744h-84.68851a19.926708 19.926708 0 0 1-19.926708-19.926708v-119.427403h104.615218a19.926708 19.926708 0 0 1 19.926708 19.926708V873.454036a19.926708 19.926708 0 0 1-19.926708 19.926708z" fill="#204A99" p-id="6478"></path><path d="M1157.160542 893.380744h-84.688509a19.926708 19.926708 0 0 1-19.926708-19.926708v-119.427403h124.541925V873.454036a19.926708 19.926708 0 0 1-19.926708 19.926708z" fill="#5377C4" p-id="6479"></path><path d="M1045.886483 694.645043m11.341618 0l101.808873 0q11.341618 0 11.341618 11.341618l0 28.99336q0 11.341618-11.341618 11.341618l-101.808873 0q-11.341618 0-11.341618-11.341618l0-28.99336q0-11.341618 11.341618-11.341618Z" fill="#204A99" p-id="6480"></path><path d="M1052.595142 694.645043m11.341618 0l101.808872 0q11.341618 0 11.341618 11.341618l0 28.99336q0 11.341618-11.341618 11.341618l-101.808872 0q-11.341618 0-11.341618-11.341618l0-28.99336q0-11.341618 11.341618-11.341618Z" fill="#5377C4" p-id="6481"></path><path d="M918.289129 228.011357c0.730646 3.420752-3.171668 7.422699-5.978012 8.0205s3.221484-4.084975 2.490838-7.505727-5.679112-5.064705-2.889372-5.6459 5.679112 1.69377 6.376546 5.131127z" fill="#E68D5C" p-id="6482"></path><path d="M334.469795 712.645502l-13.981907 51.311273 83.658962 25.722059a23.829022 23.829022 0 0 0-8.419034-26.020959l-29.657584-22.434152 4.848833-28.84391z" fill="#204A99" p-id="6483"></path><path d="M174.176034 851.733924l-9.016835 58.501494h85.236493a19.179456 19.179456 0 0 0-12.470798-17.967248l-30.139146-11.275196 2.573867-21.769928z" fill="#5377C4" p-id="6484"></path><path d="M308.149934 416.119481s109.729739 42.609944 112.918013 61.722978-47.674649 238.622329-47.674649 238.622329l-42.776-1.926249s19.760652-175.62072 16.024394-193.35549-119.925571-8.983624-131.632512-44.984543-8.136739-75.671674-8.136739-75.671674z" fill="#204A99" p-id="6485"></path><path d="M257.104351 500.758173l-28.229503-96.827195 79.192058 12.188503s15.310354 6.011224 39.172587 16.306689z" fill="#5377C4" p-id="6486"></path><path d="M256.606183 422.794928s1.54432 195.331556 1.494503 214.726885-45.748401 224.939323-45.748401 224.939323L167.716459 858.592033s26.286649-206.756202 25.688848-224.856295-33.327419-130.038376-38.774053-167.500586S159.413664 390.231366 159.413664 390.231366l37.395789 12.520615z" fill="#5377C4" p-id="6487"></path><path d="M196.842664 419.274543l-41.082229-10.378494c-2.274966 14.695947-4.201214 36.166975-1.129181 57.339103 5.446634 37.462211 38.192857 149.45031 38.790659 167.500586l26.784817-61.938851z" fill="#4F69D1" p-id="6488"></path><path d="M313.613174 404.694835l4.400481 15.443199s-70.474124 45.897851-157.570444 15.874944L147.573879 431.745341l2.789739-22.733053z" fill="#F0F1F4" p-id="6489"></path><path d="M303.317708 199.549376l15.758705 94.253329 140.117968 16.207055V337.093478s-113.83132 8.452245-140.732375 0.41514-44.46977-19.12964-50.530811-67.933469 35.386512-70.025773 35.386513-70.025773z" fill="#0CBFD1" p-id="6490"></path><path d="M217.284146 170.456382l-50.879528 12.587037A28.744276 28.744276 0 0 0 144.568267 210.890994v206.556934c22.035618 8.784357 68.365214 23.430488 123.562195 11.623913a201.409202 201.409202 0 0 0 50.331544-18.14991c-5.147733-71.404037-9.631242-136.946301-14.679342-207.437031a28.046842 28.046842 0 0 0-19.079823-24.609484l-23.247826-7.754811z" fill="#60D6E6" p-id="6491"></path><path d="M217.284146 170.456382s14.812186 25.157469 33.975037 21.437817 10.262255-20.856621 10.262255-20.856622z" fill="#FFFFFF" p-id="6492"></path><path d="M217.284146 113.748292v56.70809s9.531609 8.086922 26.286649 7.107192c15.493016-0.896702 17.950643-6.509391 17.950643-6.509391l6.409757-29.4085-50.647049-27.897391" fill="#FBAD83" p-id="6493"></path><path d="M262.617407 166.0559a66.605022 66.605022 0 0 1-17.170181-10.245649 49.717137 49.717137 0 0 1-16.721829-23.546726l33.991643 6.47618 5.214155 2.872767-5.313788 24.443428" fill="#E68D5C" p-id="6494"></path><path d="M276.532891 80.703168h28.777488v1.660559h-28.777488z" fill="#21170C" p-id="6495"></path><path d="M296.741894 40.999202s4.882043 12.072264 4.882044 22.650025c0 8.502062-3.420752 24.592879-3.420752 24.592878L278.625195 38.192857z" fill="#7A4029" p-id="6496"></path><path d="M295.579503 136.747034c-15.493016 32.563562-53.918351 13.284472-70.391096-3.105245s-14.181174-79.208664-9.614637-91.081662 42.593338-21.587267 62.652891-13.865667S311.039307 104.166866 295.579503 136.747034" fill="#FBAD83" p-id="6497"></path><path d="M301.623938 113.781503A74.725155 74.725155 0 0 1 295.579503 136.747034c-6.177279 12.95236-15.974578 17.684953-26.568944 17.684953 10.594366 0 20.391665-4.749199 26.568944-17.701559a74.260199 74.260199 0 0 0 6.06104-22.948925" fill="#D7C5BE" p-id="6498"></path><path d="M229.921 88.242105H212.551553c1.062758 18.648078 4.63296 37.462211 12.603642 45.399684 9.963354 9.963354 27.797758 20.806804 43.838758 20.806804 10.577761 0 20.375059-4.749199 26.568944-17.701559a74.725155 74.725155 0 0 0 6.061041-22.965531c-2.922584-1.95946-5.562873-2.839556-11.474463-2.839556h-3.487174c-13.799245 0.581196-24.725724 10.561155-32.945491 10.561155a8.302795 8.302795 0 0 1-2.424416-0.332111c-9.963354-2.889373-21.371394-33.011913-21.371394-33.011913" fill="#D48C68" p-id="6499"></path><path d="M217.765708 92.227447a20.856621 20.856621 0 0 0 18.764317-23.364065c-0.880096-7.057376-2.955795-9.315736-1.112575-16.007789 3.65323-13.284472 19.627807-12.072264 30.421441-7.107192s22.550391 4.981677 31.81631-2.059094a16.937702 16.937702 0 0 0 3.968737-22.334518C295.579503 11.623913 274.24132 0 274.24132 0s2.590472 5.828562 1.660559 8.850779-57.604792-14.031724-69.245311 11.208774 3.869102 72.832118 3.869103 72.832118z" fill="#7A4029" p-id="6500"></path><path d="M207.802354 92.559559c0 8.402429 11.158957 15.858338 18.000459 15.858338s6.808292-7.45591 6.808292-15.858338-5.562873-15.21072-12.404375-15.210721-12.404376 6.808292-12.404376 15.210721z" fill="#FBAD83" p-id="6501"></path><path d="M212.916876 91.812307c-0.797068 3.752863 3.487174 8.153345 6.559208 8.800963s-3.520385-4.483509-2.723317-8.302795 6.227096-5.529661 3.155062-6.193885-6.193885 1.893037-6.990953 5.695717z" fill="#E68D5C" p-id="6502"></path><path d="M294.632984 99.434273c-6.343335 0-11.507674-6.642236-11.507674-14.945031s5.164339-14.745764 11.507674-14.745764 11.507674 6.642236 11.507674 14.845398-5.147733 14.845397-11.507674 14.845397z m0-28.046841c-5.430028 0-9.847115 5.91159-9.847115 13.184838s4.417087 13.284472 9.847115 13.284472 9.847115-5.928196 9.847115-13.284472S300.063012 71.404037 294.632984 71.404037zM267.931195 99.434273c-6.343335 0-11.507674-6.642236-11.507674-14.945031s5.164339-14.745764 11.507674-14.745764 11.524279 6.642236 11.52428 14.845398-5.164339 14.845397-11.52428 14.845397z m0-28.046841c-5.430028 0-9.847115 5.91159-9.847115 13.184838s4.417087 13.284472 9.847115 13.284472 9.86372-5.928196 9.863721-13.284472-4.433693-13.168233-9.863721-13.168233z" fill="#21170C" p-id="6503"></path><path d="M230.933941 80.703168h26.585549v1.660559h-26.585549zM278.625195 80.703168h5.347v1.660559h-5.347z" fill="#21170C" p-id="6504"></path><path d="M294.483534 119.344376h-24.127923s4.882043 11.424646 13.018783 11.740152 11.10914-11.740152 11.10914-11.740152z" fill="#FFFFFF" p-id="6505"></path><path d="M187.726195 231.531742l-43.174534 4.865438v181.000931a224.026015 224.026015 0 0 0 69.427972 15.642466z" fill="#50CAD3" p-id="6506"></path><path d="M149.30086 507.715916s-1.992671 33.344025-4.732593 45.383077 8.883991 18.266149 18.847345 18.681289 17.58532-33.858798 18.133304-49.717137-6.459575-23.247826-6.459575-23.247826z" fill="#FBAD83" p-id="6507"></path><path d="M147.573879 198.154506l-46.047301 114.977105a88.457978 88.457978 0 0 0-0.232479 56.874146l46.346202 139.105028s21.753323 6.542602 27.515463 0l5.76214-6.525997-36.349637-164.046624s47.342537-84.98741 43.473435-118.862813-40.467823-21.520845-40.467823-21.520845z" fill="#60D6E6" p-id="6508"></path><path d="M417.315083 249.117062l1.660559 15.47641h181.000932l-2.075699-15.47641H417.315083zM417.315083 323.875428l1.511109 14.048329h164.262497l-1.876432-14.048329h-163.897174zM421.250608 354.363291l1.511109 14.04833h164.279102l-1.893037-14.04833h-163.897174zM425.750723 386.279236l1.511109 14.064934h164.279102l-1.893037-14.064934h-163.897174zM421.250608 281.315301l2.075699 19.345512h226.051897l-2.590472-19.345512H421.250608z" fill="#5FD6E6" p-id="6509"></path><path d="M450.16094 372.396962h-88.624034l49.484659-99.417667h88.624034l-49.484659 99.417667z" fill="#FFFFFF" p-id="6510"></path><path d="M489.466372 320.272015a9.066652 9.066652 0 0 0-10.893267-8.385823 37.429 37.429 0 0 0-18.731106 9.681059c-11.507674 11.507674-7.406093 20.856621-2.507444 26.751606s14.264202 2.939189 25.240497-2.407811c6.907925-3.370935 7.439304-16.45614 6.89132-25.639031z" fill="#FBAD82" p-id="6511"></path><path d="M597.336285 322.696431l11.789969 117.89969h79.540776l-9.847115-117.89969h-81.48363z" fill="#FF9398" p-id="6512"></path><path d="M0 909.405139h1308.171778v1.660559H0z" fill="#FFFFFF" p-id="6513"></path></svg>