<?xml version="1.0" standalone="no"?><!DOCTYPE svg PUBLIC "-//W3C//DTD SVG 1.1//EN" "http://www.w3.org/Graphics/SVG/1.1/DTD/svg11.dtd"><svg t="1689734760150" class="icon" viewBox="0 0 1581 1024" version="1.1" xmlns="http://www.w3.org/2000/svg" p-id="6651" xmlns:xlink="http://www.w3.org/1999/xlink" width="308.7890625" height="200"><path d="M1326.668538 191.242454l-128.575644-26.415111-27.022989-158.416981-25.973017 3.684115s6.944558 150.293506 14.31279 177.998058 168.198309 69.445584 168.198309 69.445583z" fill="#60D6E6" p-id="6652"></path><path d="M1164.641123 6.391941s6.760353-5.526174 13.502284-1.842058 5.526174 12.894405 5.526174 12.894406l-19.028458-2.560461z" fill="#E68D5C" p-id="6653"></path><path d="M198.537003 316.723439h1.842058V860.793668h-1.842058zM221.175895 365.869545h1.842058v544.070228h-1.842058zM213.144522 477.95877h1.842058v450.033171h-1.842058zM172.177154 537.715129h1.842058v450.033171h-1.842058zM234.936068 619.189351h1.842058v375.57719h-1.842058z" fill="#5377C4" p-id="6654"></path><path d="M163.169491 421.831265c27.207196-13.778593 58.043245-7.570858 68.892966 13.870696s-2.413096 49.956611-29.601871 63.735204-84.863609 65.300953-95.787012 43.87782S135.980716 435.68354 163.169491 421.831265zM131.33873 696.076848c23.338874-25.162511 63.422054-25.936176 89.542436-1.731534s28.349271 64.25098 5.010397 89.413492-58.945854 106.949883-85.010973 82.726821-32.880734-145.246267-9.54186-170.408779zM326.615291 747.691311c-40.027919-11.052348-81.787372 13.631229-93.244973 55.169635s11.678647 84.145206 51.706566 95.197554 128.630905 72.613923 140.106926 31.075517-58.614283-170.390358-98.568519-181.442706z" fill="#5377C4" p-id="6655"></path><path d="M110.523475 544.696528c31.664976-21.459975 71.048174-18.623206 87.939846 6.318259s4.936715 62.629969-26.746681 84.016262-95.271236 94.737039-112.162907 69.777154S78.766397 566.138082 110.523475 544.696528z" fill="#00C99C" p-id="6656"></path><path d="M110.523475 544.696528c-29.804497 20.262637-63.60626 122.073179-53.419679 154.732866 27.501925-83.150495 45.369887-107.741968 73.848102-137.951718a139.093794 139.093794 0 0 1 39.733189-29.362403c-18.365318-4.623565-40.764742-0.6263-60.161612 12.581255z" fill="#00B98F" p-id="6657"></path><path d="M292.426695 443.088613c-36.343803-11.936535-73.424429 1.60259-82.892606 30.228171s12.433891 61.506314 48.777694 73.442849 117.615398 64.932542 127.101996 36.306962-56.661702-128.078287-92.987084-139.977982z" fill="#00C99C" p-id="6658"></path><path d="M292.426695 443.088613c34.188595 11.236553 94.663357 99.913222 93.944955 134.19392-49.275049-72.392876-73.203382-91.145026-108.884044-112.365534a139.093794 139.093794 0 0 0-46.364598-17.296923c16.302213-9.560281 38.941105-11.881274 61.303687-4.531463z" fill="#00B98F" p-id="6659"></path><path d="M248.456773 332.730923c-23.430977 9.836589-36.141176 32.788631-28.386113 51.246051s33.028099 25.43882 56.459076 15.58381 87.276704-18.660047 79.52164-37.117467-84.163627-39.567404-107.594603-29.712394z" fill="#00C99C" p-id="6660"></path><path d="M198.518582 277.358662c14.62594 10.057636 20.078431 27.630869 12.157583 39.070048s-26.194064 12.72862-40.838424 2.670984-57.103796-25.12567-49.146106-36.656952 63.182587-15.123296 77.826947-5.08408z" fill="#5377C4" p-id="6661"></path><path d="M248.456773 332.730923c22.104695-9.21029 91.016082 8.878719 105.549919 26.433531-56.256449-14.846987-76.426983-13.833855-103.578917-8.933981a92.397625 92.397625 0 0 0-30.762368 11.4576c4.034107-11.881274 14.386472-22.89678 28.791366-28.95715z" fill="#00B98F" p-id="6662"></path><path d="M321.641734 633.667926c-42.183126-28.93873-98.108005-28.883468-124.946789 0.128944S182.363734 709.763339 224.491599 738.665228s123.288937 123.915237 150.1093 94.921244-10.776039-170.998237-52.959165-199.918546z" fill="#00C99C" p-id="6663"></path><path d="M321.660155 633.667926c39.696348 27.225616 75.321749 154.56708 57.103795 193.67397-28.975571-103.910487-51.282893-135.501781-87.921424-174.848138a188.681993 188.681993 0 0 0-52.627595-39.291096c26.323008-4.163051 57.490628 2.652563 83.445224 20.465264z" fill="#00B98F" p-id="6664"></path><path d="M302.871164 868.622414H163.574744c-9.302393 0-16.85483 34.575427-16.85483 77.219068v77.237489h172.987659v-77.219068c0.018421-42.662062-7.534017-77.237489-16.836409-77.237489z" fill="#FF9398" p-id="6665"></path><path d="M199.458032 868.622414H163.574744c-9.302393 0-16.85483 34.575427-16.85483 77.219068v77.237489h35.883288v-77.219068c0-42.662062 7.552437-77.237489 16.85483-77.237489z" fill="#F4828B" p-id="6666"></path><path d="M144.306818 852.707034h177.850692V869.45134a14.64436 14.64436 0 0 1-14.64436 14.644361H158.951178a14.64436 14.64436 0 0 1-14.64436-14.644361v-16.725886-0.01842z" fill="#FFB0B2" p-id="6667"></path><path d="M60.677388 811.702824c17.867962-33.820183 53.953877-49.735564 80.608455-35.735923S174.995503 828.926066 157.145962 862.690988s-39.585825 128.391437-66.314086 114.299694S42.809426 845.504587 60.677388 811.702824z" fill="#00C99C" p-id="6668"></path><path d="M60.677388 811.702824c-16.817989 31.830761 1.215758 137.638568 25.586185 161.751107-14.736463-86.318834-10.573412-116.418061 0.386832-156.482821a139.093794 139.093794 0 0 1 21.275769-44.596222c-18.346897 4.45778-36.2517 18.512682-47.248786 39.327936z" fill="#00B98F" p-id="6669"></path><path d="M1214.837201 15.620651m38.775319 0l-0.01842 0q38.775319 0 38.775319 38.775319l0 604.766038q0 38.775319-38.775319 38.775319l0.01842 0q-38.775319 0-38.775319-38.775319l0-604.766038q0-38.775319 38.775319-38.775319Z" fill="#5377C4" p-id="6670"></path><path d="M327.646843 15.620651m38.775319 0l881.82997 0q38.775319 0 38.775319 38.775319l0 604.766038q0 38.775319-38.775319 38.775319l-881.82997 0q-38.775319 0-38.775319-38.775319l0-604.766038q0-38.775319 38.775319-38.775319Z" fill="#F0F1F4" p-id="6671"></path><path d="M1311.876812 505.792265L1278.388199 684.766613a50.417125 50.417125 0 0 0 14.239108 45.240942l183.376866 179.969059 34.630689-39.033207-144.472603-167.516748 33.322828-192.071379z" fill="#204A99" p-id="6672"></path><path d="M1387.953805 577.724627l11.531282-66.369347-87.608275-5.563015-6.484044 34.66753 82.561037 37.264832z" fill="#5377C4" p-id="6673"></path><path d="M1347.925886 496.72934L1328.123763 702.966145l95.934377 272.624573 46.714589-9.376075-61.285267-263.248498s47.727721-127.101997 52.646015-177.298075l4.918295-50.177658z" fill="#5377C4" p-id="6674"></path><path d="M590.084835 596.513618a11.494441 11.494441 0 0 1-4.107789-0.773665c-39.235834-14.93909-61.248426-158.085411-62.169455-164.164202l3.684116-0.552617c0.221047 1.473646 22.602051 147.088325 59.830042 161.272171a7.994531 7.994531 0 0 0 6.907717-0.571038c20.741572-11.052348 40.764742-94.626516 56.845907-161.843209 10.702357-44.762008 19.949487-83.426803 27.96244-96.542256 6.447203-10.573412 13.281238-16.173269 20.907357-17.131139 12.783882-1.60259 25.291455 10.628674 37.375355 22.436266 13.225976 12.894405 26.894046 26.304587 40.285807 21.331031 32.530743-12.102321 36.841158-167.627271 36.970103-169.248283l3.684115 0.092103c-0.165785 6.520885-4.513042 159.65116-39.364777 172.619248-15.565389 5.784062-30.099226-8.418205-44.209391-22.104695-11.4576-11.199712-23.320453-22.786257-34.335959-21.423133-6.428782 0.810505-12.378629 5.839324-18.217953 15.399604-7.699802 12.618097-17.333765 52.867062-27.520346 95.492283-17.094298 71.490268-36.491167 152.503976-58.706386 164.237884a12.41547 12.41547 0 0 1-5.820903 1.473647z" fill="#FF9398" p-id="6675"></path><path d="M1346.175931 518.410362L1448.483828 587.616478c6.944558-23.946753 12.489153-46.585645 13.98122-61.966829l4.918294-50.177658-119.125886 21.220508z" fill="#4F69D1" p-id="6676"></path><path d="M781.935168 279.992804s-8.105055-5.894585-15.933801-11.052347-54.414391-2.928872-54.414391-2.928872 1.068394 6.005109 3.131499 7.368232 24.867782 1.58417 24.867782 1.584169a14.736463 14.736463 0 0 0-2.081526 6.410362c-0.478935 4.163051-1.049973 8.970822 4.605145 12.72862s26.138802 3.057816 26.138802 3.057816z" fill="#FBAD83" p-id="6677"></path><path d="M981.651088 712.286958l12.139162 284.505846 33.230725 5.489333 15.639072-291.100414-61.008959 1.105235z" fill="#E68D5C" p-id="6678"></path><path d="M1007.974096 739.880986l89.652959 268.848354 28.238748-27.133513-59.590574-260.595935-58.301133 18.881094z" fill="#FBAD83" p-id="6679"></path><path d="M967.264616 217.804929s-7.62612 1.528908-17.462709 14.828566S894.650693 329.728368 894.650693 329.728368l-115.239144-55.99856s-9.357654 9.21029-11.826012 17.51797l-2.468358 8.362943s101.939486 67.971937 134.930743 68.948228 81.253175-93.079187 83.721533-106.839359-16.504839-43.914661-16.504839-43.914661z" fill="#4871B3" p-id="6680"></path><path d="M966.527793 217.804929l43.675193-6.962979 44.20939 2.984134 48.132974 11.531282-3.334125 202.736896a150.201403 150.201403 0 0 0-0.184206 30.87289l25.217773 275.019248c-12.433891 2.799928-30.743947 5.41565-44.338334 7.368232-69.077172 9.910272-108.902464 1.031552-158.601187-9.210289l28.62558-288.668898z" fill="#5377C4" p-id="6681"></path><path d="M1080.735384 741.373053c13.612808-1.952581 31.904443-4.568304 44.338334-7.368232l-25.217773-275.019248a150.219824 150.219824 0 0 1 0.184206-30.872891l2.118367-127.85724-26.617737-2.965714 8.620831 90.850297-11.75233 354.375104c2.726246-0.368412 5.489333-0.736823 8.326102-1.142076z" fill="#4F69D1" p-id="6682"></path><path d="MNaN NaNmNaN NaNlNaN NaNqNaN NaN NaN NaNlNaN NaNqNaN NaN NaN NaNlNaN NaNqNaN NaN NaN NaNlNaN NaNqNaN NaN NaN NaNZ" fill="#A9C2DC" p-id="6683"></path><path d="M1010.202986 210.860371l-8.620831 17.49955 18.015327-4.826192 14.220687 16.339054 20.520525-26.046699-44.135708-2.965713z" fill="#FFFFFF" p-id="6684"></path><path d="M977.193308 101.865803s-9.21029 73.940205-5.526174 88.418781 40.156863 11.512862 58.430078 10.039215 27.888757 0.976291 35.846447-3.444648-6.631409-50.693434-6.631409-50.693434z" fill="#E56107" p-id="6685"></path><path d="M1006.703076 180.779565l3.49991 30.080806s4.107789 6.962979 25.899335 6.962979a40.525274 40.525274 0 0 0 18.217952-3.978846v-53.051268z" fill="#FBAD83" p-id="6686"></path><path d="M1006.703076 180.779565l2.413096 20.68631a40.212124 40.212124 0 0 0 11.881274-0.884188C1026.026264 199.40277 1040.762727 184.205792 1049.973017 162.561612z" fill="#E68D5C" p-id="6687"></path><path d="M978.611693 85.139917s-5.08408 50.398705 2.007843 74.824393 29.196618 34.741212 48.685591 30.246591c7.239288-1.657852 33.470192-31.130779 36.841158-67.566684s0.147365-47.39615-5.765641-55.095953-59.756359-17.296924-69.537687-8.860299-12.231265 26.451952-12.231264 26.451952z" fill="#FBAD83" p-id="6688"></path><path d="M995.853355 83.297859s-16.578521 23.302033-20.631049 23.946753-4.623565-14.736463-3.573592-28.736103c1.639432-21.975751 16.928512-31.720237 16.928512-31.720238z" fill="#F76A00" p-id="6689"></path><path d="M980.177442 64.85886s4.918295 27.151934 15.25224 43.398884 49.219788 10.333945 56.109084 10.831301-0.976291 55.132794-5.913006 73.332326 30.5229 12.802303 41.833135 10.333945 17.223242-98.421155 2.468358-135.593884-75.800684-35.717503-92.54499-27.630869a30.780788 30.780788 0 0 0-17.204821 25.328297z" fill="#F76A00" p-id="6690"></path><path d="M1045.644181 192.439791c-4.918295 18.217953 30.5229 12.802303 41.833135 10.333945 7.64454-1.657852 12.894405-45.922504 10.831301-85.950422l-44.301493 7.847166c1.492067 14.460155-4.384098 53.032848-8.362943 67.769311z" fill="#E56107" p-id="6691"></path><path d="M1068.393596 149.46458c0 7.165605-9.523439 13.520705-15.362763 13.520705s-5.802482-6.3551-5.802483-13.520705 4.734089-12.894405 10.591833-12.894406 10.573412 5.7288 10.573413 12.894406z" fill="#FBAD83" p-id="6692"></path><path d="M1063.75161 146.29624c-0.681561-3.518331-5.949847-5.7288-8.823457-5.176182s4.641986 2.560461 5.323547 6.078791-3.334125 7.018241-0.460515 6.465623 4.641986-3.849901 3.960425-7.368232zM1076.77496 496.139881s-6.428782 14.920669-7.497176 17.978486 3.684116 6.68667 8.823457 5.839323l5.139342-0.847346z" fill="#E68D5C" p-id="6693"></path><path d="M1077.382839 491.424213s-0.276309 1.842058-0.607879 4.715668a131.688721 131.688721 0 0 0-0.773665 19.267926c0.515776 12.028638 10.739198 13.02335 15.804857 12.323368 8.362943-1.142076 8.455046-8.105055 9.891851-12.06548s0.349991-24.038856 0.349991-24.038856z" fill="#FBAD83" p-id="6694"></path><path d="M1102.379565 225.302105s42.717323 99.729016 42.717323 140.843749-42.717323 140.714805-42.717323 140.714804-12.599676 1.344702-19.599497-4.255153l-6.99982-5.526174 28.054542-131.743983S1061.025364 279.992804 1065.9805 254.001367s36.399065-28.699262 36.399065-28.699262z" fill="#5377C4" p-id="6695"></path><path d="M1085.616838 983.143155l41.446303-9.210289 2.707825 49.146105H1049.973017a18.567944 18.567944 0 0 1 13.870696-17.978485l25.254614-6.594568z" fill="#60D6E6" p-id="6696"></path><path d="M991.027163 973.932866h40.212125l-4.291995 49.146105h-81.621587a17.536391 17.536391 0 0 1 11.365497-16.412736l35.146466-13.225976z" fill="#0CBFD1" p-id="6697"></path><path d="M1022.692139 133.033423a1.842058 1.842058 0 0 1-0.994711-0.294729l-11.457601-7.368232-8.160316 2.081526a1.842058 1.842058 0 1 1-0.93945-3.555172l8.952402-2.320993a1.842058 1.842058 0 0 1 1.473646 0.239468l12.139162 7.865587a1.842058 1.842058 0 0 1-0.994712 3.389386zM972.974996 129.809822a1.842058 1.842058 0 0 1-0.994712-3.389387l7.147185-4.641986a1.842058 1.842058 0 0 1 1.473646-0.239467l8.989243 2.339413a1.842058 1.842058 0 1 1-0.93945 3.555172L980.453751 125.259939l-6.465624 4.199892a1.842058 1.842058 0 0 1-1.013131 0.349991z" fill="#F76A00" p-id="6698"></path><path d="M383.884871 582.403454l25.383559 16.504839-31.572873 0.847347-112.660263-40.193704 6.189315-17.333765 112.660262 40.175283z" fill="#60D6E6" p-id="6699"></path><path d="M326.688973 309.41047l-4.918295 56.735384 1.823638 194.760784 31.425508 11.199712 2.063105-262.69588h-30.393956z" fill="#A55B3A" p-id="6700"></path><path d="M321.770678 581.574528s-1.528908-9.044504 4.918295-9.468178 17.739018-6.410362 26.488793 1.418385 4.844612 13.262817 1.842058 18.14427-20.502105 0.95787-26.249326-1.105235-6.99982-8.989243-6.99982-8.989242z" fill="#A55B3A" p-id="6701"></path><path d="M306.426336 953.209714l-9.21029 22.288901 9.21029 21.920489 6.023529 2.910452a25.273035 25.273035 0 0 1 14.239108 22.730994H292.88721l-44.817269-47.561935 28.865047-38.259543z" fill="#204A99" p-id="6702"></path><path d="M339.417593 505.129124s10.297104 110.118223 17.665336 145.117323 15.602231 53.198633 15.60223 53.198633l-106.21306 235.00975s4.955136 16.578521 18.770571 19.360029a67.990358 67.990358 0 0 0 25.78881 0s113.028674-219.44436 123.288937-236.833388 9.21029-184.997877 9.21029-184.997877z" fill="#204A99" p-id="6703"></path><path d="M502.034467 491.424213l23.596762 206.531534-36.841159 275.977119s-30.080806 3.536751-39.604245 0l-9.52344-3.536752 14.441734-264.022162s-87.018816-123.675769-85.103076-199.38435l1.842058-75.70858z" fill="#5377C4" p-id="6704"></path><path d="M503.158122 501.352905L370.253643 457.548768l-1.234179 49.440834c-0.515776 20.759993 5.655118 45.130419 14.865407 69.556108l119.291672-75.192805z" fill="#4F69D1" p-id="6705"></path><path d="M483.263896 966.730419v21.496816l44.209391 9.633963a25.788811 25.788811 0 0 1 20.262637 25.217773h-104.205217l1.363123-58.19061z" fill="#5377C4" p-id="6706"></path><path d="M369.001043 194.263429s-25.12567 17.831121-35.551718 44.20939-11.660227 74.290196-11.660226 74.290196 9.21029 9.21029 28.238748 6.760353l19.028458-2.449938z" fill="#F89900" p-id="6707"></path><path d="M563.393416 268.277316l33.157043 24.517791 117.891707-104.223637s8.289261 0.589459 14.736463 11.881273l6.447203 11.291815s-98.550099 120.839-123.417881 129.496672-74.603346-32.788631-74.603346-32.788631z" fill="#A55B3A" p-id="6708"></path><path d="M443.733333 179.858536s46.659327 9.652384 59.627415 15.749595S582.090304 264.427415 582.090304 264.427415a72.798129 72.798129 0 0 1-27.151934 52.019716c-7.95769 6.539306-8.89714 5.176183-8.89714 5.176183l-38.775319-29.380824 4.660407 203.86055s-62.777334 42.883108-140.512179 25.346717c-36.159597-8.160317-34.133333-14.441734-34.133333-14.441734s-2.634143-259.159129 12.894405-289.203094a76.666451 76.666451 0 0 1 43.490988-37.670085z" fill="#F9C200" p-id="6709"></path><path d="M395.545098 119.217989v61.524735s10.333945 8.786616 28.515057 7.718222c16.817989-0.976291 19.488973-7.073502 19.488973-7.073502l6.944558-31.904443z" fill="#A55B3A" p-id="6710"></path><path d="M483.208635 158.251196c-16.799568 35.349092-58.50376 14.460155-76.353301-3.352545s-15.381184-85.932002-10.444469-98.826408 46.217233-23.375715 67.971938-15.049613 35.6254 81.879475 18.825832 117.228566z" fill="#A55B3A" p-id="6711"></path><path d="M381.453355 126.586221a29.233459 29.233459 0 0 0 11.531283 16.817988c8.086634 5.820903 22.399424 13.391761 39.493721 10.48131 26.746681-4.549883 21.791545-10.241842 18.015327-23.320453s19.249505 0 21.533657-11.347077-10.518151-30.191329-5.39723-36.454326 19.673179 0 24.057277-8.528729 9.21029-23.449397 0-36.196438-23.486239-5.913006-33.157043-8.178737-6.226156-14.239108-25.051988-14.239108-23.817809 22.749415-36.933261 27.870337-29.620291 23.320453-19.949487 38.683216 10.205001 21.515237 6.391941 29.307142c-3.278863 6.705091-1.215758 12.268106-0.534197 15.104875z" fill="#21170C" p-id="6712"></path><path d="M446.993776 129.662457c0 9.118187 12.120741 17.204821 19.544234 17.204821s7.368232-8.086634 7.368232-17.204821-6.023529-16.578521-13.465443-16.578521-13.447023 7.460335-13.447023 16.578521z" fill="#A55B3A" p-id="6713"></path><path d="M452.280482 130.657169c1.657852 3.83148 8.215578 5.028818 11.328656 3.684115s-5.931427-1.842058-7.589278-5.526173 2.044684-8.823457-1.086814-7.460335-4.291995 5.470912-2.652564 9.302393z" fill="#8E4A2F" p-id="6714"></path><path d="M788.419212 179.103292l27.944019 11.660227-30.909732 6.502464-118.057493-19.267926 2.984134-18.162691 118.039072 19.267926z" fill="#FF9398" p-id="6715"></path><path d="M735.625832 211.726138s27.630869-9.21029 37.449038-13.760173 16.578521-18.733729 14.423313-25.475661c-1.731534-5.526174-26.562475-9.818169-35.60698-7.368232-6.04195 1.639432-31.130779 21.588919-31.130778 21.588919l-13.852276-2.265731v12.894405z" fill="#A55B3A" p-id="6716"></path><path d="M1409.340097 182.953193L1484.698687 211.726138l-12.176003 303.368519s-124.799424 14.036481-166.300989-5.526173l20.483684-318.418133 34.428062-7.128764z" fill="#60D6E6" p-id="6717"></path><path d="M1138.391797 6.391941a24.259903 24.259903 0 0 1 22.56521-5.526174c13.35492 3.684116 11.973377 24.757258 6.907717 27.722972s-29.472927 0-32.236014-5.157762 2.763087-17.039036 2.763087-17.039036z" fill="#FBAD83" p-id="6718"></path><path d="M0 1022.157942h1581.535672v1.842058H0z" fill="#FFFFFF" p-id="6719"></path><path d="M1466.425472 962.420004l7.368232 60.658967h-98.236949a19.267926 19.267926 0 0 1 13.741752-18.420579l39.677928-11.881274-4.291995-25.420399z" fill="#5377C4" p-id="6720"></path><path d="M1498.200971 868.917143l50.638173 26.617737L1503.450836 981.816874a28.275589 28.275589 0 0 1-14.736463-30.117648L1495.751034 913.66073l-19.673178-10.076056z" fill="#204A99" p-id="6721"></path><path d="M1258.457133 338.183414h88.621406l-49.477676-99.415866h-88.621406l49.477676 99.415866z" fill="#FFFFFF" p-id="6722"></path><path d="M1351.904731 279.992804s-12.7102-8.89714-20.262637-11.052347-17.333765 3.334125-17.333765 3.334125l4.549883 9.210289s-32.899155-6.336679-35.662242-2.652563-1.842058 14.128584 7.368232 22.104695 40.193704 4.45778 40.193704 4.45778l15.031193 1.989423z" fill="#FBAD83" p-id="6723"></path><path d="M693.682173 444.801727h180.890088v3.684116h-180.890088zM693.564281 472.419701l0.123418-3.682273 145.515208 4.903558-0.12526 3.684116zM693.534808 497.945098l0.221047-3.676748 161.183753 9.659752-0.221047 3.67859z" fill="#FF9398" p-id="6724"></path><path d="M1409.340097 182.953193s-6.539306 21.146825-28.920309 22.381004-18.567944-21.717863-18.567944-21.717863z" fill="#FFFFFF" p-id="6725"></path><path d="M1409.340097 122.091599v60.787912s-10.223421 8.676093-28.201907 7.64454c-16.578521-0.95787-19.286346-6.9814-19.286346-6.981399l-6.870876-31.572873z" fill="#FBAD83" p-id="6726"></path><path d="M1360.691347 178.274366a71.729736 71.729736 0 0 0 18.42058-11.052348 53.309156 53.309156 0 0 0 17.941644-25.273034l-36.472747 6.944558-5.526174 3.094657z" fill="#E68D5C" p-id="6727"></path><path d="M1314.842526 86.595143h30.891311v1.842058h-30.891311z" fill="#21170C" p-id="6728"></path><path d="M1324.052815 44.006764s-5.249865 12.894405-5.249865 24.315164c0 9.21029 3.684116 26.39669 3.684116 26.39669l21.017881-53.677567z" fill="#7A4029" p-id="6729"></path><path d="M1325.323835 146.775175c16.578521 34.999101 57.87746 14.31279 75.524375-3.315704s15.233819-85.010973 10.333945-97.776434-45.719878-23.117827-67.253535-14.883829-35.238568 81.013708-18.604785 115.975967z" fill="#FBAD83" p-id="6730"></path><path d="M1395.76413 94.718618S1383.385501 127.101997 1372.84893 130.159813c-9.062925 2.652563-21.662601-10.297104-37.983235-11.052348-9.081346-0.386832-12.360209 0.478935-16.062745 2.984134a79.81637 79.81637 0 0 0 6.502465 24.628315c16.578521 34.999101 57.87746 14.31279 75.524375-3.315705 8.547149-8.528728 12.39705-28.717683 13.520705-48.740852z" fill="#7A4029" p-id="6731"></path><path d="M1408.8059 98.992193a22.381004 22.381004 0 0 1-20.133693-25.070409c0.93945-7.589279 3.16834-10.002375 1.197338-17.1864-3.923583-14.31279-21.073143-12.894405-32.659687-7.64454s-24.204641 5.323547-34.151754-2.192049a18.181112 18.181112 0 0 1-4.255154-23.946753c6.465623-10.426048 29.472927-22.933621 29.472927-22.933621s-2.781507 6.244576-1.842058 9.486598 61.745782-15.031193 74.253355 12.028638S1416.542544 99.710595 1416.542544 99.710595z" fill="#7A4029" p-id="6732"></path><path d="M1419.526677 99.360604c0 9.026084-11.991797 17.020615-19.341608 17.020616s-7.368232-8.012952-7.368231-17.020616 5.968268-16.320633 13.318078-16.320633 13.391761 7.220867 13.391761 16.320633z" fill="#FBAD83" p-id="6733"></path><path d="M1414.037345 98.550099c0.847347 4.034107-3.684116 8.749775-7.036661 9.449757s3.776219-4.807771 2.928872-8.860299-6.68667-5.949847-3.389387-6.649829 6.631409 2.026264 7.497176 6.060371z" fill="#E68D5C" p-id="6734"></path><path d="M1326.281705 106.83936c-6.834035 0-12.378629-7.165605-12.378629-15.970643s5.526174-15.970642 12.378629-15.970642 12.378629 7.165605 12.37863 15.970642-5.526174 15.970642-12.37863 15.970643z m0-30.099227c-5.820903 0-10.536571 6.336679-10.536571 14.128584S1320.497643 104.997302 1326.281705 104.997302s10.536571-6.336679 10.536572-14.128585-4.697248-14.220687-10.536572-14.220687zM1354.962547 106.83936c-6.834035 0-12.378629-7.165605-12.378629-15.970643s5.526174-15.970642 12.378629-15.970642 12.378629 7.165605 12.378629 15.970642-5.544594 15.970642-12.378629 15.970643z m0-30.099227c-5.820903 0-10.536571 6.336679-10.536571 14.128584s4.734089 14.128584 10.536571 14.128585 10.536571-6.336679 10.536572-14.128585-4.715668-14.220687-10.536572-14.220687z" fill="#21170C" p-id="6735"></path><path d="M1366.162259 86.595143h28.533478v1.842058h-28.533478zM1337.776147 86.595143h5.7288v1.842058h-5.7288z" fill="#21170C" p-id="6736"></path><path d="M1326.484332 128.115129h25.899334s-5.249865 12.249685-13.98122 12.599676-11.918115-12.599676-11.918114-12.599676z" fill="#FFFFFF" p-id="6737"></path><path d="M1419.526677 519.128764c29.8966-1.399964 53.290736-4.034107 53.290736-4.034107l8.197158-202.442166-25.328296-3.18676z" fill="#50CAD3" p-id="6738"></path><path d="M1484.698687 211.726138s50.840799 118.481166 22.638892 149.961935c-17.996906 20.078431-172.490304-52.277604-172.490304-52.277603l13.704911-34.078072 106.839359 34.078072s-27.944019-48.814535-25.015146-69.537687S1484.698687 211.726138 1484.698687 211.726138z" fill="#60D6E6" p-id="6739"></path><path d="M512.534197 496.121461l-4.660407-203.860551L426.510092 524.986508a198.481741 198.481741 0 0 0 86.024105-28.865047z" fill="#EDB607" p-id="6740"></path></svg>