<?xml version="1.0" standalone="no"?><!DOCTYPE svg PUBLIC "-//W3C//DTD SVG 1.1//EN" "http://www.w3.org/Graphics/SVG/1.1/DTD/svg11.dtd"><svg t="1689734762289" class="icon" viewBox="0 0 1451 1024" version="1.1" xmlns="http://www.w3.org/2000/svg" p-id="6878" xmlns:xlink="http://www.w3.org/1999/xlink" width="283.3984375" height="200"><path d="M1122.667752 810.88296a150.199297 150.199297 0 1 0 150.199297-150.180351A150.218242 150.218242 0 0 0 1122.667752 810.88296" fill="#00B98F" p-id="6879"></path><path d="M1307.821351 828.691656l115.244995-33.381832a150.199297 150.199297 0 0 0-212.66235-120.568658l97.417355 153.95049" fill="#04A87D" p-id="6880"></path><path d="M1245.699315 1023.223238l-1.875596-0.322072 46.283663-283.290879 1.875597 0.303127-46.283664 283.309824" fill="#FFFFFF" p-id="6881"></path><path d="M1252.292322 711.116374a103.328326 103.328326 0 1 0 56.968881-134.512489 103.347271 103.347271 0 0 0-56.968881 134.512489z" fill="#00C99C" p-id="6882"></path><path d="M1273.264903 851.880851l-0.795708-1.724033 109.921332-51.323145 0.814653 1.724033-109.940277 51.323145M1190.026302 746.09341l1.125358-1.523212 88.84834 65.647778-1.125358 1.523212zM1305.998801 767.768866l54.166853-150.949536 1.782764 0.640355-54.164958 150.947642z" fill="#FFFFFF" p-id="6883"></path><path d="M1335.083811 688.010538l77.088918-28.209731 0.651722 1.77708-77.088917 28.211626zM1320.228707 632.445513l1.339441-1.339441 25.733565 25.73546-1.339441 1.339441z" fill="#FFFFFF" p-id="6884"></path><path d="M435.015739 584.469728m-72.798241 175.750501a190.230971 190.230971 0 1 0 145.596482-351.501002 190.230971 190.230971 0 1 0-145.596482 351.501002Z" fill="#00B98F" p-id="6885"></path><path d="M273.912895 483.240851a190.344644 190.344644 0 0 0 199.13532 287.648326z" fill="#04A87D" p-id="6886"></path><path d="M375.352363 1022.916322l64.329176-502.862624 1.879386 0.240607-64.329177 502.862624z" fill="#FFFFFF" p-id="6887"></path><path d="M420.967253 669.057539l133.296192-98.203589 1.123463 1.525106-133.294297 98.201695zM316.591245 556.845706l0.657406-1.777081 113.73694 42.073991-0.657406 1.777081z" fill="#FFFFFF" p-id="6888"></path><path d="M301.440592 857.659204a176.571323 176.571323 0 1 1 0-249.719593 176.571323 176.571323 0 0 1 0 249.719593" fill="#00C99C" p-id="6889"></path><path d="M215.84518 1023.204292L155.466124 614.248437l1.875597-0.265236 60.379056 408.93691-1.875597 0.284181" fill="#FFFFFF" p-id="6890"></path><path d="M181.781314 778.391563l-1.458798-1.193561 75.478557-92.396818 1.477743 1.212507-75.497502 92.377872M41.175978 680.974209l0.530472-1.81876 130.556684 38.127659-0.530472 1.818761z" fill="#FFFFFF" p-id="6891"></path><path d="M791.482849 793.282664l-23.473376 35.408992 16.937206 40.240074 35.9963 15.933099a16.899315 16.899315 0 0 0-2.254505-19.532729l-11.026235-12.16296-2.008215-24.477484 10.742054-31.392563z" fill="#204A99" p-id="6892"></path><path d="M768.009473 506.278483l126.574357 97.928881-110.148677 189.0753 29.535911 15.5163s136.539648-167.761702 146.353376-194.683145 16.615134-42.475634 3.031268-58.105606-195.346235-49.73173-195.346235-49.73173z" fill="#204A99" p-id="6893"></path><path d="M1056.946087 488.052988H966.216466l-7.578168-31.203108h-29.441184a8.298094 8.298094 0 1 1 0-16.596189h42.570361l7.578168 31.203108h64.187086l6.441443-31.203108h25.121628a8.298094 8.298094 0 0 1 0 16.596189h-11.689325z" fill="#A9C2DC" p-id="6894"></path><path d="M1067.271341 422.009251s3.637521 1.383016 12.068233 11.064126 6.687734 18.718076 1.894543 26.731988c-5.532063 9.377983-19.930583 6.479334-19.930583 6.479334l2.046105-9.47271s2.860759-7.578168-3.561739-11.821943-11.575652-7.578168-11.575652-7.578168z" fill="#FBAD83" p-id="6895"></path><path d="M919.970694 211.222498l39.595929 126.72592 109.712933 82.431526a27.300352 27.300352 0 0 1-10.476818 16.198335l-8.639112 5.929917s-99.652914-58.370842-119.356151-75.478557-52.592488-113.672525-52.592489-113.672525z" fill="#E2E2E2" p-id="6896"></path><path d="M446.638298 817.059167l-20.839963 45.298502 41.907271 28.986494 22.734505 9.47271a19.665347 19.665347 0 0 0-2.462905-22.412433l-18.737021-21.351489 7.578168-40.012729z" fill="#5377C4" p-id="6897"></path><path d="M831.836596 897.008844l-37.682442-13.981721a4.736355 4.736355 0 0 1 3.296503-8.866457l31.051545 11.518816 41.509417-55.15012a4.736355 4.736355 0 1 1 7.578168 5.683626zM752.13321 488.052988h-90.824348l-7.483441-31.203108h-29.479075a8.298094 8.298094 0 1 1 0-16.596189H666.878816l7.578168 31.203108h64.187086l6.460389-31.203108h25.121628a8.298094 8.298094 0 0 1 0 16.596189h-11.651434z" fill="#A9C2DC" p-id="6898"></path><path d="M727.750453 431.500907s15.288955 3.789084 20.93469 7.994967-1.610361 25.19741 5.683627 27.944496 17.808696 1.496688 20.839963-2.709195 2.159778-23.283922 0.113672-32.85136-41.831489-21.029417-41.831489-21.029417z" fill="#FBAD83" p-id="6899"></path><path d="M489.03815 909.22864a4.831082 4.831082 0 0 1-1.894542-0.416799l-34.594339-15.573136 47.193044-62.709343a4.736355 4.736355 0 1 1 7.578168 5.683626l-40.069565 53.255578 23.814394 10.704163a4.736355 4.736355 0 0 1-1.894542 9.055911z" fill="#A9C2DC" p-id="6900"></path><path d="M476.45839 454.083848s110.205513 69.453913 117.25321 106.700611-116.495393 279.236559-116.495393 279.236559l-36.602553-18.054987L524.788159 603.582165s-84.61025-59.41284-118.048918-89.611841 69.719149-59.886475 69.719149-59.886476z" fill="#0CBFD1" p-id="6901"></path><path d="M573.534727 215.466272s-28.247623 4.035375-41.945162 23.246031 55.453247 145.879741 55.453247 145.879741l142.090657 51.948345s6.517225-6.024644 8.184422-13.545976a81.863164 81.863164 0 0 0 1.742979-14.872156l-114.941869-52.611434s-36.716226-123.145236-41.301018-131.44333c-5.3805-9.737946-9.283256-8.601221-9.283256-8.601221z" fill="#F89900" p-id="6902"></path><path d="M187.370213 830.302017a54.941721 54.941721 0 0 0 1.894542 12.807104l-1.894542-12.807104m55.131175-56.722591a55.225902 55.225902 0 0 0-54.562813 47.363553l1.364071 9.22642v-1.439852a53.255578 53.255578 0 1 1 1.894542 14.038557l1.345125 9.169583A55.112229 55.112229 0 1 0 242.501388 773.579426" fill="#0CBDA2" p-id="6903"></path><path d="M187.881739 820.905088a55.396411 55.396411 0 0 0-0.549417 7.786568v1.610361l1.894542 12.807104a55.964773 55.964773 0 0 0 3.220722 8.790675l-1.345125-9.169583a53.047179 53.047179 0 0 1-1.894542-12.598705l-1.364071-9.22642M157.474339 908.357151a116.836411 116.836411 0 0 0 45.866864 30.104274l-0.322073-2.121888a115.22605 115.22605 0 0 1-42.646142-27.698205l-2.898649-0.284181m189.852062-130.420278c-0.24629 0.928326-0.492581 1.894542-0.757816 2.803923a114.657687 114.657687 0 0 1-141.522295 156.318667l0.303127 2.102942a116.514339 116.514339 0 0 0 141.976984-161.225532" fill="#E5EBF6" p-id="6904"></path><path d="M173.27482 734.968659a116.400666 116.400666 0 0 0-15.800481 173.388492l2.898649 0.284181a114.506124 114.506124 0 0 1 13.261795-171.550786l-0.322073-2.121887m59.886476-22.431379a115.88914 115.88914 0 0 0-58.143497 21.162035l0.303127 2.121888a113.767253 113.767253 0 0 1 56.173173-21.237817l1.667197-2.046106m9.283256-0.378908c-2.254505 0-4.471119 0-6.687733 0.189454l-1.648252 2.008215c2.766031-0.2084 5.532063-0.303127 8.335985-0.303127a114.809251 114.809251 0 0 1 104.199815 66.687882c0.265236-0.928326 0.511526-1.894542 0.757817-2.803923A116.665902 116.665902 0 0 0 242.501388 712.158372" fill="#0CBDA2" p-id="6905"></path><path d="M203.01913 936.339537l0.322073 2.121888 2.008214 0.70098-0.303127-2.102942-2.02716-0.719926m-28.001332-202.716003l-1.742978 1.269343 0.322072 2.121887 1.724033-1.269343-0.303127-2.121887M235.756818 712.366772l-2.595523 0.189454-1.667197 2.046105c0.852544-0.094727 1.742979-0.170509 2.614468-0.227345l1.648252-2.008214M1158.682997 713.370879a116.533284 116.533284 0 1 0 41.679926 229.239593l-2.500795-1.420907a114.638742 114.638742 0 1 1-41.054727-225.450509c0.606253-0.738871 1.212507-1.477743 1.894542-2.197668" fill="#E5EBF6" p-id="6906"></path><path d="M1263.659574 901.915708a114.619796 114.619796 0 0 1-65.683774 39.198076l2.500796 1.420906a116.59012 116.59012 0 0 0 62.519889-37.019352l0.587308-3.59963m27.451915-58.332951l-2.02716 0.947271a114.127216 114.127216 0 0 1-22.999741 54.392303l-0.625199 3.789084a116.078594 116.078594 0 0 0 25.6521-59.147604m-7.331878-53.047178v0.227345a114.146161 114.146161 0 0 1 6.422497 37.890842 115.567068 115.567068 0 0 1-0.795707 13.621757l2.008214-0.947271a117.215319 117.215319 0 0 0-3.789084-44.824866l-3.789084-5.967807m-108.23519-78.415097a116.703793 116.703793 0 0 0-16.785643 1.212507c-0.625199 0.719926-1.231452 1.458797-1.894542 2.197668a114.56296 114.56296 0 0 1 99.823423 32.207216l-4.073265-6.441443a116.116485 116.116485 0 0 0-77.126809-29.25173" fill="#0CAF97" p-id="6907"></path><path d="M1284.291138 787.01173l-0.587308 3.561739 3.789084 5.967808q-1.401961-4.850028-3.182831-9.472711m-31.695689-45.601628l4.073266 6.441443a115.282886 115.282886 0 0 1 25.671045 39.349639l0.587308-3.580684a117.215319 117.215319 0 0 0-30.312673-42.210398" fill="#10A188" p-id="6908"></path><path d="M1266.008807 898.922331c-0.795708 1.004107-1.591415 2.008215-2.425014 2.993377l-0.587308 3.59963c0.814653-0.90938 1.610361-1.894542 2.387123-2.784977l0.625199-3.789084m16.918261-115.301832l-0.587309 3.580685c0.45469 1.193562 0.90938 2.387123 1.32618 3.599629v-0.227345l0.587308-3.561739c-0.435745-1.155671-0.890435-2.273451-1.36407-3.39123M1291.300944 841.366142l-2.008215 0.947272-0.284181 2.216614 2.02716-0.947271c0-0.738871 0.189454-1.477743 0.265236-2.216615" fill="#E5EBF6" p-id="6909"></path><path d="M1008.843663 482.918779l16.217281-7.362191 113.430024 249.823793-16.217281 7.362191zM723.46121 487.537673l15.703859-6.037906 99.647231 259.18662-15.701965 6.037905zM390.495438 533.931219l15.80427-5.765091 77.795582 213.278076-15.804271 5.765091zM242.501388 637.949158a192.561258 192.561258 0 1 0 192.504421 192.561258A192.561258 192.561258 0 0 0 242.501388 637.949158z m0 355.776059a163.214801 163.214801 0 1 1 163.233746-163.214801A163.214801 163.214801 0 0 1 242.501388 993.725217z" fill="#A9C2DC" p-id="6910"></path><path d="M506.657391 836.554006H231.209917L408.766401 568.381573l10.078964 6.668788-165.147234 249.416466h252.95926v12.087179z" fill="#F08E97" p-id="6911"></path><path d="M416.818205 560.784459h641.984533v21.881961H416.818205z" fill="#FF9398" p-id="6912"></path><path d="M753.213099 571.962257l20.430742-7.833931 105.825332 275.972262-20.430742 7.833932z" fill="#FF9398" p-id="6913"></path><path d="M1175.46864 637.949158a192.561258 192.561258 0 1 0 192.542313 192.561258 192.580204 192.580204 0 0 0-192.542313-192.561258z m0 355.776059a163.214801 163.214801 0 1 1 163.214801-163.214801 163.233747 163.233747 0 0 1-163.214801 163.214801z" fill="#A9C2DC" p-id="6914"></path><path d="M242.444551 828.691656m-37.834005 0a37.834006 37.834006 0 1 0 75.668011 0 37.834006 37.834006 0 1 0-75.668011 0Z" fill="#5377C4" p-id="6915"></path><path d="M880.355819 840.021018H498.71926l-100.031822-276.300019 21.294653-7.710786 94.613432 261.352081h355.094024l191.10246-231.475152 17.467678 14.417465-197.903866 239.716411z" fill="#FF9398" p-id="6916"></path><path d="M929.197114 828.691656a54.164958 54.164958 0 1 1-54.164959-54.164958 54.164958 54.164958 0 0 1 54.164959 54.164958zM560.784459 828.691656a54.164958 54.164958 0 1 1-54.164959-54.164958A54.164958 54.164958 0 0 1 560.784459 828.691656z" fill="#5377C4" p-id="6917"></path><path d="M1020.900529 515.569317l20.614513-9.359038 144.258013 317.720393-20.612618 9.359038z" fill="#FF9398" p-id="6918"></path><path d="M64.888067 1022.105458h1296.207807v1.894542H64.888067z" fill="#FFFFFF" p-id="6919"></path><path d="M365.28666 501.8642a21.749343 21.749343 0 0 0-22.052469 17.050879 18.585458 18.585458 0 0 0 0.378908 9.47271c4.111156 12.522923 36.69728 12.655541 53.350305 5.153155s40.088511 1.11778 51.266309-4.774246 9.605328-11.632488-19.267493-19.589566c-19.419056-5.399445-47.420389-6.915079-63.67556-7.312932zM723.942424 501.8642a21.749343 21.749343 0 0 0-22.05247 17.050879 18.585458 18.585458 0 0 0 0.378908 9.47271c4.111156 12.522923 36.69728 12.655541 53.350305 5.153155s40.088511 1.11778 51.285255-4.774246 9.586383-11.632488-19.286439-19.589566c-19.419056-5.399445-47.420389-6.915079-63.675559-7.312932z" fill="#204A99" p-id="6920"></path><path d="M1196.308603 828.691656a20.839963 20.839963 0 1 1-20.839963-20.839963 20.839963 20.839963 0 0 1 20.839963 20.839963z" fill="#5377C4" p-id="6921"></path><path d="M506.657391 828.691656m-30.255837 0a30.255837 30.255837 0 1 0 60.511674 0 30.255837 30.255837 0 1 0-60.511674 0Z" fill="#204A99" p-id="6922"></path><path d="M875.032155 828.691656m-30.255837 0a30.255837 30.255837 0 1 0 60.511675 0 30.255837 30.255837 0 1 0-60.511675 0Z" fill="#204A99" p-id="6923"></path><path d="M506.657391 833.428011a4.71741 4.71741 0 0 1-3.789084-7.578168l45.753192-60.814801 37.663496 13.98172a4.736355 4.736355 0 1 1-3.296503 8.885403l-31.051545-11.518816-41.490472 55.15012a4.793191 4.793191 0 0 1-3.789084 1.894542z" fill="#A9C2DC" p-id="6924"></path><path d="M518.668788 206.61876S492.580944 201.465606 467.383534 221.68037c-78.301425 62.519889-117.234265 229.239593-117.234265 229.239593s26.201517-5.304718 89.251878 2.993377c64.243922 8.449658 68.752932 6.384607 68.752933 6.384606s77.259426-208.437521 76.482664-228.481776S565.293469 208.418575 565.293469 208.418575z" fill="#F9C200" p-id="6925"></path><path d="M350.149269 450.749454s23.511267-4.755301 79.570768 1.78087l67.332026-132.845292-21.919852-103.498834a72.750416 72.750416 0 0 0-7.748677 5.494172c-78.301425 62.519889-117.234265 229.069084-117.234265 229.069084z" fill="#EDB607" p-id="6926"></path><path d="M632.341314 424.718446s7.161369 2.387123 8.677002 7.919186-7.578168 16.918261-6.593006 22.96185 7.578168 12.068233 20.839963 8.56333 21.408326-19.134875 19.400111-30.199001-30.199001-29.687475-30.199001-29.687474z" fill="#FBAD83" p-id="6927"></path><path d="M497.961443 209.157447s-28.247623 4.035375-41.945162 23.227086 56.211064 152.79482 56.211064 152.794819L634.6716 430.269454s15.478409-13.261795 17.164552-20.839963l1.667197-7.578168-114.885033-52.573543s-26.788825-123.145236-31.392562-131.500167c-5.361554-9.775837-9.264311-8.620167-9.264311-8.620166z" fill="#F9C200" p-id="6928"></path><path d="M547.806846 693.061388l-11.367253 39.785384 18.111822 35.5795 24.913229 9.47271a26.012063 26.012063 0 0 0-1.515634-23.397594l-11.139907-18.945421 6.649842-40.240074z" fill="#5377C4" p-id="6929"></path><path d="M355.169806 449.991637s-0.644144 0.227345-1.345125 19.513784c-1.060944 29.213839 28.79704 50.925291 83.700869 59.280222s134.948233 17.78975 134.948234 17.78975L543.73358 695.315893l33.96914 10.742053s66.744718-135.04296 51.739944-174.487326c-41.263127-108.178353-274.272858-81.578982-274.272858-81.578983z" fill="#60D6E6" p-id="6930"></path><path d="M845.496244 189.151082l-17.922368 6.233044a109.466642 109.466642 0 0 0-59.356004 49.580166c-20.461055 36.223645-45.885809 101.244329-55.225902 209.119556 0 0 97.909935 50.830564 166.965995 25.671046 0 0 6.195153-182.179167 33.590231-229.485884s-18.945421-60.435893-18.945421-60.435893z" fill="#F0F1F4" p-id="6931"></path><path d="M821.075597 323.341499l-42.627197-93.38198a109.618205 109.618205 0 0 0-10.230528 15.004773c-20.461055 36.223645-45.885809 101.244329-55.225902 209.119556a348.595745 348.595745 0 0 0 62.917743 23.757558z" fill="#E2E2E2" p-id="6932"></path><path d="M845.496244 189.151082s10.078964 20.839963 28.115005 21.616726 20.972581-20.839963 20.972581-20.839963z" fill="#FFFFFF" p-id="6933"></path><path d="M845.496244 126.23334v62.917742s10.571545 8.98013 29.157003 7.900241c17.202442-1.004107 19.949528-7.218205 19.949528-7.218206L901.802035 157.265939l-56.305791-31.032599" fill="#FBAD83" p-id="6934"></path><path d="M895.796337 184.32a74.569177 74.569177 0 0 1-19.059094-11.367253A54.941721 54.941721 0 0 1 858.227567 146.827012l37.701388 7.161369L901.802035 157.265939l-5.910971 27.129843" fill="#E68D5C" p-id="6935"></path><path d="M911.236855 89.536059h31.941979v1.894542h-31.941979z" fill="#21170C" p-id="6936"></path><path d="M933.668233 45.487956s5.41839 13.413358 5.41839 25.140573c0 9.47271-3.789084 27.281406-3.789084 27.281406L913.548196 42.456688z" fill="#21170C" p-id="6937"></path><path d="M932.342054 151.752821c-17.183497 36.147863-59.829639 14.777428-78.093025-3.448066s-15.724699-87.868862-10.666272-101.073821S890.832636 23.340759 913.169288 31.847253s36.356263 83.73876 19.172766 119.905568" fill="#FBAD83" p-id="6938"></path><path d="M939.067678 126.27123a82.602035 82.602035 0 0 1-6.725624 25.481591c-6.668788 14.019611-17.183497 19.400111-28.607586 19.646402 11.367253-0.24629 21.957743-5.683626 28.626531-19.665347a82.355745 82.355745 0 0 0 6.725624-25.4437" fill="#DDDCDA" p-id="6939"></path><path d="M859.534801 97.928881h-19.248548c1.174616 20.6884 5.153154 41.566253 13.981721 50.375874 11.00729 10.988344 30.843145 23.094468 48.651841 23.094468h0.776762c11.367253-0.24629 21.938797-5.683626 28.607586-19.646402a82.602035 82.602035 0 0 0 6.725624-25.481591C935.903793 124.092507 932.910416 123.164181 926.431082 123.164181h-3.789084c-15.326846 0.66309-27.451915 11.727216-36.564662 11.727216a9.946346 9.946346 0 0 1-2.709195-0.359963c-10.950453-3.201776-23.681776-36.640444-23.681777-36.640444" fill="#DA9671" p-id="6940"></path><path d="M846.045661 102.324218a23.132359 23.132359 0 0 0 20.839963-25.89839c-0.985162-7.843404-3.296503-10.3442-1.250397-17.770805 4.05432-14.796374 21.787234-13.413358 33.76074-7.90024s25.007956 5.513117 35.314264-2.273451a18.812803 18.812803 0 0 0 4.395338-24.78061c-6.668788-10.779944-30.312673-23.700722-30.312674-23.700722s2.860759 6.460389 1.894543 9.813728-63.978686-15.478409-76.918409 12.466087 4.319556 80.80222 4.319556 80.80222z" fill="#21170C" p-id="6941"></path><path d="M834.96259 102.722072c0 9.321147 12.390305 17.600296 20.006365 17.600296s7.578168-8.279149 7.578168-17.600296S856.333025 85.841702 848.754857 85.841702s-13.792266 7.559223-13.792267 16.88037z" fill="#FBAD83" p-id="6942"></path><path d="M840.646216 101.888474c-0.890435 4.167993 3.789084 9.055911 7.275042 9.775837S844.018501 106.681665 844.965772 102.513673s6.915079-6.157262 3.504903-6.877188-6.934024 2.083996-7.824459 6.251989z" fill="#E68D5C" p-id="6943"></path><path d="M931.337946 110.376022c-7.066642 0-12.807105-7.40766-12.807104-16.501461s5.683626-16.520407 12.807104-16.520407 12.788159 7.40766 12.788159 16.520407-5.740463 16.501462-12.788159 16.501461z m0-31.127326c-6.024644 0-10.912562 6.555116-10.912562 14.625865s4.887919 14.60692 10.912562 14.606919 10.893617-6.555116 10.893617-14.606919-4.887919-14.625865-10.893617-14.625865zM901.802035 110.376022c-7.066642 0-12.807105-7.40766-12.807104-16.501461s5.683626-16.520407 12.807104-16.520407 12.788159 7.40766 12.788159 16.520407-5.83519 16.501462-12.788159 16.501461z m0-31.127326c-6.005698 0-10.912562 6.555116-10.912562 14.625865s4.906864 14.60692 10.912562 14.606919 10.893617-6.555116 10.893617-14.606919-4.982646-14.625865-10.893617-14.625865z" fill="#21170C" p-id="6944"></path><path d="M860.633636 89.536059h29.49802v1.894542h-29.49802zM913.548196 89.536059h5.929917v1.894542h-5.929917z" fill="#21170C" p-id="6945"></path><path d="M925.881665 134.664052h-29.270675s5.929917 12.674487 15.800481 13.034449 13.470194-13.03445 13.470194-13.034449z" fill="#FFFFFF" p-id="6946"></path><path d="M937.912007 135.232414h-44.881702s0.682035-9.359038 8.430713-13.015504 16.122553 0.928326 18.774912 0.776763 9.870564-4.850028 14.019611-2.766032 3.656466 15.004773 3.656466 15.004773z" fill="#21170C" p-id="6947"></path><path d="M516.584792 206.220907s13.659648 23.928067 31.582017 23.170249 17.050879-21.010472 17.050878-21.010471z" fill="#FFFFFF" p-id="6948"></path><path d="M554.854542 184.376836L611.747641 193.262239V104.521887l-56.893099 79.854949z" fill="#21170C" p-id="6949"></path><path d="M518.668788 137.183793l-2.083996 69.037114a45.109047 45.109047 0 0 0 29.895874 9.112747c13.03445-0.871489 18.812803-6.952969 18.812803-6.952969l6.99086-37.038298z" fill="#FBAD83" p-id="6950"></path><path d="M518.668788 149.005735a27.717151 27.717151 0 0 0 1.742979 3.523849c9.169584 15.270009 27.660315 37.701388 47.117262 44.029158l4.7553-25.216355-53.615541-34.101758z" fill="#E68D5C" p-id="6951"></path><path d="M614.494727 165.336688c-18.945421 39.899056-66.706827 7.805513-86.864755-12.314523s-16.653025-88.437225-11.083071-102.987308 52.137798-26.372026 76.710009-17.050879 40.202183 92.472599 21.237817 132.35271z" fill="#FBAD83" p-id="6952"></path><path d="M545.059759 200.650953l-48.026642-16.274117s-7.047697-110.470749 8.31704-138.168954 55.983719-37.000407 82.204182-27.129843c38.156078 14.360629 37.60666 65.03963 38.156077 69.510749a77.41099 77.41099 0 0 0-26.788825-0.189454 98.516189 98.516189 0 0 1-29.839038 0.871489l-18.718076-2.254505z" fill="#21170C" p-id="6953"></path><path d="M520.999075 127.426901c0 7.578168 9.965291 14.152229 16.065717 14.152229s6.062535-6.649843 6.062535-14.152229-4.944755-13.564921-11.064126-13.564921S520.999075 119.94346 520.999075 127.426901z" fill="#FBAD83" p-id="6954"></path><path d="M549.417206 146.827012a10.742054 10.742054 0 1 1-10.742053-10.742054 10.742054 10.742054 0 0 1 10.742053 10.742054z" fill="#FFFFFF" p-id="6955"></path><path d="M618.833228 138.320518c-9.302202 0-16.861425-9.01802-16.861424-20.101092v-0.947271h33.703904v0.947271c0 11.026235-7.559223 20.101092-16.84248 20.101092z m-14.947937-19.229602c0.359963 9.624274 6.934024 17.33506 14.947937 17.33506s14.569029-7.710786 14.928992-17.33506zM579.597262 138.320518C570.257169 138.320518 562.679001 129.245661 562.679001 118.16259v-0.947271h33.722849v0.947271c0.056836 11.083071-7.502387 20.157928-16.804588 20.157928zM564.573543 119.03408c0.378908 9.624274 6.934024 17.33506 14.947937 17.33506s14.569029-7.710786 14.947937-17.33506z" fill="#21170C" p-id="6956"></path><path d="M540.418131 117.139537h64.13025v1.894543h-64.13025z" fill="#21170C" p-id="6957"></path><path d="M949.752895 419.868418s13.091286 2.766031 16.861425 12.333469-0.492581 23.151304-5.285772 28.418132-18.358113 3.258612-22.393488 2.008214 9.055911-14.171175 5.797299-18.282331-6.28988-4.111156-6.28988-4.111156h-7.275041l-3.107049-6.990861z" fill="#FBAD83" p-id="6958"></path><path d="M816.71815 233.824385c-7.312932-16.406735-31.563071-18.24444-39.614875-2.197669-0.151563 0.284181-7.047697 10.401036-7.19926 10.685217-14.550083 29.441184 59.052877 119.185643 59.052877 119.185643L928.325624 439.06013s14.720592-6.611952 19.248548-12.144015a80.707493 80.707493 0 0 0 6.043589-8.051804l-92.169472-77.505717z" fill="#F0F1F4" p-id="6959"></path><path d="M721.460574 458.157114s-6.119371 19.684292 16.349898 54.354412 210.294172 53.501869 210.294172 53.501869L918.852914 720.797484l33.798631 9.074856s60.265384-142.734801 56.2679-183.088547c-2.917595-29.194894-85.121776-57.669861-130.32555-71.234783a256.274709 256.274709 0 0 0-54.638594-9.984237z" fill="#5377C4" p-id="6960"></path><path d="M922.225199 718.16407l-6.251989 27.129843L935.032303 772.992118l34.348049 12.068234a17.050879 17.050879 0 0 0-6.308826-19.400111l-12.181905-8.52544-1.894542-30.937872z" fill="#5377C4" p-id="6961"></path><path d="M876.983534 833.428011a4.736355 4.736355 0 0 1-3.789084-7.578168l45.753191-60.814801 37.663497 13.98172a4.736355 4.736355 0 1 1-3.277558 8.885403l-31.051545-11.518816-41.509417 55.15012a4.736355 4.736355 0 0 1-3.789084 1.894542z" fill="#A9C2DC" p-id="6962"></path><path d="M407.78124 447.130879c-31.089436 0.397854-52.611434 2.841813-52.611434 2.841813s-0.644144 0.227345-1.345125 19.513783c-1.060944 29.213839 28.79704 50.925291 83.700869 59.280223 16.804588 2.557632 35.9963 5.209991 54.505976 7.578168z" fill="#50CAD3" p-id="6963"></path><path d="M803.172174 483.828159l64.679667-11.158853a256.615726 256.615726 0 0 0-43.89654-7.066642l-102.494727-7.44555s-6.119371 19.684292 16.349898 54.354412c3.467012 5.342609 10.855726 10.306309 20.839963 14.872156z" fill="#4F69D1" p-id="6964"></path></svg>