<?xml version="1.0" standalone="no"?><!DOCTYPE svg PUBLIC "-//W3C//DTD SVG 1.1//EN" "http://www.w3.org/Graphics/SVG/1.1/DTD/svg11.dtd"><svg t="1689734764722" class="icon" viewBox="0 0 1646 1024" version="1.1" xmlns="http://www.w3.org/2000/svg" p-id="7102" xmlns:xlink="http://www.w3.org/1999/xlink" width="321.484375" height="200"><path d="M1023.322536 169.117404l-10.362672 42.724213a37.804561 37.804561 0 0 1-32.570888 1.744557l-18.021279-7.379478 7.955182-47.103052z" fill="#FBAD83" p-id="7103"></path><path d="M970.427553 159.173426l-6.97823 41.503023A93.333826 93.333826 0 0 0 985.674985 189.807856a81.819747 81.819747 0 0 0 7.484152-5.565139c4.588186-3.855472 8.321539-10.467345 11.304732-18.666765z" fill="#E68D5C" p-id="7104"></path><path d="M1009.366076 130.77203a26.831294 16.904762 90 1 0 33.809524 0 26.831294 16.904762 90 1 0-33.809524 0Z" fill="#204A99" p-id="7105"></path><path d="M1015.69882 130.77203a26.831294 16.904762 90 1 0 33.809524 0 26.831294 16.904762 90 1 0-33.809524 0Z" fill="#204A99" p-id="7106"></path><path d="M1032.219779 130.77203a14.619392 9.211264 90 1 0 18.422527 0 14.619392 9.211264 90 1 0-18.422527 0Z" fill="#204A99" p-id="7107"></path><path d="M1035.691449 130.841812c0-8.077301 4.117156-14.619392 9.211263-14.619392s9.193818 6.542091 9.193818 14.619392-4.117156 14.601946-9.193818 14.601946-9.211264-6.611873-9.211263-14.601946zM701.067875 777.200364l-44.416434 76.76053h-78.208512a19.190132 19.190132 0 0 1 13.450538-18.265517l43.3697-13.450538 41.712369-76.586074z" fill="#204A99" p-id="7108"></path><path d="M800.751891 780.043993l13.293528 73.690109h-107.412405a19.626272 19.626272 0 0 1 15.195096-19.190133l44.486216-15.578898L762.371626 783.480771z" fill="#5377C4" p-id="7109"></path><path d="M836.271081 529.595319L704.661664 779.817201s-27.91292 2.163251-33.390831-9.350828l-5.443019-11.51408 92.060299-243.80191z" fill="#0CBFD1" p-id="7110"></path><path d="M919.556256 488.127187s-161.284341-19.190132-192.930613-6.716546-0.889724 187.958625 24.929726 278.09991l8.63556 30.773995s9.507838 5.75704 28.244386 0l18.736547-5.75704S785.050873 559.095786 788.435315 551.419733s22.31289-5.966387 22.31289-5.966386h108.808051z" fill="#60D6E6" p-id="7111"></path><path d="M918.404848 517.889338l-39.287435-33.914197c-13.851787-1.343309-30.180845-2.791292-47.103052-3.995037l-46.823923 65.473243 3.9427 3.489115c5.879159-4.832424 20.411323-3.489115 20.411322-3.489115h108.790606z" fill="#50CAD3" p-id="7112"></path><path d="M535.910617 424.834641h63.065754v-147.711683h-63.065754v147.711683" fill="#3A3A63" p-id="7113"></path><path d="M543.813463 424.834641h63.083199v-147.711683h-63.083199v147.711683" fill="#A9C2DC" p-id="7114"></path><path d="M576.907718 415.710606h107.429851v9.124035h-107.429851z" fill="#A9C2DC" p-id="7115"></path><path d="M543.813463 415.710606h68.770456v9.124035h-68.770456z" fill="#3A3A63" p-id="7116"></path><path d="M930.267839 141.570841c-6.97823 0-12.73527-7.379478-12.73527-16.468623s5.722149-16.451177 12.73527-16.451177 12.752715 7.379478 12.752715 16.451177-5.722149 16.468623-12.752715 16.468623z m0-31.175243c-6.053615 0-10.990712 6.611873-10.990712 14.70662s4.937098 14.724065 10.990712 14.724065 11.008158-6.611873 11.008158-14.724065-4.937098-14.70662-11.008158-14.70662z" fill="#FFFFFF" p-id="7117"></path><path d="M937.211178 168.751047c12.944617 34.455011 50.592167 23.725982 73.13185 8.844906a84.297018 84.297018 0 0 0 7.484152-5.565138c20.358986-17.149 23.848101-88.972432 19.800727-102.928893S991.100559 40.316724 967.461805 47.103052s-44.765345 82.971155-30.250627 121.647995z" fill="#FBAD83" p-id="7118"></path><path d="M1004.865118 175.432702A30.128508 30.128508 0 0 0 1034.208575 153.52106c8.234311-29.256229 18.64932-78.505087 0-91.798616-27.058087-19.190132-50.138582-24.685489-73.934347-15.701017s-24.947172 31.402035-21.196373 38.641948 11.932773 1.901568 14.601946 12.630597c1.325864 5.233672-1.343309 16.102266-4.396285 25.714777a18.753993 18.753993 0 0 0 13.066736 23.725982 22.190771 22.190771 0 0 0 21.039363 28.593297z" fill="#21170C" p-id="7119"></path><path d="M968.700441 140.593889c-1.186299 9.211264-10.467345 16.329058-15.701018 15.701017s-4.012482-8.844907-2.826183-18.05617 6.262961-16.154602 11.374515-15.491671 8.321539 8.63556 7.152686 17.846824z" fill="#CFDCE3" p-id="7120"></path><path d="M1195.004439 854.030677h22.051207l-73.166741-408.104335h-22.068653l73.184187 408.104335z" fill="#204A99" p-id="7121"></path><path d="M1207.652481 854.030677h22.051207l-73.184187-408.104335h-22.051207l73.184187 408.104335zM931.017999 854.030677h-22.068652l73.184187-408.104335h22.068652l-73.184187 408.104335z" fill="#A9C2DC" p-id="7122"></path><path d="M941.398116 854.030677h-22.051207l73.166742-408.104335h22.068652l-73.184187 408.104335zM443.483961 854.030677h22.068652l-73.184187-408.104335h-22.068652l73.184187 408.104335z" fill="#204A99" p-id="7123"></path><path d="M456.132003 854.030677h22.068652l-73.184187-408.104335h-22.068652l73.184187 408.104335z" fill="#A9C2DC" p-id="7124"></path><path d="M148.793309 424.834641h1080.910379v21.091701H148.793309z" fill="#FFFFFF" p-id="7125"></path><path d="M148.793309 435.371769h1080.910379v10.554573H148.793309z" fill="#A9C2DC" p-id="7126"></path><path d="M148.793309 424.834641H478.18321v21.091701H148.793309z" fill="#5377C4" p-id="7127"></path><path d="M148.793309 435.371769H478.18321v10.554573H148.793309z" fill="#204A99" p-id="7128"></path><path d="M170.861961 854.030677H148.793309l73.184187-408.104335h22.051207L170.861961 854.030677z" fill="#A9C2DC" p-id="7129"></path><path d="M181.242078 854.030677H159.173426l73.184187-408.104335h22.068652l-73.184187 408.104335z" fill="#204A99" p-id="7130"></path><path d="M736.377719 388.547846H432.650259a10.659246 10.659246 0 0 1-10.659246-10.659247l-18.317854-230.892184a10.676692 10.676692 0 0 1 10.659246-10.659247h303.762351a10.659246 10.659246 0 0 1 10.659247 10.659247l18.282962 230.892184a10.676692 10.676692 0 0 1-10.659246 10.659247" fill="#3A3A63" p-id="7131"></path><path d="M745.013279 388.547846H441.250927a10.659246 10.659246 0 0 1-10.659246-10.659247L412.308719 146.996415a10.676692 10.676692 0 0 1 10.659246-10.659247h303.762351a10.676692 10.676692 0 0 1 10.659246 10.659247l18.282963 230.892184a10.676692 10.676692 0 0 1-10.659246 10.659247" fill="#A9C2DC" p-id="7132"></path><path d="M520.192154 105.266599h-138.570202a10.205661 10.205661 0 0 0-10.205661 10.223107l17.445575 221.227336a10.205661 10.205661 0 0 0 10.223107 10.205662h20.358986l-15.823137-199.926289a10.676692 10.676692 0 0 1 10.659247-10.659247h97.887121l7.972627-31.070569m76.010371 0h-17.968943l-7.972627 31.070569h18.021278l7.972628-31.070569m76.481401 0H654.209061l-7.972628 31.070569h38.380265l-1.657329-20.93469a10.205661 10.205661 0 0 0-10.205662-10.223107" fill="#FFA9AD" p-id="7133"></path><path d="M422.967965 136.337168h-8.63556a10.676692 10.676692 0 0 0-10.659246 10.659247l15.823136 199.926289h8.63556l-15.823136-199.926289a10.676692 10.676692 0 0 1 10.659246-10.659247" fill="#D8818D" p-id="7134"></path><path d="M588.229896 136.337168h-18.021278l-1.744558 6.97823a32.134749 32.134749 0 0 1 11.025603 4.204384 23.516635 23.516635 0 0 1 4.605632 5.128999l4.186938-16.363949m96.31702 0h-38.380265l-38.240701 149.177111 0.314021 0.331466c10.066097 11.496634 19.765836 61.059512 19.765836 61.059512H449.694586s7.205022-47.103052 19.783282-56.820237a34.89115 34.89115 0 0 1 3.977591-2.599391l38.764067-151.165907h-89.251561a10.676692 10.676692 0 0 0-10.659246 10.659246l15.823136 199.926289h262.067427a10.205661 10.205661 0 0 0 10.205661-10.205661l-15.858027-200.310092" fill="#EE9CA6" p-id="7135"></path><path d="M824.722111 366.077945h-164.215197a5.75704 5.75704 0 0 1-5.75704-5.75704L644.875678 235.515262a5.75704 5.75704 0 0 1 5.75704-5.75704h164.215197a5.75704 5.75704 0 0 1 5.75704 5.75704l9.891641 124.823089a5.774485 5.774485 0 0 1-5.774485 5.739594zM473.577578 136.337168h-164.215197a5.75704 5.75704 0 0 1-5.75704-5.757039L293.731146 5.75704a5.75704 5.75704 0 0 1 5.757039-5.75704h164.215197a5.75704 5.75704 0 0 1 5.75704 5.75704l9.891641 124.823089a5.774485 5.774485 0 0 1-5.774485 5.757039z" fill="#F0F1F4" p-id="7136"></path><path d="M918.561858 120.862943h52.825201v1.744558h-52.825201z" fill="#FFFFFF" p-id="7137"></path><path d="M1014.582303 205.12507s-20.132194 5.233672-34.228218 3.9427-17.986388-2.861074-17.986388-2.861074-46.265665 6.22807-64.548627 19.643717-34.524793 152.299869-33.565286 177.561062-1.360755 101.184335-1.360755 101.184335h194.186695s15.33466-251.565191 0-272.150969-42.497421-27.31977-42.497421-27.319771z" fill="#F9C200" p-id="7138"></path><path d="M561.782405 418.118095h156.312351v6.699101h-156.312351z" fill="#FFFFFF" p-id="7139"></path><path d="M966.118496 504.59581l10.048651-86.477715-90.71699-155.160944-5.233672 12.595705c-9.769522 46.789032-16.468623 111.407442-15.840582 127.858619 0.959507 25.261193-1.360755 101.184335-1.360755 101.184335z" fill="#EDB607" p-id="7140"></path><path d="M488.057405 424.834641h73.725v-6.716546l-73.725-5.425574v12.14212z" fill="#3A3A63" p-id="7141"></path><path d="M488.057405 412.692521h156.312352l73.724999 5.425574h-156.312351l-73.725-5.425574z" fill="#5FD6E6" p-id="7142"></path><path d="M672.282677 400.864421s-13.694776-12.805052-29.203893-14.601946-44.817682 11.444297-48.394025 15.509116-1.186299 8.35643 2.058578 10.589464 35.95533 5.146445 45.149148 4.082265 29.203892 6.018723 29.203893 6.018723z" fill="#FBAD83" p-id="7143"></path><path d="M894.329955 230.072243l-103.365032 156.015776-129.777632 6.140843s-10.066097 17.724704 0 32.605779h162.645095l51.551674-70.497568a126.026834 126.026834 0 0 0 23.289843-90.28085z" fill="#F9C200" p-id="7144"></path><path d="M1082.428144 262.433784H897.941189l-23.080496 246.697876-8.722787 26.604501-42.427639 27.215097H1005.039573l0.75016-0.261683h9.089145a49.144185 49.144185 0 0 0 49.144184-49.126739l27.023196-242.493492a8.722787 8.722787 0 0 0-8.618114-8.63556z" fill="#A9C2DC" p-id="7145"></path><path d="M902.965514 570.923886h33.181484v282.810216h-33.181484z" fill="#5377C4" p-id="7146"></path><path d="M810.957552 854.030677a24.825053 24.825053 0 0 1 24.825053-24.842499h167.47752a24.842499 24.842499 0 0 1 24.842499 24.842499zM895.202233 562.951258h48.708046v31.646273h-48.708046z" fill="#5377C4" p-id="7147"></path><path d="M902.965514 594.597531h33.181484v29.151556h-33.181484z" fill="#204A99" p-id="7148"></path><path d="M889.323075 271.069344l-27.023196 239.42307a34.89115 34.89115 0 0 1-34.89115 34.89115h-41.014547a8.618114 8.618114 0 0 0 0 17.236228H830.409368a49.144185 49.144185 0 0 0 49.144185-49.126739l27.023195-242.493492a8.63556 8.63556 0 1 0-17.253673 0z" fill="#5377C4" p-id="7149"></path><path d="M444.705151 424.834641h35.519191l6.105951-70.305667h-47.731093l6.105951 70.305667z" fill="#FFFFFF" p-id="7150"></path><path d="M449.188664 421.328081h26.53472l3.279768-37.734779a18.457418 18.457418 0 0 0-11.008158-0.244238c-7.327141 1.482874-10.729029-0.819942-16.24183-2.529608-2.320261-0.715269-5.00688 2.180697-5.983833 1.116517z" fill="#3A3A63" p-id="7151"></path><path d="M1024.700736 42.34041a42.1834 42.1834 0 0 0-61.059512 0 42.759104 42.759104 0 0 0-2.948302 3.489115 45.358495 45.358495 0 0 0-9.612512 28.052485v38.764068h10.066097V73.812228a35.152834 35.152834 0 0 1 9.752076-24.423805 32.9198 32.9198 0 0 1 11.182614-7.641162 31.663719 31.663719 0 0 1 12.211902-2.407489 32.187086 32.187086 0 0 1 23.307288 10.048651 31.663719 31.663719 0 0 1 2.948303 3.489115 149.683033 149.683033 0 0 1 13.799449 8.722787 16.730306 16.730306 0 0 1 1.744558 1.517765 44.992138 44.992138 0 0 0-11.391961-20.77768z" fill="#204A99" p-id="7152"></path><path d="M979.272459 130.841812c0 14.811293-7.57138 26.813849-16.904762 26.813849S945.550163 145.583323 945.550163 130.841812s7.57138-26.831294 16.904762-26.831294 16.817534 11.950219 16.817534 26.831294z" fill="#204A99" p-id="7153"></path><path d="M972.92227 130.841812c0 14.811293-7.553934 26.813849-16.904762 26.813849s-16.887317-12.002556-16.887317-26.813849 7.553934-26.831294 16.887317-26.831294 16.904762 11.950219 16.904762 26.831294z" fill="#60D6E6" p-id="7154"></path><path d="M956.40131 130.841812c0 8.059856-4.117156 14.601946-9.193818 14.601946s-9.211264-6.542091-9.211263-14.601946 4.064819-14.689174 9.298491-14.689174 9.10659 6.542091 9.10659 14.689174z" fill="#204A99" p-id="7155"></path><path d="M934.524559 130.77203a14.619392 9.211264 90 1 0 18.422528 0 14.619392 9.211264 90 1 0-18.422528 0Z" fill="#60D6E6" p-id="7156"></path><path d="M936.827375 176.566664h-6.97823a8.338985 8.338985 0 0 1-7.728389-11.514079v-0.174456l17.672367-35.274953a2.616836 2.616836 0 0 1 4.69286 2.320262l-17.445575 35.187725a3.105312 3.105312 0 0 0 2.808737 4.221829h6.97823a2.616836 2.616836 0 0 1 0 5.233672z" fill="#204A99" p-id="7157"></path><path d="M520.192154 271.017007s-38.118581 9.385719-50.714286 19.085459-19.783282 56.820238-19.783282 56.820238H628.040699s-9.69974-49.632661-19.765837-61.059513-50.592167-14.27048-50.592167-14.27048l-37.542878-0.505922" fill="#5377C4" p-id="7158"></path><path d="M520.192154 270.999561l11.496634 20.899799 12.124675-10.449899 10.362671 10.449899 3.558897-20.376431-37.542877-0.523368" fill="#FFFFFF" p-id="7159"></path><path d="M520.192154 222.884666v48.132341s8.077301 6.856111 22.295445 6.036169c13.153964-0.767605 15.247433-5.530247 15.247432-5.530247l5.44302-24.964618-42.985897-23.673645" fill="#FBAD83" p-id="7160"></path><path d="M558.659647 267.318545c-7.065458 1.570102-15.247433-2.843629-21.353384-7.693498-11.269841-8.94958-15.823136-26.69173-15.823136-26.69173l37.263748 11.182613 4.431176 2.442381-4.518404 20.760234" fill="#E68D5C" p-id="7161"></path><path d="M586.607458 244.586961c-13.136518 27.651236-45.759743 11.322178-59.716203-2.616836s-12.037447-67.2178-8.181975-77.301343 36.147231-18.282963 53.191558-11.775763 27.91292 64.060151 14.70662 91.693942" fill="#FBAD83" p-id="7162"></path><path d="M537.04458 198.408524s3.62868 30.599538 12.002555 33.041919c7.152686 2.093469 17.114109-8.129638 30.023835-8.722787 7.187577-0.296575 9.769522 0.383803 12.700378 2.355152a63.170427 63.170427 0 0 1-5.146444 19.469262c-13.136518 27.651236-45.759743 11.322178-59.733649-2.616836-6.751438-6.751438-9.786968-22.679247-10.694138-38.537276l20.847463-5.024325" fill="#21170C" p-id="7163"></path><path d="M531.549223 209.3469s4.029928 0.383803 5.687258-2.006242-3.087867-15.92781 1.744557-30.268072c3.401887-10.240553 18.876112-16.189494 31.5416-13.694777s15.858028 3.611234 17.149 0-3.78569-12.334021-8.181975-15.701017-25.051846-9.577621-42.165954-2.581945-20.603224 11.67109-24.423805 22.801366-1.3782 39.008306 0 40.787755 18.719102 0.697823 18.719102 0.697823" fill="#21170C" p-id="7164"></path><path d="M512.132299 207.09642c0 7.13524 9.472947 13.467984 15.282323 13.467984s5.774485-6.332744 5.774485-13.467984-4.710305-12.909725-10.467344-12.909725-10.467345 5.791931-10.467345 12.909725" fill="#FBAD83" p-id="7165"></path><path d="M591.771348 225.047917s0 33.512949-3.9427 39.549118-16.904762 7.362033-22.766475 4.832425-15.386997-11.601307-17.759595-19.294806 34.716694-18.666765 34.716694-18.666765l9.752076-6.419972" fill="#21170C" p-id="7166"></path><path d="M515.970325 203.764316c-0.662932 3.19254 2.965748 6.97823 5.582584 7.484151s-3.000639-3.803135-2.320261-6.97823 5.233672-4.710305 2.686618-5.233672-5.233672 1.587547-5.948941 4.780087" fill="#E68D5C" p-id="7167"></path><path d="M585.002465 236.090966s-13.95646 0.366357-16.224385-0.383803l-2.320261-0.732714a10.17077 10.17077 0 0 0 6.507199 9.141481 7.990073 7.990073 0 0 0 10.833702-4.378839c0.854833-2.390044 1.203745-3.646125 1.203745-3.646125" fill="#FFFFFF" p-id="7168"></path><path d="M578.181245 105.266599h-57.989091l-7.972628 31.070569h57.989092l7.972627-31.070569" fill="#FFB5B9" p-id="7169"></path><path d="M570.208618 136.337168h-57.989092l-38.764067 151.165907c15.160205-8.722787 46.736695-16.486068 46.736695-16.486068v-41.86938a88.972432 88.972432 0 0 1-2.738955-12.787606c-3.018084-2.459826-5.3209-5.774485-5.3209-9.298492v-0.854833c-1.290973-7.396924-2.581945-28.907318 0.680377-38.380265 3.838026-11.130277 7.274805-15.701017 24.423805-22.801366a47.103052 47.103052 0 0 1 17.74215-3.227432 61.321196 61.321196 0 0 1 13.398201 1.50032l1.744558-6.97823" fill="#F1ABB3" p-id="7170"></path><path d="M520.192154 271.017007s-31.576491 7.763281-46.736695 16.486068l-15.247433 59.419629h57.989091l14.54961-56.715565-10.554573-19.190132" fill="#6D8BCD" p-id="7171"></path><path d="M520.192154 271.017007l10.554573 19.190132 3.489115-13.537766a30.250627 30.250627 0 0 1-13.95646-5.652366" fill="#FFFFFF" p-id="7172"></path><path d="M520.192154 229.182518v41.86938a30.250627 30.250627 0 0 0 13.95646 5.652366l4.152047-16.206939-1.06418-0.837387c-10.729029-8.513441-15.369552-25.016954-15.788245-26.587057-0.471031-1.22119-0.924615-2.512163-1.325864-3.855472" fill="#FCB995" p-id="7173"></path><path d="M521.518018 233.03799c0.418694 1.570102 5.059217 18.073616 15.788245 26.587057l1.06418 0.837387 2.110915-8.181975a67.601603 67.601603 0 0 1-13.624994-10.310334 25.610104 25.610104 0 0 1-5.373237-8.932135" fill="#EA9E74" p-id="7174"></path><path d="M517.453199 216.32513a88.972432 88.972432 0 0 0 2.738955 12.787606c0.401248 1.343309 0.854833 2.634282 1.325864 3.855472a25.610104 25.610104 0 0 0 5.338346 9.001917 67.601603 67.601603 0 0 0 13.590103 10.310334 66.921226 66.921226 0 0 1-13.590103-10.292889c-4.884761-4.884761-7.833063-14.584501-9.420611-25.575213M563.492071 162.871888c-10.798811 0.348911-21.68485 5.844268-24.423805 14.235589a52.458844 52.458844 0 0 0-1.884122 21.301047s2.826183 23.882992 9.2636 31.140351L563.492071 162.871888" fill="#FCB995" p-id="7175"></path><path d="M537.04458 198.408524c0.383803 4.588186 0.924615 7.902845 0.191901 8.967026a5.443019 5.443019 0 0 1-4.047374 1.97135c0 6.158288-0.575704 11.217505-5.774485 11.217504a17.445575 17.445575 0 0 1-9.943978-4.169492c1.587547 10.990712 4.535849 20.690452 9.420611 25.575213a66.921226 66.921226 0 0 0 13.590103 10.292889l5.826822-22.679248c-6.437417-7.257359-9.2636-31.140351-9.2636-31.140351" fill="#423A30" p-id="7176"></path><path d="M555.013522 141.867416A47.103052 47.103052 0 0 0 537.323709 145.094847c-17.166446 6.97823-20.603224 11.67109-24.423805 22.801366-3.262323 9.438056-1.97135 30.94845-0.680378 38.380265 0.366357-6.733992 4.937098-12.054892 10.467345-12.054892s10.467345 5.791931 10.467345 12.909725V209.3469a5.443019 5.443019 0 0 0 4.047374-1.97135c0.732714-1.06418 0.191901-4.378839-0.191902-8.967026a52.458844 52.458844 0 0 1 1.884123-21.301047c2.791292-8.391322 13.677331-13.95646 24.423804-14.235589l5.00688-19.504153a61.321196 61.321196 0 0 0-13.398201-1.500319" fill="#423A30" p-id="7177"></path><path d="M521.919266 211.300804h-0.366357c-2.616836-0.558258-6.245516-4.291611-5.582584-7.484152a5.722149 5.722149 0 0 1 5.128999-4.937097 4.518404 4.518404 0 0 1 0.819942 0c2.599391 0.558258-2.006241 2.076023-2.686618 5.233672s4.291611 6.97823 2.686618 6.97823m0.75016-17.114109c-5.582584 0-10.153325 5.233672-10.467345 12.054892v0.854833c0 3.489115 2.302816 6.838665 5.3209 9.298492a17.445575 17.445575 0 0 0 9.943978 4.169492c5.233672 0 5.722149-5.059217 5.774485-11.217504v-2.25048c0-7.117795-4.710305-12.909725-10.467345-12.909725" fill="#FCB995" p-id="7178"></path><path d="M521.099324 198.879555a5.722149 5.722149 0 0 0-5.128999 4.867315c-0.662932 3.19254 2.965748 6.97823 5.582584 7.484152h0.366357c1.604993 0-3.332105-4.047373-2.686618-6.97823s5.233672-4.710305 2.686618-5.233673a4.518404 4.518404 0 0 0-0.819942 0" fill="#EA9E74" p-id="7179"></path><path d="M654.191615 105.266599h-57.989091l-7.972628 31.070569h58.006537l7.955182-31.070569" fill="#FFB5B9" p-id="7180"></path><path d="M646.218988 136.337168h-57.989092l-4.186937 16.36395c2.581945 3.78569 4.41373 8.251757 3.576342 10.6418a3.279768 3.279768 0 0 1-3.698462 2.390044 7.8854 7.8854 0 0 1-0.889724 0c7.187577 14.811293 11.112831 39.252544 8.722788 59.45452s0 33.512949-3.9427 39.549118c-2.669173 4.134601-9.577621 6.053615-15.544008 6.053615a18.980786 18.980786 0 0 1-7.222468-1.221191 26.744066 26.744066 0 0 1-6.036169-3.872917l-1.290972 5.896604s39.688683 2.704064 50.243256 13.95646l38.2407-149.124775" fill="#F1ABB3" p-id="7181"></path><path d="M557.735031 271.522929l-3.489115 20.376431-4.710305-4.675414-15.317215 59.698758h58.006537l15.701018-61.460761c-10.554573-11.23495-50.243256-13.95646-50.243256-13.95646" fill="#6D8BCD" p-id="7182"></path><path d="M557.735031 271.522929s-0.889724 2.006241-5.094107 3.628679l-3.105313 12.072338 4.640523 4.675414 3.489115-20.376431" fill="#FFFFFF" p-id="7183"></path><path d="M559.026004 265.626324l-0.366357 1.744558a14.86363 14.86363 0 0 1-3.052976 0.31402h-1.029289l-1.936458 7.553934c4.204384-1.622438 5.094108-3.62868 5.094107-3.628679l1.290973-5.896605" fill="#FCB995" p-id="7184"></path><path d="M555.816018 262.747804l-1.238636 4.84987h1.029289a14.86363 14.86363 0 0 0 3.052976-0.31402l0.366357-1.744558c-1.081626-0.872279-2.163251-1.849231-3.209986-2.878519" fill="#EA9E74" p-id="7185"></path><path d="M580.780636 165.401496l-15.701017 61.233968a38.08369 38.08369 0 0 1 13.956459-3.872917h2.948303c5.024326 0 7.257359 0.75016 9.73463 2.424935 2.390044-20.201976-1.535211-44.643226-8.722787-59.45452-0.662932 0-1.395646-0.139565-2.250479-0.261684" fill="#FCB995" p-id="7186"></path><path d="M582.019272 222.692764h-2.948302a38.08369 38.08369 0 0 0-13.95646 3.872918l-3.105313 12.107229c1.570102-0.680377 3.157649-1.325864 4.727751-1.936459a9.211264 9.211264 0 0 1-0.244238-1.831785l2.320262 0.732714a2.686619 2.686619 0 0 0 0.505921 0.122119c6.891002-2.5645 12.73527-4.291611 12.73527-4.291611l9.752076-6.419972c-2.477272-1.744557-4.710305-2.424935-9.73463-2.424935M584.042959 152.701118l-3.262323 12.700378c0.854833 0.122119 1.587547 0.226792 2.250479 0.261684a7.8854 7.8854 0 0 0 0.889724 0 3.279768 3.279768 0 0 0 3.698462-2.355153c0.837388-2.390044-0.994398-6.856111-3.576342-10.641801" fill="#423A30" p-id="7187"></path><path d="M591.771348 225.047917l-9.752076 6.419972s-5.844268 1.744557-12.73527 4.291611a66.74677 66.74677 0 0 0 8.47855 0.348912h7.239913s-0.348911 1.256081-1.203745 3.646125a7.833063 7.833063 0 0 1-7.29225 5.059216 9.961423 9.961423 0 0 1-3.489115-0.680377 9.752076 9.752076 0 0 1-6.262961-7.309696c-1.570102 0.610595-3.157649 1.256081-4.727751 1.936459l-6.158288 24.005111c1.046734 1.029289 2.12836 2.006241 3.209986 2.87852a26.744066 26.744066 0 0 0 6.036169 3.872918 18.980786 18.980786 0 0 0 7.222468 1.22119c5.966387 0 12.874834-1.919013 15.544007-6.053615 3.907809-6.036169 3.9427-39.549118 3.9427-39.549118" fill="#423A30" p-id="7188"></path><path d="M566.457819 234.974449a9.211264 9.211264 0 0 0 0.244238 1.831786 9.752076 9.752076 0 0 0 6.262961 7.309695 9.961423 9.961423 0 0 0 3.489115 0.680378 7.833063 7.833063 0 0 0 7.292251-5.059217c0.854833-2.390044 1.203745-3.646125 1.203744-3.646125h-7.239913a66.74677 66.74677 0 0 1-8.47855-0.348912 2.686619 2.686619 0 0 1-0.505921-0.122119l-2.320262-0.732714" fill="#FFFFFF" p-id="7189"></path><path d="M788.574879 254.147136h-129.463611l-1.203745-9.350828h129.463612l1.203744 9.350828zM792.535025 291.89936h-129.463612l-1.203745-9.333382h129.463612l1.203745 9.333382zM810.748205 272.30798h-150.014499l-1.3782-9.350829h149.997053l1.395646 9.350829z" fill="#00C99C" p-id="7190"></path><path d="M1094.517927 629.052542H1069.413745a46.457566 46.457566 0 0 0-46.422675 46.422675v118.62991a46.457566 46.457566 0 0 0 46.422675 46.405229h28.244386v-15.701017H1069.413745a30.756549 30.756549 0 0 1-30.756549-30.756549v-118.62991a30.756549 30.756549 0 0 1 30.756549-30.704212h25.104182z" fill="#204A99" p-id="7191"></path><path d="M1135.759267 588.072886m11.915327 0l25.714778 0q11.915328 0 11.915327 11.915328l0 30.459974q0 11.915328-11.915327 11.915328l-25.714778 0q-11.915328 0-11.915327-11.915328l0-30.459974q0-11.915328 11.915327-11.915328Z" fill="#204A99" p-id="7192"></path><path d="M1144.708847 588.072886m11.915327 0l25.714778 0q11.915328 0 11.915327 11.915328l0 30.459974q0 11.915328-11.915327 11.915328l-25.714778 0q-11.915328 0-11.915327-11.915328l0-30.459974q0-11.915328 11.915327-11.915328Z" fill="#0CBFD1" p-id="7193"></path><path d="M1056.922713 609.234369m20.93469 0l121.019954 0q20.93469 0 20.93469 20.93469l0 202.630353q0 20.93469-20.93469 20.93469l-121.019954 0q-20.93469 0-20.93469-20.93469l0-202.630353q0-20.93469 20.93469-20.93469Z" fill="#5377C4" p-id="7194"></path><path d="M1094.517927 609.234369m20.93469 0l121.019954 0q20.93469 0 20.93469 20.93469l0 202.630353q0 20.93469-20.93469 20.93469l-121.019954 0q-20.93469 0-20.93469-20.93469l0-202.630353q0-20.93469 20.93469-20.93469Z" fill="#60D6E6" p-id="7195"></path><path d="M1257.407261 832.799412v-90.350633l-162.889334 56.994694v33.355939a20.93469 20.93469 0 0 0 20.93469 20.93469h121.019954a20.93469 20.93469 0 0 0 20.93469-20.93469z" fill="#50CAD3" p-id="7196"></path><path d="M1220.422642 836.061734h-88.972432a20.93469 20.93469 0 0 1-20.93469-20.93469V689.623578h109.907122a20.93469 20.93469 0 0 1 20.93469 20.93469v104.568776a20.93469 20.93469 0 0 1-20.93469 20.93469z" fill="#204A99" p-id="7197"></path><path d="M1227.470654 836.061734h-88.972432a20.93469 20.93469 0 0 1-20.93469-20.93469V689.623578h130.841812v125.503466a20.93469 20.93469 0 0 1-20.93469 20.93469z" fill="#5377C4" p-id="7198"></path><path d="M1110.567856 627.238202m11.915328 0l106.95882 0q11.915328 0 11.915328 11.915328l0 30.459974q0 11.915328-11.915328 11.915327l-106.95882 0q-11.915328 0-11.915328-11.915327l0-30.459974q0-11.915328 11.915328-11.915328Z" fill="#204A99" p-id="7199"></path><path d="M1117.615869 627.238202m11.915327 0l106.95882 0q11.915328 0 11.915328 11.915328l0 30.459974q0 11.915328-11.915328 11.915327l-106.95882 0q-11.915328 0-11.915327-11.915327l0-30.459974q0-11.915328 11.915327-11.915328Z" fill="#5377C4" p-id="7200"></path><path d="M1117.615869 760.278157v54.848887a20.93469 20.93469 0 0 0 20.93469 20.93469h88.972432a20.93469 20.93469 0 0 0 20.93469-20.93469v-100.120154z" fill="#4F69D1" p-id="7201"></path><path d="M436.889534 24.12723h-129.463612l-1.186299-9.350828h129.446166l1.203745 9.350828zM440.849679 61.8969h-129.463612l-1.203744-9.350828h129.463612l1.203744 9.350828zM459.062859 42.288074h-149.997053l-1.395646-9.333383h150.014499l1.3782 9.333383z" fill="#FFB0B2" p-id="7202"></path><path d="M212.487103 577.989344s1.988796-61.513097 0-152.142859 99.335104-173.199668 183.038972-131.923438c0 0-53.732371 0.662932-91.973071 33.896752s-59.942996 52.720528-63.048308 109.627993-14.532164 140.541552-14.532164 140.541552z" fill="#00B98F" p-id="7203"></path><path d="M175.659494 577.814888s-6.629318-179.881323-28.22694-249.995089 7.327141-227.211168 7.327141-227.211168 1.046734 121.333974 18.614429 181.067622 47.62642 136.895427 41.86938 206.834737-20.568333 89.478354-20.568333 89.478354z" fill="#00B98F" p-id="7204"></path><path d="M190.523124 340.555069l-44.7479-14.776402c0.191901 0.680377 0.383803 1.3782 0.59315 2.041132 21.597622 70.113766 28.22694 249.995089 28.22694 249.995089l19.050568 0.174456s14.828739-19.55649 20.568333-89.478354c3.977591-48.585926-9.315937-100.660968-23.691091-147.955921z" fill="#068E6A" p-id="7205"></path><path d="M177.700627 577.989344s28.436287-89.705146-21.126592-232.56696S45.724852 169.832672 45.724852 169.832672s55.250136 120.374467 78.365523 214.580572 23.411962 193.645882 23.411961 193.645882z" fill="#00C99C" p-id="7206"></path><path d="M244.743971 336.699597c-20.324095 25.086737-32.9198 56.593445-32.221977 89.129442 1.953904 90.71699 0 152.142859 0 152.142859h13.520321s11.426852-83.634086 14.532164-140.541551c2.233034-40.892428 14.061133-62.472604 34.734139-83.73876z" fill="#068E6A" p-id="7207"></path><path d="M191.098828 577.989344s15.003194-86.285814-1.552656-208.422284 140.855572-229.68844 140.855572-229.68844-82.67458 96.875278-97.607992 175.432702-3.052976 175.694385-12.525923 224.489658c-5.826822 30.058726-6.332744 38.188364-6.332743 38.188364z" fill="#00C99C" p-id="7208"></path><path d="M226.007424 577.989344s8.338985-53.941718 7.309696-133.894788 49.75478-146.926632 0-265.347195-84.750603-115.332696-84.750604-115.332696 58.913707-5.233672 100.242274 69.241487 49.894344 170.199029 22.679248 262.049981S245.982607 577.989344 245.982607 577.989344z" fill="#00C99C" p-id="7209"></path><path d="M177.700627 577.989344s22.487346-70.933708-7.379479-187.208465l-47.853212-12.822497c0.558258 2.163251 1.099071 4.326503 1.639884 6.472308 23.115387 94.206105 23.394516 193.645882 23.394516 193.645882zM194.256477 409.831447c8.827461 100.416729-2.948302 168.157897-2.948302 168.157897h22.853703s0.488476-8.129638 6.332744-38.188364c6.123397-31.576491 3.279768-83.372403 4.570741-137.279229zM233.386902 450.531973c0.523367 76.394173-7.362033 127.457371-7.362033 127.457371H245.982607a693.182475 693.182475 0 0 1 9.629957-112.925207z" fill="#00B98F" p-id="7210"></path><path d="M139.773947 576.262232c-26.69173 31.524154-44.189641 84.017889-44.189642 143.472409 0 53.994055 14.42749 102.26596 37.089293 134.330927h131.225614c22.679247-32.030076 37.089292-80.249645 37.089293-134.330927 0-59.454519-17.445575-111.948255-44.207087-143.472409z" fill="#FF9398" p-id="7211"></path><path d="M217.877786 576.262232H139.773947c-26.69173 31.524154-44.189641 84.017889-44.189642 143.472409 0 53.994055 14.42749 102.26596 37.089293 134.330927h85.204188z" fill="#F4828B" p-id="7212"></path><path d="M0 852.861823h1374.34495v1.744558H0z" fill="#FFFFFF" p-id="7213"></path></svg>