<?xml version="1.0" standalone="no"?><!DOCTYPE svg PUBLIC "-//W3C//DTD SVG 1.1//EN" "http://www.w3.org/Graphics/SVG/1.1/DTD/svg11.dtd"><svg t="1689734766794" class="icon" viewBox="0 0 1355 1024" version="1.1" xmlns="http://www.w3.org/2000/svg" p-id="7353" xmlns:xlink="http://www.w3.org/1999/xlink" width="264.6484375" height="200"><path d="M919.278447 718.105012l1.566582-0.215207 41.528675 305.14018-1.566583 0.213625zM721.7783 718.120836l1.566582-0.213625 41.528675 305.138598-1.566583 0.213625z" fill="#FFFFFF" p-id="7354"></path><path d="M754.807869 954.643126h216.552321v1.582406H754.807869zM743.272126 869.857789h216.552321v1.582407H743.272126z" fill="#FFFFFF" p-id="7355"></path><path d="M569.808733 265.441828s-12.421891 0-15.317694 2.167896-6.329626 11.203438-5.902376 14.352427 25.081142 0 25.081142 0z" fill="#A55B3A" p-id="7356"></path><path d="M847.109637 150.622417l54.023355 16.931749c4.31997 1.345045 11.630687 7.041709 11.773104 12.105409l7.120829 237.202724-175.520522-4.604802 13.687816-239.244029 49.988219-21.789737z" fill="#F9C200" p-id="7357"></path><path d="M748.889669 342.85315l68.992921 32.581749 100.830938-16.07725-4.541507-151.246407-34.338219-6.646107-4.272498 23.910162a52.377653 52.377653 0 0 1-45.066935 42.724973l-77.886045 9.715976z" fill="#EDB607" p-id="7358"></path><path d="M1045.242746 826.104251a30.540444 30.540444 0 0 1-30.4455-30.461324V320.557044a30.461324 30.461324 0 1 1 60.906824 0V795.642927a30.540444 30.540444 0 0 1-30.461324 30.461324z" fill="#5377C4" p-id="7359"></path><path d="M351.167636 290.09572h687.033402a33.230535 33.230535 0 0 1 33.230535 33.230535V792.794596a33.230535 33.230535 0 0 1-33.230535 33.230535H351.167636a33.230535 33.230535 0 0 1-33.230535-33.230535V323.405375a33.230535 33.230535 0 0 1 33.230535-33.309655z" fill="#F0F1F4" p-id="7360"></path><path d="M350.772034 316.933333a6.93094 6.93094 0 1 1-6.93094-6.93094 6.946764 6.946764 0 0 1 6.93094 6.93094zM379.271174 316.933333a6.93094 6.93094 0 1 1-6.93094-6.93094 6.946764 6.946764 0 0 1 6.93094 6.93094zM406.979111 316.933333a6.93094 6.93094 0 1 1-6.915116-6.93094 6.93094 6.93094 0 0 1 6.915116 6.93094z" fill="#60D6E6" p-id="7361"></path><path d="M758.194219 173.013468l-76.968249 90.197166h-113.585134s-2.895804 12.659251 0 20.47634l2.87998 7.753791s105.641454 6.677755 116.496762 7.310718 67.252273-55.384225 67.252273-55.384225z" fill="#F9C200" p-id="7362"></path><path d="M522.7179 395.36689l31.499382-129.119618 409.49672 99.898901-31.499383 129.119618z" fill="#FFB0B2" p-id="7363"></path><path d="M554.079613 267.483132l-31.299999 127.921736 187.784171 45.82649-23.546207-142.432403-132.937965-31.315823z" fill="#FF9398" p-id="7364"></path><path d="M383.132246 391.322259l96.954042 25.54004 44.30738-81.478107 17.406471 6.677755s-30.87275 87.855205-40.034883 103.774214-122.509906-13.592871-122.509906-13.592871z" fill="#0CBFD1" p-id="7365"></path><path d="M554.079613 267.43566a21.425783 21.425783 0 0 0-14.352426 8.149393c-5.981496 7.643023-1.424166 17.722952 4.747219 24.274114s14.653084 7.453134 19.764256 4.509859 4.414914-18.023609 1.851416-26.410364-12.010465-10.523003-12.010465-10.523002z" fill="#A55B3A" p-id="7366"></path><path d="M852.505642 447.608456l-0.759555-0.189888L615.556103 389.787325l0.189889-0.775379 18.292618-75.006065 0.775379 0.189889L871.003974 371.874484l-0.189889 0.775379zM617.454991 388.616344L851.334662 445.693744l17.738776-72.695751-233.879671-57.0774z" fill="#FFFFFF" p-id="7367"></path><path d="M372.40353 617.796268l21.710617 166.516629-23.055662 192.563039s7.674671 8.734884 18.086905 6.788524a54.260717 54.260717 0 0 0 17.833721-6.788524s25.096966-162.307428 30.540444-192.563039S444.656208 623.6037 444.656208 623.6037z" fill="#204A99" p-id="7368"></path><path d="M907.209433 342.85315s-11.345854 24.353235-16.409555 32.31274-13.735288 9.415318-21.457431 8.196865-1.693175-19.289534 1.43999-29.179575l3.164813-9.89004-12.057937-2.87998s2.642619-4.82634 11.076845-6.329625a37.80369 37.80369 0 0 0 13.988473-5.301062z" fill="#A55B3A" p-id="7369"></path><path d="M874.944166 197.208462c-3.607887 17.406471 83.867541 51.380737 83.867541 51.380737L882.98279 329.624233a19.78008 19.78008 0 0 0 11.583215 13.023204c9.399494 3.607887 14.463195 3.607887 14.463195 3.607887s83.867541-59.324417 93.36198-89.706621-95.292515-88.994538-101.906974-88.994537-21.916329 12.295298-25.54004 29.654296z" fill="#F9C200" p-id="7370"></path><path d="M437.519555 338.264172c-6.962588 0-12.659251-7.310718-12.659251-16.298787s5.649191-16.298786 12.659251-16.298786 12.659251 7.310718 12.659252 16.298786-5.712487 16.298786-12.659252 16.298787z m0-31.015166c-6.092265 0-11.076845 6.598635-11.076845 14.716379s4.937108 14.71638 11.076845 14.71638 11.076845-6.598635 11.076845-14.71638-5.000404-14.71638-11.076845-14.716379zM467.316268 340.970087c-6.329626 0-11.424974-6.614459-11.424974-14.763852s5.126997-14.763852 11.424974-14.763852 11.440799 6.630283 11.440799 14.763852-5.126997 14.763852-11.440799 14.763852z m0-27.945298c-5.427654 0-9.842568 5.9182-9.842568 13.181446s4.414914 13.181446 9.842568 13.181445 9.858392-5.902376 9.858392-13.181445-4.414914-13.181446-9.858392-13.181446z" fill="#21170C" p-id="7371"></path><path d="M439.418443 354.468014l-0.648787 23.736096s-2.721739 5.744135-19.78008 7.263246a20.349747 20.349747 0 0 1-14.842973-5.33271l-3.370525-37.977755z" fill="#FBAD83" p-id="7372"></path><path d="M439.79822 358.708863l-0.949444 16.536147a8.022801 8.022801 0 0 1-4.747219-0.411426c-8.149393-3.164813-7.152477-12.247826-12.232002-28.894741z" fill="#E68D5C" p-id="7373"></path><path d="M466.477593 286.677722s3.987664 39.560161-1.582407 58.786399-22.929069 27.280687-38.246763 23.736096c-5.680839-1.313397-26.283771-24.464003-28.894742-53.073911s-0.110768-37.234023 4.541507-43.29464 46.934175-13.577047 54.62467-6.962589 9.557735 20.808645 9.557735 20.808645z" fill="#FBAD83" p-id="7374"></path><path d="M396.709293 265.441828s-8.244338 9.494439-7.532255 33.357127 6.155561 41.411576 13.023205 48.690646 30.635389 6.946764 37.977755 2.9591 20.682052-19.337007 19.954145-28.483316c-0.300657-3.924368-0.680435-9.035541-1.01274-13.577047a13.102325 13.102325 0 0 1 10.048281-13.687815l2.911628-0.680435s1.803943-23.51456-10.855309-33.230535-27.866177-10.491355-43.057279-6.503691-21.457431 11.155965-21.457431 11.155966z" fill="#21170C" p-id="7375"></path><path d="M441.222386 332.02949c0 5.633367 7.484782 10.633771 12.073761 10.633772s4.557331-5.000404 4.557331-10.633772-3.718655-10.190697-8.307634-10.190697-8.323458 4.557331-8.323458 10.190697z" fill="#FBAD83" p-id="7376"></path><path d="M444.846097 329.545112c0.538018-2.753387 4.668099-4.494034 6.93094-4.066784s-3.655359 2.02548-4.193377 4.747219 2.610971 5.506774 0.363953 5.079525a4.747219 4.747219 0 0 1-3.101516-5.75996z" fill="#E68D5C" p-id="7377"></path><path d="M427.724459 283.354668a33.626137 33.626137 0 1 1-33.610312-33.610312 33.610313 33.610313 0 0 1 33.610312 33.610312zM454.546248 322.171098h23.419616v1.582407h-23.419616z" fill="#21170C" p-id="7378"></path><path d="M373.780224 583.299808s-6.962588 18.371739 1.392518 45.335944c5.99732 19.305358 38.357532 21.235894 38.357531 21.235895l52.52007 146.62578-6.804348 180.394333s16.836804 10.665419 28.483316 6.788524l11.662336-3.876896s12.580131-175.647114 11.678159-195.886092-23.340495-200.601664-23.340495-200.601664z" fill="#5377C4" p-id="7379"></path><path d="M487.745135 583.299808h-113.933263s-4.193377 11.076845-2.167897 28.657381l60.669463 9.114661 64.134933 32.803285c-4.715571-38.563245-8.703235-70.575327-8.703236-70.575327z" fill="#4F69D1" p-id="7380"></path><path d="M637.820562 436.183482l11.076845-10.000809 25.081142 6.139737s2.405258-9.89004 5.364357-11.931344 8.687411-1.01274 8.687412-1.012741-3.861072 16.931749-6.456219 22.960718-24.780485 7.912032-28.483315 7.35819a7.294894 7.294894 0 0 0-5.301062 0.838675z" fill="#FBAD83" p-id="7381"></path><path d="M438.769656 378.20411l41.823002 16.931749 20.20733 192.119965s-100.071383 38.753134-137.036397 0l10.428059-180.837407a23.419615 23.419615 0 0 1 14.95374-20.571284l15.001213-5.775783z" fill="#60D6E6" p-id="7382"></path><path d="M443.659292 602.098796a306.559599 306.559599 0 0 0 56.966632-14.890444l-15.618352-147.923354-27.391455-6.741051z" fill="#50CAD3" p-id="7383"></path><path d="M480.592658 395.088387l76.19287 76.794184L639.292199 433.477567a43.816834 43.816834 0 0 1 7.722144 11.393326l3.829423 7.706319s-81.478107 48.263396-98.378208 53.801819S444.656208 419.346677 444.656208 419.346677z" fill="#60D6E6" p-id="7384"></path><path d="M526.941343 336.333636s0.743731-12.469363 6.598634-19.985793 10.602123-8.639939 10.602124-8.63994l-3.908544 16.330435s-0.917796 2.357786 2.879979 2.563498 4.209201-7.389838 8.829828-8.117745 5.032052 0 5.032053 0-4.747219 11.40915-8.624115 15.523407-6.994236 7.912032-6.994237 7.912033z" fill="#FBAD82" p-id="7385"></path><path d="M464.167279 970.498838l-2.895803 52.709959h78.139229a18.719868 18.719868 0 0 0-12.975732-17.817897l-32.597573-10.507178 1.09186-24.384884z" fill="#5377C4" p-id="7386"></path><path d="M375.425927 972.967392l-8.21269 36.237108 31.838018 14.004297h36.664357a13.766936 13.766936 0 0 0-9.684328-13.149798l-18.197674-5.665015-6.329625-29.432759z" fill="#204A99" p-id="7387"></path><path d="M689.486132 549.27807h110.056367v110.056367h-110.056367zM896.037643 645.773214h-82.933921v-82.933921h82.933921z m-81.351514-1.582406h79.769108v-79.769109h-79.769108z" fill="#60D6E6" p-id="7388"></path><path d="M909.598867 769.390805h-110.056368v-110.056368h110.056368v110.056368z" fill="#FFB0B2" p-id="7389"></path><path d="M220.081087 845.694443m20.602932 0l8.829828 0q20.602932 0 20.602931 20.602932l0 112.224264q0 20.602932-20.602931 20.602932l-8.829828 0q-20.602932 0-20.602932-20.602932l0-112.224264q0-20.602932 20.602932-20.602932Z" fill="#204A99" p-id="7390"></path><path d="M225.034019 845.694443m20.602932 0l8.829828 0q20.602932 0 20.602931 20.602932l0 112.224264q0 20.602932-20.602931 20.602932l-8.829828 0q-20.602932 0-20.602932-20.602932l0-112.224264q0-20.602932 20.602932-20.602932Z" fill="#5377C4" p-id="7391"></path><path d="M163.79489 869.493836m20.602932 0l130.516883 0q20.602932 0 20.602931 20.602932l0 112.224264q0 20.602932-20.602931 20.602932l-130.516883 0q-20.602932 0-20.602932-20.602932l0-112.224264q0-20.602932 20.602932-20.602932Z" fill="#5377C4" p-id="7392"></path><path d="M335.913238 942.252884l-171.722746 47.677905v12.390243a20.571284 20.571284 0 0 0 20.571283 20.571283h130.501059a20.571284 20.571284 0 0 0 20.571284-20.571283z" fill="#4F69D1" p-id="7393"></path><path d="M151.278055 869.493836m20.602932 0l8.829828 0q20.602932 0 20.602932 20.602932l0 112.224264q0 20.602932-20.602932 20.602932l-8.829828 0q-20.602932 0-20.602932-20.602932l0-112.224264q0-20.602932 20.602932-20.602932Z" fill="#FF9398" p-id="7394"></path><path d="M163.79489 1002.558393v-112.698986a20.349747 20.349747 0 0 1 18.76734-20.286451h-10.886956a20.365571 20.365571 0 0 0-20.397219 20.286451v112.698986a20.365571 20.365571 0 0 0 20.365571 20.365571h10.886956a20.349747 20.349747 0 0 1-18.735692-20.365571z" fill="#FFB0B2" p-id="7395"></path><path d="M300.942056 993.39626h-61.713851a18.798988 18.798988 0 0 1-18.798989-18.798989v-62.046156h99.28018v62.046156a18.798988 18.798988 0 0 1-18.76734 18.798989z" fill="#204A99" p-id="7396"></path><path d="M305.894988 993.39626h-61.713851a18.798988 18.798988 0 0 1-18.798989-18.798989v-62.046156h99.327652v62.046156a18.798988 18.798988 0 0 1-18.814812 18.798989z" fill="#FFB0B2" p-id="7397"></path><path d="M0 1022.417594h1341.500879v1.582406H0z" fill="#FFFFFF" p-id="7398"></path><path d="M956.517217 645.773214a42.297724 42.297724 0 1 1 42.297724-42.297724 42.345196 42.345196 0 0 1-42.297724 42.297724z m0-83.013041a40.715318 40.715318 0 1 0 40.715318 40.715317 40.76279 40.76279 0 0 0-40.715318-40.715317zM848.961052 150.622417s-5.126997 21.473255-24.115874 19.8592-18.988877-18.276794-18.988877-18.276794z" fill="#FFFFFF" p-id="7399"></path><path d="M848.961052 94.49446v56.697623s-9.494439 7.43731-25.998938 6.472042c-15.349342-0.886148-17.058341-5.459302-17.058341-5.459302l-7.073357-30.065722z" fill="#A55B3A" p-id="7400"></path><path d="M804.09983 146.302447c8.244338 1.835591 17.786248-3.291405 24.907077-8.95642 13.133973-10.443882 18.450859-31.141759 18.450859-31.141759l-43.452881 13.054853-5.174469 2.848332z" fill="#8E4A2F" p-id="7401"></path><path d="M772.404229 26.909882s-7.43731 2.769211-6.915116 20.571283c0.237361 8.418402 3.38635 24.353235 3.386349 24.353235l19.384479-49.513497z" fill="#21170C" p-id="7402"></path><path d="M771.502257 119.812963c15.317694 32.249443 53.358745 13.19727 69.625883-3.054044s14.035945-78.392415 9.494439-90.197167S808.609688 5.278386 788.671367 12.873937s-32.502628 74.689584-17.16911 106.939026z" fill="#A55B3A" p-id="7403"></path><path d="M829.307564 65.947848s-4.225025 35.683265-13.988473 38.499949c-8.355106 2.436906-19.969969-9.494439-35.018654-10.127401-8.386754-0.363953-11.40915 0.42725-14.811324 2.737563a73.676844 73.676844 0 0 0 5.99732 22.707532c15.317694 32.249443 53.358745 13.19727 69.625883-3.054044 7.912032-7.912032 11.424974-26.489484 12.469363-44.940343z" fill="#21170C" p-id="7404"></path><path d="M835.71631 78.733692s-4.747219 0.474722-6.630283-2.326137 3.592063-18.577452-1.978008-35.303488c-3.97184-11.947169-22.011274-18.862285-36.790949-15.966481s-18.482507 4.209201-20.001618-0.094944 4.430738-14.36825 9.494439-18.371739 29.147927-11.076845 49.165368-2.895803 24.02093 13.624519 28.483316 26.600252 1.582406 45.478361 0 47.567137-21.742264 0.791203-21.742265 0.791203z" fill="#21170C" p-id="7405"></path><path d="M858.360546 76.091074c0 8.307634-11.076845 15.697472-17.83372 15.697471s-6.725227-7.389838-6.725228-15.697471 5.49095-15.064509 12.279474-15.06451 12.279474 6.741051 12.279474 15.06451z" fill="#A55B3A" p-id="7406"></path><path d="M765.489113 97.105431s0 39.085439 4.588978 46.127148 19.716784 8.576643 26.55278 5.633367 17.944489-13.529575 20.7137-22.50182-40.477957-21.773913-40.477956-21.773913z" fill="#21170C" p-id="7407"></path><path d="M853.866512 72.198354c0.791203 3.734479-3.449646 8.086097-6.487866 8.719059s3.497118-4.430738 2.705915-8.165217-6.171385-5.475126-3.164813-6.123913 6.171385 1.851416 6.946764 5.570071z" fill="#8E4A2F" p-id="7408"></path><path d="M773.385321 109.891275s16.203842 0.42725 18.909757-0.443074l2.705915-0.854499s0 7.912032-7.579727 10.665419-11.646511-2.310313-12.659252-5.111173-1.376694-4.256673-1.376693-4.256673z" fill="#FFFFFF" p-id="7409"></path><path d="M777.420457 60.583491a1.582406 1.582406 0 0 1-0.522194-0.094945 22.834125 22.834125 0 0 0-12.469363 0 1.582406 1.582406 0 0 1-0.870323-3.03822 25.318503 25.318503 0 0 1 14.384074 0 1.582406 1.582406 0 0 1-0.522194 3.069868zM804.780264 64.618627a1.582406 1.582406 0 0 1-1.202628-0.538018c-0.253185-0.284833-5.9182-6.535339-16.15637-3.275582a1.582406 1.582406 0 1 1-0.965268-3.006572c12.295298-3.924368 19.226238 3.861072 19.511071 4.209201a1.582406 1.582406 0 0 1-1.186805 2.610971zM754.681277 72.388243h10.016632v1.582406h-10.016632z" fill="#21170C" p-id="7410"></path><path d="M766.486029 92.848758c-6.946764 0-12.659251-7.310718-12.659252-16.298787s5.649191-16.298786 12.659252-16.298786 12.659251 7.310718 12.659251 16.298786-5.696663 16.298786-12.659251 16.298787z m0-31.015166c-6.076441 0-11.076845 6.598635-11.076845 14.716379s4.937108 14.71638 11.076845 14.71638 11.076845-6.598635 11.076845-14.71638-5.000404-14.71638-11.076845-14.716379zM796.029557 92.848758c-6.946764 0-12.659251-7.310718-12.659252-16.298787s5.665015-16.298786 12.659252-16.298786 12.659251 7.310718 12.659251 16.298786-5.712487 16.298786-12.659251 16.298787z m0-31.015166c-6.076441 0-11.076845 6.598635-11.076845 14.716379s4.952932 14.71638 11.076845 14.71638 11.076845-6.598635 11.076845-14.71638-5.000404-14.71638-11.076845-14.716379z" fill="#21170C" p-id="7411"></path><path d="M807.549476 72.388243h26.236298v1.582406h-26.236298zM778.306605 72.388243h5.902376v1.582406h-5.902376z" fill="#21170C" p-id="7412"></path><path d="M1218.801084 651.438229a3.560414 3.560414 0 0 1-0.917796 0 4.39909 4.39909 0 0 1-3.417998-4.968756l3.987664-39.069615a4.098433 4.098433 0 0 1 4.31997-3.956016 4.367442 4.367442 0 0 1 3.417998 4.952932l-3.987664 39.148735a4.177553 4.177553 0 0 1-3.402174 3.89272z" fill="#A9C2DC" p-id="7413"></path><path d="M1046.904273 663.559462c-0.664611 0.07912-1.36087 0.142417-2.041304 0.189889a25.793225 25.793225 0 0 1-20.792821-9.019717 29.749241 29.749241 0 0 1-6.962588-22.786652l3.069868-28.388372a5.522598 5.522598 0 0 1 5.744136-5.111172 5.269413 5.269413 0 0 1 4.541506 6.044792l-3.054044 28.483316a18.482507 18.482507 0 0 0 4.288321 14.083417 15.824064 15.824064 0 0 0 12.801668 5.506775c8.782356-0.474722 15.824064-8.339282 16.013953-17.912841v-3.687007a5.538423 5.538423 0 0 1 5.285238-5.649191 5.316886 5.316886 0 0 1 5.079524 5.665015v3.687007c-0.253185 14.842972-10.665419 27.122446-23.973457 28.894741z" fill="#5377C4" p-id="7414"></path><path d="M1180.190367 896.06244l96.669209-51.396561-66.682607-190.838216a3.750303 3.750303 0 0 0-5.063701-2.484378 4.620627 4.620627 0 0 0-2.167897 5.759959l63.992517 182.783767-90.513648 48.263397a4.351618 4.351618 0 0 0-1.582407 5.744135 4.003488 4.003488 0 0 0 5.348534 2.167897z" fill="#00B98F" p-id="7415"></path><path d="M1190.87161 897.375837a4.952932 4.952932 0 0 1-1.265925-0.110768 6.329626 6.329626 0 0 1-4.541506-6.85182l26.378715-234.101208-135.659704-17.912841a5.696663 5.696663 0 0 1 1.28175-11.282558l145.976993 18.878109-27.56552 246.744635a4.952932 4.952932 0 0 1-4.604803 4.636451z" fill="#00B98F" p-id="7416"></path><path d="M1190.950731 898.103744a6.329626 6.329626 0 0 1-5.902376-3.924368L1070.703666 651.960423a6.741051 6.741051 0 0 1 2.45273-8.639939 5.570071 5.570071 0 0 1 7.912032 2.579323L1195.508061 889.004907a6.487866 6.487866 0 0 1-2.468554 8.608291 5.095349 5.095349 0 0 1-2.088776 0.490546z" fill="#00B98F" p-id="7417"></path><path d="M1039.039713 860.569063a3.702831 3.702831 0 0 1-1.01274-0.07912 4.351618 4.351618 0 0 1-3.291406-4.873812l26.378716-185.742867 23.340495-3.164813a3.987664 3.987664 0 0 1 4.304145 3.718655 4.209201 4.209201 0 0 1-3.417998 4.74722l-17.406471 2.262841-25.429271 179.840491a3.750303 3.750303 0 0 1-3.46547 3.291405z" fill="#00C99C" p-id="7418"></path><path d="M1033.754475 688.862141C998.799117 693.102991 977.927176 769.596518 987.105134 859.572147s45.430889 162.987863 80.940089 162.987863 56.396965-76.398583 46.649342-170.710006-45.984731-167.307832-80.94009-162.987863z m31.790546 309.297162c-30.287259 0.237361-61.239129-62.06198-69.119513-139.156822s9.953336-142.416579 39.82917-145.771281 60.827703 58.897167 69.119513 139.156822-9.541911 145.53392-39.82917 145.771281z" fill="#5377C4" p-id="7419"></path><path d="M1041.935517 687.849401c-34.955358 4.304146-55.811475 80.971737-46.586046 171.216376s45.494185 163.446761 81.003386 163.478409 56.365317-76.635944 46.586045-171.216376-46.048027-167.719258-81.003385-163.478409z m31.901313 310.246606c-30.287259 0.237361-61.254953-62.251869-69.166985-139.599896s9.89004-142.780533 39.781698-146.19853 60.843527 59.087056 69.166985 139.584071-9.494439 145.96117-39.781698 146.214355z" fill="#A9C2DC" p-id="7420"></path><path d="M1261.953307 660.711131c-34.955358 4.304146-55.036096 87.032354-44.845398 184.888368s47.250656 177.118752 82.759857 177.22952 55.589938-82.870625 44.845398-184.967488-47.804498-181.454546-82.759857-177.1504z m35.145247 335.596756c-30.287259 0.237361-61.919564-67.426338-70.733567-151.293879s8.418402-154.458692 38.294235-157.87669 61.523962 64.308997 70.670272 151.262231-7.94368 157.655153-38.23094 157.908338z" fill="#5377C4" p-id="7421"></path><path d="M1270.134349 659.698391c-34.955358 4.31997-55.004448 87.317187-44.766278 185.410562s47.298128 177.609298 82.807328 177.640946 55.55829-82.965569 44.782102-185.394738-47.867795-181.960916-82.823152-177.65677z m35.256015 336.530376c-30.287259 0.253185-61.935388-67.663699-70.70192-151.689481s8.339282-154.901766 38.23094-158.319763 61.539786 64.51471 70.717744 151.705304-7.959504 158.066579-38.246764 158.30394z" fill="#A9C2DC" p-id="7422"></path><path d="M1053.107306 877.263451c-4.557331 0.237361-9.241254-9.193781-10.459706-21.061829s1.487462-21.758088 6.028968-22.15369 9.241254 9.114661 10.459707 21.061829-1.455814 21.916329-6.028969 22.15369zM1283.980405 870.981298c-5.712487 0.284833-11.693984-12.532659-13.371334-28.625733s1.582406-29.480232 7.247421-29.875833 11.662335 12.406066 13.371334 28.625732-1.566582 29.591-7.247421 29.875834z" fill="#5377C4" p-id="7423"></path><path d="M1059.579348 859.350611a3.259757 3.259757 0 0 1-1.028564 0 4.383266 4.383266 0 0 1-3.291405-4.90546l25.777401-183.986397a4.003488 4.003488 0 0 1 4.430738-3.607886 4.193377 4.193377 0 0 1 3.291405 4.826339L1063.028994 856.090853a3.734479 3.734479 0 0 1-3.449646 3.259758zM1075.039459 675.85476a5.316886 5.316886 0 0 1-1.123508 0 6.171385 6.171385 0 0 1-5.364358-6.804347l4.747219-66.603487a6.234681 6.234681 0 0 1 6.329626-6.060617 6.028969 6.028969 0 0 1 5.364358 6.725228l-4.74722 66.872495a6.187209 6.187209 0 0 1-5.206117 5.870728zM1190.729194 895.920023a4.256673 4.256673 0 0 1-3.924368-2.563498 4.351618 4.351618 0 0 1 1.582406-5.75996l90.497824-48.437461-64.08746-183.559146a4.652275 4.652275 0 0 1 2.152072-5.791608 3.766127 3.766127 0 0 1 5.079525 2.500203l66.777552 191.645243-96.653385 51.58645a3.354702 3.354702 0 0 1-1.424166 0.379777z" fill="#00C99C" p-id="7424"></path><path d="M1138.161652 592.319525l-112.55657 17.264054a5.047877 5.047877 0 0 1-5.712487-4.747219 5.728311 5.728311 0 0 1 4.573155-6.329626L1136.959023 580.752134a5.190293 5.190293 0 0 1 5.744135 4.968756 5.870728 5.870728 0 0 1-4.541506 6.598635z" fill="#A9C2DC" p-id="7425"></path><path d="M1161.233138 648.447481q-0.996916 0.142417-2.041304 0.189889a25.666632 25.666632 0 0 1-20.856117-9.494439 32.075378 32.075378 0 0 1-7.089181-23.736096l2.927452-29.559353a5.206117 5.206117 0 1 1 10.285642 1.028565l-2.895804 29.654296a19.875025 19.875025 0 0 0 4.367442 14.700556 15.824064 15.824064 0 0 0 12.833316 5.823256c8.79818-0.458898 15.824064-8.608291 15.934833-18.577452v-3.829424a5.237765 5.237765 0 1 1 10.380586 0v3.845248c-0.189889 15.460111-10.507179 28.198483-23.846865 29.954954z" fill="#A9C2DC" p-id="7426"></path><path d="M1206.537434 615.565075l39.053791-5.617543a7.199949 7.199949 0 1 0-2.057129-14.241658L1204.49613 601.323417a7.199949 7.199949 0 1 0 2.041304 14.241658M1191.552045 939.103895c-9.589383 0.284833-19.542719-20.571284-22.248634-46.586046s2.864156-47.567137 12.390242-48.168451 19.511071 20.270626 22.248634 46.554397-2.816683 47.931091-12.390242 48.2001z" fill="#5377C4" p-id="7427"></path><path d="M1195.207404 939.00895c-9.589383 0.269009-19.542719-20.571284-22.248635-46.665165s2.832508-47.61461 12.374419-48.215924 19.511071 20.302275 22.248634 46.665165-2.800859 47.946915-12.374418 48.215924z" fill="#A9C2DC" p-id="7428"></path><path d="M799.542499 675.902233l93.599341 93.488572h-93.599341v-93.488572z" fill="#FF9398" p-id="7429"></path><path d="M689.486132 563.630496l95.260867 95.703941h-95.260867v-95.703941z" fill="#50CAD3" p-id="7430"></path></svg>