<?xml version="1.0" standalone="no"?><!DOCTYPE svg PUBLIC "-//W3C//DTD SVG 1.1//EN" "http://www.w3.org/Graphics/SVG/1.1/DTD/svg11.dtd"><svg t="1690941914721" class="icon" viewBox="0 0 1029 1024" version="1.1" xmlns="http://www.w3.org/2000/svg" p-id="9732" xmlns:xlink="http://www.w3.org/1999/xlink" width="200.9765625" height="200"><path d="M819.2 762.88c-40.96-117.76-148.48-204.8-281.6-204.8h-46.08v117.76c0 5.12 0 5.12-5.12 5.12h-5.12l-286.72-204.8c-5.12 0-5.12 0-5.12-5.12 0 0 0-5.12 5.12-5.12l286.72-199.68h5.12c5.12 0 5.12 0 5.12 5.12v112.64h40.96c163.84 5.12 296.96 138.24 296.96 307.2 0 20.48 0 46.08-10.24 71.68M491.52 256z m0 430.08z" fill="#FFFFFF" p-id="9734" data-spm-anchor-id="a313x.7781069.0.i5.15333a81oXJ1KR" class=""></path></svg>