<?xml version="1.0" standalone="no"?><!DOCTYPE svg PUBLIC "-//W3C//DTD SVG 1.1//EN" "http://www.w3.org/Graphics/SVG/1.1/DTD/svg11.dtd"><svg height="400" node-id="1" sillyvg="true" template-height="400" template-width="600" version="1.1" viewBox="0 0 600 400" width="600" xmlns="http://www.w3.org/2000/svg" xmlns:xlink="http://www.w3.org/1999/xlink"><defs node-id="87"></defs><path d="M 0.00 0.00 L 600.00 0.00 L 600.00 400.00 L 0.00 400.00 Z" fill="#ffffff" fill-opacity="0" fill-rule="nonzero" node-id="90" stroke="none" target-height="400" target-width="600" target-x="0" target-y="0"></path><g node-id="126"><g node-id="134"><path d="M 489.62 43.38 L 486.14 43.60 L 482.81 44.23 L 479.61 45.26 L 476.56 46.67 L 473.73 48.40 L 471.11 50.46 L 468.75 52.81 L 466.69 55.42 L 464.93 58.29 L 462.49 57.80 L 459.96 57.64 L 457.28 57.83 L 454.73 58.37 L 452.31 59.25 L 450.03 60.46 L 447.95 61.93 L 446.07 63.68 L 442.95 62.35 L 439.68 61.54 L 436.22 61.25 L 432.80 61.53 L 429.63 62.29 L 426.65 63.53 L 423.89 65.20 L 421.45 67.22 L 419.31 69.61 L 417.56 72.29 L 416.23 75.21 L 415.33 78.40 L 412.89 78.94 L 410.65 79.83 L 408.59 81.06 L 406.75 82.59 L 405.19 84.37 L 403.89 86.40 L 402.93 88.61 L 402.34 90.98 L 402.12 93.54 L 402.38 96.32 L 403.08 98.88 L 404.21 101.24 L 405.72 103.39 L 407.54 105.21 L 409.68 106.72 L 412.05 107.86 L 414.60 108.55 L 417.38 108.81 L 511.93 108.81 L 515.22 108.51 L 518.24 107.68 L 521.03 106.34 L 523.57 104.55 L 525.71 102.40 L 527.51 99.86 L 528.85 97.06 L 529.67 94.04 L 529.98 90.75 L 529.78 88.10 L 529.24 85.62 L 528.35 83.27 L 527.16 81.07 L 525.70 79.09 L 523.97 77.31 L 522.02 75.78 L 519.88 74.54 L 517.54 73.58 L 517.63 71.41 L 517.36 67.56 L 516.62 63.94 L 515.42 60.51 L 513.79 57.25 L 511.79 54.29 L 509.41 51.60 L 506.72 49.22 L 503.76 47.22 L 500.51 45.58 L 497.08 44.38 L 493.46 43.64 L 489.62 43.38 Z" fill="#f3f9ff" fill-rule="nonzero" group-id="1,9" id="Path" node-id="8" stroke="none" target-height="65.42999" target-width="127.859985" target-x="402.12" target-y="43.38"></path><path d="M 131.55 55.23 L 130.87 54.16 L 129.91 53.42 L 128.76 53.03 L 127.49 53.06 L 122.13 54.12 L 121.18 54.18 L 120.26 54.00 L 119.42 53.59 L 118.70 52.96 L 115.83 50.08 L 115.20 49.35 L 114.80 48.52 L 114.62 47.60 L 114.68 46.65 L 115.74 41.29 L 115.76 40.02 L 115.38 38.87 L 114.63 37.90 L 113.57 37.22 L 105.64 33.94 L 104.41 33.66 L 103.20 33.82 L 102.11 34.36 L 101.23 35.27 L 98.20 39.82 L 97.57 40.53 L 96.79 41.05 L 95.91 41.36 L 94.97 41.43 L 90.90 41.43 L 89.94 41.36 L 89.06 41.06 L 88.29 40.54 L 87.65 39.82 L 84.61 35.27 L 83.73 34.36 L 82.65 33.82 L 81.44 33.66 L 80.20 33.94 L 72.28 37.22 L 71.21 37.90 L 70.47 38.87 L 70.08 40.02 L 70.11 41.29 L 71.17 46.66 L 71.23 47.61 L 71.05 48.53 L 70.64 49.37 L 70.01 50.09 L 67.13 52.97 L 66.41 53.59 L 65.57 54.00 L 64.66 54.18 L 63.71 54.12 L 58.35 53.06 L 57.09 53.03 L 55.93 53.42 L 54.97 54.16 L 54.29 55.23 L 51.01 63.16 L 50.74 64.40 L 50.89 65.61 L 51.43 66.70 L 52.34 67.58 L 56.88 70.62 L 57.60 71.25 L 58.11 72.02 L 58.42 72.90 L 58.49 73.85 L 58.50 77.93 L 58.43 78.88 L 58.12 79.76 L 57.61 80.54 L 56.89 81.17 L 52.35 84.22 L 51.43 85.10 L 50.89 86.19 L 50.74 87.39 L 51.01 88.63 L 54.29 96.56 L 54.97 97.63 L 55.93 98.38 L 57.09 98.76 L 58.35 98.74 L 63.72 97.68 L 64.67 97.61 L 65.59 97.80 L 66.43 98.21 L 67.15 98.83 L 70.02 101.72 L 70.64 102.44 L 71.05 103.28 L 71.23 104.19 L 71.17 105.14 L 70.11 110.51 L 70.08 111.77 L 70.47 112.93 L 71.21 113.89 L 72.28 114.57 L 80.20 117.86 L 81.44 118.13 L 82.65 117.98 L 83.74 117.43 L 84.61 116.52 L 87.65 111.98 L 88.28 111.26 L 89.05 110.74 L 89.93 110.44 L 90.88 110.37 L 94.95 110.36 L 95.90 110.43 L 96.79 110.73 L 97.56 111.25 L 98.19 111.97 L 101.24 116.52 L 102.11 117.43 L 103.20 117.98 L 104.41 118.13 L 105.64 117.86 L 113.57 114.57 L 114.63 113.89 L 115.38 112.93 L 115.77 111.77 L 115.74 110.51 L 114.68 105.13 L 114.62 104.18 L 114.80 103.26 L 115.21 102.42 L 115.83 101.70 L 118.72 98.83 L 119.44 98.20 L 120.28 97.80 L 121.19 97.61 L 122.14 97.68 L 127.50 98.74 L 128.76 98.76 L 129.91 98.38 L 130.88 97.63 L 131.56 96.56 L 134.84 88.63 L 135.11 87.39 L 134.96 86.19 L 134.42 85.10 L 133.50 84.22 L 128.97 81.18 L 128.25 80.55 L 127.73 79.77 L 127.43 78.89 L 127.36 77.94 L 127.35 73.87 L 127.42 72.91 L 127.72 72.03 L 128.24 71.25 L 128.96 70.62 L 133.50 67.58 L 134.42 66.70 L 134.96 65.61 L 135.11 64.40 L 134.84 63.16 L 131.55 55.23 Z M 99.87 92.70 L 96.69 93.68 L 93.57 94.08 L 90.45 93.92 L 87.41 93.22 L 84.58 92.05 L 81.94 90.39 L 79.62 88.30 L 77.69 85.80 L 76.14 82.86 L 75.16 79.67 L 74.76 76.55 L 74.92 73.43 L 75.62 70.38 L 76.79 67.55 L 78.45 64.91 L 80.54 62.58 L 83.03 60.65 L 85.97 59.10 L 89.15 58.11 L 92.27 57.72 L 95.39 57.88 L 98.43 58.57 L 101.26 59.74 L 103.90 61.41 L 106.22 63.50 L 108.15 65.99 L 109.70 68.94 L 110.69 72.12 L 111.08 75.25 L 110.92 78.37 L 110.23 81.42 L 109.06 84.25 L 107.39 86.89 L 105.31 89.21 L 102.82 91.14 L 99.87 92.70 Z" fill="#f3f9ff" fill-rule="nonzero" group-id="1,9" id="Shape" node-id="9" stroke="none" target-height="84.47" target-width="84.369995" target-x="50.74" target-y="33.66"></path><path d="M 127.89 341.19 L 119.84 340.95 L 112.35 340.31 L 105.40 339.30 L 98.95 337.95 L 92.96 336.27 L 86.88 334.12 L 81.25 331.69 L 76.05 328.98 L 71.24 326.01 L 66.79 322.77 L 61.52 318.21 L 56.79 313.33 L 52.56 308.10 L 48.83 302.52 L 45.57 296.63 L 42.75 290.49 L 40.39 284.09 L 38.47 277.38 L 37.02 270.59 L 35.98 263.64 L 35.35 256.52 L 35.15 249.22 L 35.38 241.81 L 35.97 234.87 L 36.93 228.36 L 38.21 222.27 L 39.81 216.55 L 41.86 210.76 L 44.18 205.43 L 46.74 200.54 L 49.56 196.04 L 52.62 191.91 L 56.08 187.97 L 59.73 184.47 L 63.56 181.38 L 67.58 178.68 L 71.82 176.36 L 76.26 174.44 L 80.84 172.93 L 85.59 171.85 L 90.52 171.18 L 95.65 170.94 L 100.48 171.16 L 104.50 171.72 L 107.85 172.55 L 111.09 173.74 L 113.90 175.13 L 116.32 176.69 L 119.68 179.40 L 122.70 182.35 L 128.61 188.51 L 131.86 191.43 L 135.70 194.17 L 138.47 195.72 L 141.74 197.10 L 145.59 198.31 L 149.52 199.14 L 154.25 199.69 L 159.91 199.91 L 164.82 199.56 L 169.54 198.58 L 174.11 196.97 L 178.50 194.87 L 182.87 192.29 L 187.22 189.22 L 193.50 184.10 L 199.89 178.26 L 212.73 165.69 L 219.40 159.32 L 226.37 153.13 L 231.21 149.20 L 236.23 145.55 L 241.46 142.16 L 246.89 139.14 L 252.60 136.56 L 258.61 134.41 L 263.20 133.17 L 268.03 132.26 L 273.10 131.69 L 278.46 131.47 L 283.89 131.68 L 288.59 132.22 L 292.66 133.05 L 296.16 134.12 L 299.66 135.59 L 302.73 137.25 L 305.41 139.09 L 307.74 141.11 L 310.57 144.18 L 313.03 147.47 L 315.14 151.00 L 317.87 156.57 L 320.29 162.33 L 322.64 168.11 L 325.13 173.66 L 327.01 177.22 L 329.17 180.50 L 331.60 183.54 L 334.39 186.23 L 337.71 188.56 L 341.64 190.54 L 344.70 191.61 L 348.26 192.43 L 352.40 192.97 L 357.19 193.19 L 363.51 192.96 L 369.95 192.37 L 376.52 191.41 L 386.33 189.48 L 396.15 187.13 L 415.33 181.98 L 424.65 179.54 L 433.34 177.55 L 439.11 176.48 L 444.47 175.79 L 449.43 175.46 L 454.38 175.56 L 458.84 176.19 L 462.88 177.31 L 465.73 178.56 L 468.35 180.20 L 470.75 182.24 L 472.95 184.72 L 474.74 187.42 L 476.35 190.69 L 477.75 194.61 L 478.91 199.30 L 480.00 203.64 L 481.53 208.07 L 483.53 212.62 L 486.02 217.30 L 489.71 223.27 L 493.97 229.36 L 498.84 235.58 L 506.58 244.64 L 514.96 253.71 L 531.99 271.28 L 540.22 279.85 L 547.54 287.87 L 552.16 293.32 L 556.03 298.37 L 559.21 303.05 L 561.37 306.81 L 562.95 310.26 L 564.01 313.45 L 564.60 316.42 L 564.71 319.44 L 564.21 322.26 L 563.10 324.95 L 561.33 327.54 L 559.17 329.70 L 556.19 331.84 L 552.20 333.95 L 547.00 336.01 L 541.99 337.52 L 535.81 338.94 L 528.28 340.25 L 519.21 341.39 L 507.43 342.38 L 493.01 343.04 L 475.57 343.28 L 450.34 343.23 L 417.52 343.10 L 379.21 342.90 L 337.51 342.65 L 294.54 342.38 L 252.40 342.09 L 213.20 341.82 L 179.04 341.57 L 152.03 341.37 L 134.28 341.24 L 127.89 341.19 Z" fill="#f3f9ff" fill-rule="nonzero" group-id="1,9" id="Path" node-id="10" stroke="none" target-height="211.81" target-width="529.56" target-x="35.15" target-y="131.47"></path></g><path d="M 226.43 341.13 L 530.21 341.13 L 531.40 341.37 L 532.35 342.01 L 533.00 342.97 L 533.24 344.16 L 533.24 344.48 L 533.00 345.67 L 532.35 346.63 L 531.40 347.27 L 530.21 347.51 L 55.76 347.51 L 54.57 347.27 L 53.62 346.63 L 52.97 345.67 L 52.73 344.48 L 52.73 344.48 L 52.97 343.29 L 53.62 342.34 L 54.57 341.69 L 55.76 341.45 L 226.43 341.13 Z" fill="#dae7ff" fill-rule="nonzero" group-id="1" id="Path" node-id="11" stroke="none" target-height="6.380005" target-width="480.50998" target-x="52.73" target-y="341.13"></path></g><g node-id="127"><path d="M 536.55 308.55 L 538.28 304.45 L 540.00 299.95 L 541.37 295.32 L 542.15 290.69 L 542.22 287.60 L 541.80 284.63 L 540.87 281.75 L 539.84 279.77 L 538.40 277.85 L 536.49 275.96 L 534.03 274.12 L 531.41 272.22 L 529.67 270.58 L 528.62 269.15 L 527.90 267.55 L 527.60 266.02 L 527.69 264.51 L 528.30 262.21 L 529.38 259.67 L 531.86 254.07 L 532.80 250.90 L 533.28 247.20 L 533.16 244.67 L 532.74 242.47 L 532.04 240.54 L 530.53 237.87 L 528.71 235.59 L 524.68 231.73 L 522.78 229.99 L 521.34 228.40 L 520.59 227.27 L 520.19 226.14 L 520.08 224.98 L 520.51 217.74 L 520.62 209.79 L 520.38 206.13 L 519.91 203.55 L 519.29 202.08 L 518.38 200.77 L 517.14 199.61 L 515.71 198.69 L 514.13 198.05 L 512.38 197.68 L 510.60 197.65 L 508.81 198.01 L 506.98 198.77 L 505.36 199.90 L 503.81 201.56 L 502.34 203.88 L 501.26 206.41 L 500.40 209.73 L 499.82 214.01 L 499.22 220.56 L 498.46 226.06 L 497.29 231.26 L 495.63 236.05 L 494.21 239.09 L 492.39 242.23 L 490.14 245.50 L 488.96 247.52 L 488.36 249.46 L 488.26 251.36 L 488.55 253.29 L 489.14 255.23 L 490.06 257.21 L 491.73 260.07 L 493.63 262.91 L 495.53 265.70 L 497.09 268.30 L 497.94 270.08 L 498.41 271.72 L 498.55 273.25 L 498.23 275.42 L 497.60 277.07 L 496.69 278.57 L 495.61 280.02 L 494.50 281.53 L 493.37 283.38 L 492.44 285.50 L 491.66 288.43 L 491.26 291.75 L 491.26 296.44 L 491.69 300.56 L 492.48 304.39 L 493.61 307.95 L 495.10 311.37 L 496.81 314.40 L 498.73 317.08 L 500.94 319.51 L 503.24 321.45 L 505.62 322.97 L 508.19 324.08 L 510.74 324.67 L 513.30 324.75 L 516.04 324.33 L 519.31 323.37 L 522.60 321.98 L 526.01 320.08 L 529.22 317.79 L 532.16 315.08 L 533.89 313.06 L 535.35 310.88 L 536.55 308.55 Z" fill="#9e95e3" fill-rule="nonzero" group-id="2" id="Path" node-id="13" stroke="none" target-height="127.100006" target-width="53.95996" target-x="488.26" target-y="197.65"></path><path d="M 532.16 287.86 L 532.04 287.54 L 531.73 287.39 L 531.41 287.53 L 531.26 287.83 L 530.99 289.64 L 530.41 291.34 L 529.49 292.98 L 527.73 295.21 L 525.62 297.20 L 523.33 298.95 L 521.20 300.32 L 517.79 302.17 L 518.13 296.51 L 518.02 291.66 L 517.43 286.53 L 516.51 281.25 L 514.20 270.73 L 512.70 264.12 L 511.51 257.97 L 510.93 253.89 L 510.70 250.19 L 510.77 246.84 L 513.58 245.82 L 515.46 244.78 L 517.49 243.19 L 518.68 241.90 L 519.70 240.32 L 520.54 238.39 L 520.52 238.04 L 520.25 237.82 L 519.91 237.85 L 519.69 238.11 L 518.55 240.50 L 517.06 242.33 L 515.29 243.78 L 513.60 244.78 L 510.86 245.87 L 511.02 244.78 L 511.55 240.56 L 511.77 236.04 L 511.73 231.51 L 511.53 227.21 L 510.93 219.75 L 510.61 215.98 L 510.61 213.94 L 510.56 213.60 L 510.28 213.39 L 509.94 213.44 L 509.74 213.72 L 509.70 215.73 L 510.03 219.83 L 510.63 227.24 L 510.83 231.50 L 510.87 235.99 L 510.66 240.46 L 510.14 244.62 L 509.92 246.24 L 509.85 246.58 L 509.88 246.65 L 509.79 249.80 L 509.96 253.24 L 510.44 257.00 L 510.43 257.00 L 508.63 257.42 L 507.13 257.25 L 505.76 256.67 L 504.63 255.84 L 503.03 254.00 L 502.41 252.99 L 502.15 252.76 L 501.80 252.79 L 501.58 253.05 L 501.60 253.39 L 502.44 254.70 L 503.38 255.84 L 504.76 257.06 L 506.40 257.96 L 508.40 258.33 L 509.43 258.23 L 510.59 257.90 L 511.80 264.18 L 513.32 270.93 L 515.57 281.14 L 516.47 286.26 L 517.07 291.22 L 513.95 290.71 L 511.90 289.98 L 509.76 288.72 L 508.53 287.60 L 507.51 286.13 L 506.70 284.24 L 506.49 283.97 L 506.14 283.93 L 505.87 284.15 L 505.84 284.49 L 506.84 286.80 L 508.18 288.52 L 509.82 289.87 L 511.54 290.81 L 513.33 291.47 L 514.87 291.85 L 517.14 292.13 L 517.22 296.97 L 516.84 302.60 L 516.83 302.61 L 516.58 302.85 L 516.58 303.20 L 516.76 303.40 L 515.48 312.57 L 513.79 321.62 L 512.08 329.75 L 510.50 337.45 L 510.14 339.97 L 510.16 341.01 L 510.32 341.27 L 510.60 341.37 L 510.69 341.36 L 510.98 341.17 L 511.04 340.83 L 511.06 339.75 L 511.50 337.01 L 512.96 329.93 L 514.70 321.69 L 516.40 312.51 L 517.69 303.21 L 521.02 301.50 L 523.28 300.10 L 525.80 298.26 L 528.15 296.12 L 530.15 293.66 L 531.18 291.84 L 531.85 289.92 L 532.16 287.86 Z" fill="#7266d5" fill-rule="nonzero" group-id="2" id="Path" node-id="14" stroke="none" target-height="127.979996" target-width="30.579987" target-x="501.58" target-y="213.39"></path></g><g node-id="128"><g node-id="135"><path d="M 56.64 317.44 L 54.18 311.31 L 53.20 308.01 L 52.65 304.71 L 52.59 302.51 L 52.90 300.39 L 53.56 298.33 L 54.60 296.46 L 56.19 294.66 L 58.43 292.90 L 60.99 290.94 L 62.29 289.36 L 62.94 287.67 L 62.95 286.05 L 62.52 284.41 L 61.75 282.60 L 59.98 278.61 L 59.31 276.35 L 58.97 273.71 L 59.12 271.48 L 59.59 269.60 L 60.35 267.99 L 61.90 265.81 L 63.66 263.99 L 66.98 260.89 L 67.80 259.88 L 68.24 258.88 L 68.37 257.88 L 68.07 252.72 L 67.99 247.05 L 68.16 244.44 L 68.50 242.60 L 69.09 241.30 L 69.98 240.21 L 71.22 239.29 L 72.64 238.67 L 74.15 238.40 L 75.79 238.50 L 77.34 238.99 L 78.83 239.99 L 80.30 241.62 L 81.37 243.54 L 82.24 246.27 L 82.82 250.06 L 83.24 254.73 L 83.79 258.65 L 84.62 262.35 L 85.80 265.77 L 87.42 269.04 L 89.72 272.50 L 90.55 273.94 L 90.98 275.32 L 91.06 276.68 L 90.67 278.74 L 89.78 280.85 L 87.23 284.91 L 84.76 288.75 L 83.96 290.62 L 83.72 292.28 L 84.05 294.16 L 84.71 295.55 L 86.63 298.21 L 87.56 299.77 L 88.40 302.04 L 88.86 304.70 L 88.92 308.81 L 88.43 312.72 L 87.52 316.24 L 86.21 319.40 L 84.47 322.35 L 82.54 324.73 L 80.42 326.61 L 78.01 328.05 L 75.63 328.82 L 73.21 328.99 L 70.57 328.52 L 67.34 327.36 L 64.18 325.68 L 61.13 323.41 L 59.32 321.62 L 57.83 319.63 L 56.64 317.44 Z" fill="#8ae6b9" fill-rule="nonzero" group-id="3,10" id="Path" node-id="17" stroke="none" target-height="90.59" target-width="38.469997" target-x="52.59" target-y="238.4"></path><path d="M 81.46 277.58 L 81.12 277.55 L 80.86 277.78 L 80.14 278.87 L 79.36 279.72 L 78.27 280.48 L 76.99 280.85 L 75.39 280.60 L 75.81 276.74 L 75.77 273.34 L 75.79 273.29 L 75.75 273.01 L 75.59 271.85 L 75.22 268.89 L 75.07 265.71 L 75.24 259.49 L 75.66 254.22 L 75.91 251.25 L 75.87 249.82 L 75.66 249.54 L 75.33 249.49 L 75.05 249.70 L 75.00 250.04 L 74.99 251.50 L 74.77 254.14 L 74.34 259.46 L 74.17 265.77 L 74.32 268.99 L 74.70 272.01 L 74.79 272.58 L 72.84 271.77 L 71.69 271.06 L 70.52 270.05 L 69.53 268.81 L 68.78 267.19 L 68.55 266.93 L 68.21 266.90 L 67.95 267.13 L 67.92 267.47 L 68.85 269.43 L 70.06 270.88 L 71.48 272.02 L 72.82 272.78 L 74.89 273.56 L 74.87 277.20 L 74.35 281.43 L 72.44 290.45 L 70.79 297.96 L 70.14 301.73 L 69.71 305.39 L 69.63 308.72 L 69.85 312.67 L 66.39 310.67 L 64.35 309.12 L 62.48 307.24 L 61.47 305.81 L 60.83 304.30 L 60.54 302.67 L 60.39 302.36 L 60.07 302.23 L 59.76 302.38 L 59.64 302.70 L 60.06 304.86 L 61.05 306.83 L 62.45 308.58 L 64.11 310.12 L 65.89 311.44 L 67.50 312.45 L 69.94 313.72 L 70.58 318.83 L 71.44 324.06 L 73.31 333.61 L 74.36 338.92 L 74.67 340.96 L 74.69 341.74 L 74.75 342.07 L 75.04 342.27 L 75.13 342.28 L 75.41 342.18 L 75.57 341.92 L 75.59 341.15 L 75.33 339.25 L 74.19 333.43 L 72.35 324.02 L 71.50 318.86 L 70.86 313.83 L 70.99 313.68 L 70.99 313.36 L 70.79 313.12 L 70.54 309.19 L 70.59 305.86 L 73.05 305.44 L 74.63 304.86 L 76.28 303.86 L 77.23 302.97 L 78.02 301.82 L 78.65 300.33 L 78.61 299.99 L 78.35 299.77 L 78.00 299.81 L 77.79 300.08 L 76.91 301.92 L 75.73 303.17 L 74.30 304.06 L 72.90 304.58 L 70.66 304.96 L 71.10 301.46 L 71.73 297.86 L 73.32 290.66 L 75.25 281.51 L 76.69 281.77 L 78.42 281.40 L 79.83 280.50 L 80.97 279.29 L 81.66 278.19 L 81.68 277.84 L 81.46 277.58 Z" fill="#44d690" fill-rule="nonzero" group-id="3,10" id="Path" node-id="18" stroke="none" target-height="92.78999" target-width="22.04" target-x="59.64" target-y="249.49"></path></g><g node-id="136"><path d="M 143.31 309.84 L 145.04 305.75 L 146.76 301.25 L 148.14 296.61 L 148.92 291.98 L 148.99 288.90 L 148.56 285.93 L 147.64 283.04 L 146.61 281.07 L 145.17 279.14 L 143.25 277.26 L 140.80 275.42 L 138.17 273.52 L 136.44 271.88 L 135.39 270.45 L 134.67 268.85 L 134.37 267.32 L 134.45 265.81 L 135.07 263.51 L 136.15 260.96 L 138.63 255.37 L 139.57 252.19 L 140.05 248.49 L 139.93 245.97 L 139.51 243.77 L 138.80 241.84 L 137.30 239.17 L 135.47 236.88 L 131.44 233.03 L 129.55 231.28 L 128.11 229.69 L 127.36 228.56 L 126.96 227.44 L 126.85 226.28 L 127.28 219.04 L 127.39 211.09 L 127.14 207.43 L 126.67 204.85 L 126.06 203.38 L 125.14 202.07 L 123.91 200.91 L 122.47 199.99 L 120.90 199.35 L 119.14 198.98 L 117.36 198.95 L 115.58 199.30 L 113.75 200.07 L 112.13 201.19 L 110.58 202.86 L 109.10 205.18 L 108.03 207.71 L 107.17 211.03 L 106.59 215.31 L 105.99 221.86 L 105.22 227.36 L 104.06 232.56 L 102.40 237.35 L 100.98 240.38 L 99.16 243.53 L 96.90 246.80 L 95.73 248.82 L 95.13 250.76 L 95.03 252.66 L 95.31 254.59 L 95.91 256.53 L 96.82 258.51 L 98.50 261.37 L 100.40 264.20 L 102.29 267.00 L 103.86 269.60 L 104.70 271.38 L 105.17 273.02 L 105.32 274.55 L 105.00 276.72 L 104.36 278.37 L 103.46 279.87 L 102.38 281.32 L 101.27 282.83 L 100.13 284.68 L 99.20 286.79 L 98.42 289.73 L 98.02 293.05 L 98.02 297.74 L 98.46 301.86 L 99.25 305.69 L 100.38 309.25 L 101.87 312.67 L 103.57 315.70 L 105.50 318.38 L 107.71 320.80 L 110.00 322.75 L 112.39 324.27 L 114.96 325.38 L 117.51 325.96 L 120.07 326.05 L 122.80 325.63 L 126.08 324.67 L 129.37 323.27 L 132.77 321.38 L 135.99 319.09 L 138.93 316.38 L 140.66 314.36 L 142.12 312.18 L 143.31 309.84 Z" fill="#45d48f" fill-rule="nonzero" group-id="3,11" id="Path" node-id="20" stroke="none" target-height="127.09999" target-width="53.960007" target-x="95.03" target-y="198.95"></path><path d="M 138.93 289.16 L 138.81 288.83 L 138.49 288.69 L 138.17 288.82 L 138.03 289.12 L 137.76 290.93 L 137.18 292.64 L 136.26 294.28 L 134.50 296.51 L 132.39 298.50 L 130.10 300.24 L 127.97 301.62 L 124.55 303.47 L 124.90 297.81 L 124.79 292.96 L 124.19 287.83 L 123.28 282.55 L 120.97 272.02 L 119.47 265.41 L 118.28 259.26 L 117.70 255.18 L 117.47 251.49 L 117.54 248.14 L 120.35 247.11 L 122.23 246.08 L 124.26 244.49 L 125.45 243.20 L 126.47 241.62 L 127.31 239.68 L 127.28 239.34 L 127.02 239.12 L 126.68 239.14 L 126.46 239.41 L 125.32 241.80 L 123.83 243.62 L 122.06 245.08 L 120.37 246.08 L 117.63 247.17 L 117.79 246.08 L 118.32 241.85 L 118.54 237.34 L 118.50 232.80 L 118.30 228.51 L 117.70 221.05 L 117.38 217.28 L 117.38 215.24 L 117.33 214.90 L 117.05 214.69 L 116.71 214.74 L 116.50 215.02 L 116.46 217.03 L 116.80 221.13 L 117.40 228.54 L 117.60 232.80 L 117.64 237.29 L 117.43 241.76 L 116.90 245.92 L 116.69 247.54 L 116.62 247.87 L 116.65 247.95 L 116.55 251.10 L 116.73 254.54 L 117.21 258.29 L 117.20 258.30 L 115.40 258.72 L 113.90 258.55 L 112.53 257.97 L 111.40 257.14 L 109.79 255.30 L 109.18 254.28 L 108.91 254.06 L 108.57 254.09 L 108.35 254.35 L 108.37 254.69 L 109.20 256.00 L 110.14 257.13 L 111.52 258.36 L 113.17 259.25 L 115.17 259.62 L 116.20 259.52 L 117.35 259.20 L 118.57 265.48 L 120.09 272.23 L 122.34 282.44 L 123.24 287.56 L 123.84 292.52 L 120.72 292.00 L 118.67 291.28 L 116.53 290.01 L 115.30 288.90 L 114.28 287.43 L 113.47 285.54 L 113.25 285.27 L 112.91 285.23 L 112.64 285.45 L 112.60 285.79 L 113.61 288.10 L 114.95 289.82 L 116.59 291.17 L 118.31 292.11 L 120.09 292.77 L 121.64 293.15 L 123.91 293.43 L 123.99 298.27 L 123.61 303.90 L 123.59 303.91 L 123.35 304.15 L 123.35 304.49 L 123.53 304.70 L 122.25 313.87 L 120.56 322.91 L 118.85 331.04 L 117.27 338.75 L 116.91 341.27 L 116.93 342.31 L 117.09 342.57 L 117.37 342.67 L 117.46 342.66 L 117.74 342.46 L 117.81 342.13 L 117.83 341.05 L 118.26 338.31 L 119.73 331.23 L 121.46 322.99 L 123.17 313.81 L 124.46 304.51 L 127.79 302.80 L 130.05 301.40 L 132.57 299.56 L 134.92 297.42 L 136.91 294.96 L 137.95 293.14 L 138.62 291.22 L 138.93 289.16 Z" fill="#1eaf69" fill-rule="nonzero" group-id="3,11" id="Path" node-id="21" stroke="none" target-height="127.98001" target-width="30.579994" target-x="108.35" target-y="214.69"></path></g></g><g node-id="129"><path d="M 182.90 348.07 L 182.64 350.60 L 182.34 354.51 L 182.08 358.11 L 181.97 359.68 L 174.07 358.64 L 174.07 347.72 L 182.90 348.07 Z" fill="#f1b282" fill-rule="nonzero" group-id="4" id="Path" node-id="23" stroke="none" target-height="11.959991" target-width="8.829987" target-x="174.07" target-y="347.72"></path><path d="M 171.61 358.16 L 171.24 359.28 L 170.53 361.90 L 170.06 364.90 L 170.10 366.25 L 170.40 367.15 L 171.15 367.58 L 173.39 367.98 L 179.48 368.21 L 186.65 368.06 L 192.85 367.77 L 196.05 367.57 L 198.80 367.03 L 200.72 366.18 L 202.16 364.97 L 202.77 363.82 L 202.82 363.04 L 202.53 362.36 L 201.84 361.74 L 200.95 361.35 L 199.58 361.12 L 197.53 361.15 L 194.64 361.12 L 192.45 360.61 L 190.49 359.73 L 188.86 358.70 L 185.94 356.68 L 184.47 356.04 L 182.83 355.85 L 181.38 356.38 L 179.93 357.12 L 177.24 358.59 L 176.01 359.02 L 175.04 359.02 L 172.62 358.42 L 171.61 358.16 Z" fill="#03193f" fill-rule="nonzero" group-id="4" id="Path" node-id="24" stroke="none" target-height="12.359985" target-width="32.76001" target-x="170.06" target-y="355.85"></path><path d="M 123.18 363.52 L 114.36 362.42 L 119.48 355.84 L 125.61 355.84 Z" fill="#f1b282" fill-rule="nonzero" group-id="4" id="Path" node-id="25" stroke="none" target-height="7.6799927" target-width="11.25" target-x="114.36" target-y="355.84"></path><path d="M 142.46 313.73 L 145.20 312.68 L 151.97 310.25 L 160.60 307.59 L 165.04 306.50 L 168.92 305.82 L 171.48 305.61 L 173.38 305.71 L 174.76 306.06 L 176.16 306.95 L 177.50 308.42 L 178.80 310.63 L 180.31 314.34 L 181.62 319.06 L 182.61 324.04 L 183.36 329.31 L 183.88 334.56 L 184.16 339.34 L 184.25 343.85 L 184.17 347.12 L 183.85 349.86 L 183.52 350.62 L 182.42 351.15 L 180.85 351.50 L 179.14 351.57 L 177.32 351.37 L 175.57 350.88 L 174.07 350.09 L 173.18 349.02 L 172.17 346.68 L 171.39 343.91 L 170.66 340.34 L 170.09 336.59 L 169.66 332.62 L 169.39 328.67 L 169.30 325.09 L 165.21 328.31 L 159.90 332.06 L 154.58 335.62 L 150.50 338.28 L 148.86 339.33 L 147.24 338.09 L 145.69 336.71 L 143.73 334.61 L 141.94 332.16 L 140.40 329.18 L 139.68 327.03 L 139.30 324.69 L 139.29 322.11 L 139.72 319.59 L 140.74 316.82 L 142.46 313.73 Z" fill="#0b224e" fill-rule="nonzero" group-id="4" id="Path" node-id="26" stroke="none" target-height="45.960022" target-width="44.960007" target-x="139.29" target-y="305.61"></path><path d="M 108.91 336.68 L 109.14 338.93 L 109.70 340.86 L 110.58 342.52 L 112.33 344.73 L 114.37 346.55 L 118.50 349.39 L 121.80 351.54 L 123.13 352.53 L 123.91 353.31 L 124.24 354.10 L 123.95 354.84 L 122.89 356.53 L 122.25 358.56 L 121.94 360.66 L 121.87 362.38 L 121.93 364.14 L 124.49 364.49 L 131.16 365.35 L 140.48 366.41 L 150.97 367.38 L 161.13 367.96 L 165.79 368.02 L 169.49 367.86 L 172.91 367.32 L 175.43 366.49 L 177.23 365.43 L 178.73 363.99 L 179.68 362.47 L 180.15 360.83 L 180.20 359.09 L 179.88 357.39 L 179.17 355.67 L 178.14 354.11 L 176.84 352.75 L 175.23 351.58 L 170.60 348.52 L 164.29 344.00 L 157.41 338.90 L 151.11 334.14 L 146.49 330.62 L 144.71 329.24 L 141.17 328.35 L 136.76 327.46 L 132.15 326.80 L 127.35 326.43 L 122.61 326.48 L 118.34 327.04 L 115.64 327.78 L 113.41 328.83 L 111.58 330.16 L 110.47 331.39 L 109.65 332.86 L 109.12 334.60 L 108.91 336.68 Z" fill="#102b5e" fill-rule="nonzero" group-id="4" id="Path" node-id="27" stroke="none" target-height="41.589996" target-width="71.28999" target-x="108.91" target-y="326.43"></path><g node-id="137"><g node-id="141"><path d="M 134.29 235.41 L 131.77 236.09 L 130.01 236.93 L 128.81 237.89 L 127.89 239.13 L 127.32 240.47 L 127.08 241.96 L 127.16 244.30 L 127.64 246.80 L 129.04 251.63 L 129.62 253.88 L 129.83 255.64 L 129.73 257.80 L 129.47 260.19 L 128.68 264.80 L 127.88 268.36 L 127.52 269.80 L 140.97 270.80 L 141.02 269.54 L 141.07 266.75 L 140.94 263.93 L 140.97 262.81 L 141.29 261.95 L 141.88 261.26 L 143.19 260.59 L 145.20 260.30 L 146.04 260.07 L 146.68 259.58 L 147.17 258.76 L 147.63 257.31 L 147.88 255.77 L 148.17 253.57 L 148.63 252.89 L 149.30 252.52 L 150.68 252.00 L 151.05 251.60 L 151.00 250.79 L 150.56 249.89 L 149.93 249.04 L 149.25 248.15 L 148.49 246.88 L 147.88 245.34 L 147.34 242.91 L 146.88 241.20 L 146.11 239.69 L 144.99 238.35 L 143.63 237.23 L 142.06 236.34 L 140.26 235.67 L 138.36 235.29 L 136.38 235.20 L 134.29 235.41 Z" fill="#f1b282" fill-rule="nonzero" group-id="4,12,16" node-id="122" stroke="none" target-height="35.59999" target-width="23.970001" target-x="127.08" target-y="235.2"></path><path d="M 144.46 260.34 L 143.12 260.61 L 142.16 261.06 L 141.47 261.69 L 139.81 258.95 L 142.40 259.96 L 144.46 260.34 Z" fill="#cd916a" fill-rule="nonzero" group-id="4,12,16" node-id="124" stroke="none" target-height="2.7399902" target-width="4.650009" target-x="139.81" target-y="258.95"></path></g><path d="M 128.59 234.86 L 128.33 233.73 L 127.94 232.63 L 127.18 231.23 L 126.11 229.93 L 124.53 228.71 L 123.30 228.12 L 121.75 227.70 L 119.81 227.50 L 117.30 227.79 L 115.33 228.58 L 113.76 229.85 L 112.50 231.52 L 111.48 233.49 L 110.72 235.83 L 110.00 239.50 L 109.63 243.31 L 109.43 250.19 L 109.19 253.91 L 108.75 256.78 L 108.17 258.95 L 106.98 261.93 L 105.87 263.83 L 104.10 266.46 L 103.89 267.10 L 103.98 267.75 L 104.43 268.49 L 104.87 268.74 L 105.60 268.77 L 106.79 268.45 L 108.59 267.59 L 110.90 266.10 L 113.19 264.25 L 115.55 261.95 L 117.70 259.37 L 119.53 256.52 L 120.91 253.48 L 121.65 250.35 L 122.54 241.67 L 122.89 239.44 L 123.35 238.03 L 123.89 237.19 L 124.64 236.73 L 125.78 236.71 L 127.59 237.34 L 128.49 237.51 L 128.83 237.16 L 128.92 236.51 L 128.82 235.73 L 128.59 234.86 Z" fill="#0b224e" fill-rule="nonzero" group-id="4,12" id="Path" node-id="32" stroke="none" target-height="41.26999" target-width="25.029999" target-x="103.89" target-y="227.5"></path><path d="M 125.94 254.09 L 127.19 256.01 L 128.27 257.12 L 129.24 257.67 L 130.31 257.88 L 131.28 257.74 L 132.20 257.24 L 133.36 256.06 L 134.26 254.45 L 134.78 252.68 L 134.86 251.00 L 134.63 249.95 L 134.16 249.15 L 133.44 248.54 L 132.37 247.71 L 131.82 246.77 L 131.74 245.78 L 132.20 244.89 L 133.12 244.27 L 134.86 243.97 L 136.92 244.16 L 140.07 245.10 L 141.75 245.40 L 143.95 245.13 L 145.39 244.62 L 146.75 243.78 L 148.05 242.58 L 149.03 241.14 L 149.71 239.27 L 150.04 236.85 L 149.87 235.94 L 149.35 235.12 L 148.36 234.34 L 146.74 233.62 L 144.48 233.03 L 141.28 232.60 L 136.88 232.40 L 133.38 232.69 L 130.65 233.43 L 128.53 234.58 L 126.72 236.17 L 125.36 238.01 L 124.42 240.13 L 123.87 242.41 L 123.66 244.77 L 123.81 247.24 L 124.26 249.67 L 124.97 251.95 L 125.94 254.09 Z" fill="#0b224e" fill-rule="nonzero" group-id="4,12" id="Path" node-id="33" stroke="none" target-height="25.480011" target-width="26.37999" target-x="123.66" target-y="232.4"></path><path d="M 130.94 230.58 L 131.32 230.98 L 131.48 231.62 L 131.34 232.66 L 130.79 234.24 L 129.81 236.05 L 128.58 237.72 L 127.26 238.99 L 126.28 239.61 L 125.42 239.82 L 124.64 239.72 L 124.07 239.25 L 123.81 238.57 L 123.89 237.54 L 124.45 235.94 L 125.52 234.12 L 126.87 232.46 L 128.29 231.21 L 129.33 230.62 L 130.20 230.44 L 130.94 230.58 Z" fill="#1b90fb" fill-rule="nonzero" group-id="4,12" id="Path" node-id="34" stroke="none" target-height="9.380005" target-width="7.669998" target-x="123.81" target-y="230.44"></path></g><path d="M 142.67 305.71 L 143.06 305.07 L 144.23 304.17 L 145.63 303.19 L 147.24 301.77 L 148.39 300.31 L 149.32 298.35 L 149.69 296.92 L 149.83 295.15 L 149.70 292.97 L 149.72 292.56 L 150.14 291.74 L 150.50 290.64 L 151.23 288.18 L 151.86 285.27 L 152.21 282.23 L 152.18 279.06 L 151.89 276.96 L 151.31 274.90 L 150.44 272.87 L 149.27 271.01 L 147.68 269.24 L 145.61 267.55 L 143.30 266.20 L 140.36 264.99 L 136.65 263.96 L 134.21 263.55 L 131.83 263.43 L 129.51 263.60 L 127.27 264.14 L 125.17 265.11 L 123.18 266.56 L 121.52 268.37 L 120.01 270.86 L 118.69 274.19 L 117.83 277.66 L 117.26 282.15 L 117.06 287.84 L 116.96 294.77 L 116.62 300.46 L 116.08 305.08 L 115.26 309.68 L 114.37 313.34 L 113.43 316.21 L 111.70 320.18 L 110.12 322.86 L 107.15 326.66 L 106.06 328.08 L 105.52 329.25 L 105.44 330.03 L 105.64 331.01 L 106.24 332.26 L 107.39 333.54 L 109.39 334.77 L 111.76 335.68 L 114.62 336.34 L 117.61 336.66 L 120.65 336.60 L 123.60 336.10 L 126.21 335.14 L 128.39 334.33 L 131.35 333.70 L 137.94 332.98 L 144.44 332.54 L 147.32 332.27 L 149.32 331.94 L 150.48 331.55 L 150.97 331.15 L 151.07 330.72 L 150.61 329.71 L 149.37 327.87 L 147.94 325.79 L 146.22 322.91 L 144.70 319.68 L 143.39 315.60 L 142.83 312.74 L 142.58 309.46 L 142.67 305.71 Z" fill="#ffcb01" fill-rule="nonzero" group-id="4" id="Path" node-id="35" stroke="none" target-height="73.23001" target-width="46.770004" target-x="105.44" target-y="263.43"></path><path d="M 240.31 274.97 L 157.73 280.76 L 156.30 280.57 L 155.12 279.88 L 154.27 278.80 L 153.89 277.41 L 152.13 252.25 L 152.32 250.82 L 153.01 249.64 L 154.08 248.79 L 155.47 248.41 L 238.05 242.63 L 239.48 242.81 L 240.67 243.50 L 241.51 244.58 L 241.90 245.97 L 243.65 271.13 L 243.46 272.56 L 242.78 273.74 L 241.70 274.59 L 240.31 274.97 Z" fill="#1b90fb" fill-rule="nonzero" group-id="4" id="Path" node-id="36" stroke="none" target-height="38.130005" target-width="91.51999" target-x="152.13" target-y="242.63"></path><path d="M 161.44 284.58 L 162.78 285.32 L 166.36 287.24 L 171.55 289.89 L 174.34 288.74 L 177.69 287.03 L 181.05 285.06 L 184.40 282.90 L 187.57 280.64 L 190.17 278.58 L 192.38 276.52 L 193.51 275.11 L 195.33 272.43 L 196.42 271.11 L 197.45 270.14 L 198.49 269.55 L 199.26 269.61 L 199.59 270.05 L 199.49 270.76 L 198.70 272.51 L 198.39 273.47 L 198.39 274.34 L 198.69 274.56 L 199.59 274.42 L 202.13 273.46 L 205.07 272.41 L 206.48 272.15 L 207.51 272.23 L 208.04 272.51 L 208.38 273.02 L 208.53 273.87 L 208.40 275.98 L 207.94 277.81 L 207.40 278.89 L 206.60 279.83 L 205.51 280.62 L 204.26 281.17 L 202.56 281.54 L 200.27 281.70 L 198.06 281.91 L 196.89 282.30 L 195.43 283.11 L 193.96 284.25 L 192.02 286.14 L 189.03 289.41 L 186.71 291.70 L 183.71 294.27 L 180.37 296.60 L 176.62 298.54 L 173.96 299.47 L 171.21 299.97 L 168.32 300.05 L 164.44 299.60 L 161.05 298.94 L 158.11 298.11 L 154.02 296.59 L 151.32 295.31 L 148.86 293.88 L 150.06 292.41 L 153.12 289.17 L 155.08 287.45 L 157.19 285.96 L 159.40 284.91 L 161.44 284.58 Z" fill="#f1b282" fill-rule="nonzero" group-id="4" id="Path" node-id="37" stroke="none" target-height="30.5" target-width="59.67" target-x="148.86" target-y="269.55"></path><path d="M 123.95 354.84 L 126.23 354.84 L 131.95 354.84 L 139.44 354.84 L 147.03 354.84 L 153.04 354.84 L 150.38 354.58 L 143.68 353.84 L 134.85 352.69 L 125.82 351.18 L 121.67 350.28 L 118.50 349.39 L 121.80 351.54 L 123.13 352.53 L 123.91 353.31 L 124.24 354.10 L 123.95 354.84 Z" fill="#0b224e" fill-rule="nonzero" group-id="4" id="Path" node-id="38" stroke="none" target-height="5.4499817" target-width="34.539993" target-x="118.5" target-y="349.39"></path><path d="M 123.09 354.37 L 123.14 352.95 L 122.87 350.08 L 122.39 348.70 L 121.65 347.82 L 120.83 347.74 L 118.72 348.29 L 113.31 350.51 L 107.11 353.48 L 101.81 356.20 L 99.10 357.65 L 96.91 359.21 L 95.58 360.72 L 94.80 362.34 L 94.71 363.59 L 94.99 364.29 L 95.51 364.77 L 96.36 365.04 L 97.29 365.03 L 98.57 364.68 L 100.35 363.84 L 102.88 362.72 L 105.00 362.29 L 107.06 362.28 L 108.89 362.54 L 112.24 363.13 L 113.77 363.11 L 115.28 362.62 L 116.34 361.58 L 117.31 360.36 L 119.07 358.02 L 119.98 357.15 L 120.83 356.76 L 121.65 356.45 L 122.23 355.99 L 122.91 354.91 L 123.09 354.37 Z" fill="#03193f" fill-rule="nonzero" group-id="4" id="Path" node-id="39" stroke="none" target-height="17.300018" target-width="28.43" target-x="94.71" target-y="347.74"></path><path d="M 150.14 291.74 L 149.72 292.56 L 149.70 292.97 L 149.83 295.15 L 149.69 296.92 L 149.32 298.35 L 148.39 300.31 L 147.24 301.77 L 143.59 297.97 L 141.53 295.42 L 139.39 292.36 L 137.47 289.04 L 135.83 285.41 L 134.66 281.60 L 134.10 277.63 L 135.53 278.39 L 139.04 280.36 L 143.40 283.10 L 145.57 284.64 L 147.42 286.16 L 148.99 287.75 L 149.88 289.09 L 150.50 290.64 L 150.14 291.74 Z" fill="#f0b701" fill-rule="nonzero" group-id="4" id="Path" node-id="40" stroke="none" target-height="24.139984" target-width="16.399994" target-x="134.1" target-y="277.63"></path><path d="M 162.04 282.21 L 160.27 281.05 L 158.05 279.20 L 153.64 274.84 L 149.84 270.63 L 147.94 268.81 L 145.80 267.39 L 143.38 266.35 L 139.58 265.36 L 136.89 265.01 L 135.05 265.11 L 133.35 265.65 L 132.25 266.48 L 131.60 267.59 L 131.30 268.93 L 131.28 270.47 L 131.58 272.29 L 132.39 274.98 L 133.53 277.70 L 135.98 282.33 L 137.31 284.38 L 139.09 286.76 L 143.16 291.38 L 145.33 293.49 L 147.31 295.14 L 149.28 296.43 L 150.69 296.98 L 151.52 296.98 L 152.08 296.62 L 152.45 295.82 L 153.09 294.36 L 154.36 292.74 L 157.75 289.64 L 161.14 286.72 L 162.45 285.30 L 163.07 284.17 L 163.14 283.47 L 162.83 282.84 L 162.04 282.21 Z" fill="#ffcb01" fill-rule="nonzero" group-id="4" id="Path" node-id="41" stroke="none" target-height="31.970001" target-width="31.86" target-x="131.28" target-y="265.01"></path></g><g node-id="130"><path d="M 190.16 328.80 L 190.16 331.40 L 190.41 333.36 L 190.96 334.75 L 191.75 335.70 L 192.81 336.42 L 193.89 336.82 L 195.04 336.94 L 196.01 336.85 L 197.31 336.51 L 198.08 336.18 L 198.56 335.62 L 198.51 334.88 L 198.00 334.41 L 197.31 334.40 L 197.21 334.44 L 196.85 334.59 L 196.01 334.86 L 195.03 334.99 L 193.79 334.75 L 193.18 334.38 L 192.62 333.72 L 192.27 332.83 L 192.11 331.40 L 192.11 328.80 L 192.27 327.38 L 192.62 326.49 L 193.18 325.83 L 193.79 325.46 L 195.03 325.22 L 196.01 325.35 L 196.85 325.62 L 197.21 325.77 L 197.31 325.81 L 198.00 325.80 L 198.51 325.32 L 198.56 324.58 L 198.08 324.02 L 197.31 323.70 L 196.01 323.36 L 195.04 323.27 L 193.89 323.38 L 192.81 323.79 L 191.75 324.50 L 190.96 325.46 L 190.41 326.84 L 190.16 328.80 Z" fill="#ffcb01" fill-rule="nonzero" group-id="5" id="Path" node-id="43" stroke="none" target-height="13.670013" target-width="8.399994" target-x="190.16" target-y="323.27"></path><path d="M 196.01 323.37 L 196.01 325.36 L 196.85 325.62 L 197.21 325.77 L 197.31 325.81 L 197.31 323.70 L 196.01 323.37 Z" fill="#f0b701" fill-rule="nonzero" group-id="5" id="Path" node-id="44" stroke="none" target-height="2.4400024" target-width="1.300003" target-x="196.01" target-y="323.37"></path><path d="M 196.01 334.86 L 196.01 336.85 L 197.31 336.52 L 197.31 334.41 L 197.21 334.44 L 196.85 334.59 L 196.01 334.86 Z" fill="#f0b701" fill-rule="nonzero" group-id="5" id="Path" node-id="45" stroke="none" target-height="2.4400024" target-width="1.300003" target-x="196.01" target-y="334.41"></path><path d="M 197.31 320.34 L 197.31 337.91 L 197.52 338.93 L 198.08 339.75 L 198.90 340.31 L 199.91 340.52 L 212.92 340.52 L 213.94 340.31 L 214.76 339.75 L 215.31 338.93 L 215.52 337.91 L 215.52 320.34 L 215.33 319.87 L 214.87 319.69 L 197.96 319.69 L 197.50 319.87 L 197.31 320.34 Z" fill="#ffcb01" fill-rule="nonzero" group-id="5" id="Path" node-id="46" stroke="none" target-height="20.829987" target-width="18.210007" target-x="197.31" target-y="319.69"></path><path d="M 204.81 299.35 L 204.31 299.88 L 203.39 301.17 L 203.04 301.95 L 202.93 302.71 L 203.09 303.41 L 203.46 304.05 L 204.35 305.40 L 204.68 306.22 L 204.81 307.32 L 204.60 308.37 L 204.15 309.07 L 202.96 310.20 L 202.52 310.82 L 202.33 311.70 L 202.61 312.63 L 203.41 313.54 L 205.41 315.19 L 206.21 316.06 L 206.49 316.88 L 207.07 316.36 L 207.47 315.82 L 207.67 315.16 L 207.57 314.74 L 207.28 314.31 L 206.53 313.42 L 206.24 312.89 L 206.12 312.27 L 206.44 311.72 L 207.46 311.10 L 209.93 309.76 L 210.63 309.13 L 211.07 308.37 L 211.27 307.42 L 211.00 306.37 L 210.27 305.43 L 208.08 303.76 L 206.89 302.89 L 205.86 301.91 L 205.12 300.76 L 204.81 299.35 Z" fill="#dae7ff" fill-rule="nonzero" group-id="5" id="Path" node-id="47" stroke="none" target-height="17.529999" target-width="8.940002" target-x="202.33" target-y="299.35"></path><path d="M 209.12 340.52 L 212.92 340.52 L 213.94 340.31 L 214.76 339.75 L 215.31 338.93 L 215.52 337.91 L 215.52 331.95 L 215.39 333.00 L 215.15 334.05 L 214.64 335.46 L 213.88 336.87 L 212.73 338.31 L 211.23 339.53 L 209.12 340.52 Z" fill="#f0b701" fill-rule="nonzero" group-id="5" id="Path" node-id="48" stroke="none" target-height="8.569977" target-width="6.400009" target-x="209.12" target-y="331.95"></path></g><g node-id="131"><path d="M 115.75 75.12 L 134.76 84.63 L 191.79 59.26 Z" fill="#ffe18d" fill-rule="nonzero" group-id="6" id="Path" node-id="50" stroke="none" target-height="25.369999" target-width="76.03999" target-x="115.75" target-y="59.26"></path><path d="M 137.93 100.49 L 134.76 84.63 L 191.79 59.26 Z" fill="#ffcb01" fill-rule="nonzero" group-id="6" id="Path" node-id="51" stroke="none" target-height="41.23" target-width="57.03" target-x="134.76" target-y="59.26"></path><path d="M 137.93 100.49 L 144.26 87.80 L 160.11 84.63 Z" fill="#f0b701" fill-rule="nonzero" group-id="6" id="Path" node-id="52" stroke="none" target-height="15.860001" target-width="22.180008" target-x="137.93" target-y="84.63"></path><path d="M 144.26 87.80 L 160.11 94.15 L 191.79 59.26 Z" fill="#ffe18d" fill-rule="nonzero" group-id="6" id="Path" node-id="53" stroke="none" target-height="34.890003" target-width="47.53" target-x="144.26" target-y="59.26"></path></g><g node-id="132"><g node-id="138"><path d="M 384.65 33.66 L 256.72 33.66 L 253.20 33.90 L 249.89 34.58 L 246.76 35.67 L 243.79 37.17 L 241.08 38.99 L 238.62 41.16 L 236.46 43.62 L 234.64 46.33 L 233.14 49.30 L 232.05 52.44 L 231.37 55.76 L 231.13 59.27 L 231.13 315.42 L 231.37 318.94 L 232.05 322.25 L 233.14 325.39 L 234.64 328.37 L 236.46 331.07 L 238.62 333.53 L 241.08 335.70 L 243.79 337.53 L 246.76 339.02 L 249.89 340.12 L 253.20 340.79 L 256.72 341.04 L 384.65 341.04 L 388.17 340.79 L 391.48 340.12 L 394.61 339.02 L 397.58 337.53 L 400.28 335.70 L 402.74 333.53 L 404.91 331.07 L 406.73 328.37 L 408.23 325.39 L 409.32 322.25 L 410.00 318.94 L 410.24 315.42 L 410.24 59.28 L 410.00 55.76 L 409.32 52.44 L 408.23 49.30 L 406.73 46.33 L 404.91 43.62 L 402.75 41.16 L 400.29 38.99 L 397.58 37.17 L 394.61 35.67 L 391.48 34.58 L 388.17 33.90 L 384.65 33.66 Z" fill="#183168" fill-rule="nonzero" group-id="7,13" id="Path" node-id="56" stroke="none" target-height="307.38" target-width="179.10999" target-x="231.13" target-y="33.66"></path><path d="M 373.41 33.66 L 245.47 33.66 L 241.95 33.90 L 238.65 34.58 L 235.51 35.67 L 232.54 37.17 L 229.84 38.99 L 227.38 41.16 L 225.21 43.62 L 223.39 46.33 L 221.89 49.30 L 220.80 52.44 L 220.13 55.76 L 219.88 59.27 L 219.88 315.42 L 220.13 318.94 L 220.80 322.25 L 221.89 325.39 L 223.39 328.37 L 225.21 331.07 L 227.38 333.53 L 229.84 335.70 L 232.54 337.53 L 235.51 339.02 L 238.65 340.12 L 241.95 340.79 L 245.47 341.04 L 373.40 341.04 L 376.92 340.79 L 380.23 340.12 L 383.36 339.02 L 386.33 337.53 L 389.04 335.70 L 391.50 333.53 L 393.66 331.07 L 395.49 328.37 L 396.98 325.39 L 398.07 322.25 L 398.75 318.94 L 398.99 315.42 L 398.99 59.28 L 398.75 55.76 L 398.08 52.44 L 396.98 49.30 L 395.49 46.33 L 393.66 43.62 L 391.50 41.16 L 389.04 38.99 L 386.33 37.17 L 383.36 35.67 L 380.23 34.58 L 376.92 33.90 L 373.41 33.66 Z" fill="#224380" fill-rule="nonzero" group-id="7,13" id="Path" node-id="57" stroke="none" target-height="307.38" target-width="179.10999" target-x="219.88" target-y="33.66"></path><path d="M 386.20 65.68 L 386.20 309.02 L 385.87 312.53 L 385.00 315.75 L 383.58 318.72 L 381.68 321.42 L 379.39 323.71 L 376.70 325.61 L 373.73 327.03 L 370.52 327.90 L 367.01 328.23 L 252.89 328.23 L 249.38 327.90 L 246.17 327.03 L 243.20 325.61 L 240.50 323.71 L 238.22 321.42 L 236.32 318.72 L 234.90 315.75 L 234.03 312.53 L 233.70 309.02 L 233.70 65.68 L 234.03 62.17 L 234.90 58.95 L 236.32 55.97 L 238.22 53.28 L 240.50 50.99 L 243.20 49.09 L 246.17 47.67 L 249.38 46.79 L 252.89 46.47 L 261.46 46.47 L 263.20 46.63 L 264.79 47.07 L 266.28 47.79 L 268.23 49.30 L 269.74 51.25 L 270.45 52.74 L 270.89 54.34 L 271.06 56.07 L 271.22 57.81 L 271.66 59.41 L 272.38 60.90 L 273.89 62.84 L 275.83 64.35 L 277.32 65.07 L 278.92 65.51 L 280.65 65.68 L 338.22 65.68 L 339.96 65.51 L 341.55 65.07 L 343.04 64.35 L 344.99 62.84 L 346.50 60.90 L 347.21 59.41 L 347.65 57.81 L 347.82 56.07 L 347.98 54.34 L 348.42 52.74 L 349.14 51.25 L 350.65 49.30 L 352.59 47.79 L 354.08 47.07 L 355.68 46.63 L 357.41 46.47 L 367.01 46.47 L 370.52 46.79 L 373.73 47.67 L 376.70 49.09 L 379.40 50.99 L 381.68 53.28 L 383.58 55.97 L 385.00 58.95 L 385.87 62.17 L 386.20 65.68 Z" fill="#f3f9ff" fill-rule="nonzero" group-id="7,13" id="Path" node-id="58" stroke="none" target-height="281.76" target-width="152.50002" target-x="233.7" target-y="46.47"></path></g><g node-id="139"><path d="M 374.87 110.29 L 374.61 113.08 L 373.92 115.64 L 372.79 118.02 L 371.27 120.17 L 369.45 121.99 L 367.30 123.51 L 364.93 124.64 L 362.37 125.34 L 359.58 125.60 L 356.79 125.34 L 354.23 124.64 L 351.86 123.51 L 349.71 121.99 L 347.89 120.17 L 346.37 118.02 L 345.24 115.64 L 344.54 113.08 L 344.28 110.29 L 344.54 107.49 L 345.24 104.93 L 346.37 102.56 L 347.89 100.41 L 349.71 98.59 L 351.86 97.07 L 354.23 95.93 L 356.79 95.23 L 359.58 94.97 L 362.37 95.23 L 364.93 95.93 L 367.30 97.07 L 369.45 98.59 L 371.27 100.41 L 372.79 102.56 L 373.92 104.93 L 374.61 107.49 L 374.87 110.29 Z" fill="#2ccd7f" fill-rule="nonzero" group-id="7,14" id="Oval" node-id="60" stroke="none" target-height="30.629997" target-width="30.589996" target-x="344.28" target-y="94.97"></path><path d="M 357.98 116.41 L 357.92 116.41 L 357.32 116.26 L 356.82 115.88 L 352.23 110.52 L 351.94 109.98 L 351.87 109.41 L 352.02 108.84 L 352.40 108.36 L 352.94 108.06 L 353.51 108.00 L 354.07 108.15 L 354.56 108.53 L 358.08 112.64 L 366.22 104.60 L 366.73 104.27 L 367.30 104.16 L 367.87 104.28 L 368.38 104.62 L 368.72 105.13 L 368.82 105.71 L 368.71 106.28 L 368.37 106.79 L 359.06 115.97 L 358.56 116.30 L 357.98 116.41 Z" fill="#ffffff" fill-rule="nonzero" group-id="7,14" id="Path" node-id="61" stroke="none" target-height="12.25" target-width="16.950012" target-x="351.87" target-y="104.16"></path></g><path d="M 332.54 125.63 L 249.76 125.63 L 248.35 125.34 L 247.21 124.57 L 246.45 123.44 L 246.16 122.02 L 246.16 96.80 L 246.45 95.39 L 247.21 94.25 L 248.35 93.49 L 249.76 93.20 L 332.54 93.20 L 333.96 93.49 L 335.09 94.25 L 335.86 95.39 L 336.14 96.80 L 336.14 122.02 L 335.86 123.44 L 335.09 124.57 L 333.96 125.34 L 332.54 125.63 Z" fill="#1b90fb" fill-rule="nonzero" group-id="7" id="Path" node-id="62" stroke="none" target-height="32.43" target-width="89.98001" target-x="246.16" target-y="93.2"></path><path d="M 374.87 166.27 L 374.61 169.06 L 373.92 171.62 L 372.79 174.00 L 371.27 176.15 L 369.45 177.97 L 367.30 179.49 L 364.93 180.62 L 362.37 181.32 L 359.58 181.58 L 356.79 181.32 L 354.23 180.62 L 351.86 179.49 L 349.71 177.97 L 347.89 176.15 L 346.37 174.00 L 345.24 171.62 L 344.54 169.06 L 344.28 166.27 L 344.54 163.47 L 345.24 160.91 L 346.37 158.54 L 347.89 156.39 L 349.71 154.57 L 351.86 153.04 L 354.23 151.91 L 356.79 151.21 L 359.58 150.95 L 362.37 151.21 L 364.93 151.91 L 367.30 153.04 L 369.45 154.57 L 371.27 156.39 L 372.79 158.54 L 373.92 160.91 L 374.61 163.47 L 374.87 166.27 Z" fill="#aec1e8" fill-rule="nonzero" group-id="7,15" id="Oval" node-id="64" stroke="none" target-height="30.630005" target-width="30.589996" target-x="344.28" target-y="150.95"></path><path d="M 357.98 172.39 L 357.92 172.39 L 357.32 172.24 L 356.82 171.86 L 352.23 166.50 L 351.94 165.96 L 351.87 165.38 L 352.02 164.82 L 352.40 164.34 L 352.94 164.04 L 353.51 163.98 L 354.07 164.13 L 354.56 164.51 L 358.08 168.62 L 366.22 160.58 L 366.73 160.25 L 367.30 160.14 L 367.87 160.26 L 368.38 160.60 L 368.72 161.11 L 368.82 161.68 L 368.71 162.26 L 368.37 162.77 L 359.06 171.95 L 358.56 172.28 L 357.98 172.39 Z" fill="#ffffff" fill-rule="nonzero" group-id="7,15" id="Path" node-id="65" stroke="none" target-height="12.25" target-width="16.950012" target-x="351.87" target-y="160.14"></path><path d="M 332.54 181.61 L 249.76 181.61 L 248.35 181.32 L 247.21 180.55 L 246.45 179.42 L 246.16 178.00 L 246.16 152.78 L 246.45 151.37 L 247.21 150.23 L 248.35 149.47 L 249.76 149.18 L 332.54 149.18 L 333.96 149.47 L 335.09 150.23 L 335.86 151.37 L 336.14 152.78 L 336.14 178.00 L 335.86 179.42 L 335.09 180.55 L 333.96 181.32 L 332.54 181.61 Z" fill="#dae7ff" fill-rule="nonzero" group-id="7" id="Path" node-id="66" stroke="none" target-height="32.430008" target-width="89.98001" target-x="246.16" target-y="149.18"></path><path d="M 326.70 105.45 L 255.61 105.45 L 254.95 105.32 L 254.43 104.96 L 254.07 104.44 L 253.94 103.78 L 254.07 103.13 L 254.43 102.60 L 254.95 102.25 L 255.61 102.11 L 326.70 102.11 L 327.35 102.25 L 327.87 102.60 L 328.23 103.13 L 328.36 103.78 L 328.23 104.44 L 327.87 104.96 L 327.35 105.32 L 326.70 105.45 Z" fill="#baddfe" fill-rule="nonzero" group-id="7" id="Path" node-id="67" stroke="none" target-height="3.3399963" target-width="74.41998" target-x="253.94" target-y="102.11"></path><path d="M 326.70 116.71 L 255.61 116.71 L 254.95 116.58 L 254.43 116.22 L 254.07 115.70 L 253.94 115.04 L 254.07 114.39 L 254.43 113.86 L 254.95 113.51 L 255.61 113.37 L 326.70 113.37 L 327.35 113.51 L 327.87 113.86 L 328.23 114.39 L 328.36 115.04 L 328.23 115.70 L 327.87 116.22 L 327.35 116.58 L 326.70 116.71 Z" fill="#baddfe" fill-rule="nonzero" group-id="7" id="Path" node-id="68" stroke="none" target-height="3.3399963" target-width="74.41998" target-x="253.94" target-y="113.37"></path></g><g node-id="133"><path d="M 443.21 146.02 L 442.96 147.63 L 443.01 148.79 L 443.51 150.61 L 443.86 152.00 L 443.63 153.74 L 443.29 155.81 L 443.23 156.77 L 443.31 157.43 L 443.60 157.90 L 444.07 158.20 L 445.28 158.68 L 445.88 159.02 L 446.43 159.59 L 447.09 161.18 L 447.70 162.91 L 448.21 163.68 L 449.01 164.36 L 450.13 164.70 L 451.66 164.73 L 454.62 164.52 L 455.74 164.69 L 456.17 165.19 L 456.16 167.86 L 455.89 172.19 L 455.57 176.21 L 455.41 177.98 L 472.25 173.24 L 471.26 171.32 L 469.06 166.82 L 466.83 161.64 L 466.02 159.21 L 465.72 157.64 L 465.17 153.47 L 464.59 150.76 L 463.78 147.87 L 462.73 145.12 L 461.51 142.93 L 460.48 141.72 L 459.42 141.02 L 458.29 140.74 L 456.33 140.76 L 453.98 140.98 L 451.58 141.38 L 449.23 141.96 L 447.01 142.74 L 445.25 143.65 L 443.86 144.80 L 443.21 146.02 Z" fill="#f1b282" fill-rule="nonzero" group-id="8" id="Path" node-id="70" stroke="none" target-height="37.23999" target-width="29.290009" target-x="442.96" target-y="140.74"></path><path d="M 454.18 134.21 L 449.17 135.21 L 446.16 135.45 L 444.49 135.17 L 443.51 134.53 L 443.02 133.53 L 441.92 134.07 L 440.69 135.28 L 439.68 136.86 L 438.92 138.85 L 438.58 141.00 L 438.80 143.30 L 439.46 145.21 L 440.28 146.57 L 441.26 147.51 L 443.07 148.49 L 445.11 148.97 L 449.34 149.15 L 451.35 149.23 L 452.95 149.52 L 453.83 149.94 L 454.47 150.60 L 454.90 151.57 L 454.95 152.77 L 454.94 155.49 L 454.64 158.48 L 454.28 159.76 L 453.83 160.48 L 452.92 160.88 L 451.59 160.80 L 448.72 159.93 L 447.35 159.53 L 446.48 159.47 L 446.16 159.78 L 445.72 160.90 L 445.43 162.27 L 445.29 164.02 L 445.38 165.81 L 445.78 167.51 L 446.56 169.00 L 447.79 170.07 L 448.79 170.48 L 450.13 170.61 L 451.89 170.38 L 453.52 169.74 L 454.78 168.81 L 455.72 167.58 L 456.70 165.34 L 457.29 162.66 L 457.84 157.10 L 458.12 154.45 L 458.58 152.37 L 459.11 151.18 L 459.82 150.41 L 460.74 149.96 L 461.32 150.04 L 461.86 150.47 L 462.39 151.45 L 463.61 155.31 L 464.28 157.43 L 465.02 159.12 L 465.68 160.02 L 466.41 160.44 L 467.26 160.48 L 468.36 160.05 L 469.40 159.28 L 470.40 158.11 L 471.15 156.75 L 471.74 155.01 L 472.14 152.82 L 472.25 150.60 L 472.06 147.98 L 471.51 144.88 L 470.43 141.70 L 469.05 139.23 L 467.37 137.35 L 465.35 135.82 L 463.21 134.75 L 460.94 134.10 L 458.58 133.81 L 456.33 133.85 L 454.18 134.21 Z" fill="#0b224e" fill-rule="nonzero" group-id="8" id="Path" node-id="71" stroke="none" target-height="37.08" target-width="33.670013" target-x="438.58" target-y="133.53"></path><path d="M 419.19 197.42 L 418.87 200.84 L 418.02 203.98 L 416.63 206.89 L 414.77 209.53 L 412.53 211.76 L 409.90 213.63 L 407.00 215.02 L 403.86 215.87 L 400.43 216.19 L 397.01 215.87 L 393.87 215.02 L 390.97 213.63 L 388.34 211.76 L 386.10 209.53 L 384.24 206.89 L 382.85 203.98 L 382.00 200.84 L 381.68 197.42 L 382.00 193.99 L 382.85 190.85 L 384.24 187.94 L 386.10 185.30 L 388.34 183.07 L 390.97 181.20 L 393.87 179.81 L 397.01 178.96 L 400.43 178.64 L 403.86 178.96 L 407.00 179.81 L 409.90 181.20 L 412.53 183.07 L 414.77 185.30 L 416.63 187.94 L 418.02 190.85 L 418.87 193.99 L 419.19 197.42 Z" fill="#2ccd7f" fill-rule="nonzero" group-id="8" id="Oval" node-id="72" stroke="none" target-height="37.550003" target-width="37.51001" target-x="381.68" target-y="178.64"></path><path d="M 398.48 204.93 L 397.66 204.74 L 397.06 204.27 L 391.43 197.70 L 391.06 197.04 L 390.98 196.33 L 391.17 195.64 L 391.63 195.05 L 392.29 194.69 L 393.00 194.61 L 393.69 194.80 L 394.28 195.26 L 398.60 200.30 L 408.57 190.44 L 409.20 190.04 L 409.90 189.91 L 410.60 190.05 L 411.23 190.46 L 411.64 191.09 L 411.77 191.80 L 411.63 192.50 L 411.21 193.12 L 399.80 204.39 L 399.19 204.79 L 398.48 204.93 Z" fill="#ffffff" fill-rule="nonzero" group-id="8" id="Path" node-id="73" stroke="none" target-height="15.019989" target-width="20.789978" target-x="390.98" target-y="189.91"></path><path d="M 409.93 214.67 L 409.11 214.52 L 407.31 214.20 L 405.53 213.90 L 402.47 213.57 L 397.25 213.09 L 391.55 212.61 L 388.94 212.60 L 387.16 212.90 L 386.13 213.32 L 385.65 213.74 L 385.51 214.16 L 385.66 214.59 L 386.26 215.09 L 387.66 215.70 L 389.77 216.59 L 391.84 217.76 L 393.95 218.98 L 396.31 220.15 L 398.89 221.02 L 402.12 221.50 L 405.89 221.59 L 410.32 221.58 L 414.01 221.53 L 415.55 221.50 L 409.93 214.67 Z" fill="#f1b282" fill-rule="nonzero" group-id="8" id="Path" node-id="74" stroke="none" target-height="8.98999" target-width="30.039978" target-x="385.51" target-y="212.6"></path><path d="M 476.33 285.92 L 475.09 277.87 L 473.05 266.66 L 471.76 260.53 L 470.28 254.39 L 468.60 248.40 L 466.84 243.16 L 465.46 239.81 L 464.11 237.15 L 462.79 235.09 L 442.36 250.86 L 443.46 253.94 L 446.32 261.76 L 450.26 272.19 L 454.62 283.10 L 458.73 292.35 L 460.64 295.95 L 461.92 297.81 L 465.10 301.81 L 470.07 308.41 L 475.78 316.13 L 481.15 323.48 L 485.15 328.97 L 486.72 331.13 L 496.91 324.95 L 495.56 322.08 L 492.04 314.78 L 487.13 305.01 L 481.63 294.74 L 478.83 289.89 L 476.33 285.92 Z" fill="#0b224e" fill-rule="nonzero" group-id="8" id="Path" node-id="75" stroke="none" target-height="96.04001" target-width="54.55002" target-x="442.36" target-y="235.09"></path><path d="M 445.35 339.29 L 443.84 349.91 L 434.96 349.06 L 434.96 339.29 Z" fill="#f1b282" fill-rule="nonzero" group-id="8" id="Path" node-id="76" stroke="none" target-height="10.619995" target-width="10.390015" target-x="434.96" target-y="339.29"></path><path d="M 470.77 229.41 L 470.70 228.69 L 470.45 228.04 L 469.68 227.47 L 468.71 227.20 L 465.35 226.57 L 461.96 226.12 L 458.58 226.04 L 455.24 226.49 L 450.81 227.79 L 448.60 228.15 L 446.41 227.93 L 444.65 227.41 L 443.79 227.35 L 443.01 227.63 L 442.87 227.74 L 442.35 228.48 L 442.03 229.38 L 440.16 237.12 L 438.56 246.25 L 437.34 255.75 L 436.39 265.88 L 435.71 276.11 L 435.25 286.20 L 434.81 301.22 L 434.57 315.20 L 434.46 326.84 L 434.44 334.79 L 434.44 337.73 L 445.98 337.80 L 446.69 334.35 L 448.40 325.47 L 450.48 313.41 L 452.32 300.37 L 452.97 294.03 L 453.29 288.60 L 456.69 279.57 L 460.82 268.61 L 464.89 257.75 L 468.16 249.00 L 469.57 244.25 L 470.43 239.36 L 470.80 234.39 L 470.77 229.41 Z" fill="#102b5e" fill-rule="nonzero" group-id="8" id="Path" node-id="77" stroke="none" target-height="111.759995" target-width="36.359985" target-x="434.44" target-y="226.04"></path><path d="M 496.42 326.53 L 501.33 333.38 L 494.38 340.57 L 488.98 332.11 Z" fill="#f1b282" fill-rule="nonzero" group-id="8" id="Path" node-id="78" stroke="none" target-height="14.040009" target-width="12.349976" target-x="488.98" target-y="326.53"></path><path d="M 499.58 327.81 L 499.45 328.97 L 498.93 329.86 L 498.14 330.58 L 497.18 331.20 L 495.32 332.28 L 493.49 333.43 L 490.96 334.77 L 489.63 335.31 L 488.54 335.60 L 487.60 335.61 L 487.09 335.25 L 486.59 334.05 L 486.37 332.94 L 486.19 331.85 L 485.86 330.89 L 484.90 329.70 L 483.99 328.49 L 483.86 327.84 L 484.13 327.09 L 484.75 326.43 L 485.61 325.94 L 487.63 325.31 L 489.58 324.75 L 491.48 323.41 L 493.85 321.54 L 494.95 320.91 L 495.50 320.89 L 496.00 321.48 L 496.30 322.40 L 496.88 324.17 L 497.94 325.26 L 499.00 326.28 L 499.37 326.92 L 499.58 327.81 Z" fill="#355aa2" fill-rule="nonzero" group-id="8" id="Path" node-id="79" stroke="none" target-height="14.719971" target-width="15.720001" target-x="483.86" target-y="320.89"></path><path d="M 446.83 341.61 L 446.13 342.55 L 445.23 343.06 L 444.19 343.29 L 443.05 343.34 L 440.90 343.34 L 438.74 343.41 L 435.88 343.29 L 434.46 343.09 L 433.37 342.80 L 432.55 342.32 L 432.29 341.76 L 432.46 340.48 L 432.83 339.40 L 433.22 338.37 L 433.42 337.37 L 433.18 335.86 L 433.00 334.35 L 433.22 333.73 L 433.83 333.21 L 434.70 332.96 L 435.69 332.97 L 437.75 333.44 L 439.72 333.94 L 442.03 333.73 L 445.02 333.31 L 446.29 333.32 L 446.78 333.58 L 446.90 334.34 L 446.71 335.29 L 446.32 337.11 L 446.69 338.59 L 447.09 340.00 L 447.09 340.74 L 446.83 341.61 Z" fill="#355aa2" fill-rule="nonzero" group-id="8" id="Path" node-id="80" stroke="none" target-height="10.450012" target-width="14.799988" target-x="432.29" target-y="332.96"></path><path d="M 500.02 331.83 L 500.72 331.54 L 501.91 331.79 L 503.18 332.58 L 504.97 334.37 L 507.14 336.91 L 507.94 338.09 L 508.29 339.12 L 508.17 340.13 L 507.35 341.28 L 504.95 342.86 L 500.65 345.33 L 495.53 348.39 L 490.62 351.73 L 488.84 352.74 L 486.74 353.37 L 484.53 353.58 L 482.43 353.40 L 481.70 353.04 L 481.28 352.37 L 481.31 351.60 L 481.78 351.00 L 485.42 348.47 L 486.55 347.49 L 487.41 346.39 L 488.13 345.02 L 489.07 342.70 L 490.04 340.16 L 490.54 339.15 L 491.01 338.58 L 491.74 338.13 L 492.51 337.88 L 494.27 337.43 L 495.20 337.01 L 496.31 336.20 L 497.71 334.78 L 498.50 333.75 L 500.02 331.83 Z" fill="#0b224e" fill-rule="nonzero" group-id="8" id="Path" node-id="81" stroke="none" target-height="22.039978" target-width="27.01001" target-x="481.28" target-y="331.54"></path><path d="M 445.05 345.85 L 445.74 346.06 L 446.42 347.03 L 446.81 348.49 L 446.92 351.10 L 446.86 354.28 L 446.70 355.49 L 446.32 356.30 L 445.63 356.84 L 444.29 357.16 L 441.09 357.22 L 435.61 357.17 L 429.20 357.04 L 423.18 356.90 L 418.91 356.78 L 418.37 356.64 L 417.94 356.26 L 417.69 355.71 L 417.67 355.09 L 417.90 354.15 L 418.42 353.07 L 419.23 352.09 L 420.54 351.13 L 422.19 350.44 L 424.68 349.98 L 426.63 349.41 L 428.52 348.51 L 431.84 346.51 L 433.28 345.74 L 434.21 345.49 L 435.02 345.60 L 435.74 345.90 L 437.29 346.67 L 438.23 346.93 L 439.55 346.99 L 441.47 346.74 L 442.71 346.41 L 445.05 345.85 Z" fill="#0b224e" fill-rule="nonzero" group-id="8" id="Path" node-id="82" stroke="none" target-height="11.730011" target-width="29.25" target-x="417.67" target-y="345.49"></path><path d="M 478.20 195.60 L 477.07 204.76 L 475.91 212.20 L 473.74 224.70 L 473.03 229.94 L 472.81 234.23 L 472.97 236.97 L 473.44 239.52 L 474.23 241.89 L 474.85 243.81 L 474.95 245.05 L 474.73 245.84 L 474.21 246.45 L 473.40 246.85 L 472.21 247.03 L 470.26 246.95 L 467.76 246.58 L 462.49 245.60 L 459.83 245.25 L 457.50 245.20 L 454.66 245.66 L 451.56 246.59 L 445.33 248.84 L 442.22 249.72 L 439.35 250.10 L 437.50 249.99 L 435.78 249.46 L 434.16 248.51 L 433.30 247.59 L 432.70 246.44 L 432.35 244.99 L 432.27 242.63 L 432.63 239.70 L 433.31 236.65 L 434.28 233.23 L 436.61 226.18 L 438.90 219.17 L 439.83 215.79 L 440.44 212.80 L 441.04 207.60 L 441.91 198.70 L 442.60 193.90 L 443.60 189.07 L 445.03 184.39 L 446.94 180.13 L 448.57 177.53 L 450.51 175.27 L 452.76 173.31 L 455.31 171.79 L 458.32 170.68 L 461.90 170.03 L 463.44 169.95 L 465.62 170.09 L 467.90 170.55 L 470.39 171.54 L 471.94 172.49 L 473.46 173.79 L 474.93 175.52 L 476.11 177.46 L 477.13 179.96 L 477.96 183.17 L 478.40 186.43 L 478.51 190.53 L 478.20 195.60 Z" fill="#1b90fb" fill-rule="nonzero" group-id="8" id="Path" node-id="83" stroke="none" target-height="80.15001" target-width="46.24002" target-x="432.27" target-y="169.95"></path><path d="M 468.79 181.97 L 468.67 184.32 L 468.25 190.41 L 467.48 198.76 L 466.29 207.92 L 465.50 212.43 L 464.61 216.43 L 463.52 220.14 L 462.38 222.83 L 460.98 224.95 L 459.28 226.75 L 457.25 228.25 L 453.82 229.99 L 449.95 231.25 L 445.91 232.10 L 441.85 232.65 L 434.28 233.23 L 436.61 226.18 L 438.90 219.17 L 439.83 215.79 L 440.44 212.80 L 441.04 207.60 L 442.40 206.33 L 443.44 204.90 L 445.49 200.51 L 448.25 194.24 L 449.86 190.90 L 451.58 187.75 L 453.50 184.86 L 455.38 182.71 L 456.80 181.60 L 458.15 180.88 L 459.48 180.47 L 461.53 180.27 L 463.43 180.45 L 466.71 181.38 L 468.79 181.97 Z" fill="#1277d7" fill-rule="nonzero" group-id="8" id="Path" node-id="84" stroke="none" target-height="52.95999" target-width="34.51001" target-x="434.28" target-y="180.27"></path><path d="M 469.80 188.66 L 469.37 191.04 L 468.03 197.10 L 467.00 200.91 L 465.65 205.19 L 464.05 209.49 L 462.14 213.68 L 459.88 217.61 L 457.37 220.91 L 455.45 222.81 L 453.41 224.24 L 451.25 225.25 L 448.44 226.02 L 445.35 226.56 L 441.95 226.85 L 436.80 226.89 L 431.54 226.57 L 426.34 225.98 L 421.63 225.27 L 413.86 223.81 L 409.85 223.05 L 409.02 222.60 L 408.31 221.34 L 407.89 219.74 L 407.71 217.84 L 407.81 215.96 L 408.18 214.46 L 408.63 213.64 L 409.18 213.23 L 409.85 213.13 L 414.59 213.60 L 422.65 213.97 L 427.22 213.93 L 431.75 213.64 L 436.09 213.00 L 439.58 212.02 L 441.18 211.15 L 442.71 209.86 L 444.20 208.08 L 446.09 205.04 L 447.82 201.44 L 449.30 197.65 L 450.56 193.92 L 452.55 187.36 L 453.37 184.79 L 453.90 183.59 L 455.02 182.00 L 456.72 180.09 L 458.69 178.36 L 460.81 176.96 L 462.34 176.29 L 463.74 176.01 L 465.08 176.08 L 466.28 176.55 L 467.39 177.57 L 468.44 179.35 L 469.10 181.35 L 469.58 184.35 L 469.80 188.66 Z" fill="#1b90fb" fill-rule="nonzero" group-id="8" id="Path" node-id="85" stroke="none" target-height="50.880005" target-width="62.089996" target-x="407.71" target-y="176.01"></path></g></svg>