<?xml version="1.0" standalone="no"?><!DOCTYPE svg PUBLIC "-//W3C//DTD SVG 1.1//EN" "http://www.w3.org/Graphics/SVG/1.1/DTD/svg11.dtd"><svg height="400" node-id="1" sillyvg="true" template-height="400" template-width="600" version="1.1" viewBox="0 0 600 400" width="600" xmlns="http://www.w3.org/2000/svg" xmlns:xlink="http://www.w3.org/1999/xlink"><defs node-id="106"></defs><path d="M 0.00 0.00 L 600.00 0.00 L 600.00 400.00 L 0.00 400.00 Z" fill="#ffffff" fill-opacity="0" fill-rule="nonzero" node-id="109" stroke="none" target-height="400" target-width="600" target-x="0" target-y="0"></path><path d="M 464.41 24.62 C 476.97 24.62 487.34 33.87 489.15 45.94 C 491.77 43.21 495.45 41.50 499.54 41.50 C 506.52 41.50 512.34 46.47 513.67 53.06 C 516.77 48.66 521.87 45.78 527.65 45.78 C 537.11 45.78 544.77 53.45 544.77 62.91 C 544.77 64.65 544.51 66.33 544.03 67.91 C 545.69 66.67 547.74 65.93 549.97 65.93 C 555.46 65.93 559.92 70.39 559.92 75.89 C 559.92 81.40 555.46 85.86 549.97 85.86 L 437.99 85.86 C 430.67 85.86 424.74 79.92 424.74 72.59 C 424.74 65.27 430.67 59.33 437.99 59.33 C 439.21 59.33 440.39 59.51 441.51 59.82 C 440.14 56.72 439.37 53.30 439.37 49.69 C 439.37 35.84 450.58 24.62 464.41 24.62 Z" fill="#e7f4fe" fill-rule="nonzero" id="cloud_2_" node-id="6" stroke="none" target-height="61.239998" target-width="135.18" target-x="424.74" target-y="24.62"></path><g node-id="111"><path d="M 481.95 144.74 L 480.04 147.67 L 476.90 151.79 L 473.32 156.09 L 469.02 160.90 L 464.47 165.67 L 459.77 170.29 L 454.99 174.63 L 450.63 178.18 L 447.63 180.33 L 445.14 181.84 L 443.07 182.81 L 441.41 183.30 L 440.19 183.33 L 439.28 183.02 L 438.58 182.39 L 438.30 181.69 L 438.29 180.61 L 438.70 178.96 L 439.72 176.30 L 441.55 172.13 L 446.44 160.82 L 449.31 153.50 L 452.68 143.95 L 455.97 133.51 L 459.58 120.44 L 460.78 116.48 L 462.19 112.89 L 463.80 109.64 L 465.72 106.57 L 467.73 104.06 L 469.83 102.04 L 472.19 100.41 L 474.55 99.43 L 476.95 99.04 L 478.74 99.15 L 480.57 99.66 L 482.47 100.61 L 484.47 102.07 L 486.14 103.90 L 487.47 106.08 L 488.45 108.65 L 489.08 111.36 L 489.43 114.32 L 489.49 117.55 L 489.12 122.41 L 488.27 127.42 L 487.03 132.34 L 485.52 136.93 L 483.74 141.25 L 481.95 144.74 Z" fill="#1b90fb" fill-rule="nonzero" group-id="1" id="Path" node-id="8" stroke="none" target-height="84.29" target-width="51.19998" target-x="438.29" target-y="99.04"></path><path d="M 437.67 183.65 L 437.54 183.55 L 437.61 183.24 L 440.22 181.25 L 442.86 178.87 L 446.85 174.70 L 451.00 169.68 L 456.10 162.48 L 459.35 157.28 L 462.84 151.00 L 466.58 143.50 L 469.95 135.86 L 473.38 126.96 L 476.88 116.63 L 477.16 116.48 L 477.30 116.77 L 474.28 125.80 L 471.31 133.71 L 468.39 140.61 L 463.67 150.43 L 459.40 158.11 L 455.02 164.98 L 451.41 169.95 L 447.56 174.64 L 444.48 177.94 L 441.57 180.71 L 439.68 182.29 L 437.85 183.63 L 437.67 183.65 Z" fill="#f3f9ff" fill-rule="nonzero" group-id="1" id="Path" node-id="9" stroke="none" target-height="67.16999" target-width="39.75998" target-x="437.54" target-y="116.48"></path><path d="M 484.69 127.69 L 481.84 130.20 L 477.96 134.06 L 473.91 138.39 L 469.31 143.63 L 464.70 149.16 L 459.99 155.11 L 455.43 161.21 L 451.21 167.23 L 447.33 173.26 L 444.20 178.71 L 442.36 182.39 L 441.05 185.55 L 440.19 188.25 L 439.71 191.02 L 439.82 193.07 L 440.40 194.59 L 441.20 195.39 L 442.35 195.92 L 443.96 196.16 L 446.20 196.00 L 449.06 195.39 L 452.59 194.29 L 456.91 192.59 L 463.35 189.62 L 470.71 185.80 L 478.16 181.61 L 485.81 177.06 L 493.34 172.36 L 500.37 167.80 L 512.59 159.46 L 520.64 153.47 L 523.63 150.76 L 526.16 147.93 L 528.25 144.99 L 530.00 141.83 L 531.28 138.74 L 532.11 135.69 L 532.52 132.58 L 532.47 129.70 L 531.97 127.02 L 530.98 124.50 L 529.53 122.31 L 527.57 120.40 L 524.85 118.56 L 522.15 117.16 L 519.47 116.18 L 516.78 115.58 L 513.08 115.27 L 509.37 115.48 L 505.63 116.22 L 501.96 117.38 L 498.33 118.89 L 494.73 120.77 L 489.56 124.03 L 484.69 127.69 Z" fill="#9e95e3" fill-rule="nonzero" group-id="1" id="Path" node-id="10" stroke="none" target-height="80.89001" target-width="92.81003" target-x="439.71" target-y="115.27"></path><path d="M 439.14 196.18 L 439.06 196.14 L 439.02 195.82 L 441.98 192.24 L 450.01 183.09 L 455.42 177.26 L 462.08 170.44 L 467.02 165.61 L 472.73 160.29 L 478.74 154.98 L 485.28 149.57 L 492.07 144.34 L 499.14 139.38 L 506.42 134.82 L 513.74 130.85 L 514.04 130.95 L 513.94 131.26 L 506.64 135.21 L 499.38 139.77 L 492.33 144.71 L 485.55 149.92 L 479.03 155.33 L 473.03 160.62 L 467.34 165.93 L 462.40 170.76 L 455.75 177.57 L 450.35 183.39 L 442.33 192.52 L 439.37 196.10 L 439.14 196.18 Z" fill="#f3f9ff" fill-rule="nonzero" group-id="1" id="Path" node-id="11" stroke="none" target-height="65.32999" target-width="75.01999" target-x="439.02" target-y="130.85"></path><path d="M 487.54 165.95 L 484.43 166.74 L 480.01 168.23 L 475.34 170.06 L 470.04 172.39 L 464.71 174.96 L 459.42 177.76 L 454.33 180.74 L 449.94 183.65 L 446.03 186.72 L 443.39 189.38 L 442.07 191.30 L 441.53 192.88 L 441.57 194.25 L 442.14 195.28 L 443.32 196.32 L 445.39 197.39 L 448.93 198.56 L 453.85 199.65 L 459.17 200.46 L 465.31 201.12 L 471.62 201.58 L 478.14 201.89 L 490.72 202.05 L 501.42 201.71 L 505.82 201.35 L 508.62 200.95 L 512.81 199.92 L 516.52 198.51 L 518.80 197.29 L 520.75 195.87 L 522.40 194.24 L 523.73 192.38 L 524.68 190.22 L 525.25 187.73 L 525.37 185.17 L 525.00 182.15 L 524.06 178.58 L 522.95 176.09 L 521.49 173.92 L 519.67 172.03 L 517.57 170.41 L 515.22 169.02 L 512.60 167.85 L 508.46 166.54 L 504.07 165.68 L 499.61 165.23 L 495.31 165.16 L 491.13 165.43 L 487.54 165.95 Z" fill="#1b90fb" fill-rule="nonzero" group-id="1" id="Path" node-id="12" stroke="none" target-height="36.89" target-width="83.84" target-x="441.53" target-y="165.16"></path><path d="M 410.81 209.25 L 410.76 209.18 L 410.86 208.88 L 415.09 206.94 L 426.29 202.21 L 433.70 199.33 L 442.66 196.09 L 449.22 193.90 L 456.68 191.60 L 464.40 189.45 L 472.64 187.43 L 481.02 185.69 L 489.55 184.31 L 498.09 183.38 L 506.40 183.00 L 506.63 183.22 L 506.41 183.45 L 498.11 183.83 L 489.59 184.76 L 481.09 186.14 L 472.73 187.87 L 464.50 189.89 L 456.80 192.04 L 449.36 194.33 L 442.82 196.51 L 433.87 199.75 L 426.47 202.62 L 415.28 207.35 L 411.06 209.28 L 410.81 209.25 Z" fill="#f3f9ff" fill-rule="nonzero" group-id="1" id="Path" node-id="13" stroke="none" target-height="26.279999" target-width="95.869995" target-x="410.76" target-y="183"></path></g><g node-id="112"><path d="M 151.64 247.11 L 150.71 245.64 L 149.38 244.61 L 147.80 244.08 L 146.05 244.12 L 138.67 245.58 L 137.36 245.66 L 136.10 245.41 L 134.95 244.85 L 133.95 243.99 L 132.03 241.93 L 130.00 240.01 L 129.14 239.02 L 128.59 237.87 L 128.34 236.61 L 128.42 235.30 L 129.88 227.93 L 129.91 226.18 L 129.38 224.59 L 128.36 223.27 L 126.89 222.33 L 115.99 217.81 L 114.29 217.44 L 112.63 217.65 L 111.13 218.39 L 109.92 219.65 L 105.74 225.90 L 104.88 226.88 L 103.81 227.60 L 102.60 228.02 L 101.30 228.11 L 98.51 228.03 L 95.70 228.12 L 94.39 228.03 L 93.17 227.61 L 92.11 226.90 L 91.24 225.91 L 87.05 219.65 L 85.84 218.39 L 84.35 217.65 L 82.69 217.44 L 80.99 217.81 L 70.09 222.33 L 68.62 223.27 L 67.59 224.59 L 67.06 226.18 L 67.10 227.93 L 68.56 235.31 L 68.64 236.63 L 68.39 237.89 L 67.83 239.04 L 66.97 240.04 L 64.92 241.96 L 63.00 243.99 L 62.01 244.85 L 60.86 245.41 L 59.60 245.66 L 58.29 245.57 L 50.92 244.11 L 49.18 244.08 L 47.59 244.61 L 46.27 245.64 L 45.33 247.11 L 40.82 258.02 L 40.44 259.72 L 40.65 261.38 L 41.40 262.88 L 42.66 264.09 L 48.90 268.27 L 49.88 269.14 L 50.59 270.20 L 51.01 271.42 L 51.11 272.72 L 51.03 275.51 L 51.12 278.33 L 51.03 279.64 L 50.61 280.86 L 49.90 281.92 L 48.91 282.79 L 42.66 286.98 L 41.40 288.19 L 40.65 289.69 L 40.44 291.35 L 40.82 293.05 L 45.33 303.96 L 46.27 305.43 L 47.59 306.46 L 49.18 306.99 L 50.92 306.96 L 58.30 305.50 L 59.61 305.41 L 60.87 305.66 L 62.03 306.23 L 63.02 307.09 L 64.95 309.14 L 66.97 311.06 L 67.83 312.05 L 68.39 313.20 L 68.64 314.46 L 68.55 315.77 L 67.10 323.15 L 67.06 324.89 L 67.59 326.48 L 68.62 327.80 L 70.09 328.74 L 80.99 333.26 L 82.69 333.63 L 84.35 333.42 L 85.84 332.68 L 87.05 331.42 L 91.23 325.17 L 92.10 324.19 L 93.16 323.47 L 94.37 323.05 L 95.68 322.96 L 98.47 323.04 L 101.28 322.95 L 102.59 323.04 L 103.80 323.46 L 104.87 324.17 L 105.74 325.16 L 109.92 331.42 L 111.13 332.68 L 112.63 333.42 L 114.29 333.63 L 115.99 333.26 L 126.89 328.74 L 128.36 327.80 L 129.38 326.48 L 129.91 324.89 L 129.88 323.15 L 128.42 315.76 L 128.33 314.44 L 128.59 313.18 L 129.15 312.03 L 130.01 311.03 L 132.06 309.11 L 133.98 307.08 L 134.97 306.22 L 136.12 305.66 L 137.38 305.41 L 138.68 305.50 L 146.05 306.96 L 147.79 306.99 L 149.38 306.46 L 150.70 305.43 L 151.64 303.96 L 156.16 293.05 L 156.53 291.35 L 156.32 289.69 L 155.58 288.19 L 154.32 286.98 L 148.08 282.80 L 147.09 281.93 L 146.38 280.87 L 145.96 279.65 L 145.86 278.35 L 145.94 275.56 L 145.86 272.74 L 145.95 271.43 L 146.37 270.21 L 147.08 269.15 L 148.07 268.28 L 154.32 264.09 L 155.58 262.88 L 156.32 261.38 L 156.53 259.72 L 156.16 258.02 L 151.64 247.11 Z M 108.05 298.65 L 104.79 299.74 L 101.55 300.37 L 98.31 300.56 L 95.07 300.32 L 91.95 299.68 L 88.92 298.65 L 86.05 297.24 L 83.39 295.48 L 80.94 293.35 L 78.78 290.93 L 76.93 288.19 L 75.40 285.11 L 74.30 281.85 L 73.68 278.61 L 73.49 275.36 L 73.73 272.12 L 74.36 269.00 L 75.40 265.97 L 76.81 263.09 L 78.57 260.43 L 80.69 257.97 L 83.11 255.81 L 85.84 253.96 L 88.92 252.43 L 92.19 251.33 L 95.42 250.70 L 98.66 250.52 L 101.90 250.76 L 105.02 251.39 L 108.05 252.43 L 110.92 253.84 L 113.58 255.60 L 116.04 257.72 L 118.20 260.15 L 120.04 262.88 L 121.58 265.97 L 122.67 269.23 L 123.30 272.47 L 123.48 275.71 L 123.25 278.95 L 122.61 282.08 L 121.58 285.11 L 120.17 287.99 L 118.41 290.65 L 116.29 293.11 L 113.87 295.27 L 111.13 297.11 L 108.05 298.65 Z" fill="#e7f4fe" fill-rule="nonzero" group-id="2" id="Shape" node-id="15" stroke="none" target-height="116.19" target-width="116.09" target-x="40.44" target-y="217.44"></path></g><g node-id="113"><path d="M 119.31 139.94 L 122.35 139.90 L 126.91 140.25 L 131.86 140.92 L 137.75 141.96 L 143.81 143.25 L 150.22 144.82 L 156.60 146.62 L 162.73 148.60 L 168.63 150.80 L 173.70 153.05 L 176.92 154.74 L 179.50 156.37 L 181.54 157.93 L 183.29 159.75 L 184.27 161.42 L 184.65 163.00 L 184.46 163.99 L 183.78 164.85 L 182.42 165.64 L 179.81 166.54 L 175.46 167.67 L 170.51 168.92 L 163.77 170.82 L 156.49 173.23 L 147.35 176.82 L 141.16 179.59 L 134.15 183.08 L 126.23 187.40 L 122.67 189.14 L 119.11 190.31 L 115.51 190.97 L 111.87 191.09 L 108.37 190.67 L 104.98 189.69 L 101.81 188.17 L 98.89 186.06 L 96.20 183.30 L 94.51 180.99 L 93.03 178.29 L 91.76 175.16 L 90.72 171.53 L 90.20 167.82 L 90.26 164.41 L 90.86 161.24 L 91.95 158.19 L 93.43 155.36 L 95.30 152.73 L 97.48 150.32 L 99.89 148.15 L 102.53 146.20 L 106.75 143.73 L 111.04 141.86 L 115.39 140.56 L 119.31 139.94 Z" fill="#44d690" fill-rule="nonzero" group-id="3" id="Path" node-id="17" stroke="none" target-height="51.190002" target-width="94.45" target-x="90.2" target-y="139.9"></path><path d="M 186.22 163.39 L 186.01 163.40 L 183.43 162.23 L 180.61 161.18 L 176.14 159.84 L 171.10 158.72 L 164.55 157.78 L 160.35 157.44 L 155.39 157.35 L 149.58 157.53 L 143.83 158.06 L 137.39 159.07 L 130.17 160.63 L 123.10 162.63 L 115.39 165.38 L 106.96 168.97 L 106.67 168.86 L 106.78 168.57 L 115.24 164.98 L 122.99 162.22 L 130.09 160.21 L 137.33 158.64 L 143.81 157.62 L 149.58 157.10 L 155.42 156.91 L 160.40 157.01 L 164.62 157.35 L 171.21 158.30 L 176.27 159.43 L 180.78 160.78 L 183.62 161.84 L 186.22 163.01 L 186.30 163.31 L 186.22 163.39 Z" fill="#f3f9ff" fill-rule="nonzero" group-id="3" id="Path" node-id="18" stroke="none" target-height="12.059998" target-width="79.630005" target-x="106.67" target-y="156.91"></path><path d="M 106.19 150.41 L 110.54 151.91 L 116.65 153.57 L 123.27 155.05 L 130.94 156.49 L 138.85 157.70 L 147.06 158.69 L 155.28 159.38 L 163.05 159.70 L 170.57 159.59 L 176.91 159.04 L 180.98 158.31 L 184.19 157.36 L 186.66 156.24 L 188.32 155.09 L 189.43 153.82 L 190.09 152.41 L 190.33 150.82 L 189.96 148.91 L 188.82 146.57 L 186.62 143.68 L 184.10 141.05 L 180.85 138.10 L 176.73 134.78 L 170.20 130.01 L 162.43 124.84 L 154.27 119.76 L 145.50 114.59 L 136.58 109.56 L 127.71 104.74 L 110.83 96.04 L 96.64 89.19 L 86.91 84.92 L 82.21 83.39 L 78.03 82.58 L 74.30 82.40 L 71.48 82.66 L 68.99 83.22 L 66.79 84.07 L 64.85 85.19 L 63.11 86.62 L 61.67 88.28 L 60.53 90.20 L 59.68 92.42 L 59.19 94.71 L 59.05 97.24 L 59.27 100.07 L 59.91 103.25 L 61.42 108.07 L 63.19 112.54 L 65.22 116.69 L 67.49 120.54 L 70.95 125.43 L 74.71 129.84 L 78.75 133.82 L 83.11 137.48 L 87.58 140.73 L 92.17 143.61 L 99.27 147.39 L 106.19 150.41 Z" fill="#8ae6b9" fill-rule="nonzero" group-id="3" id="Path" node-id="19" stroke="none" target-height="77.299995" target-width="131.28" target-x="59.05" target-y="82.4"></path><path d="M 192.46 151.39 L 192.32 151.41 L 187.11 150.63 L 173.56 148.09 L 164.67 146.10 L 153.85 143.35 L 142.60 140.10 L 130.19 136.00 L 121.88 132.94 L 113.40 129.48 L 104.74 125.61 L 96.25 121.42 L 87.91 116.80 L 79.71 111.77 L 79.64 111.46 L 79.94 111.40 L 88.13 116.43 L 96.46 121.04 L 104.94 125.23 L 113.58 129.08 L 122.04 132.54 L 130.34 135.60 L 142.73 139.69 L 153.97 142.93 L 164.76 145.68 L 173.64 147.66 L 187.17 150.20 L 192.38 150.98 L 192.57 151.22 L 192.46 151.39 Z" fill="#f3f9ff" fill-rule="nonzero" group-id="3" id="Path" node-id="20" stroke="none" target-height="40.010002" target-width="112.93001" target-x="79.64" target-y="111.4"></path><path d="M 126.83 115.75 L 129.83 118.51 L 134.05 122.03 L 138.70 125.62 L 144.10 129.57 L 149.73 133.47 L 155.61 137.33 L 161.56 141.01 L 167.22 144.26 L 172.80 147.18 L 177.56 149.33 L 180.75 150.51 L 183.28 151.19 L 185.27 151.47 L 186.77 151.42 L 187.81 151.08 L 188.53 150.50 L 188.99 149.66 L 189.09 148.41 L 188.75 146.49 L 187.72 143.59 L 185.64 139.22 L 182.42 133.50 L 178.70 127.51 L 174.19 120.68 L 164.14 106.43 L 153.37 92.06 L 142.97 78.86 L 134.05 68.13 L 130.26 63.86 L 127.71 61.18 L 122.93 56.77 L 118.52 53.37 L 115.43 51.48 L 112.66 50.25 L 110.16 49.56 L 108.25 49.41 L 106.52 49.65 L 104.92 50.29 L 103.40 51.33 L 102.17 52.64 L 101.01 54.47 L 99.93 56.97 L 98.96 60.26 L 98.53 63.52 L 98.60 67.09 L 99.23 71.03 L 100.27 74.90 L 101.71 78.94 L 103.56 83.19 L 106.80 89.37 L 110.55 95.51 L 114.64 101.41 L 118.78 106.78 L 123.04 111.76 L 126.83 115.75 Z" fill="#ffcb01" fill-rule="nonzero" group-id="3" id="Path" node-id="21" stroke="none" target-height="102.06" target-width="90.56" target-x="98.53" target-y="49.41"></path><path d="M 190.54 150.95 L 190.31 150.93 L 186.69 148.02 L 177.36 140.20 L 163.92 128.26 L 156.32 121.15 L 148.00 113.05 L 139.67 104.54 L 131.19 95.36 L 122.95 85.85 L 115.11 76.03 L 115.15 75.73 L 115.45 75.77 L 123.29 85.58 L 131.52 95.08 L 139.99 104.24 L 148.31 112.74 L 156.62 120.84 L 164.22 127.94 L 177.64 139.86 L 186.96 147.68 L 190.57 150.59 L 190.61 150.89 L 190.54 150.95 Z" fill="#f3f9ff" fill-rule="nonzero" group-id="3" id="Path" node-id="22" stroke="none" target-height="75.21999" target-width="75.5" target-x="115.11" target-y="75.73"></path></g><g node-id="114"><path d="M 299.10 374.48 L 297.88 374.30 L 296.83 373.87 L 295.92 373.16 L 295.21 372.25 L 294.77 371.20 L 294.60 369.97 L 294.60 28.50 L 294.77 27.28 L 295.21 26.23 L 295.92 25.32 L 296.83 24.61 L 297.88 24.17 L 299.10 24.00 L 300.32 24.17 L 301.37 24.61 L 302.28 25.32 L 302.99 26.23 L 303.43 27.28 L 303.60 28.50 L 303.60 369.97 L 303.43 371.20 L 302.99 372.25 L 302.28 373.16 L 301.37 373.87 L 300.32 374.30 L 299.10 374.48 Z" fill="#7491c5" fill-rule="nonzero" group-id="4" id="Path" node-id="24" stroke="none" target-height="350.48" target-width="9" target-x="294.6" target-y="24"></path><path d="M 388.16 374.48 L 387.02 374.33 L 385.90 373.86 L 296.83 321.75 L 295.86 320.99 L 295.18 320.08 L 294.75 319.01 L 294.60 317.86 L 294.75 316.74 L 295.22 315.59 L 295.98 314.62 L 296.89 313.94 L 297.96 313.51 L 299.10 313.36 L 300.23 313.51 L 301.37 313.98 L 390.44 366.09 L 391.40 366.85 L 392.09 367.76 L 392.52 368.83 L 392.67 369.98 L 392.52 371.10 L 392.05 372.25 L 391.30 373.21 L 390.37 373.90 L 389.30 374.33 L 388.16 374.48 Z" fill="#7491c5" fill-rule="nonzero" group-id="4" id="Path" node-id="25" stroke="none" target-height="61.120026" target-width="98.07001" target-x="294.6" target-y="313.36"></path><path d="M 209.59 374.48 L 208.45 374.33 L 207.38 373.90 L 206.45 373.21 L 205.70 372.25 L 205.23 371.10 L 205.08 369.98 L 205.23 368.83 L 205.66 367.76 L 206.35 366.85 L 207.31 366.09 L 296.38 313.98 L 297.52 313.51 L 298.65 313.36 L 299.79 313.51 L 300.86 313.94 L 301.77 314.62 L 302.53 315.59 L 303.00 316.74 L 303.15 317.86 L 303.00 319.01 L 302.57 320.08 L 301.89 320.99 L 300.92 321.75 L 211.85 373.86 L 210.73 374.33 L 209.59 374.48 Z" fill="#7491c5" fill-rule="nonzero" group-id="4" id="Path" node-id="26" stroke="none" target-height="61.120026" target-width="98.06999" target-x="205.08" target-y="313.36"></path><path d="M 461.19 67.27 L 137.02 67.27 L 134.33 67.02 L 131.86 66.35 L 129.58 65.26 L 127.51 63.79 L 125.76 62.03 L 124.29 59.96 L 123.20 57.68 L 122.53 55.21 L 122.28 52.52 L 122.28 52.52 L 122.53 49.83 L 123.20 47.36 L 124.29 45.08 L 125.76 43.01 L 127.51 41.25 L 129.58 39.78 L 131.86 38.69 L 134.33 38.02 L 137.02 37.77 L 461.19 37.77 L 463.88 38.02 L 466.34 38.69 L 468.62 39.78 L 470.69 41.25 L 472.45 43.01 L 473.91 45.08 L 475.00 47.36 L 475.67 49.83 L 475.92 52.52 L 475.92 52.52 L 475.67 55.21 L 475.00 57.68 L 473.91 59.96 L 472.45 62.03 L 470.69 63.79 L 468.62 65.26 L 466.34 66.35 L 463.88 67.02 L 461.19 67.27 Z" fill="#224380" fill-rule="nonzero" group-id="4" id="Path" node-id="27" stroke="none" target-height="29.499996" target-width="353.64" target-x="122.28" target-y="37.77"></path><path d="M 448.42 273.76 L 149.78 273.76 L 147.45 273.54 L 145.31 272.96 L 143.34 272.01 L 141.55 270.74 L 140.03 269.22 L 138.76 267.43 L 137.81 265.45 L 137.23 263.31 L 137.02 260.98 L 137.02 67.27 L 461.19 67.27 L 461.19 260.98 L 460.97 263.31 L 460.39 265.45 L 459.44 267.43 L 458.17 269.22 L 456.66 270.74 L 454.86 272.01 L 452.89 272.96 L 450.75 273.54 L 448.42 273.76 Z" fill="#f3f9ff" fill-rule="nonzero" group-id="4" id="Path" node-id="28" stroke="none" target-height="206.49002" target-width="324.16998" target-x="137.02" target-y="67.27"></path><path d="M 137.02 67.27 L 461.19 67.27 L 461.19 74.64 L 137.02 74.64 Z" fill="#aec1e8" fill-rule="nonzero" group-id="4" id="Rectangle" node-id="29" stroke="none" target-height="7.3700027" target-width="324.16998" target-x="137.02" target-y="67.27"></path></g><g node-id="115"><path d="M 111.23 174.55 L 156.12 174.55 L 156.12 178.15 L 111.23 178.15 Z" fill="#183168" fill-rule="nonzero" group-id="5" id="Rectangle" node-id="31" stroke="none" target-height="3.5999908" target-width="44.88999" target-x="111.23" target-y="174.55"></path><path d="M 112.30 203.50 L 156.42 203.50 L 156.42 207.10 L 112.30 207.10 Z" fill="#183168" fill-rule="nonzero" group-id="5" id="Rectangle" node-id="32" stroke="none" target-height="3.600006" target-width="44.119995" target-x="112.3" target-y="203.5"></path><path d="M 110.85 240.86 L 156.12 240.86 L 156.12 244.46 L 110.85 244.46 Z" fill="#183168" fill-rule="nonzero" group-id="5" id="Rectangle" node-id="33" stroke="none" target-height="3.600006" target-width="45.269997" target-x="110.85" target-y="240.86"></path><path d="M 111.50 274.87 L 149.89 274.87 L 149.89 278.47 L 111.50 278.47 Z" fill="#183168" fill-rule="nonzero" group-id="5" id="Rectangle" node-id="34" stroke="none" target-height="3.600006" target-width="38.39" target-x="111.5" target-y="274.87"></path><path d="M 111.47 346.70 L 155.97 346.70 L 155.97 350.30 L 111.47 350.30 Z" fill="#183168" fill-rule="nonzero" group-id="5" id="Rectangle" node-id="35" stroke="none" target-height="3.5999756" target-width="44.5" target-x="111.47" target-y="346.7"></path><path d="M 111.23 308.36 L 155.74 308.36 L 155.74 311.96 L 111.23 311.96 Z" fill="#183168" fill-rule="nonzero" group-id="5" id="Rectangle" node-id="36" stroke="none" target-height="3.600006" target-width="44.510002" target-x="111.23" target-y="308.36"></path><path d="M 109.34 159.62 L 112.93 159.62 L 112.93 376.08 L 109.34 376.08 Z" fill="#183168" fill-rule="nonzero" group-id="5" id="Rectangle" node-id="37" stroke="none" target-height="216.45999" target-width="3.590004" target-x="109.34" target-y="159.62"></path><path d="M 153.18 159.62 L 156.77 159.62 L 156.77 376.08 L 153.18 376.08 Z" fill="#183168" fill-rule="nonzero" group-id="5" id="Rectangle" node-id="38" stroke="none" target-height="216.45999" target-width="3.5900116" target-x="153.18" target-y="159.62"></path><path d="M 125.07 337.29 L 123.28 342.49 L 122.69 342.93 L 121.23 343.55 L 120.36 343.60 L 119.43 343.29 L 118.62 342.58 L 117.77 341.09 L 117.93 340.23 L 118.27 338.41 L 118.57 336.78 L 118.85 336.50 L 119.68 336.37 L 121.90 336.60 L 124.09 337.05 L 125.07 337.29 Z" fill="#f1b282" fill-rule="nonzero" group-id="5" id="Path" node-id="39" stroke="none" target-height="7.230011" target-width="7.300003" target-x="117.77" target-y="336.37"></path><path d="M 117.21 337.62 L 126.31 337.62 L 126.96 335.09 L 128.61 328.60 L 130.87 319.76 L 133.33 310.17 L 135.58 301.46 L 137.21 295.24 L 138.34 289.34 L 139.38 280.94 L 140.18 271.40 L 140.57 262.09 L 140.55 257.81 L 140.39 254.38 L 139.97 252.45 L 139.22 251.03 L 138.16 250.01 L 136.84 249.30 L 135.31 248.87 L 133.55 248.76 L 130.86 249.08 L 128.12 249.94 L 125.57 251.25 L 123.48 252.87 L 122.34 254.17 L 121.61 255.50 L 121.22 256.89 L 120.54 264.70 L 120.45 271.60 L 120.77 278.19 L 121.33 283.66 L 122.67 292.45 L 123.17 295.71 L 123.26 297.37 L 122.09 300.97 L 120.97 305.76 L 120.05 310.84 L 119.26 316.27 L 118.09 326.60 L 117.42 334.48 L 117.21 337.62 Z" fill="#102b5e" fill-rule="nonzero" group-id="5" id="Path" node-id="40" stroke="none" target-height="88.86" target-width="23.360008" target-x="117.21" target-y="248.76"></path><path d="M 142.19 188.43 L 142.77 190.12 L 142.92 191.27 L 143.02 193.09 L 143.78 195.09 L 144.37 197.05 L 144.23 197.65 L 143.87 198.11 L 143.48 198.60 L 143.18 199.39 L 143.18 201.46 L 143.13 202.54 L 142.77 203.57 L 142.25 204.10 L 141.48 204.46 L 139.91 204.98 L 139.37 205.34 L 139.24 205.84 L 139.84 207.95 L 140.78 210.53 L 141.27 211.80 L 129.13 211.99 L 129.23 210.12 L 129.30 206.10 L 129.21 203.95 L 129.00 202.35 L 128.46 199.08 L 128.09 194.54 L 128.09 192.22 L 128.30 190.30 L 128.81 188.68 L 129.53 187.91 L 130.65 187.49 L 132.41 187.10 L 134.31 186.86 L 136.37 186.75 L 138.39 186.83 L 140.07 187.11 L 141.48 187.68 L 142.19 188.43 Z" fill="#f1b282" fill-rule="nonzero" group-id="5" id="Path" node-id="41" stroke="none" target-height="25.240005" target-width="16.279999" target-x="128.09" target-y="186.75"></path><path d="M 135.52 183.06 L 132.16 183.27 L 129.53 183.68 L 127.50 184.23 L 125.63 185.11 L 124.23 186.22 L 123.21 187.59 L 122.53 189.18 L 122.11 191.22 L 121.99 193.82 L 122.23 196.26 L 122.84 198.82 L 123.80 201.25 L 124.99 203.18 L 125.99 204.22 L 127.00 204.81 L 128.07 205.03 L 131.08 204.89 L 134.27 204.41 L 135.57 203.94 L 136.22 203.39 L 136.95 201.71 L 137.24 199.95 L 137.28 196.61 L 137.42 195.19 L 137.86 194.28 L 138.67 193.60 L 139.64 193.09 L 141.64 192.01 L 142.48 191.21 L 143.17 189.95 L 143.53 188.36 L 143.54 185.79 L 143.10 183.33 L 142.51 182.20 L 141.63 181.62 L 140.57 181.59 L 138.11 182.39 L 136.79 182.84 L 135.52 183.06 Z" fill="#0b224e" fill-rule="nonzero" group-id="5" id="Path" node-id="42" stroke="none" target-height="23.440002" target-width="21.549995" target-x="121.99" target-y="181.59"></path><path d="M 112.59 180.81 L 112.15 179.47 L 111.40 176.49 L 111.17 174.83 L 111.17 173.44 L 111.48 172.50 L 112.08 171.73 L 113.00 171.10 L 114.65 170.50 L 116.57 170.26 L 118.50 170.39 L 120.13 170.86 L 121.06 171.41 L 121.63 172.07 L 121.92 172.87 L 121.97 174.64 L 121.74 175.84 L 121.27 176.84 L 120.70 177.56 L 119.44 178.66 L 117.73 180.48 L 116.63 182.05 L 116.31 182.29 L 115.55 182.44 L 114.68 182.39 L 113.78 182.12 L 113.04 181.61 L 112.59 180.81 Z" fill="#f1b282" fill-rule="nonzero" group-id="5" id="Path" node-id="43" stroke="none" target-height="12.180008" target-width="10.800003" target-x="111.17" target-y="170.26"></path><path d="M 183.32 207.78 L 184.28 206.76 L 186.24 204.39 L 187.16 202.99 L 187.75 201.73 L 187.87 200.75 L 187.66 199.80 L 187.10 198.84 L 185.86 197.59 L 184.23 196.54 L 182.43 195.83 L 180.76 195.56 L 179.68 195.66 L 178.88 196.01 L 178.28 196.60 L 177.48 198.19 L 177.18 199.37 L 177.17 200.48 L 177.38 201.37 L 178.04 202.90 L 178.81 205.28 L 179.13 207.17 L 179.31 207.53 L 179.94 207.99 L 180.74 208.31 L 181.67 208.46 L 182.57 208.31 L 183.32 207.78 Z" fill="#f1b282" fill-rule="nonzero" group-id="5" id="Path" node-id="44" stroke="none" target-height="12.900009" target-width="10.699997" target-x="177.17" target-y="195.56"></path><path d="M 149.07 329.36 L 146.45 334.20 L 145.79 334.53 L 144.26 334.90 L 143.39 334.81 L 142.52 334.35 L 141.83 333.52 L 141.25 331.91 L 141.55 331.09 L 142.18 329.35 L 142.74 327.79 L 143.06 327.55 L 143.90 327.57 L 146.06 328.16 L 148.14 328.96 L 149.07 329.36 Z" fill="#f1b282" fill-rule="nonzero" group-id="5" id="Path" node-id="45" stroke="none" target-height="7.350006" target-width="7.8200073" target-x="141.25" target-y="327.55"></path><path d="M 148.81 254.83 L 150.11 256.69 L 153.37 261.46 L 157.63 267.88 L 161.92 274.72 L 165.29 280.73 L 166.40 283.24 L 166.77 284.67 L 166.65 287.19 L 165.82 291.11 L 164.58 295.33 L 162.86 300.28 L 158.86 310.43 L 154.80 319.82 L 151.65 326.74 L 150.38 329.43 L 141.50 327.52 L 142.16 324.65 L 143.90 317.45 L 146.37 308.07 L 149.23 298.67 L 150.78 294.45 L 152.15 291.38 L 148.54 287.01 L 144.69 283.00 L 137.08 275.27 L 134.81 272.60 L 132.85 269.79 L 131.18 266.85 L 129.91 263.73 L 129.11 260.26 L 128.80 256.36 L 129.03 255.64 L 129.66 255.04 L 130.88 254.53 L 133.00 254.13 L 135.84 253.95 L 141.76 254.12 L 146.72 254.57 L 148.81 254.83 Z" fill="#0b224e" fill-rule="nonzero" group-id="5" id="Path" node-id="46" stroke="none" target-height="75.479996" target-width="37.97" target-x="128.8" target-y="253.95"></path><path d="M 130.32 209.96 L 133.51 209.91 L 137.25 209.98 L 140.58 210.00 L 143.33 210.23 L 146.40 210.96 L 149.49 212.04 L 152.75 213.38 L 159.21 216.25 L 162.40 217.57 L 165.36 218.58 L 169.48 214.01 L 173.57 209.35 L 176.71 205.73 L 177.96 204.27 L 184.25 208.16 L 183.03 210.19 L 179.86 215.07 L 177.79 217.97 L 175.48 220.98 L 173.02 223.82 L 170.64 226.12 L 168.94 227.44 L 167.44 228.26 L 166.10 228.68 L 163.90 228.93 L 161.22 229.01 L 158.46 228.87 L 155.55 228.50 L 152.69 227.86 L 149.98 226.93 L 150.18 229.18 L 150.80 232.76 L 152.52 241.08 L 153.39 245.56 L 154.05 249.80 L 154.41 253.85 L 154.31 256.86 L 153.87 258.64 L 153.16 259.68 L 152.19 260.20 L 148.97 260.58 L 145.17 260.57 L 137.41 260.07 L 133.65 259.97 L 130.52 260.20 L 126.10 261.26 L 123.99 261.73 L 122.28 261.84 L 121.27 261.64 L 120.47 261.10 L 119.84 260.17 L 119.51 259.04 L 119.38 257.23 L 119.59 254.45 L 120.19 251.33 L 120.88 248.98 L 122.15 244.79 L 122.39 242.74 L 122.18 240.23 L 121.43 237.52 L 119.76 233.62 L 117.44 229.36 L 113.67 223.30 L 111.85 220.39 L 110.03 217.04 L 108.44 213.54 L 107.21 209.94 L 106.65 207.49 L 106.40 205.14 L 106.43 202.86 L 107.23 196.35 L 108.15 190.94 L 110.03 182.69 L 110.91 179.62 L 117.80 180.73 L 117.69 183.04 L 117.32 188.73 L 116.68 195.96 L 115.73 202.86 L 116.99 205.63 L 118.46 207.99 L 120.14 210.17 L 122.00 212.28 L 122.77 212.62 L 123.87 212.32 L 126.67 210.84 L 128.37 210.20 L 130.32 209.96 Z" fill="#1b90fb" fill-rule="nonzero" group-id="5" id="Path" node-id="47" stroke="none" target-height="82.22" target-width="77.85" target-x="106.4" target-y="179.62"></path><path d="M 117.62 339.85 L 117.12 339.94 L 116.62 340.52 L 116.31 341.46 L 116.17 343.40 L 116.21 345.42 L 116.41 346.70 L 116.73 347.35 L 117.32 347.81 L 118.29 348.09 L 120.83 347.87 L 125.05 347.27 L 127.50 347.05 L 130.07 346.98 L 132.30 346.72 L 134.73 345.90 L 135.79 345.27 L 136.52 344.55 L 136.74 343.99 L 136.66 343.36 L 136.29 342.88 L 135.79 342.73 L 132.74 342.82 L 131.71 342.73 L 130.77 342.43 L 128.24 340.87 L 126.60 339.70 L 125.88 339.30 L 125.38 339.16 L 124.80 339.24 L 124.28 339.52 L 123.15 340.24 L 122.47 340.48 L 121.53 340.51 L 119.28 340.16 L 117.62 339.85 Z" fill="#0b224e" fill-rule="nonzero" group-id="5" id="Path" node-id="48" stroke="none" target-height="8.929993" target-width="20.570007" target-x="116.17" target-y="339.16"></path><path d="M 141.18 330.52 L 140.64 330.61 L 139.99 331.22 L 139.50 332.21 L 139.08 334.02 L 138.70 336.45 L 138.66 337.50 L 138.84 338.28 L 139.30 338.87 L 140.26 339.26 L 143.46 339.29 L 148.90 339.13 L 151.93 339.14 L 154.76 339.31 L 156.26 339.25 L 157.82 338.82 L 159.28 338.10 L 160.53 337.17 L 160.84 336.66 L 160.84 336.08 L 160.53 335.62 L 160.00 335.42 L 156.74 335.25 L 155.66 335.08 L 154.70 334.72 L 152.23 333.06 L 150.65 331.85 L 149.94 331.42 L 149.43 331.24 L 148.22 331.39 L 146.95 331.79 L 146.20 331.89 L 145.19 331.81 L 143.77 331.46 L 142.88 331.12 L 141.18 330.52 Z" fill="#0b224e" fill-rule="nonzero" group-id="5" id="Path" node-id="49" stroke="none" target-height="8.790009" target-width="22.179993" target-x="138.66" target-y="330.52"></path></g><g node-id="116"><path d="M 419.94 101.74 L 317.13 101.74 L 315.84 101.48 L 314.80 100.78 L 314.10 99.74 L 313.83 98.44 L 313.83 98.44 L 314.10 97.15 L 314.80 96.11 L 315.84 95.40 L 317.13 95.14 L 419.94 95.14 L 421.23 95.40 L 422.27 96.11 L 422.97 97.15 L 423.24 98.44 L 423.24 98.44 L 422.97 99.74 L 422.27 100.78 L 421.23 101.48 L 419.94 101.74 Z" fill="#c3d3f3" fill-rule="nonzero" group-id="6" id="Path" node-id="51" stroke="none" target-height="6.5999985" target-width="109.41" target-x="313.83" target-y="95.14"></path><path d="M 419.94 121.55 L 317.13 121.55 L 315.84 121.29 L 314.80 120.59 L 314.10 119.55 L 313.83 118.25 L 313.83 118.25 L 314.10 116.96 L 314.80 115.92 L 315.84 115.21 L 317.13 114.95 L 419.94 114.95 L 421.23 115.21 L 422.27 115.92 L 422.97 116.96 L 423.24 118.25 L 423.24 118.25 L 422.97 119.55 L 422.27 120.59 L 421.23 121.29 L 419.94 121.55 Z" fill="#c3d3f3" fill-rule="nonzero" group-id="6" id="Path" node-id="52" stroke="none" target-height="6.600006" target-width="109.41" target-x="313.83" target-y="114.95"></path><path d="M 419.94 141.37 L 317.13 141.37 L 315.84 141.10 L 314.80 140.40 L 314.10 139.36 L 313.83 138.06 L 313.83 138.06 L 314.10 136.77 L 314.80 135.73 L 315.84 135.03 L 317.13 134.76 L 419.94 134.76 L 421.23 135.03 L 422.27 135.73 L 422.97 136.77 L 423.24 138.06 L 423.24 138.06 L 422.97 139.36 L 422.27 140.40 L 421.23 141.10 L 419.94 141.37 Z" fill="#c3d3f3" fill-rule="nonzero" group-id="6" id="Path" node-id="53" stroke="none" target-height="6.6100006" target-width="109.41" target-x="313.83" target-y="134.76"></path><path d="M 419.94 161.18 L 317.13 161.18 L 315.84 160.91 L 314.80 160.21 L 314.10 159.17 L 313.83 157.88 L 313.83 157.88 L 314.10 156.58 L 314.80 155.54 L 315.84 154.84 L 317.13 154.57 L 419.94 154.57 L 421.23 154.84 L 422.27 155.54 L 422.97 156.58 L 423.24 157.88 L 423.24 157.88 L 422.97 159.17 L 422.27 160.21 L 421.23 160.91 L 419.94 161.18 Z" fill="#c3d3f3" fill-rule="nonzero" group-id="6" id="Path" node-id="54" stroke="none" target-height="6.6099854" target-width="109.41" target-x="313.83" target-y="154.57"></path><path d="M 419.94 180.99 L 317.13 180.99 L 315.84 180.73 L 314.80 180.02 L 314.10 178.98 L 313.83 177.69 L 313.83 177.69 L 314.10 176.39 L 314.80 175.35 L 315.84 174.65 L 317.13 174.38 L 419.94 174.38 L 421.23 174.65 L 422.27 175.35 L 422.97 176.39 L 423.24 177.69 L 423.24 177.69 L 422.97 178.98 L 422.27 180.02 L 421.23 180.73 L 419.94 180.99 Z" fill="#c3d3f3" fill-rule="nonzero" group-id="6" id="Path" node-id="55" stroke="none" target-height="6.6100006" target-width="109.41" target-x="313.83" target-y="174.38"></path><path d="M 419.94 200.80 L 317.13 200.80 L 315.84 200.54 L 314.80 199.83 L 314.10 198.79 L 313.83 197.50 L 313.83 197.50 L 314.10 196.20 L 314.80 195.16 L 315.84 194.46 L 317.13 194.20 L 419.94 194.20 L 421.23 194.46 L 422.27 195.16 L 422.97 196.20 L 423.24 197.50 L 423.24 197.50 L 422.97 198.79 L 422.27 199.83 L 421.23 200.54 L 419.94 200.80 Z" fill="#c3d3f3" fill-rule="nonzero" group-id="6" id="Path" node-id="56" stroke="none" target-height="6.600006" target-width="109.41" target-x="313.83" target-y="194.2"></path><path d="M 419.94 220.61 L 317.13 220.61 L 315.84 220.35 L 314.80 219.64 L 314.10 218.60 L 313.83 217.31 L 313.83 217.31 L 314.10 216.01 L 314.80 214.97 L 315.84 214.27 L 317.13 214.01 L 419.94 214.01 L 421.23 214.27 L 422.27 214.97 L 422.97 216.01 L 423.24 217.31 L 423.24 217.31 L 422.97 218.60 L 422.27 219.64 L 421.23 220.35 L 419.94 220.61 Z" fill="#c3d3f3" fill-rule="nonzero" group-id="6" id="Path" node-id="57" stroke="none" target-height="6.600006" target-width="109.41" target-x="313.83" target-y="214.01"></path><path d="M 419.94 240.42 L 317.13 240.42 L 315.84 240.16 L 314.80 239.46 L 314.10 238.42 L 313.83 237.12 L 313.83 237.12 L 314.10 235.83 L 314.80 234.79 L 315.84 234.08 L 317.13 233.82 L 419.94 233.82 L 421.23 234.08 L 422.27 234.79 L 422.97 235.83 L 423.24 237.12 L 423.24 237.12 L 422.97 238.42 L 422.27 239.46 L 421.23 240.16 L 419.94 240.42 Z" fill="#c3d3f3" fill-rule="nonzero" group-id="6" id="Path" node-id="58" stroke="none" target-height="6.599991" target-width="109.41" target-x="313.83" target-y="233.82"></path></g><g node-id="117"><path d="M 443.29 242.74 L 447.78 245.22 L 451.38 247.84 L 454.20 250.58 L 455.99 252.94 L 457.22 255.32 L 457.95 257.74 L 458.22 260.25 L 457.95 262.74 L 457.22 265.16 L 455.99 267.54 L 454.20 269.90 L 451.38 272.64 L 447.78 275.25 L 443.29 277.73 L 408.28 260.25 L 443.29 242.74 Z" fill="#7266d5" fill-rule="nonzero" group-id="7" id="Path" node-id="60" stroke="none" target-height="34.990005" target-width="49.940002" target-x="408.28" target-y="242.74"></path><path d="M 443.29 277.73 L 443.29 277.73 L 443.29 289.88 L 446.88 287.95 L 450.37 285.60 L 452.52 283.79 L 454.37 281.84 L 455.95 279.74 L 457.18 277.45 L 457.93 275.02 L 458.22 272.40 L 458.22 260.25 L 457.93 262.87 L 457.18 265.30 L 455.96 267.59 L 454.38 269.69 L 452.53 271.64 L 450.37 273.44 L 446.89 275.80 L 443.29 277.73 Z" fill="#877cd8" fill-rule="nonzero" group-id="7" id="Path" node-id="61" stroke="none" target-height="29.630005" target-width="14.929993" target-x="443.29" target-y="260.25"></path><path d="M 443.29 277.73 L 443.29 289.88 L 408.28 272.40 L 408.28 260.25 Z" fill="#5f50d0" fill-rule="nonzero" group-id="7" id="Path" node-id="62" stroke="none" target-height="29.630005" target-width="35.01001" target-x="408.28" target-y="260.25"></path></g><g node-id="118"><path d="M 451.18 288.67 L 450.17 290.95 L 447.68 296.90 L 444.54 305.20 L 442.99 309.80 L 441.59 314.52 L 440.42 319.23 L 439.65 323.54 L 439.05 330.28 L 438.55 339.45 L 438.03 349.49 L 437.40 358.87 L 436.98 363.00 L 436.54 366.03 L 435.90 368.56 L 435.35 369.45 L 431.88 371.91 L 429.03 373.87 L 427.84 374.66 L 429.69 375.96 L 431.41 375.74 L 435.23 375.19 L 439.14 374.43 L 440.66 373.94 L 441.13 373.60 L 441.68 371.61 L 442.31 368.56 L 442.91 365.54 L 445.03 356.86 L 447.18 348.82 L 448.07 344.77 L 448.78 340.38 L 449.18 335.79 L 449.25 330.45 L 452.13 325.37 L 454.60 321.19 L 455.65 319.45 L 455.69 317.15 L 455.68 311.39 L 455.43 303.92 L 455.14 300.03 L 454.72 296.48 L 454.11 293.17 L 453.38 290.82 L 452.67 289.50 L 451.95 288.86 L 451.18 288.67 Z" fill="#f1b282" fill-rule="nonzero" group-id="8" id="Path" node-id="64" stroke="none" target-height="87.28998" target-width="27.850006" target-x="427.84" target-y="288.67"></path><path d="M 441.35 371.93 L 441.71 372.22 L 441.83 373.04 L 441.69 374.03 L 441.34 375.18 L 440.82 376.23 L 440.24 376.95 L 439.03 376.94 L 436.72 376.91 L 435.48 376.90 L 435.56 375.66 L 434.36 376.04 L 431.67 376.71 L 430.18 376.95 L 428.93 376.99 L 425.91 376.66 L 424.88 376.38 L 424.67 376.16 L 424.86 375.87 L 425.55 375.35 L 427.26 374.43 L 428.57 374.02 L 429.25 374.24 L 429.94 374.68 L 430.61 375.12 L 431.20 375.31 L 433.00 374.77 L 436.25 373.59 L 439.50 372.42 L 441.35 371.93 Z" fill="#0b224e" fill-rule="nonzero" group-id="8" id="Path" node-id="65" stroke="none" target-height="5.0599976" target-width="17.159973" target-x="424.67" target-y="371.93"></path><path d="M 479.49 356.95 L 477.94 353.31 L 476.48 349.25 L 473.64 340.77 L 472.04 336.49 L 470.20 332.33 L 468.02 328.38 L 465.41 324.77 L 466.11 321.32 L 467.11 318.23 L 469.56 312.35 L 470.74 309.39 L 471.76 306.18 L 472.45 302.78 L 472.72 298.78 L 472.54 296.06 L 472.13 293.84 L 471.04 290.53 L 470.45 289.31 L 451.19 288.67 L 450.95 292.19 L 450.84 301.33 L 451.08 307.17 L 451.71 313.94 L 452.79 320.85 L 454.47 327.90 L 455.25 329.85 L 456.84 332.70 L 461.15 339.24 L 466.28 346.59 L 471.14 353.83 L 473.19 357.24 L 474.61 360.02 L 475.34 361.89 L 475.62 363.26 L 475.59 364.25 L 475.03 366.31 L 474.36 368.21 L 473.01 371.24 L 472.38 372.44 L 474.81 372.54 L 476.13 371.40 L 479.03 368.80 L 481.89 365.98 L 482.90 364.73 L 483.11 364.17 L 482.34 362.31 L 480.90 359.64 L 479.49 356.95 Z" fill="#f1b282" fill-rule="nonzero" group-id="8" id="Path" node-id="66" stroke="none" target-height="83.869995" target-width="32.26999" target-x="450.84" target-y="288.67"></path><path d="M 465.29 231.09 L 464.56 231.56 L 464.07 232.32 L 463.54 234.14 L 463.12 235.56 L 462.21 237.01 L 461.84 237.77 L 461.74 238.33 L 461.88 238.61 L 462.22 238.86 L 463.05 239.46 L 463.32 239.92 L 463.41 240.66 L 463.36 241.96 L 463.60 243.23 L 463.97 243.93 L 464.67 244.50 L 465.81 244.93 L 466.89 245.36 L 467.50 245.97 L 467.85 246.79 L 468.00 247.77 L 468.05 249.91 L 468.19 251.37 L 468.41 252.11 L 468.79 252.55 L 469.35 252.65 L 471.36 252.14 L 472.97 251.44 L 475.01 250.17 L 476.04 249.21 L 477.11 247.80 L 478.03 246.20 L 478.72 244.53 L 479.13 242.84 L 479.13 241.46 L 478.60 238.95 L 477.86 236.77 L 476.94 234.89 L 475.72 233.26 L 474.20 232.05 L 472.33 231.23 L 469.51 230.63 L 467.83 230.55 L 466.39 230.76 L 465.29 231.09 Z" fill="#f1b282" fill-rule="nonzero" group-id="8" id="Path" node-id="67" stroke="none" target-height="22.09999" target-width="17.390015" target-x="461.74" target-y="230.55"></path><path d="M 482.45 362.84 L 482.90 362.89 L 483.45 363.51 L 483.87 364.43 L 484.19 365.58 L 484.33 366.74 L 484.22 367.66 L 483.19 368.31 L 481.24 369.53 L 480.19 370.19 L 479.59 369.11 L 478.78 370.08 L 476.89 372.10 L 475.75 373.10 L 474.73 373.81 L 472.00 375.17 L 470.99 375.49 L 470.69 375.42 L 470.70 375.07 L 471.00 374.27 L 471.94 372.56 L 472.82 371.51 L 473.51 371.32 L 474.33 371.32 L 475.13 371.33 L 475.73 371.17 L 476.95 369.74 L 479.05 366.99 L 481.16 364.25 L 482.45 362.84 Z" fill="#0b224e" fill-rule="nonzero" group-id="8" id="Path" node-id="68" stroke="none" target-height="12.649994" target-width="13.639984" target-x="470.69" target-y="362.84"></path><path d="M 471.36 287.18 L 471.58 289.03 L 472.11 290.72 L 473.39 294.65 L 473.78 297.15 L 473.80 300.88 L 473.44 303.98 L 472.76 307.37 L 471.85 310.74 L 470.82 313.91 L 469.66 316.89 L 468.61 319.18 L 467.50 321.09 L 466.79 321.86 L 465.86 322.14 L 463.33 322.42 L 456.69 322.59 L 449.07 322.41 L 442.67 321.89 L 440.36 321.43 L 439.71 321.06 L 439.43 319.71 L 439.67 317.15 L 440.31 314.31 L 441.36 310.73 L 444.13 303.16 L 447.27 295.80 L 450.13 290.02 L 451.38 287.95 L 452.02 287.19 L 452.98 286.78 L 454.94 286.49 L 459.85 286.40 L 465.24 286.66 L 469.58 287.01 L 471.36 287.18 Z" fill="#0b224e" fill-rule="nonzero" group-id="8" id="Path" node-id="69" stroke="none" target-height="36.190002" target-width="34.369995" target-x="439.43" target-y="286.4"></path><path d="M 471.36 287.18 L 471.73 284.09 L 472.68 281.21 L 475.57 275.32 L 477.09 272.08 L 478.48 268.20 L 479.17 265.49 L 479.63 262.29 L 479.84 258.54 L 479.59 255.91 L 478.98 253.87 L 478.07 252.29 L 476.84 251.08 L 474.78 249.91 L 472.16 249.18 L 468.84 248.94 L 467.09 249.31 L 464.80 250.47 L 462.54 252.09 L 460.26 254.08 L 458.16 256.25 L 456.55 258.26 L 455.35 260.24 L 455.01 261.49 L 455.13 263.03 L 455.46 264.74 L 456.30 268.22 L 456.63 269.95 L 456.76 271.54 L 456.40 274.34 L 455.49 277.15 L 453.12 282.48 L 452.19 285.01 L 451.85 287.18 L 471.36 287.18 L 471.36 287.18 Z" fill="#2ccd7f" fill-rule="nonzero" group-id="8" id="Path" node-id="70" stroke="none" target-height="38.23999" target-width="27.98999" target-x="451.85" target-y="248.94"></path><path d="M 473.45 260.73 L 473.20 262.56 L 472.79 264.44 L 471.96 267.16 L 470.80 269.99 L 469.03 273.23 L 466.76 276.34 L 463.68 279.47 L 461.32 281.31 L 458.51 283.02 L 455.18 284.58 L 453.42 285.45 L 451.93 286.20 L 452.37 284.42 L 453.14 282.43 L 455.02 278.28 L 468.84 269.31 L 469.69 267.84 L 471.57 264.46 L 473.45 260.73 Z" fill="#1eaf69" fill-rule="nonzero" group-id="8" id="Path" node-id="71" stroke="none" target-height="25.470001" target-width="21.52002" target-x="451.93" target-y="260.73"></path><path d="M 468.84 269.31 L 467.80 270.61 L 465.12 273.67 L 461.43 277.29 L 459.37 278.95 L 457.37 280.24 L 451.95 282.93 L 447.40 284.77 L 443.14 286.16 L 440.27 286.92 L 437.55 287.46 L 435.97 287.74 L 432.39 288.02 L 430.36 287.90 L 428.53 287.48 L 427.44 286.98 L 426.65 286.26 L 426.10 285.32 L 426.07 284.81 L 426.51 284.73 L 428.77 285.09 L 430.45 285.18 L 432.81 284.97 L 433.38 284.71 L 433.45 284.39 L 432.85 283.48 L 432.04 282.48 L 431.98 281.90 L 432.59 281.65 L 433.57 281.83 L 435.23 282.73 L 436.06 283.05 L 437.30 283.09 L 439.17 282.70 L 442.00 281.64 L 445.61 279.79 L 449.25 277.48 L 453.17 274.56 L 456.60 271.45 L 458.89 268.88 L 460.69 266.37 L 461.65 264.69 L 462.37 263.06 L 463.51 264.30 L 466.08 266.93 L 468.84 269.31 Z" fill="#f1b282" fill-rule="nonzero" group-id="8" id="Path" node-id="72" stroke="none" target-height="24.959991" target-width="42.76999" target-x="426.07" target-y="263.06"></path><path d="M 464.85 231.95 L 464.06 231.78 L 463.35 231.48 L 462.59 230.90 L 462.05 230.06 L 461.80 228.71 L 462.04 227.41 L 462.69 226.21 L 463.81 225.05 L 465.93 223.72 L 468.61 222.81 L 470.53 222.52 L 472.43 222.52 L 474.34 222.83 L 476.14 223.47 L 477.72 224.50 L 479.13 225.95 L 480.78 228.53 L 482.06 231.22 L 484.15 236.71 L 485.21 239.37 L 486.44 241.82 L 487.98 244.03 L 489.98 245.94 L 491.24 247.25 L 492.00 248.71 L 492.32 250.38 L 492.24 252.12 L 491.85 253.90 L 491.11 255.72 L 489.55 258.20 L 487.58 260.24 L 486.04 261.30 L 484.51 261.94 L 482.95 262.21 L 480.58 261.98 L 478.29 261.23 L 476.18 260.03 L 474.38 258.50 L 472.95 256.66 L 472.04 254.70 L 471.74 253.30 L 471.75 251.92 L 472.08 250.51 L 473.53 246.18 L 474.50 242.13 L 474.61 240.42 L 474.41 239.37 L 474.07 238.92 L 473.54 238.75 L 472.69 238.90 L 471.86 239.03 L 471.23 238.84 L 470.74 238.34 L 470.15 237.28 L 469.56 235.83 L 468.89 234.38 L 467.98 233.11 L 467.21 232.48 L 466.20 232.08 L 464.85 231.95 Z" fill="#0b224e" fill-rule="nonzero" group-id="8" id="Path" node-id="73" stroke="none" target-height="39.689987" target-width="30.52002" target-x="461.8" target-y="222.52"></path><path d="M 469.86 244.47 L 469.39 245.26 L 468.81 245.99 L 467.86 246.86 L 467.40 245.83 L 466.40 245.11 L 467.75 245.11 L 468.66 244.92 L 469.86 244.47 Z" fill="#cd916a" fill-rule="nonzero" group-id="8" id="Path" node-id="74" stroke="none" target-height="2.3899994" target-width="3.4599915" target-x="466.4" target-y="244.47"></path></g><g node-id="119"><g node-id="121"><path d="M 220.46 110.92 L 227.00 111.15 L 233.12 111.76 L 238.85 112.73 L 244.51 114.11 L 249.53 115.75 L 253.98 117.63 L 218.93 135.11 L 218.93 110.95 L 220.46 110.92 Z" fill="#1b90fb" fill-rule="nonzero" group-id="9,11" id="Path" node-id="77" stroke="none" target-height="24.190002" target-width="35.050003" target-x="218.93" target-y="110.92"></path><path d="M 253.98 117.63 L 253.98 129.78 L 218.93 147.26 L 218.93 135.11 Z" fill="#1277d7" fill-rule="nonzero" group-id="9,11" id="Path" node-id="78" stroke="none" target-height="29.629997" target-width="35.050003" target-x="218.93" target-y="117.63"></path></g><g node-id="122"><path d="M 218.93 123.04 L 218.93 147.23 L 185.45 163.95 L 181.41 161.55 L 178.18 159.04 L 175.64 156.41 L 174.05 154.16 L 172.95 151.90 L 172.28 149.60 L 172.04 147.23 L 172.28 144.84 L 172.95 142.54 L 174.05 140.28 L 175.64 138.04 L 178.19 135.41 L 181.43 132.89 L 185.48 130.48 L 189.84 128.47 L 194.81 126.69 L 200.45 125.18 L 206.18 124.09 L 212.33 123.37 L 218.93 123.04 Z" fill="#ffd255" fill-rule="nonzero" group-id="9,12" id="Path" node-id="80" stroke="none" target-height="40.909996" target-width="46.89" target-x="172.04" target-y="123.04"></path><path d="M 218.93 147.23 L 218.93 159.38 L 185.45 176.11 L 185.45 163.95 Z" fill="#ffbc00" fill-rule="nonzero" group-id="9,12" id="Path" node-id="81" stroke="none" target-height="28.880005" target-width="33.479996" target-x="185.45" target-y="147.23"></path><path d="M 172.97 151.98 L 172.28 149.63 L 172.04 147.23 L 172.04 147.23 L 172.04 159.38 L 172.28 161.76 L 172.95 164.06 L 174.05 166.32 L 175.64 168.56 L 178.18 171.19 L 181.41 173.71 L 185.45 176.11 L 185.45 163.95 L 182.40 162.20 L 179.79 160.37 L 177.57 158.47 L 175.59 156.34 L 174.07 154.18 L 172.97 151.98 Z" fill="#ffc31b" fill-rule="nonzero" group-id="9,12" id="Path" node-id="82" stroke="none" target-height="28.880005" target-width="13.410004" target-x="172.04" target-y="147.23"></path></g><g node-id="123"><path d="M 257.01 131.67 L 261.50 134.15 L 265.09 136.77 L 267.92 139.51 L 269.70 141.87 L 270.93 144.25 L 271.67 146.67 L 271.94 149.18 L 271.67 151.67 L 270.93 154.09 L 269.70 156.46 L 267.92 158.83 L 265.09 161.57 L 261.50 164.18 L 257.01 166.65 L 222.00 149.18 L 257.01 131.67 Z" fill="#dae7ff" fill-rule="nonzero" group-id="9,13" id="Path" node-id="84" stroke="none" target-height="34.979996" target-width="49.940002" target-x="222" target-y="131.67"></path><path d="M 257.01 166.65 L 257.01 166.65 L 257.01 178.81 L 260.61 176.88 L 264.09 174.52 L 266.25 172.71 L 268.10 170.76 L 269.67 168.66 L 270.90 166.37 L 271.65 163.94 L 271.94 161.33 L 271.94 149.18 L 271.65 151.80 L 270.90 154.23 L 269.67 156.52 L 268.09 158.62 L 266.24 160.57 L 264.09 162.37 L 260.60 164.72 L 257.01 166.65 Z" fill="#aec1e8" fill-rule="nonzero" group-id="9,13" id="Path" node-id="85" stroke="none" target-height="29.630005" target-width="14.929993" target-x="257.01" target-y="149.18"></path><path d="M 257.01 166.65 L 257.01 178.81 L 222.00 161.33 L 222.00 149.18 Z" fill="#c3d3f3" fill-rule="nonzero" group-id="9,13" id="Path" node-id="86" stroke="none" target-height="29.630005" target-width="35.01001" target-x="222" target-y="149.18"></path><path d="M 252.86 151.85 L 252.97 150.49 L 253.19 149.57 L 253.62 148.74 L 254.43 147.71 L 256.02 146.07 L 256.80 144.85 L 257.04 143.60 L 256.86 142.43 L 256.37 141.60 L 255.59 141.08 L 254.43 140.88 L 253.29 141.06 L 252.44 141.54 L 251.88 142.30 L 251.69 143.30 L 249.44 143.30 L 249.61 142.05 L 250.08 141.01 L 250.84 140.12 L 251.82 139.47 L 253.00 139.06 L 254.43 138.91 L 255.91 139.06 L 257.08 139.48 L 258.01 140.15 L 258.70 141.04 L 259.14 142.15 L 259.29 143.52 L 259.09 144.87 L 258.46 146.25 L 257.32 147.71 L 256.00 149.02 L 255.35 150.16 L 255.11 151.85 L 252.86 151.85 L 252.86 151.85 Z M 252.77 155.71 L 252.85 155.20 L 253.10 154.79 L 253.50 154.51 L 254.09 154.41 L 254.68 154.51 L 255.09 154.79 L 255.34 155.20 L 255.43 155.71 L 255.34 156.22 L 255.09 156.63 L 254.69 156.89 L 254.09 156.99 L 253.50 156.89 L 253.10 156.63 L 252.85 156.22 L 252.77 155.71 Z" fill="#7266d5" fill-rule="nonzero" group-id="9,13" id="Shape" node-id="87" stroke="none" target-height="18.080002" target-width="9.850006" target-x="249.44" target-y="138.91"></path></g><g node-id="124"><path d="M 219.94 156.73 L 254.99 174.21 L 250.54 176.10 L 245.52 177.74 L 239.86 179.12 L 234.13 180.09 L 228.01 180.69 L 221.47 180.92 L 219.98 180.89 L 213.38 180.57 L 207.24 179.86 L 201.50 178.77 L 195.86 177.26 L 190.86 175.48 L 186.46 173.45 L 219.94 156.73 Z" fill="#7ce3b0" fill-rule="nonzero" group-id="9,14" id="Path" node-id="89" stroke="none" target-height="24.190002" target-width="68.53" target-x="186.46" target-y="156.73"></path><path d="M 221.47 180.92 L 219.98 180.89 L 213.38 180.57 L 207.24 179.86 L 201.50 178.77 L 195.86 177.26 L 190.86 175.48 L 186.46 173.45 L 186.46 185.61 L 190.86 187.64 L 195.86 189.41 L 201.50 190.93 L 207.24 192.01 L 213.38 192.72 L 219.98 193.04 L 221.47 193.07 L 228.73 192.80 L 235.52 192.04 L 242.06 190.79 L 247.92 189.16 L 251.64 187.83 L 254.99 186.36 L 254.99 174.21 L 250.54 176.10 L 245.52 177.74 L 239.86 179.12 L 234.13 180.09 L 228.01 180.69 L 221.47 180.92 Z" fill="#2ccd7f" fill-rule="nonzero" group-id="9,14" id="Path" node-id="90" stroke="none" target-height="19.62001" target-width="68.53" target-x="186.46" target-y="173.45"></path></g></g><g node-id="120"><path d="M 260.68 219.40 L 260.14 220.99 L 260.00 222.07 L 259.90 223.78 L 259.19 225.66 L 258.64 227.50 L 258.77 228.06 L 259.10 228.50 L 259.47 228.96 L 259.75 229.70 L 259.75 231.64 L 259.80 232.66 L 260.13 233.63 L 260.63 234.12 L 261.35 234.47 L 262.83 234.95 L 263.33 235.29 L 263.46 235.76 L 262.89 237.74 L 262.01 240.17 L 261.55 241.35 L 272.95 241.54 L 272.86 239.78 L 272.79 236.00 L 272.88 233.98 L 273.08 232.48 L 273.58 229.40 L 273.93 225.14 L 273.93 222.96 L 273.74 221.15 L 273.26 219.64 L 272.58 218.91 L 271.53 218.52 L 269.87 218.16 L 266.15 217.83 L 264.26 217.90 L 262.67 218.16 L 261.35 218.69 L 260.68 219.40 Z" fill="#f1b282" fill-rule="nonzero" group-id="10" id="Path" node-id="92" stroke="none" target-height="23.709991" target-width="15.289978" target-x="258.64" target-y="217.83"></path><path d="M 266.95 214.36 L 271.42 214.73 L 274.48 215.46 L 276.24 216.28 L 277.56 217.33 L 278.52 218.61 L 279.15 220.11 L 279.55 222.03 L 279.66 224.47 L 279.44 226.75 L 278.86 229.17 L 277.96 231.44 L 276.84 233.26 L 275.90 234.23 L 274.95 234.79 L 273.95 234.99 L 271.12 234.87 L 268.12 234.42 L 266.90 233.97 L 266.29 233.46 L 265.61 231.88 L 265.33 230.22 L 265.29 227.09 L 265.16 225.76 L 264.75 224.90 L 263.99 224.26 L 263.08 223.78 L 261.20 222.77 L 260.41 222.01 L 259.76 220.83 L 259.42 219.34 L 259.41 216.92 L 259.83 214.61 L 260.39 213.55 L 261.21 213.01 L 262.21 212.98 L 264.52 213.73 L 265.76 214.15 L 266.95 214.36 Z" fill="#0b224e" fill-rule="nonzero" group-id="10" id="Path" node-id="93" stroke="none" target-height="22.01001" target-width="20.25" target-x="259.41" target-y="212.98"></path><path d="M 256.64 367.17 L 256.64 371.39 L 250.27 371.39 L 250.27 365.37 Z" fill="#f1b282" fill-rule="nonzero" group-id="10" id="Path" node-id="94" stroke="none" target-height="6.0200195" target-width="6.3700104" target-x="250.27" target-y="365.37"></path><path d="M 278.58 367.34 L 278.58 372.33 L 285.05 372.33 L 285.05 366.21 Z" fill="#f1b282" fill-rule="nonzero" group-id="10" id="Path" node-id="95" stroke="none" target-height="6.119995" target-width="6.470001" target-x="278.58" target-y="366.21"></path><path d="M 282.36 290.50 L 282.57 293.32 L 283.07 300.33 L 283.71 309.34 L 284.30 318.19 L 284.68 324.68 L 284.83 330.42 L 284.93 338.85 L 285.00 348.32 L 285.04 357.15 L 285.05 363.67 L 285.05 366.21 L 278.30 366.27 L 277.80 363.90 L 276.62 357.78 L 275.23 349.41 L 274.12 340.28 L 273.80 335.81 L 273.74 331.90 L 272.13 326.35 L 269.63 317.26 L 266.95 306.90 L 264.79 297.58 L 264.08 293.73 L 263.86 291.57 L 264.05 290.48 L 264.57 289.59 L 265.46 288.88 L 267.17 288.16 L 269.46 287.75 L 271.92 287.67 L 274.53 287.86 L 277.08 288.29 L 279.28 288.89 L 281.22 289.70 L 282.36 290.50 Z" fill="#0b224e" fill-rule="nonzero" group-id="10" id="Path" node-id="96" stroke="none" target-height="78.599976" target-width="21.190002" target-x="263.86" target-y="287.67"></path><path d="M 252.25 290.50 L 251.96 293.35 L 251.25 300.45 L 250.36 309.58 L 249.56 318.51 L 249.10 325.04 L 249.05 330.75 L 249.20 339.12 L 249.46 348.50 L 249.76 357.24 L 250.00 363.69 L 250.10 366.21 L 257.09 366.69 L 257.64 363.58 L 258.88 355.49 L 260.18 344.26 L 260.65 338.06 L 260.90 331.72 L 262.66 326.15 L 265.51 317.00 L 268.60 306.59 L 271.10 297.21 L 271.92 293.34 L 272.17 291.18 L 271.96 290.10 L 271.40 289.23 L 270.43 288.53 L 268.58 287.85 L 266.07 287.49 L 263.40 287.47 L 260.59 287.72 L 257.84 288.21 L 255.48 288.84 L 253.42 289.69 L 252.25 290.50 Z" fill="#102b5e" fill-rule="nonzero" group-id="10" id="Path" node-id="97" stroke="none" target-height="79.22" target-width="23.12001" target-x="249.05" target-y="287.47"></path><path d="M 284.12 258.31 L 284.93 259.42 L 286.64 262.26 L 287.48 264.07 L 288.14 266.07 L 288.48 268.12 L 288.35 270.11 L 287.75 272.17 L 286.67 274.80 L 283.88 280.23 L 281.00 285.12 L 279.01 288.19 L 278.69 289.00 L 278.68 289.74 L 278.98 290.49 L 279.75 291.50 L 280.63 292.30 L 281.67 293.04 L 283.11 291.16 L 286.61 286.46 L 290.97 280.40 L 294.98 274.42 L 296.57 271.74 L 297.45 269.95 L 297.76 268.19 L 297.49 265.86 L 296.79 263.42 L 295.74 260.78 L 293.21 255.80 L 290.94 252.01 L 289.95 250.50 L 284.12 258.31 Z" fill="#f1b282" fill-rule="nonzero" group-id="10" id="Path" node-id="98" stroke="none" target-height="42.54001" target-width="19.080017" target-x="278.68" target-y="250.5"></path><path d="M 249.85 236.08 L 248.87 235.81 L 247.88 235.36 L 246.46 234.44 L 245.05 233.18 L 243.44 231.17 L 242.02 228.72 L 240.61 225.18 L 239.50 221.26 L 238.60 217.13 L 237.90 212.98 L 237.43 209.10 L 237.16 205.37 L 237.10 202.40 L 237.27 199.77 L 237.59 198.37 L 238.24 195.97 L 238.37 193.73 L 238.15 191.56 L 237.74 189.73 L 236.92 186.96 L 236.31 185.44 L 235.89 184.80 L 235.55 184.49 L 235.25 184.49 L 234.99 185.03 L 234.94 187.35 L 235.32 190.32 L 235.22 190.85 L 234.72 191.32 L 233.14 192.14 L 231.63 193.12 L 231.24 193.77 L 231.25 194.62 L 231.95 196.42 L 232.51 197.45 L 232.81 198.76 L 232.78 201.78 L 232.65 207.63 L 232.58 214.65 L 232.74 221.21 L 232.98 223.98 L 233.29 225.67 L 234.89 230.42 L 237.41 236.37 L 238.90 239.33 L 240.38 241.84 L 241.99 244.00 L 243.33 245.18 L 244.24 245.46 L 245.07 245.32 L 245.91 244.71 L 246.99 243.35 L 247.98 241.48 L 249.35 237.82 L 249.85 236.08 Z" fill="#f1b282" fill-rule="nonzero" group-id="10" id="Path" node-id="99" stroke="none" target-height="60.97" target-width="18.61" target-x="231.24" target-y="184.49"></path><path d="M 265.20 239.91 L 268.74 239.84 L 271.24 239.89 L 274.24 240.13 L 277.28 240.60 L 280.31 241.42 L 283.14 242.67 L 285.56 244.40 L 289.47 248.42 L 291.73 251.31 L 293.34 253.92 L 293.81 254.99 L 293.67 255.47 L 292.81 256.50 L 290.16 258.70 L 288.58 259.74 L 287.16 260.48 L 285.83 260.88 L 285.11 260.73 L 283.69 259.35 L 282.31 258.01 L 281.55 257.58 L 280.72 257.41 L 280.22 257.74 L 279.83 259.02 L 279.69 260.67 L 279.68 262.93 L 280.01 267.79 L 280.54 272.22 L 281.58 277.36 L 282.93 283.88 L 283.43 287.12 L 283.59 289.70 L 283.44 291.31 L 283.06 292.26 L 282.51 292.77 L 280.76 293.19 L 278.15 293.30 L 272.37 293.08 L 269.44 293.13 L 267.00 293.49 L 264.56 294.02 L 261.71 294.44 L 258.83 294.60 L 256.20 294.43 L 254.54 294.05 L 253.26 293.47 L 252.29 292.68 L 251.84 291.88 L 251.56 290.76 L 251.52 289.22 L 251.75 286.80 L 252.26 283.86 L 253.49 277.74 L 253.97 274.67 L 254.18 271.95 L 254.12 266.15 L 253.94 263.04 L 253.59 260.00 L 253.03 257.09 L 252.26 254.65 L 251.54 253.16 L 250.71 252.04 L 249.78 251.22 L 247.60 249.96 L 245.49 248.93 L 241.89 247.11 L 240.72 246.07 L 240.28 244.94 L 240.50 243.85 L 241.38 242.16 L 242.60 240.44 L 244.11 238.65 L 245.75 237.00 L 247.21 235.79 L 248.64 235.00 L 249.42 234.98 L 251.65 236.59 L 254.56 238.66 L 256.20 239.42 L 257.85 239.73 L 262.06 239.86 L 265.20 239.91 Z" fill="#ffcb01" fill-rule="nonzero" group-id="10" id="Path" node-id="100" stroke="none" target-height="59.62001" target-width="53.53" target-x="240.28" target-y="234.98"></path><path d="M 248.54 366.52 L 248.93 367.23 L 249.50 367.65 L 250.98 368.03 L 252.45 368.22 L 254.56 368.53 L 257.14 368.58 L 258.13 368.32 L 258.48 367.88 L 258.48 366.99 L 258.32 366.22 L 258.09 364.77 L 258.56 363.24 L 258.61 362.51 L 258.17 361.89 L 257.28 361.58 L 256.20 361.60 L 254.07 361.88 L 252.50 361.54 L 250.49 360.99 L 249.62 360.89 L 249.26 361.02 L 249.11 361.53 L 249.16 362.20 L 249.27 363.48 L 248.67 364.92 L 248.45 365.62 L 248.54 366.52 Z" fill="#355aa2" fill-rule="nonzero" group-id="10" id="Path" node-id="101" stroke="none" target-height="7.689972" target-width="10.159988" target-x="248.45" target-y="360.89"></path><path d="M 286.26 367.42 L 285.82 368.10 L 285.23 368.49 L 283.74 368.80 L 282.26 368.91 L 280.13 369.11 L 277.56 369.02 L 276.58 368.71 L 276.25 368.25 L 276.30 367.36 L 276.50 366.60 L 276.80 365.17 L 276.42 363.62 L 276.40 362.89 L 276.88 362.29 L 277.78 362.03 L 278.86 362.10 L 280.98 362.49 L 282.56 362.23 L 284.60 361.79 L 285.47 361.73 L 285.82 361.89 L 285.94 362.40 L 285.86 363.07 L 285.68 364.34 L 286.21 365.81 L 286.39 366.52 L 286.26 367.42 Z" fill="#355aa2" fill-rule="nonzero" group-id="10" id="Path" node-id="102" stroke="none" target-height="7.3799744" target-width="10.140015" target-x="276.25" target-y="361.73"></path><path d="M 257.52 370.57 L 257.03 370.30 L 256.44 370.31 L 255.07 370.77 L 253.53 371.11 L 252.45 370.93 L 251.62 370.57 L 250.27 369.98 L 249.91 370.08 L 249.53 370.46 L 248.66 371.60 L 248.08 372.19 L 247.30 372.71 L 245.95 373.25 L 245.19 373.66 L 244.51 374.29 L 244.04 375.13 L 243.84 376.48 L 244.18 376.66 L 245.92 376.87 L 250.52 377.00 L 255.20 376.94 L 257.53 376.79 L 257.84 376.33 L 258.09 375.17 L 258.10 372.48 L 257.86 371.23 L 257.52 370.57 Z" fill="#102b5e" fill-rule="nonzero" group-id="10" id="Path" node-id="103" stroke="none" target-height="7.019989" target-width="14.26001" target-x="243.84" target-y="369.98"></path><path d="M 285.86 370.57 L 285.37 370.30 L 284.78 370.31 L 283.40 370.77 L 281.86 371.11 L 280.78 370.93 L 279.96 370.57 L 278.61 369.98 L 278.24 370.08 L 277.86 370.46 L 276.99 371.60 L 276.41 372.18 L 275.64 372.71 L 274.28 373.25 L 273.53 373.66 L 272.84 374.29 L 272.37 375.13 L 272.17 376.48 L 272.51 376.66 L 274.25 376.87 L 278.85 377.00 L 283.54 376.94 L 285.86 376.79 L 286.17 376.33 L 286.42 375.17 L 286.43 372.48 L 286.19 371.23 L 285.86 370.57 Z" fill="#102b5e" fill-rule="nonzero" group-id="10" id="Path" node-id="104" stroke="none" target-height="7.019989" target-width="14.259979" target-x="272.17" target-y="369.98"></path></g></svg>