<?xml version="1.0" standalone="no"?><!DOCTYPE svg PUBLIC "-//W3C//DTD SVG 1.1//EN" "http://www.w3.org/Graphics/SVG/1.1/DTD/svg11.dtd"><svg height="400" node-id="1" sillyvg="true" template-height="400" template-width="600" version="1.1" viewBox="0 0 600 400" width="600" xmlns="http://www.w3.org/2000/svg" xmlns:xlink="http://www.w3.org/1999/xlink"><defs node-id="94"></defs><path d="M 0.00 0.00 L 600.00 0.00 L 600.00 400.00 L 0.00 400.00 Z" fill="#ffffff" fill-opacity="0" fill-rule="nonzero" node-id="97" stroke="none" target-height="400" target-width="600" target-x="0" target-y="0"></path><g node-id="142"><g node-id="147"><path d="M 540.20 297.02 L 535.62 298.71 L 530.91 300.10 L 526.05 301.19 L 524.63 301.45 L 519.24 302.21 L 519.22 302.22 L 517.65 302.36 L 510.79 302.64 L 504.25 302.30 L 499.95 301.71 L 495.96 300.86 L 492.25 299.74 L 488.67 298.29 L 485.52 296.59 L 482.76 294.64 L 480.32 292.35 L 478.37 289.79 L 476.89 286.95 L 476.88 286.93 L 476.49 285.79 L 475.77 282.79 L 475.53 279.69 L 475.79 276.43 L 476.48 273.21 L 477.59 269.90 L 479.14 266.48 L 480.99 263.20 L 483.18 259.91 L 485.76 256.60 L 485.78 256.59 L 487.14 254.96 L 487.16 254.95 L 490.60 251.37 L 494.40 247.91 L 498.45 244.69 L 502.76 241.71 L 503.97 240.94 L 503.99 240.93 L 509.37 237.87 L 514.91 235.31 L 518.84 233.85 L 522.53 232.74 L 523.71 232.46 L 526.50 231.87 L 529.19 231.48 L 530.37 231.38 L 534.72 231.24 L 538.72 231.53 L 542.41 232.22 L 545.83 233.28 L 549.01 234.72 L 550.13 235.33 L 553.04 237.23 L 555.68 239.43 L 558.09 241.95 L 560.20 244.72 L 562.05 247.76 L 563.63 251.08 L 564.06 252.20 L 565.28 255.98 L 566.05 259.72 L 566.37 263.46 L 566.24 267.19 L 565.64 270.87 L 564.56 274.50 L 564.10 275.68 L 562.64 278.74 L 560.77 281.72 L 558.45 284.64 L 555.66 287.51 L 554.76 288.31 L 551.50 290.88 L 547.67 293.35 L 546.63 293.95 L 543.57 295.52 L 540.20 297.02 Z" fill="#ffcb01" fill-rule="nonzero" group-id="1,6" id="Path" node-id="8" stroke="none" target-height="71.40001" target-width="90.84" target-x="475.53" target-y="231.24"></path><path d="M 546.89 260.81 L 564.10 275.68 L 564.55 274.50 L 548.06 260.26 L 557.65 255.53 L 564.06 252.20 L 563.63 251.08 L 557.45 254.32 L 548.15 258.93 L 548.15 258.93 L 550.12 235.33 L 549.01 234.72 L 546.92 259.51 L 546.92 259.51 L 539.55 262.94 L 530.83 266.79 L 530.37 231.38 L 529.19 231.48 L 529.66 267.29 L 525.06 269.25 L 523.71 232.47 L 522.53 232.75 L 523.89 269.74 L 513.54 273.85 L 502.24 277.95 L 503.97 240.94 L 502.76 241.71 L 501.04 278.37 L 501.04 278.37 L 492.53 281.19 L 483.76 283.80 L 482.54 284.15 L 476.49 285.79 L 476.88 286.93 L 486.10 284.39 L 495.14 281.60 L 517.65 302.36 L 519.22 302.22 L 496.41 281.18 L 496.41 281.18 L 496.41 281.18 L 501.43 279.48 L 501.45 279.47 L 501.45 279.47 L 524.64 301.45 L 526.05 301.20 L 502.70 279.06 L 502.70 279.06 L 513.96 274.95 L 524.31 270.83 L 524.33 270.82 L 546.63 293.95 L 547.67 293.35 L 525.51 270.34 L 525.49 270.35 L 525.49 270.35 L 525.51 270.34 L 530.13 268.37 L 554.76 288.31 L 555.66 287.51 L 531.34 267.85 L 539.74 264.14 L 546.89 260.81 L 546.89 260.81 Z" fill="#ffffff" fill-rule="nonzero" group-id="1,6" id="Path" node-id="9" stroke="none" target-height="70.97998" target-width="88.06" target-x="476.49" target-y="231.38"></path></g><g node-id="148"><path d="M 532.94 246.76 L 532.43 247.73 L 530.46 251.19 L 528.30 254.64 L 527.71 255.53 L 524.32 260.32 L 520.71 264.84 L 516.88 269.11 L 516.04 269.97 L 512.20 273.63 L 508.35 276.79 L 504.49 279.48 L 500.41 281.78 L 496.50 283.39 L 492.71 284.38 L 489.81 284.71 L 487.03 284.58 L 484.34 284.02 L 481.71 283.00 L 481.30 282.81 L 480.73 282.48 L 478.32 280.79 L 476.12 278.70 L 474.09 276.17 L 472.26 273.15 L 470.31 268.90 L 468.74 264.14 L 467.55 258.80 L 466.84 253.36 L 466.56 247.73 L 466.70 241.89 L 466.80 240.50 L 467.45 234.97 L 468.51 229.56 L 469.99 224.29 L 471.87 219.32 L 472.34 218.25 L 473.61 215.63 L 474.84 213.48 L 475.40 212.57 L 477.91 209.03 L 480.54 206.07 L 483.28 203.64 L 486.28 201.54 L 489.36 199.89 L 492.52 198.65 L 493.63 198.29 L 498.23 197.33 L 502.86 196.99 L 507.57 197.29 L 512.23 198.13 L 516.76 199.45 L 521.19 201.24 L 522.16 201.68 L 523.78 202.52 L 527.24 204.53 L 530.20 206.66 L 532.70 208.89 L 534.78 211.23 L 536.55 213.84 L 537.89 216.63 L 538.82 219.63 L 539.33 222.87 L 539.40 223.95 L 539.31 227.64 L 538.69 231.73 L 538.45 232.77 L 537.24 236.93 L 535.44 241.58 L 532.94 246.76 Z" fill="#1b90fb" fill-rule="nonzero" group-id="1,7" id="Path" node-id="11" stroke="none" target-height="87.719986" target-width="72.84003" target-x="466.56" target-y="196.99"></path><path d="M 511.10 219.09 L 539.40 223.95 L 539.33 222.87 L 511.70 218.13 L 517.67 208.58 L 522.16 201.68 L 521.19 201.24 L 516.69 208.15 L 510.75 217.65 L 493.64 198.29 L 492.52 198.65 L 510.19 218.59 L 504.32 228.56 L 498.27 239.55 L 475.40 212.56 L 474.84 213.48 L 497.75 240.53 L 495.41 245.03 L 472.35 218.25 L 471.87 219.32 L 494.90 246.03 L 491.09 253.98 L 487.60 261.90 L 466.80 240.50 L 466.70 241.89 L 487.16 262.95 L 485.17 268.04 L 483.43 272.96 L 481.92 277.86 L 480.74 282.48 L 481.30 282.80 L 481.72 283.00 L 482.87 278.38 L 484.36 273.47 L 486.10 268.53 L 488.10 263.42 L 516.04 269.97 L 516.88 269.11 L 488.49 262.45 L 491.98 254.52 L 495.83 246.52 L 527.71 255.53 L 528.30 254.64 L 496.31 245.57 L 498.65 241.05 L 532.43 247.72 L 532.94 246.76 L 499.17 240.07 L 503.20 232.67 L 507.13 225.78 L 538.45 232.76 L 538.69 231.73 L 507.69 224.82 L 511.10 219.09 Z" fill="#ffffff" fill-rule="nonzero" group-id="1,7" id="Path" node-id="12" stroke="none" target-height="84.71001" target-width="72.70001" target-x="466.7" target-y="198.29"></path></g><g node-id="149"><path d="M 523.18 340.08 L 518.76 341.61 L 514.25 342.67 L 509.66 343.29 L 505.08 343.46 L 503.56 343.44 L 498.98 343.07 L 494.54 342.29 L 494.52 342.30 L 492.69 341.85 L 489.01 340.72 L 485.55 339.33 L 482.30 337.69 L 479.21 335.76 L 476.42 333.62 L 473.93 331.26 L 471.72 328.65 L 469.90 325.85 L 468.44 322.84 L 467.95 321.50 L 467.60 320.32 L 466.91 317.03 L 466.68 313.75 L 466.89 310.46 L 467.52 307.22 L 468.53 303.99 L 469.95 300.77 L 471.68 297.69 L 473.75 294.69 L 476.17 291.74 L 476.19 291.73 L 477.38 290.42 L 477.41 290.41 L 481.09 286.92 L 485.22 283.69 L 489.67 280.81 L 494.48 278.28 L 495.69 277.74 L 497.57 276.92 L 503.00 275.03 L 508.20 273.81 L 509.39 273.59 L 513.83 273.11 L 518.01 273.10 L 521.98 273.53 L 523.25 273.73 L 527.32 274.81 L 531.10 276.39 L 532.36 277.05 L 535.06 278.77 L 537.54 280.79 L 539.81 283.11 L 541.81 285.68 L 543.56 288.56 L 545.07 291.76 L 545.29 292.39 L 545.73 293.54 L 546.90 297.86 L 547.50 302.28 L 547.55 306.73 L 547.05 311.20 L 546.79 312.58 L 545.49 317.18 L 543.57 321.67 L 542.97 322.81 L 540.98 326.05 L 538.63 329.08 L 535.90 331.93 L 532.77 334.60 L 531.80 335.34 L 527.76 337.90 L 523.18 340.08 Z" fill="#61dda0" fill-rule="nonzero" group-id="1,8" id="Path" node-id="14" stroke="none" target-height="70.359985" target-width="80.869995" target-x="466.68" target-y="273.1"></path><path d="M 531.96 299.78 L 531.96 299.78 L 546.79 312.58 L 547.05 311.19 L 533.17 299.24 L 545.73 293.53 L 545.29 292.38 L 532.67 298.12 L 532.35 277.05 L 531.10 276.39 L 531.48 298.65 L 525.52 301.25 L 525.52 301.25 L 523.25 273.73 L 521.98 273.53 L 524.31 301.74 L 524.31 301.74 L 524.31 301.74 L 510.16 307.51 L 509.39 273.59 L 508.20 273.80 L 508.94 307.98 L 508.94 307.98 L 508.94 307.98 L 496.51 312.52 L 496.51 312.52 L 495.69 277.74 L 494.48 278.28 L 495.30 312.93 L 486.17 315.86 L 477.56 318.24 L 476.32 318.53 L 471.82 319.55 L 467.59 320.31 L 467.94 321.50 L 472.21 320.72 L 476.77 319.70 L 476.79 319.69 L 478.08 319.38 L 484.70 317.57 L 503.56 343.44 L 505.08 343.46 L 485.93 317.21 L 485.93 317.21 L 497.58 313.46 L 509.35 309.14 L 509.35 309.14 L 531.80 335.34 L 532.77 334.60 L 510.57 308.67 L 524.80 302.88 L 524.80 302.88 L 542.97 322.81 L 543.57 321.66 L 526.00 302.39 L 526.00 302.39 L 531.96 299.78 Z" fill="#dbfeed" fill-rule="nonzero" group-id="1,8" id="Path" node-id="15" stroke="none" target-height="69.92999" target-width="79.45999" target-x="467.59" target-y="273.53"></path></g></g><g node-id="143"><path d="M 123.89 112.27 L 139.08 127.46 L 139.08 138.25 L 123.89 123.06 L 108.70 138.25 L 108.70 127.46 Z" fill="#f3f9ff" fill-rule="nonzero" group-id="2" id="Path" node-id="17" stroke="none" target-height="25.980003" target-width="30.380005" target-x="108.7" target-y="112.27"></path><path d="M 123.89 93.28 L 139.08 108.47 L 139.08 119.26 L 123.89 104.07 L 108.70 119.26 L 108.70 108.47 Z" fill="#e7f4fe" fill-rule="nonzero" group-id="2" id="Path" node-id="18" stroke="none" target-height="25.980003" target-width="30.380005" target-x="108.7" target-y="93.28"></path><path d="M 123.89 74.30 L 139.08 89.49 L 139.08 100.27 L 123.89 85.08 L 108.70 100.27 L 108.70 89.49 Z" fill="#dceefd" fill-rule="nonzero" group-id="2" id="Path" node-id="19" stroke="none" target-height="25.969994" target-width="30.380005" target-x="108.7" target-y="74.3"></path><path d="M 123.89 55.31 L 139.08 70.50 L 139.08 81.28 L 123.89 66.09 L 108.70 81.28 L 108.70 70.50 Z" fill="#d0e7fe" fill-rule="nonzero" group-id="2" id="Path" node-id="20" stroke="none" target-height="25.969997" target-width="30.380005" target-x="108.7" target-y="55.31"></path></g><g node-id="144"><g node-id="150"><path d="M 492.43 60.89 L 492.43 350.78 L 492.26 352.00 L 491.82 353.05 L 491.11 353.96 L 490.20 354.67 L 489.15 355.11 L 487.93 355.28 L 164.38 355.28 L 163.15 355.11 L 162.11 354.67 L 161.19 353.96 L 160.48 353.05 L 160.05 352.00 L 159.87 350.78 L 159.87 60.89 L 492.43 60.89 Z" fill="#f3f9ff" fill-rule="nonzero" group-id="3,9" id="Path" node-id="23" stroke="none" target-height="294.39" target-width="332.56" target-x="159.87" target-y="60.89"></path><path d="M 492.43 42.42 L 492.43 60.90 L 159.87 60.90 L 159.87 42.42 L 160.16 40.34 L 160.93 38.50 L 162.15 36.93 L 163.72 35.72 L 165.55 34.94 L 167.63 34.66 L 484.68 34.66 L 486.75 34.94 L 488.59 35.72 L 490.16 36.93 L 491.37 38.50 L 492.15 40.34 L 492.43 42.42 Z" fill="#224380" fill-rule="nonzero" group-id="3,9" id="Path" node-id="24" stroke="none" target-height="26.240002" target-width="332.56" target-x="159.87" target-y="34.66"></path><path d="M 188.61 48.25 L 188.42 49.58 L 187.94 50.72 L 187.17 51.72 L 186.18 52.49 L 185.04 52.96 L 183.70 53.15 L 182.37 52.96 L 181.23 52.49 L 180.23 51.72 L 179.46 50.72 L 178.99 49.58 L 178.80 48.25 L 178.99 46.91 L 179.46 45.77 L 180.23 44.78 L 181.23 44.01 L 182.37 43.53 L 183.70 43.34 L 185.04 43.53 L 186.18 44.01 L 187.17 44.78 L 187.94 45.77 L 188.42 46.91 L 188.61 48.25 Z" fill="#ffcb01" fill-rule="nonzero" group-id="3,9" id="Oval" node-id="25" stroke="none" target-height="9.810001" target-width="9.809998" target-x="178.8" target-y="43.34"></path><path d="M 206.08 48.25 L 205.89 49.58 L 205.41 50.72 L 204.64 51.72 L 203.64 52.49 L 202.50 52.96 L 201.17 53.15 L 199.84 52.96 L 198.70 52.49 L 197.70 51.72 L 196.93 50.72 L 196.45 49.58 L 196.26 48.25 L 196.45 46.91 L 196.93 45.77 L 197.70 44.78 L 198.70 44.01 L 199.84 43.53 L 201.17 43.34 L 202.50 43.53 L 203.64 44.01 L 204.64 44.78 L 205.41 45.77 L 205.89 46.91 L 206.08 48.25 Z" fill="#44d690" fill-rule="nonzero" group-id="3,9" id="Oval" node-id="26" stroke="none" target-height="9.810001" target-width="9.820007" target-x="196.26" target-y="43.34"></path><path d="M 159.87 60.89 L 491.79 60.89 L 491.79 68.29 L 159.87 68.29 Z" fill="#dceefd" fill-rule="nonzero" group-id="3,9" id="Rectangle" node-id="27" stroke="none" target-height="7.4000015" target-width="331.92" target-x="159.87" target-y="60.89"></path></g><g node-id="151"><g node-id="164"><path d="M 463.00 233.75 L 463.00 326.17 L 462.68 328.58 L 461.77 330.71 L 460.37 332.54 L 458.54 333.94 L 456.41 334.84 L 454.00 335.17 L 346.53 335.17 L 344.12 334.84 L 341.99 333.94 L 340.17 332.54 L 338.76 330.71 L 337.86 328.58 L 337.53 326.17 L 337.53 233.75 L 337.86 231.33 L 338.76 229.20 L 340.17 227.38 L 341.99 225.97 L 344.12 225.07 L 346.53 224.74 L 454.00 224.74 L 456.41 225.07 L 458.54 225.97 L 460.37 227.38 L 461.77 229.20 L 462.68 231.33 L 463.00 233.75 Z" fill="#dae7ff" fill-rule="nonzero" group-id="3,10,23" node-id="131" stroke="none" target-height="110.43001" target-width="125.47" target-x="337.53" target-y="224.74"></path><path d="M 463.00 229.25 L 463.00 321.67 L 462.68 324.08 L 461.77 326.21 L 460.37 328.04 L 458.54 329.44 L 456.41 330.34 L 454.00 330.67 L 346.53 330.67 L 344.12 330.34 L 341.99 329.44 L 340.17 328.04 L 338.76 326.21 L 337.86 324.08 L 337.53 321.67 L 337.53 229.25 L 337.86 226.83 L 338.76 224.70 L 340.17 222.88 L 341.99 221.47 L 344.12 220.57 L 346.53 220.24 L 454.00 220.24 L 456.41 220.57 L 458.54 221.47 L 460.37 222.88 L 461.77 224.70 L 462.68 226.83 L 463.00 229.25 Z" fill="#ffffff" fill-rule="nonzero" group-id="3,10,23" node-id="133" stroke="none" target-height="110.43001" target-width="125.47" target-x="337.53" target-y="220.24"></path></g><path d="M 304.31 332.02 L 295.31 332.02 L 295.31 329.32 L 304.31 329.32 L 304.31 332.02 Z M 286.31 332.02 L 277.31 332.02 L 277.31 329.32 L 286.31 329.32 L 286.31 332.02 Z M 268.30 332.02 L 259.30 332.02 L 259.30 329.32 L 268.30 329.32 L 268.30 332.02 Z M 250.30 332.02 L 241.30 332.02 L 241.30 329.32 L 250.30 329.32 L 250.30 332.02 Z M 232.30 332.02 L 223.30 332.02 L 223.30 329.32 L 232.30 329.32 L 232.30 332.02 Z M 214.29 332.02 L 205.29 332.02 L 205.29 329.32 L 214.29 329.32 L 214.29 332.02 Z M 196.01 331.77 L 194.33 331.23 L 192.81 330.46 L 191.45 329.44 L 190.27 328.21 L 189.31 326.80 L 188.57 325.20 L 191.11 324.28 L 191.98 325.98 L 193.24 327.40 L 194.81 328.47 L 196.60 329.13 L 196.01 331.77 Z M 313.46 328.60 L 311.46 326.79 L 312.54 325.24 L 313.19 323.55 L 313.43 321.67 L 313.43 319.27 L 316.13 319.27 L 316.13 321.67 L 315.95 323.57 L 315.44 325.38 L 314.61 327.07 L 313.46 328.60 Z M 190.65 315.80 L 187.95 315.80 L 187.95 306.80 L 190.65 306.80 L 190.65 315.80 Z M 316.13 310.27 L 313.43 310.27 L 313.43 301.27 L 316.13 301.27 L 316.13 310.27 Z M 190.65 297.79 L 187.95 297.79 L 187.95 288.79 L 190.65 288.79 L 190.65 297.79 Z M 316.13 292.26 L 313.43 292.26 L 313.43 283.26 L 316.13 283.26 L 316.13 292.26 Z M 190.65 279.79 L 187.95 279.79 L 187.95 270.78 L 190.65 270.78 L 190.65 279.79 Z M 316.13 274.26 L 313.43 274.26 L 313.43 265.26 L 316.13 265.26 L 316.13 274.26 Z M 190.65 261.78 L 187.95 261.78 L 187.95 252.78 L 190.65 252.78 L 190.65 261.78 Z M 316.13 256.25 L 313.43 256.25 L 313.43 247.25 L 316.13 247.25 L 316.13 256.25 Z M 190.65 243.78 L 187.95 243.78 L 187.95 234.77 L 190.65 234.77 L 190.65 243.78 Z M 316.13 238.25 L 313.43 238.25 L 313.43 229.25 L 313.21 227.46 L 312.63 225.84 L 311.65 224.34 L 313.72 222.61 L 314.75 224.09 L 315.50 225.71 L 315.97 227.44 L 316.13 229.25 L 316.13 238.25 Z M 191.21 226.36 L 188.71 225.35 L 189.51 223.77 L 190.52 222.40 L 191.75 221.22 L 193.15 220.25 L 194.69 219.54 L 196.39 219.07 L 196.89 221.72 L 195.07 222.31 L 193.47 223.32 L 192.15 224.69 L 191.21 226.36 Z M 304.65 221.59 L 295.65 221.59 L 295.65 218.89 L 304.65 218.89 L 304.65 221.59 Z M 286.65 221.59 L 277.65 221.59 L 277.65 218.89 L 286.65 218.89 L 286.65 221.59 Z M 268.65 221.59 L 259.65 221.59 L 259.65 218.89 L 268.65 218.89 L 268.65 221.59 Z M 250.64 221.59 L 241.64 221.59 L 241.64 218.89 L 250.64 218.89 L 250.64 221.59 Z M 232.64 221.59 L 223.64 221.59 L 223.64 218.89 L 232.64 218.89 L 232.64 221.59 Z M 214.64 221.59 L 205.64 221.59 L 205.64 218.89 L 214.64 218.89 L 214.64 221.59 Z" fill="#dae7ff" fill-rule="nonzero" group-id="3,10" id="Shape" node-id="32" stroke="none" target-height="113.12999" target-width="128.18001" target-x="187.95" target-y="218.89"></path><path d="M 314.78 97.51 L 314.78 189.93 L 314.45 192.34 L 313.55 194.48 L 312.14 196.30 L 310.32 197.71 L 308.18 198.61 L 305.77 198.93 L 198.30 198.93 L 195.89 198.61 L 193.76 197.71 L 191.94 196.30 L 190.53 194.48 L 189.63 192.34 L 189.30 189.93 L 189.30 97.51 L 189.63 95.09 L 190.53 92.96 L 191.94 91.14 L 193.76 89.73 L 195.89 88.83 L 198.30 88.51 L 305.77 88.51 L 308.18 88.83 L 310.32 89.73 L 312.14 91.14 L 313.55 92.96 L 314.45 95.09 L 314.78 97.51 Z" fill="#dae7ff" fill-rule="nonzero" group-id="3,10,24" node-id="138" stroke="none" target-height="110.41999" target-width="125.479996" target-x="189.3" target-y="88.51"></path><path d="M 313.97 193.64 L 313.12 195.12 L 312.04 196.39 L 310.71 197.46 L 309.22 198.26 L 307.58 198.75 L 305.77 198.94 L 198.30 198.94 L 195.89 198.61 L 193.76 197.71 L 191.94 196.30 L 190.53 194.48 L 189.63 192.35 L 189.30 189.94 L 189.30 97.51 L 189.49 95.70 L 189.98 94.06 L 190.78 92.56 L 191.85 91.24 L 193.11 90.16 L 194.60 89.30 L 194.02 91.07 L 193.80 93.00 L 193.80 188.14 L 194.04 189.84 L 194.66 191.31 L 195.65 192.59 L 196.93 193.58 L 198.39 194.19 L 200.10 194.44 L 243.07 194.44 L 244.25 198.93 L 278.72 198.93 L 275.39 196.92 L 271.22 194.44 L 310.27 194.44 L 312.21 194.22 L 313.97 193.64 Z" fill="#c3d3f3" fill-rule="nonzero" group-id="3,10,24" node-id="140" stroke="none" target-height="109.64" target-width="124.67" target-x="189.3" target-y="89.3"></path><path d="M 463.00 102.01 L 463.00 194.43 L 462.68 196.85 L 461.77 198.98 L 460.37 200.80 L 458.54 202.21 L 456.41 203.11 L 454.00 203.43 L 346.53 203.43 L 344.12 203.11 L 341.99 202.21 L 340.17 200.80 L 338.76 198.98 L 337.86 196.85 L 337.53 194.43 L 337.53 102.01 L 337.86 99.60 L 338.76 97.46 L 340.17 95.64 L 341.99 94.23 L 344.12 93.33 L 346.53 93.01 L 454.00 93.01 L 456.41 93.33 L 458.54 94.23 L 460.37 95.64 L 461.77 97.46 L 462.68 99.60 L 463.00 102.01 Z" fill="#dae7ff" fill-rule="nonzero" group-id="3,10,25" id="Path" node-id="37" stroke="none" target-height="110.41999" target-width="125.47" target-x="337.53" target-y="93.01"></path><path d="M 463.00 163.80 L 337.53 163.80 L 337.53 97.51 L 337.86 95.10 L 338.76 92.96 L 340.17 91.14 L 341.99 89.74 L 344.12 88.83 L 346.53 88.51 L 454.00 88.51 L 456.41 88.83 L 458.55 89.74 L 460.37 91.14 L 461.77 92.96 L 462.68 95.10 L 463.00 97.51 L 463.00 163.80 Z" fill="#ffffff" fill-rule="nonzero" group-id="3,10,25" id="Path" node-id="38" stroke="none" target-height="75.29" target-width="125.47" target-x="337.53" target-y="88.51"></path><path d="M 355.83 148.74 L 355.32 148.64 L 354.91 148.37 L 354.63 147.97 L 354.52 147.48 L 354.63 146.99 L 354.91 146.60 L 355.32 146.33 L 355.83 146.23 L 357.60 145.92 L 359.19 145.06 L 360.60 143.78 L 362.01 142.04 L 364.69 137.90 L 366.71 134.67 L 369.09 131.38 L 370.89 129.34 L 372.96 127.52 L 375.32 125.93 L 377.89 124.74 L 380.95 123.96 L 384.58 123.64 L 388.08 123.86 L 390.94 124.40 L 393.59 125.24 L 395.89 126.27 L 400.08 128.67 L 404.37 131.11 L 406.68 132.12 L 409.37 132.95 L 412.29 133.48 L 415.95 133.68 L 421.10 133.41 L 425.16 132.75 L 428.32 131.78 L 431.30 130.35 L 433.64 128.72 L 435.42 126.92 L 436.91 124.83 L 438.09 122.65 L 438.96 120.35 L 439.92 116.81 L 440.62 113.36 L 441.72 108.58 L 442.55 106.53 L 443.66 104.98 L 444.60 104.24 L 445.80 103.76 L 447.32 103.56 L 447.83 103.67 L 448.24 103.93 L 448.52 104.33 L 448.63 104.82 L 448.52 105.31 L 448.24 105.71 L 447.83 105.97 L 447.32 106.07 L 446.28 106.26 L 445.44 106.83 L 444.75 107.88 L 444.02 110.02 L 443.19 113.81 L 442.49 117.26 L 441.44 121.07 L 440.50 123.56 L 439.20 125.98 L 437.54 128.34 L 435.54 130.41 L 432.95 132.28 L 429.65 133.95 L 426.13 135.09 L 421.64 135.87 L 415.95 136.19 L 411.92 135.96 L 408.70 135.38 L 405.73 134.46 L 403.22 133.37 L 398.68 130.78 L 394.74 128.52 L 392.64 127.59 L 390.27 126.82 L 387.71 126.34 L 384.58 126.15 L 381.44 126.43 L 378.78 127.11 L 376.54 128.17 L 374.47 129.59 L 372.64 131.22 L 371.02 133.08 L 368.86 136.10 L 366.94 139.17 L 363.89 143.84 L 362.20 145.83 L 360.37 147.35 L 359.02 148.10 L 357.52 148.56 L 355.83 148.74 Z" fill="#dceefd" fill-rule="nonzero" group-id="3,10,25" id="Path" node-id="39" stroke="none" target-height="45.180008" target-width="94.110016" target-x="354.52" target-y="103.56"></path><path d="M 355.83 148.74 L 355.32 148.64 L 354.91 148.37 L 354.63 147.97 L 354.52 147.48 L 354.63 146.99 L 354.91 146.60 L 355.32 146.33 L 355.83 146.23 L 356.99 146.06 L 358.08 145.59 L 359.14 144.80 L 360.53 143.24 L 361.95 141.09 L 364.64 135.99 L 367.81 130.01 L 369.69 127.09 L 371.85 124.41 L 373.47 122.80 L 375.27 121.42 L 377.27 120.25 L 379.40 119.39 L 381.82 118.84 L 384.58 118.62 L 388.13 118.94 L 391.05 119.76 L 393.71 121.03 L 396.05 122.59 L 400.28 126.21 L 404.54 129.86 L 406.85 131.38 L 409.48 132.60 L 412.37 133.38 L 415.95 133.68 L 418.57 133.47 L 420.89 132.93 L 422.95 132.06 L 425.79 130.23 L 428.27 127.87 L 430.45 125.14 L 432.41 122.11 L 435.83 115.77 L 439.15 109.70 L 440.94 107.15 L 442.77 105.27 L 444.16 104.34 L 445.66 103.78 L 447.32 103.57 L 447.83 103.67 L 448.24 103.93 L 448.52 104.33 L 448.63 104.82 L 448.52 105.31 L 448.24 105.71 L 447.83 105.97 L 447.32 106.08 L 446.19 106.25 L 445.10 106.74 L 444.02 107.59 L 442.58 109.23 L 441.07 111.50 L 438.18 116.88 L 434.57 123.53 L 432.44 126.78 L 430.02 129.76 L 428.20 131.55 L 426.20 133.09 L 423.99 134.39 L 421.63 135.35 L 418.97 135.96 L 415.95 136.19 L 413.13 136.02 L 410.68 135.59 L 408.54 134.93 L 405.53 133.53 L 402.96 131.84 L 400.60 129.94 L 398.47 128.03 L 394.57 124.66 L 392.48 123.26 L 390.16 122.13 L 387.62 121.41 L 384.58 121.13 L 381.49 121.47 L 378.85 122.30 L 376.59 123.61 L 374.55 125.32 L 372.72 127.32 L 371.08 129.63 L 368.92 133.31 L 366.99 137.08 L 363.94 142.77 L 362.24 145.21 L 360.42 147.05 L 359.04 147.97 L 357.53 148.53 L 355.83 148.74 Z" fill="#7266d5" fill-rule="nonzero" group-id="3,10,25" id="Path" node-id="40" stroke="none" target-height="45.170006" target-width="94.110016" target-x="354.52" target-y="103.57"></path><path d="M 358.44 147.48 L 358.24 148.47 L 357.68 149.26 L 356.86 149.79 L 355.83 149.99 L 354.80 149.79 L 353.98 149.26 L 353.42 148.47 L 353.22 147.48 L 353.42 146.50 L 353.98 145.71 L 354.80 145.18 L 355.83 144.97 L 356.86 145.18 L 357.68 145.71 L 358.24 146.50 L 358.44 147.48 Z" fill="#2ccd7f" fill-rule="nonzero" group-id="3,10,25" id="Oval" node-id="41" stroke="none" target-height="5.0200043" target-width="5.220001" target-x="353.22" target-y="144.97"></path><path d="M 418.57 134.94 L 418.36 135.92 L 417.80 136.71 L 416.98 137.24 L 415.95 137.45 L 414.92 137.24 L 414.10 136.71 L 413.55 135.92 L 413.34 134.94 L 413.55 133.95 L 414.10 133.16 L 414.92 132.63 L 415.95 132.43 L 416.98 132.63 L 417.80 133.16 L 418.36 133.95 L 418.57 134.94 Z" fill="#2ccd7f" fill-rule="nonzero" group-id="3,10,25" id="Oval" node-id="42" stroke="none" target-height="5.0200043" target-width="5.230011" target-x="413.34" target-y="132.43"></path><path d="M 452.55 104.82 L 452.35 106.18 L 451.84 107.35 L 451.02 108.37 L 449.96 109.16 L 448.74 109.64 L 447.32 109.84 L 445.90 109.64 L 444.68 109.16 L 443.62 108.37 L 442.80 107.35 L 442.29 106.18 L 442.09 104.82 L 442.29 103.46 L 442.80 102.29 L 443.62 101.27 L 444.68 100.48 L 445.90 99.99 L 447.32 99.80 L 448.74 99.99 L 449.96 100.48 L 451.02 101.27 L 451.84 102.29 L 452.35 103.46 L 452.55 104.82 Z" fill="#d0f4e3" fill-rule="nonzero" group-id="3,10,25" id="Oval" node-id="43" stroke="none" target-height="10.039993" target-width="10.459991" target-x="442.09" target-y="99.8"></path><path d="M 451.24 104.82 L 450.93 106.29 L 450.09 107.48 L 448.86 108.28 L 447.32 108.58 L 445.78 108.28 L 444.55 107.48 L 443.71 106.29 L 443.40 104.82 L 443.71 103.35 L 444.55 102.16 L 445.78 101.36 L 447.32 101.05 L 448.86 101.36 L 450.09 102.16 L 450.93 103.35 L 451.24 104.82 Z" fill="#99e9c2" fill-rule="nonzero" group-id="3,10,25" id="Oval" node-id="44" stroke="none" target-height="7.529999" target-width="7.8399963" target-x="443.4" target-y="101.05"></path><path d="M 449.93 104.82 L 449.73 105.80 L 449.17 106.59 L 448.35 107.13 L 447.32 107.33 L 446.29 107.13 L 445.47 106.59 L 444.91 105.80 L 444.71 104.82 L 444.91 103.84 L 445.47 103.04 L 446.29 102.51 L 447.32 102.31 L 448.35 102.51 L 449.17 103.04 L 449.73 103.84 L 449.93 104.82 Z" fill="#2ccd7f" fill-rule="nonzero" group-id="3,10,25" id="Oval" node-id="45" stroke="none" target-height="5.0200043" target-width="5.220001" target-x="444.71" target-y="102.31"></path><path d="M 454.00 198.93 L 346.53 198.93 L 344.12 198.61 L 341.99 197.70 L 340.17 196.30 L 338.76 194.47 L 337.86 192.34 L 337.53 189.93 L 337.53 163.80 L 463.00 163.80 L 463.00 189.93 L 462.68 192.34 L 461.77 194.47 L 460.37 196.30 L 458.55 197.70 L 456.41 198.61 L 454.00 198.93 Z" fill="#7266d5" fill-rule="nonzero" group-id="3,10,25" id="Path" node-id="46" stroke="none" target-height="35.12999" target-width="125.47" target-x="337.53" target-y="163.8"></path><path d="M 363.22 178.86 L 348.44 178.86 L 348.12 178.72 L 347.99 178.41 L 347.99 174.29 L 348.12 173.97 L 348.44 173.84 L 363.22 173.84 L 363.54 173.97 L 363.67 174.29 L 363.67 178.41 L 363.54 178.72 L 363.22 178.86 Z" fill="#ffffff" fill-rule="nonzero" group-id="3,10,25" id="Path" node-id="47" stroke="none" target-height="5.0200043" target-width="15.680023" target-x="347.99" target-y="173.84"></path><path d="M 378.91 188.89 L 348.44 188.89 L 348.12 188.76 L 347.99 188.44 L 347.99 184.33 L 348.12 184.01 L 348.44 183.88 L 378.91 183.88 L 379.22 184.01 L 379.36 184.33 L 379.36 188.44 L 379.22 188.76 L 378.91 188.89 Z" fill="#ffffff" fill-rule="nonzero" group-id="3,10,25" id="Path" node-id="48" stroke="none" target-height="5.0099945" target-width="31.369995" target-x="347.99" target-y="183.88"></path></g></g><g node-id="145"><path d="M 110.25 209.90 L 110.83 209.32 L 111.66 208.04 L 112.19 206.18 L 113.25 203.22 L 114.05 201.67 L 115.07 200.29 L 116.12 199.57 L 117.59 199.18 L 119.22 199.11 L 120.91 199.27 L 123.77 199.97 L 124.74 200.44 L 124.92 200.70 L 124.62 201.14 L 123.94 201.37 L 121.97 201.50 L 120.85 201.65 L 119.73 202.01 L 118.75 202.65 L 117.91 203.79 L 117.75 204.54 L 117.91 205.21 L 118.28 205.71 L 118.64 205.81 L 119.25 205.48 L 119.87 204.85 L 120.97 203.47 L 121.52 203.00 L 121.98 202.94 L 122.21 203.30 L 122.28 204.43 L 122.08 205.74 L 121.60 207.24 L 120.84 208.60 L 119.82 209.60 L 117.56 211.00 L 114.88 212.90 L 113.67 213.99 L 112.80 215.06 L 112.22 215.53 L 111.64 215.38 L 111.09 214.80 L 110.55 213.82 L 110.17 212.71 L 109.95 211.59 L 109.98 210.55 L 110.25 209.90 Z" fill="#f1b282" fill-rule="nonzero" group-id="4" id="Path" node-id="50" stroke="none" target-height="16.419998" target-width="14.970001" target-x="109.95" target-y="199.11"></path><path d="M 108.98 208.56 L 109.57 208.40 L 110.11 208.71 L 115.05 215.17 L 115.23 215.84 L 114.89 216.44 L 110.92 219.56 L 104.72 224.24 L 97.76 229.15 L 94.33 231.35 L 91.49 232.96 L 88.86 234.11 L 87.40 234.34 L 84.29 222.62 L 86.25 221.62 L 91.17 219.04 L 97.57 215.56 L 104.00 211.84 L 108.98 208.56 Z" fill="#f0b701" fill-rule="nonzero" group-id="4" id="Path" node-id="51" stroke="none" target-height="25.940002" target-width="30.940002" target-x="84.29" target-y="208.4"></path><path d="M 225.02 144.42 L 226.85 144.78 L 228.50 145.43 L 230.01 146.35 L 232.03 148.04 L 233.69 149.79 L 236.19 152.61 L 237.05 153.71 L 238.00 155.45 L 240.25 159.65 L 241.81 161.89 L 243.95 164.18 L 244.75 165.09 L 244.97 165.68 L 244.86 166.09 L 244.23 166.59 L 242.92 166.94 L 239.66 167.08 L 236.59 166.90 L 235.23 166.75 L 230.53 160.85 L 230.16 160.48 L 229.68 160.28 L 228.73 160.25 L 227.62 160.54 L 225.77 161.46 L 224.44 161.91 L 223.20 161.71 L 222.05 161.02 L 220.89 159.86 L 219.87 158.44 L 218.92 156.78 L 218.34 156.94 L 217.73 156.92 L 217.34 156.65 L 217.06 156.00 L 216.88 154.22 L 216.97 152.37 L 216.18 150.07 L 215.89 149.16 L 216.15 147.58 L 216.92 146.33 L 218.28 145.33 L 219.95 144.71 L 222.15 144.38 L 225.02 144.42 Z" fill="#f1b282" fill-rule="nonzero" group-id="4" id="Path" node-id="52" stroke="none" target-height="22.699997" target-width="29.080002" target-x="215.89" target-y="144.38"></path><path d="M 241.80 184.62 L 240.06 185.92 L 235.66 189.23 L 229.88 193.67 L 226.27 196.33 L 223.04 198.54 L 217.23 202.47 L 214.77 204.38 L 212.76 206.30 L 212.50 206.96 L 212.45 208.22 L 212.47 211.06 L 212.20 212.41 L 211.58 213.37 L 210.77 213.88 L 209.50 214.35 L 208.09 214.62 L 206.60 214.69 L 205.18 214.47 L 204.01 213.95 L 203.19 213.06 L 202.82 211.69 L 202.73 208.67 L 202.89 207.15 L 203.34 205.71 L 204.18 204.44 L 205.64 203.29 L 207.55 201.86 L 210.78 199.19 L 214.49 196.09 L 217.80 193.36 L 221.60 189.91 L 226.25 185.28 L 230.19 181.22 L 231.86 179.48 L 233.10 179.51 L 235.99 179.97 L 237.65 180.55 L 239.31 181.48 L 240.71 182.78 L 241.80 184.62 Z" fill="#e0a277" fill-rule="nonzero" group-id="4" id="Path" node-id="53" stroke="none" target-height="35.210007" target-width="39.070007" target-x="202.73" target-y="179.48"></path><path d="M 237.49 156.48 L 236.81 156.08 L 236.30 155.20 L 235.28 153.13 L 234.46 152.38 L 233.09 152.07 L 232.01 152.24 L 231.46 152.53 L 230.51 153.21 L 229.92 153.35 L 228.70 153.23 L 227.81 152.81 L 227.08 152.05 L 225.54 150.14 L 224.44 149.31 L 222.74 148.65 L 220.67 148.41 L 217.38 148.71 L 216.03 148.74 L 215.06 148.45 L 214.36 147.89 L 213.68 146.65 L 213.44 145.00 L 213.64 143.26 L 214.23 141.53 L 215.25 139.88 L 216.59 138.37 L 218.32 137.01 L 220.23 135.90 L 222.26 135.04 L 224.45 134.44 L 226.69 134.14 L 228.81 134.18 L 230.86 134.55 L 232.75 135.31 L 234.37 136.47 L 235.76 138.08 L 237.37 141.15 L 238.41 144.29 L 239.00 147.47 L 239.17 150.31 L 239.02 152.97 L 238.66 154.82 L 238.03 156.20 L 237.49 156.48 Z" fill="#102b5e" fill-rule="nonzero" group-id="4" id="Path" node-id="54" stroke="none" target-height="22.339996" target-width="25.729996" target-x="213.44" target-y="134.14"></path><path d="M 271.22 194.44 L 243.07 194.44 L 242.38 192.67 L 241.61 191.27 L 240.63 190.12 L 239.50 189.37 L 236.92 188.34 L 233.77 187.14 L 232.93 186.74 L 231.59 185.87 L 230.63 184.87 L 229.80 183.50 L 229.09 181.66 L 228.83 180.68 L 228.76 180.34 L 228.45 178.27 L 228.37 176.02 L 228.55 173.73 L 229.01 171.40 L 229.64 169.40 L 230.52 167.47 L 231.65 165.67 L 233.06 164.02 L 234.57 162.69 L 236.36 161.56 L 238.48 160.63 L 240.58 160.17 L 242.19 160.13 L 243.85 160.36 L 246.16 161.06 L 248.57 162.26 L 250.86 163.85 L 253.17 165.92 L 255.05 168.00 L 256.85 170.43 L 258.58 173.22 L 260.06 176.15 L 261.37 179.38 L 262.49 182.93 L 263.47 185.67 L 264.68 187.98 L 266.10 189.92 L 268.60 192.46 L 271.22 194.44 Z" fill="#2ccd7f" fill-rule="nonzero" group-id="4" id="Path" node-id="55" stroke="none" target-height="34.309998" target-width="42.850006" target-x="228.37" target-y="160.13"></path><path d="M 234.85 134.42 L 234.97 133.44 L 235.25 132.49 L 235.89 131.28 L 236.86 130.18 L 238.49 129.13 L 240.52 128.45 L 243.63 128.15 L 247.20 128.42 L 249.84 129.06 L 251.75 129.98 L 253.39 131.32 L 254.57 132.88 L 255.35 134.68 L 255.94 137.67 L 256.01 141.03 L 255.31 147.84 L 254.94 151.14 L 254.83 153.91 L 255.13 156.98 L 255.65 158.96 L 256.42 160.62 L 257.20 161.71 L 258.74 163.38 L 259.26 164.18 L 259.51 165.20 L 259.35 165.70 L 258.84 166.08 L 257.78 166.36 L 255.96 166.38 L 253.45 165.99 L 250.87 165.19 L 248.15 163.90 L 245.64 162.16 L 243.48 159.91 L 242.36 158.16 L 241.55 156.15 L 241.07 153.82 L 240.10 145.45 L 239.23 140.69 L 238.54 138.60 L 237.85 137.59 L 237.16 137.22 L 236.40 137.33 L 235.33 137.45 L 234.86 137.03 L 234.67 136.27 L 234.69 135.40 L 234.85 134.42 Z" fill="#102b5e" fill-rule="nonzero" group-id="4" id="Path" node-id="56" stroke="none" target-height="38.23001" target-width="24.840012" target-x="234.67" target-y="128.15"></path><path d="M 231.02 132.13 L 230.59 132.57 L 230.40 133.29 L 230.53 134.46 L 231.12 136.26 L 232.19 138.31 L 233.54 140.21 L 234.99 141.67 L 236.09 142.39 L 237.04 142.65 L 237.93 142.55 L 238.58 142.03 L 238.89 141.27 L 238.83 140.11 L 238.22 138.30 L 237.06 136.23 L 235.58 134.34 L 234.01 132.90 L 232.84 132.21 L 231.87 131.99 L 231.02 132.13 Z" fill="#2ccd7f" fill-rule="nonzero" group-id="4" id="Path" node-id="57" stroke="none" target-height="10.659988" target-width="8.4900055" target-x="230.4" target-y="131.99"></path><path d="M 212.18 231.20 L 105.92 247.26 L 103.48 247.30 L 101.24 246.72 L 99.23 245.60 L 97.57 244.01 L 96.35 242.04 L 95.67 239.70 L 81.86 148.31 L 81.83 145.88 L 82.40 143.63 L 83.52 141.62 L 85.11 139.96 L 87.08 138.75 L 89.42 138.06 L 195.68 122.00 L 198.12 121.97 L 200.36 122.54 L 202.37 123.66 L 204.03 125.25 L 205.24 127.23 L 205.93 129.56 L 219.74 220.95 L 219.77 223.39 L 219.20 225.63 L 218.08 227.64 L 216.49 229.30 L 214.52 230.52 L 212.18 231.20 Z" fill="#1b90fb" fill-rule="nonzero" group-id="4" id="Path" node-id="58" stroke="none" target-height="125.33" target-width="137.94" target-x="81.83" target-y="121.97"></path><g node-id="152"><path d="M 136.45 159.95 L 145.14 158.63 L 146.90 170.31 L 138.21 171.62 Z" fill="#9fd1fd" fill-rule="nonzero" group-id="4,11" id="Rectangle" node-id="59" stroke="none" target-height="12.98999" target-width="10.449997" target-x="136.45" target-y="158.63"></path></g><g node-id="153"><path d="M 138.21 171.62 L 146.90 170.31 L 153.07 211.15 L 144.38 212.47 Z" fill="#1277d7" fill-rule="nonzero" group-id="4,12" id="Rectangle" node-id="60" stroke="none" target-height="42.160004" target-width="14.860001" target-x="138.21" target-y="170.31"></path></g><g node-id="154"><path d="M 123.41 161.92 L 132.10 160.61 L 135.63 183.95 L 126.93 185.26 Z" fill="#9fd1fd" fill-rule="nonzero" group-id="4,13" id="Rectangle" node-id="61" stroke="none" target-height="24.649994" target-width="12.220001" target-x="123.41" target-y="160.61"></path></g><g node-id="155"><path d="M 126.93 185.26 L 135.63 183.95 L 140.04 213.12 L 131.34 214.44 Z" fill="#1277d7" fill-rule="nonzero" group-id="4,14" id="Rectangle" node-id="62" stroke="none" target-height="30.490005" target-width="13.109993" target-x="126.93" target-y="183.95"></path></g><g node-id="156"><path d="M 110.37 163.89 L 119.06 162.58 L 124.35 197.59 L 115.66 198.90 Z" fill="#9fd1fd" fill-rule="nonzero" group-id="4,15" id="Rectangle" node-id="63" stroke="none" target-height="36.319992" target-width="13.979996" target-x="110.37" target-y="162.58"></path></g><g node-id="157"><path d="M 115.66 198.90 L 124.35 197.59 L 127.00 215.09 L 118.30 216.41 Z" fill="#1277d7" fill-rule="nonzero" group-id="4,16" id="Rectangle" node-id="64" stroke="none" target-height="18.820007" target-width="11.339996" target-x="115.66" target-y="197.59"></path></g><g node-id="158"><path d="M 174.60 154.18 L 183.30 152.87 L 191.23 205.39 L 182.54 206.70 Z" fill="#ffffff" fill-rule="nonzero" group-id="4,17" id="Rectangle" node-id="65" stroke="none" target-height="53.83" target-width="16.62999" target-x="174.6" target-y="152.87"></path></g><g node-id="159"><path d="M 174.60 154.18 L 183.30 152.87 L 191.23 205.39 L 182.54 206.70 Z" fill="#9fd1fd" fill-rule="nonzero" group-id="4,18" id="Rectangle" node-id="66" stroke="none" target-height="53.83" target-width="16.62999" target-x="174.6" target-y="152.87"></path></g><g node-id="160"><path d="M 161.57 156.15 L 170.26 154.84 L 170.97 159.56 L 162.28 160.87 Z" fill="#9fd1fd" fill-rule="nonzero" group-id="4,19" id="Rectangle" node-id="67" stroke="none" target-height="6.029999" target-width="9.399994" target-x="161.57" target-y="154.84"></path></g><g node-id="161"><path d="M 162.28 160.87 L 170.97 159.56 L 178.19 207.36 L 169.50 208.67 Z" fill="#1277d7" fill-rule="nonzero" group-id="4,20" id="Rectangle" node-id="68" stroke="none" target-height="49.11" target-width="15.910004" target-x="162.28" target-y="159.56"></path></g><g node-id="162"><path d="M 148.53 158.12 L 157.22 156.81 L 158.65 166.28 L 149.96 167.59 Z" fill="#9fd1fd" fill-rule="nonzero" group-id="4,21" id="Rectangle" node-id="69" stroke="none" target-height="10.779999" target-width="10.119995" target-x="148.53" target-y="156.81"></path></g><g node-id="163"><path d="M 149.96 167.59 L 158.65 166.28 L 165.15 209.33 L 156.46 210.64 Z" fill="#1277d7" fill-rule="nonzero" group-id="4,22" id="Rectangle" node-id="70" stroke="none" target-height="44.36" target-width="15.189987" target-x="149.96" target-y="166.28"></path></g><path d="M 97.11 354.12 L 98.20 359.19 L 98.43 359.85 L 98.41 360.46 L 98.01 361.15 L 97.20 361.66 L 95.29 362.06 L 93.25 362.06 L 92.07 361.81 L 91.16 361.35 L 90.73 360.94 L 90.47 360.43 L 90.27 359.47 L 89.83 357.33 L 89.40 355.10 L 89.23 353.90 L 89.44 353.81 L 90.48 353.75 L 93.19 353.85 L 95.88 354.02 L 97.11 354.12 Z" fill="#f1b282" fill-rule="nonzero" group-id="4" id="Path" node-id="71" stroke="none" target-height="8.309998" target-width="9.199997" target-x="89.23" target-y="353.75"></path><path d="M 98.13 357.78 L 98.51 357.48 L 98.95 357.34 L 99.42 357.35 L 99.87 357.53 L 102.38 359.04 L 105.00 360.60 L 106.35 361.37 L 109.49 362.39 L 111.36 363.06 L 112.97 363.83 L 113.91 364.48 L 114.42 365.13 L 114.61 365.80 L 114.24 366.34 L 112.75 366.88 L 110.81 367.19 L 108.07 367.41 L 101.94 367.53 L 95.73 367.41 L 90.80 367.21 L 89.89 366.98 L 89.15 366.46 L 88.66 365.71 L 88.47 364.79 L 88.40 359.54 L 88.50 359.16 L 88.77 358.89 L 89.14 358.78 L 89.52 358.88 L 91.47 359.80 L 92.61 360.15 L 93.76 360.32 L 95.01 360.11 L 96.22 359.47 L 98.13 357.78 Z" fill="#102b5e" fill-rule="nonzero" group-id="4" id="Path" node-id="72" stroke="none" target-height="10.190002" target-width="26.21" target-x="88.4" target-y="357.34"></path><path d="M 50.59 332.23 L 46.80 335.78 L 46.26 336.24 L 45.65 336.47 L 44.74 336.41 L 43.80 335.91 L 42.45 334.47 L 41.44 332.73 L 41.13 331.66 L 41.17 330.72 L 41.41 330.21 L 41.82 329.80 L 42.54 329.13 L 44.15 327.65 L 45.84 326.13 L 46.78 325.37 L 46.97 325.50 L 47.54 326.36 L 48.84 328.73 L 50.05 331.13 L 50.59 332.23 Z" fill="#f1b282" fill-rule="nonzero" group-id="4" id="Path" node-id="73" stroke="none" target-height="11.100006" target-width="9.459999" target-x="41.13" target-y="325.37"></path><path d="M 47.59 335.42 L 48.04 335.60 L 48.39 335.90 L 48.62 336.31 L 48.70 336.78 L 48.70 339.71 L 48.71 342.76 L 48.75 344.32 L 49.49 347.54 L 49.88 349.48 L 50.05 351.26 L 49.97 352.40 L 49.68 353.17 L 49.21 353.68 L 48.55 353.64 L 47.31 352.64 L 46.05 351.14 L 44.45 348.90 L 41.19 343.71 L 38.10 338.32 L 35.73 333.99 L 35.46 333.09 L 35.53 332.20 L 35.91 331.39 L 36.60 330.75 L 41.07 327.99 L 41.44 327.88 L 41.82 327.97 L 42.10 328.23 L 42.21 328.60 L 42.43 330.75 L 42.72 331.91 L 43.16 332.99 L 43.99 333.94 L 45.16 334.66 L 47.59 335.42 Z" fill="#102b5e" fill-rule="nonzero" group-id="4" id="Path" node-id="74" stroke="none" target-height="25.799988" target-width="14.59" target-x="35.46" target-y="327.88"></path><path d="M 88.89 272.96 L 89.81 274.87 L 92.07 279.75 L 94.90 286.33 L 97.55 293.34 L 98.60 296.73 L 99.25 299.52 L 99.25 300.77 L 98.89 302.20 L 98.06 303.88 L 96.64 305.87 L 94.55 308.22 L 91.83 310.82 L 88.39 313.68 L 82.92 317.70 L 76.66 321.78 L 70.16 325.59 L 63.66 329.00 L 57.19 331.98 L 51.57 334.14 L 51.00 334.23 L 50.46 334.13 L 49.99 333.85 L 49.62 333.41 L 45.68 326.17 L 45.47 325.53 L 45.50 324.88 L 45.76 324.29 L 46.25 323.81 L 79.33 296.45 L 71.39 272.96 L 88.89 272.96 L 88.89 272.96 Z" fill="#0b224e" fill-rule="nonzero" group-id="4" id="Path" node-id="75" stroke="none" target-height="61.27002" target-width="53.78" target-x="45.47" target-y="272.96"></path><path d="M 62.49 268.43 L 62.68 271.86 L 63.44 276.27 L 64.58 280.86 L 66.05 285.93 L 69.32 296.18 L 72.26 305.77 L 73.33 310.11 L 73.88 313.46 L 74.41 316.46 L 75.58 320.83 L 78.88 330.74 L 82.77 341.22 L 86.25 350.30 L 88.30 356.02 L 88.58 356.55 L 89.01 356.93 L 89.54 357.14 L 90.14 357.13 L 97.30 355.57 L 98.01 355.27 L 98.54 354.71 L 98.80 353.98 L 98.74 353.21 L 97.40 347.90 L 95.58 340.00 L 93.65 331.30 L 92.00 323.58 L 90.99 318.64 L 90.74 316.52 L 90.58 312.94 L 90.45 304.08 L 90.24 293.68 L 89.99 288.34 L 89.58 283.31 L 88.93 278.50 L 88.07 274.58 L 87.11 272.31 L 85.80 270.55 L 84.11 269.22 L 82.14 268.23 L 79.98 267.52 L 77.60 267.10 L 73.98 266.89 L 70.51 267.05 L 67.23 267.45 L 64.82 267.88 L 62.49 268.43 Z" fill="#224380" fill-rule="nonzero" group-id="4" id="Path" node-id="76" stroke="none" target-height="90.25" target-width="36.31" target-x="62.49" target-y="266.89"></path><path d="M 107.69 246.71 L 108.96 245.59 L 111.79 243.29 L 113.41 242.15 L 114.75 241.38 L 118.43 239.86 L 119.93 239.53 L 120.41 239.72 L 120.34 240.02 L 119.80 240.69 L 118.19 242.21 L 116.53 243.60 L 115.76 244.21 L 116.42 244.44 L 118.10 244.61 L 119.14 244.44 L 120.34 243.94 L 123.29 242.46 L 124.34 242.19 L 124.76 242.31 L 124.72 242.60 L 124.12 243.58 L 122.09 246.02 L 119.40 248.47 L 117.98 249.38 L 116.81 249.80 L 113.15 250.65 L 109.58 251.68 L 107.97 252.19 L 107.69 246.71 Z" fill="#f1b282" fill-rule="nonzero" group-id="4" id="Path" node-id="77" stroke="none" target-height="12.660004" target-width="17.07" target-x="107.69" target-y="239.53"></path><path d="M 93.45 200.73 L 93.80 201.93 L 93.88 202.81 L 93.67 204.25 L 93.54 205.34 L 94.13 207.42 L 94.44 208.61 L 94.49 209.42 L 94.18 209.94 L 93.57 210.31 L 92.91 210.70 L 92.33 211.37 L 91.87 213.33 L 91.56 214.34 L 90.83 215.25 L 90.02 215.62 L 88.86 215.80 L 86.58 215.93 L 85.74 216.16 L 85.46 216.59 L 85.82 218.73 L 86.52 221.40 L 86.91 222.71 L 75.45 220.98 L 76.01 219.22 L 77.02 215.42 L 77.38 213.36 L 77.45 211.79 L 77.46 208.56 L 77.96 204.16 L 78.50 201.96 L 79.21 200.17 L 79.87 199.16 L 80.61 198.52 L 81.44 198.19 L 83.48 197.98 L 85.99 197.98 L 88.51 198.24 L 90.71 198.75 L 92.06 199.31 L 92.93 199.97 L 93.45 200.73 Z" fill="#f1b282" fill-rule="nonzero" group-id="4" id="Path" node-id="78" stroke="none" target-height="24.730011" target-width="19.04" target-x="75.45" target-y="197.98"></path><path d="M 83.94 192.82 L 87.84 193.09 L 90.16 192.97 L 91.41 192.60 L 92.09 192.01 L 92.37 191.21 L 93.26 191.51 L 94.31 192.31 L 95.24 193.41 L 96.02 194.85 L 96.48 196.45 L 96.54 198.23 L 96.23 199.74 L 95.73 200.86 L 95.09 201.67 L 93.80 202.59 L 92.29 203.16 L 89.09 203.71 L 87.56 203.97 L 86.38 204.35 L 85.51 205.01 L 85.09 206.10 L 85.24 207.62 L 85.77 210.62 L 86.25 212.04 L 86.78 212.78 L 87.51 212.99 L 88.52 212.80 L 90.62 211.85 L 91.62 211.41 L 92.28 211.28 L 92.63 211.59 L 93.19 212.79 L 93.57 214.25 L 93.74 215.99 L 93.52 217.67 L 92.80 219.05 L 92.04 219.68 L 90.90 220.06 L 89.23 220.12 L 87.93 219.79 L 86.88 219.21 L 86.04 218.36 L 85.08 216.75 L 84.36 214.77 L 83.40 210.59 L 82.92 208.61 L 82.37 207.07 L 81.85 206.22 L 81.23 205.70 L 80.48 205.45 L 79.86 205.72 L 79.37 206.75 L 78.82 209.80 L 78.53 211.48 L 78.12 212.84 L 77.71 213.59 L 77.20 213.98 L 76.55 214.09 L 75.24 213.67 L 73.93 212.60 L 72.90 211.05 L 72.08 208.75 L 71.70 206.11 L 71.78 202.64 L 72.29 200.12 L 73.10 198.10 L 74.19 196.51 L 75.59 195.14 L 77.11 194.12 L 78.77 193.40 L 81.41 192.82 L 83.94 192.82 Z" fill="#0b224e" fill-rule="nonzero" group-id="4" id="Path" node-id="79" stroke="none" target-height="28.909988" target-width="24.840004" target-x="71.7" target-y="191.21"></path><path d="M 71.23 274.90 L 66.74 274.45 L 64.86 274.23 L 63.35 273.87 L 62.05 273.20 L 60.94 272.09 L 60.12 270.57 L 59.36 268.09 L 59.07 265.31 L 59.31 262.39 L 59.95 259.45 L 60.86 256.41 L 62.93 250.40 L 63.83 247.43 L 64.43 244.62 L 65.40 238.37 L 66.60 233.27 L 67.98 229.15 L 69.74 225.12 L 71.36 222.15 L 72.86 220.02 L 74.66 218.05 L 75.89 217.09 L 76.74 216.75 L 77.67 216.79 L 79.08 217.24 L 82.18 218.80 L 85.17 220.66 L 86.71 221.93 L 87.91 223.44 L 88.80 225.23 L 89.80 228.44 L 90.45 231.46 L 90.77 234.31 L 90.84 238.56 L 90.52 242.43 L 89.40 249.47 L 88.91 252.64 L 88.72 255.31 L 89.10 258.74 L 89.97 264.24 L 90.94 269.69 L 91.63 272.96 L 91.57 273.67 L 91.04 274.27 L 89.78 274.83 L 87.51 275.30 L 84.30 275.56 L 80.90 275.61 L 77.38 275.48 L 71.23 274.90 Z" fill="#ffcb01" fill-rule="nonzero" group-id="4" id="Path" node-id="80" stroke="none" target-height="58.859985" target-width="32.559998" target-x="59.07" target-y="216.75"></path><path d="M 90.16 265.32 L 85.09 263.90 L 79.35 261.83 L 76.58 260.54 L 74.23 259.15 L 72.25 257.53 L 71.03 255.90 L 70.54 254.55 L 70.29 253.00 L 70.30 251.20 L 70.68 248.47 L 71.42 245.58 L 72.39 242.73 L 73.43 240.16 L 75.35 236.08 L 76.21 234.46 L 75.43 238.98 L 75.06 243.40 L 75.16 247.72 L 75.75 251.50 L 76.49 253.88 L 77.48 255.86 L 78.70 257.49 L 80.23 258.78 L 82.08 259.64 L 84.34 260.08 L 86.57 260.12 L 89.15 259.99 L 89.43 260.98 L 90.16 265.32 Z" fill="#f0b701" fill-rule="nonzero" group-id="4" id="Path" node-id="81" stroke="none" target-height="30.86" target-width="19.870003" target-x="70.29" target-y="234.46"></path><path d="M 111.90 254.90 L 109.16 255.90 L 102.74 257.78 L 98.77 258.73 L 94.48 259.56 L 90.17 260.11 L 86.24 260.25 L 83.67 260.05 L 81.57 259.58 L 79.86 258.86 L 78.43 257.76 L 77.27 256.34 L 76.35 254.56 L 75.44 251.61 L 74.95 248.29 L 74.80 244.90 L 74.89 241.73 L 75.41 236.56 L 75.76 234.46 L 86.90 236.44 L 86.60 247.29 L 88.81 247.19 L 94.07 246.87 L 100.28 246.29 L 103.22 245.88 L 105.36 245.44 L 105.96 245.38 L 106.52 245.51 L 107.01 245.81 L 107.40 246.26 L 109.37 249.56 L 111.29 253.06 L 111.89 254.49 L 111.90 254.90 Z" fill="#ffcb01" fill-rule="nonzero" group-id="4" id="Path" node-id="82" stroke="none" target-height="25.789993" target-width="37.1" target-x="74.8" target-y="234.46"></path><path d="M 278.72 198.93 L 244.25 198.93 L 243.07 194.44 L 271.22 194.44 L 275.39 196.92 L 278.72 198.93 Z" fill="#1eaf69" fill-rule="nonzero" group-id="4" id="Path" node-id="83" stroke="none" target-height="4.48999" target-width="35.649994" target-x="243.07" target-y="194.44"></path><path d="M 228.82 180.68 L 229.32 182.37 L 229.93 183.77 L 230.72 185.00 L 231.59 185.87 L 233.31 186.93 L 235.29 187.77 L 239.50 189.37 L 240.70 187.76 L 241.58 185.62 L 242.13 183.28 L 242.44 180.92 L 242.59 176.91 L 242.53 175.21 L 240.81 174.63 L 239.16 174.46 L 237.52 174.67 L 235.15 175.53 L 232.84 176.95 L 230.72 178.72 L 228.82 180.68 Z" fill="#1eaf69" fill-rule="nonzero" group-id="4" id="Path" node-id="84" stroke="none" target-height="14.909988" target-width="13.769989" target-x="228.82" target-y="174.46"></path><path d="M 237.13 183.81 L 235.24 184.87 L 230.45 187.59 L 224.14 191.24 L 220.22 193.41 L 216.73 195.19 L 210.47 198.34 L 207.77 199.91 L 205.54 201.56 L 205.10 202.23 L 204.54 203.74 L 203.35 207.17 L 202.56 208.74 L 201.72 209.66 L 200.83 210.00 L 199.45 210.12 L 197.97 209.98 L 196.51 209.61 L 195.22 208.99 L 194.41 208.22 L 194.14 207.60 L 194.19 206.90 L 194.62 206.03 L 196.17 203.72 L 196.58 202.84 L 196.52 202.39 L 196.01 202.42 L 194.46 203.17 L 193.71 203.51 L 193.49 203.48 L 193.42 202.45 L 193.94 201.30 L 194.86 200.23 L 196.12 199.19 L 197.52 198.31 L 198.87 197.66 L 200.95 196.48 L 204.49 194.25 L 208.56 191.65 L 212.21 189.37 L 216.42 186.44 L 221.62 182.45 L 226.06 178.94 L 227.93 177.42 L 229.16 177.61 L 231.97 178.45 L 233.54 179.23 L 235.06 180.37 L 236.29 181.84 L 237.13 183.81 Z" fill="#f1b282" fill-rule="nonzero" group-id="4" id="Path" node-id="85" stroke="none" target-height="32.699997" target-width="43.710007" target-x="193.42" target-y="177.42"></path><path d="M 235.38 165.14 L 234.18 165.40 L 233.03 166.02 L 231.92 167.05 L 230.47 168.93 L 229.11 171.20 L 226.82 175.67 L 225.73 177.54 L 224.89 178.54 L 224.54 179.09 L 224.54 179.81 L 224.97 180.85 L 226.04 182.35 L 227.60 184.01 L 229.33 185.54 L 230.90 186.70 L 232.40 187.51 L 233.04 187.58 L 234.58 186.60 L 236.65 184.91 L 238.65 182.92 L 240.53 180.64 L 242.08 178.20 L 242.99 175.89 L 243.15 174.31 L 242.95 172.70 L 242.36 171.01 L 241.01 168.71 L 239.27 166.83 L 237.89 165.85 L 236.61 165.31 L 235.38 165.14 Z" fill="#2ccd7f" fill-rule="nonzero" group-id="4" id="Path" node-id="86" stroke="none" target-height="22.440002" target-width="18.61" target-x="224.54" target-y="165.14"></path></g><g node-id="146"><path d="M 206.08 336.99 L 151.81 336.99 L 151.90 339.25 L 152.14 341.60 L 152.71 344.91 L 153.60 348.39 L 155.02 352.26 L 156.24 354.78 L 157.77 357.22 L 159.63 359.61 L 161.77 361.74 L 164.32 363.63 L 167.34 365.27 L 170.57 366.45 L 174.40 367.22 L 178.94 367.53 L 183.49 367.22 L 187.32 366.45 L 190.54 365.27 L 193.57 363.63 L 196.12 361.74 L 198.25 359.61 L 200.11 357.22 L 201.64 354.78 L 202.87 352.26 L 204.29 348.39 L 205.18 344.91 L 205.74 341.60 L 205.98 339.25 L 206.08 336.99 Z" fill="#c3d3f3" fill-rule="nonzero" group-id="5" id="Path" node-id="88" stroke="none" target-height="30.540009" target-width="54.270004" target-x="151.81" target-y="336.99"></path><path d="M 206.08 336.99 L 205.85 338.07 L 205.24 339.15 L 204.13 340.25 L 202.37 341.39 L 199.89 342.53 L 196.70 343.59 L 192.64 344.52 L 188.55 345.16 L 184.00 345.56 L 178.94 345.71 L 173.89 345.56 L 169.34 345.16 L 165.25 344.52 L 161.19 343.59 L 157.99 342.53 L 155.51 341.39 L 153.75 340.25 L 152.65 339.15 L 152.03 338.07 L 151.81 336.99 L 152.03 335.91 L 152.65 334.84 L 153.75 333.74 L 155.51 332.59 L 157.99 331.45 L 161.19 330.40 L 165.25 329.46 L 169.34 328.83 L 173.89 328.42 L 178.94 328.27 L 184.00 328.42 L 188.55 328.83 L 192.64 329.46 L 196.70 330.40 L 199.89 331.45 L 202.37 332.59 L 204.13 333.74 L 205.24 334.84 L 205.85 335.91 L 206.08 336.99 Z" fill="#dae7ff" fill-rule="nonzero" group-id="5" id="Oval" node-id="89" stroke="none" target-height="17.440002" target-width="54.270004" target-x="151.81" target-y="328.27"></path><path d="M 178.94 340.14 L 177.45 337.50 L 173.88 330.30 L 171.80 325.49 L 169.59 319.63 L 167.62 313.42 L 165.93 306.56 L 165.09 301.88 L 164.54 297.09 L 164.28 292.19 L 164.40 287.29 L 164.96 282.43 L 165.98 277.59 L 167.46 280.62 L 168.93 283.95 L 170.95 289.18 L 172.92 295.03 L 175.00 302.48 L 176.74 310.45 L 178.14 319.73 L 178.74 326.08 L 179.02 332.87 L 178.94 340.14 Z" fill="#2ccd7f" fill-rule="nonzero" group-id="5" id="Path" node-id="90" stroke="none" target-height="62.55002" target-width="14.7400055" target-x="164.28" target-y="277.59"></path><path d="M 178.94 340.14 L 179.18 337.11 L 180.24 329.15 L 181.21 324.01 L 182.65 317.90 L 184.50 311.65 L 186.93 305.03 L 188.85 300.67 L 191.07 296.39 L 193.59 292.19 L 196.43 288.19 L 199.62 284.48 L 203.17 281.03 L 202.71 284.37 L 202.05 287.96 L 200.81 293.42 L 199.17 299.38 L 196.73 306.71 L 193.71 314.29 L 189.69 322.77 L 186.64 328.37 L 183.07 334.15 L 178.94 340.14 Z" fill="#2ccd7f" fill-rule="nonzero" group-id="5" id="Path" node-id="91" stroke="none" target-height="59.110016" target-width="24.229996" target-x="178.94" target-y="281.03"></path><path d="M 178.94 343.86 L 178.34 340.89 L 177.17 332.94 L 176.68 327.73 L 176.38 321.47 L 176.43 314.95 L 176.94 307.91 L 177.59 303.20 L 178.54 298.47 L 179.81 293.73 L 181.44 289.11 L 183.48 284.66 L 185.94 280.37 L 186.42 283.71 L 186.78 287.33 L 187.09 292.93 L 187.15 299.10 L 186.83 306.83 L 186.02 314.95 L 184.49 324.21 L 183.10 330.43 L 181.26 336.97 L 178.94 343.86 Z" fill="#1eaf69" fill-rule="nonzero" group-id="5" id="Path" node-id="92" stroke="none" target-height="63.48999" target-width="10.769989" target-x="176.38" target-y="280.37"></path></g></svg>