<?xml version="1.0" standalone="no"?><!DOCTYPE svg PUBLIC "-//W3C//DTD SVG 1.1//EN" "http://www.w3.org/Graphics/SVG/1.1/DTD/svg11.dtd"><svg height="400" node-id="1" sillyvg="true" template-height="400" template-width="600" version="1.1" viewBox="0 0 600 400" width="600" xmlns="http://www.w3.org/2000/svg" xmlns:xlink="http://www.w3.org/1999/xlink"><defs node-id="118"></defs><path d="M 0.00 0.00 L 600.00 0.00 L 600.00 400.00 L 0.00 400.00 Z" fill="#ffffff" fill-opacity="0" fill-rule="nonzero" node-id="121" stroke="none" target-height="400" target-width="600" target-x="0" target-y="0"></path><path d="M 143.91 330.45 C 71.46 330.45 41.89 271.30 41.89 205.47 C 41.89 139.63 70.96 99.10 108.44 99.10 C 145.93 99.10 135.28 138.47 179.13 138.47 C 222.99 138.47 246.74 45.45 309.55 45.45 C 372.35 45.45 324.61 133.12 380.18 133.12 C 435.75 133.12 498.14 111.06 498.14 201.06 C 498.14 291.06 609.97 333.30 526.38 333.30 C 442.79 333.30 143.91 330.45 143.91 330.45 Z" fill="#f3f9ff" fill-rule="nonzero" id="bg_4_" node-id="6" stroke="none" target-height="287.84998" target-width="568.07996" target-x="41.89" target-y="45.45"></path><g node-id="123"><path d="M 492.84 310.13 L 491.12 306.08 L 489.42 301.62 L 488.06 297.03 L 487.29 292.44 L 487.22 289.39 L 487.64 286.45 L 488.56 283.59 L 489.57 281.63 L 491.00 279.73 L 492.90 277.87 L 495.33 276.04 L 497.92 274.16 L 499.64 272.54 L 500.68 271.12 L 501.40 269.54 L 501.69 268.03 L 501.61 266.53 L 501.00 264.25 L 499.93 261.73 L 497.47 256.19 L 496.54 253.05 L 496.07 249.38 L 496.18 246.88 L 496.60 244.70 L 497.30 242.80 L 498.79 240.15 L 500.60 237.89 L 504.59 234.07 L 506.46 232.34 L 507.89 230.77 L 508.63 229.65 L 509.03 228.53 L 509.13 227.39 L 508.71 220.22 L 508.60 212.35 L 508.84 208.72 L 509.31 206.17 L 509.92 204.71 L 510.82 203.42 L 512.04 202.27 L 513.46 201.36 L 515.03 200.72 L 516.76 200.36 L 518.52 200.33 L 520.29 200.68 L 522.10 201.44 L 523.71 202.55 L 525.24 204.20 L 526.70 206.49 L 527.76 209.00 L 528.61 212.28 L 529.19 216.52 L 529.78 223.01 L 530.54 228.46 L 531.69 233.60 L 533.33 238.35 L 534.74 241.35 L 536.54 244.47 L 538.77 247.71 L 539.93 249.71 L 540.53 251.62 L 540.63 253.51 L 540.35 255.41 L 539.76 257.34 L 538.85 259.30 L 537.20 262.13 L 535.32 264.94 L 533.44 267.70 L 531.89 270.28 L 531.05 272.04 L 530.59 273.67 L 530.45 275.18 L 530.76 277.33 L 531.39 278.97 L 532.29 280.45 L 533.36 281.89 L 534.46 283.38 L 535.58 285.21 L 536.50 287.31 L 537.27 290.21 L 537.67 293.50 L 537.67 298.14 L 537.24 302.23 L 536.45 306.01 L 535.33 309.54 L 533.86 312.93 L 532.17 315.93 L 530.27 318.58 L 528.08 320.98 L 525.81 322.91 L 523.45 324.41 L 520.90 325.51 L 518.38 326.09 L 515.84 326.18 L 513.14 325.76 L 509.90 324.80 L 506.64 323.43 L 503.27 321.55 L 500.09 319.28 L 497.18 316.60 L 495.46 314.60 L 494.02 312.44 L 492.84 310.13 Z" fill="#dceefd" fill-rule="nonzero" group-id="1" id="Path" node-id="8" stroke="none" target-height="125.84999" target-width="53.410004" target-x="487.22" target-y="200.33"></path><path d="M 519.17 331.72 L 519.60 331.57 L 519.84 331.18 L 519.86 330.23 L 519.50 328.48 L 517.85 323.26 L 515.09 314.50 L 513.81 309.53 L 512.79 304.23 L 512.24 298.84 L 512.30 293.50 L 512.88 288.48 L 513.78 283.29 L 516.05 272.94 L 518.16 263.39 L 518.96 258.79 L 519.45 254.55 L 519.56 250.44 L 519.21 246.79 L 518.69 242.69 L 518.49 238.27 L 518.52 233.84 L 518.72 229.63 L 519.31 222.31 L 519.65 218.17 L 519.60 216.18 L 519.29 215.76 L 518.77 215.69 L 518.36 216.00 L 518.28 216.51 L 518.27 218.53 L 517.96 222.19 L 517.36 229.59 L 517.16 233.85 L 517.13 238.35 L 517.34 242.84 L 517.87 247.03 L 518.21 250.55 L 518.09 254.56 L 517.60 258.70 L 516.80 263.22 L 514.73 272.63 L 512.44 283.07 L 511.53 288.30 L 510.94 293.39 L 510.87 298.86 L 511.44 304.36 L 512.47 309.76 L 513.76 314.81 L 516.56 323.69 L 518.03 328.25 L 518.47 330.07 L 518.51 330.89 L 518.60 331.41 L 519.03 331.70 L 519.17 331.72 Z" fill="#d0e7fe" fill-rule="nonzero" group-id="1" id="Path" node-id="9" stroke="none" target-height="116.03" target-width="8.98999" target-x="510.87" target-y="215.69"></path><path d="M 520.68 260.63 L 522.33 260.39 L 523.79 259.77 L 525.08 258.85 L 526.15 257.79 L 527.04 256.63 L 527.63 255.62 L 527.67 255.10 L 527.33 254.71 L 526.81 254.67 L 526.42 255.01 L 525.83 255.98 L 524.29 257.75 L 523.21 258.55 L 521.91 259.11 L 520.48 259.27 L 518.78 258.87 L 518.26 258.87 L 517.89 259.24 L 517.89 259.76 L 518.26 260.13 L 519.53 260.52 L 520.68 260.63 Z" fill="#d0e7fe" fill-rule="nonzero" group-id="1" id="Path" node-id="10" stroke="none" target-height="5.9600067" target-width="9.779968" target-x="517.89" target-y="254.67"></path><path d="M 518.82 249.36 L 519.25 249.21 L 519.49 248.82 L 519.39 248.31 L 518.96 248.01 L 517.77 247.67 L 515.07 246.47 L 513.55 245.48 L 512.02 244.11 L 510.73 242.45 L 509.75 240.31 L 509.41 239.92 L 508.89 239.87 L 508.49 240.21 L 508.45 240.73 L 509.55 243.13 L 510.95 244.99 L 512.62 246.51 L 514.29 247.62 L 515.98 248.46 L 517.27 248.95 L 518.69 249.35 L 518.82 249.36 Z" fill="#d0e7fe" fill-rule="nonzero" group-id="1" id="Path" node-id="11" stroke="none" target-height="9.4900055" target-width="11.039978" target-x="508.45" target-y="239.87"></path><path d="M 511.62 294.12 L 513.33 293.99 L 514.87 293.71 L 516.85 293.12 L 518.80 292.21 L 520.72 290.81 L 521.81 289.65 L 522.72 288.19 L 523.46 286.38 L 523.40 285.86 L 523.00 285.53 L 522.48 285.59 L 522.15 285.99 L 521.50 287.60 L 520.68 288.89 L 519.71 289.92 L 518.01 291.14 L 516.27 291.93 L 514.50 292.43 L 513.13 292.67 L 511.63 292.76 L 511.14 292.96 L 510.94 293.44 L 511.13 293.92 L 511.61 294.12 L 511.62 294.12 Z" fill="#d0e7fe" fill-rule="nonzero" group-id="1" id="Path" node-id="12" stroke="none" target-height="8.589996" target-width="12.52002" target-x="510.94" target-y="285.53"></path><path d="M 512.18 305.34 L 512.55 305.23 L 512.81 304.92 L 512.81 304.40 L 512.45 304.03 L 510.95 303.33 L 507.49 301.39 L 505.47 300.02 L 503.37 298.35 L 501.46 296.46 L 499.87 294.38 L 499.06 292.86 L 498.54 291.27 L 498.30 289.61 L 498.08 289.14 L 497.60 288.95 L 497.13 289.17 L 496.94 289.65 L 497.19 291.50 L 497.73 293.22 L 498.57 294.87 L 500.21 297.13 L 502.18 299.15 L 504.36 300.93 L 506.48 302.38 L 510.16 304.47 L 511.92 305.29 L 512.18 305.34 Z" fill="#d0e7fe" fill-rule="nonzero" group-id="1" id="Path" node-id="13" stroke="none" target-height="16.389984" target-width="15.869995" target-x="496.94" target-y="288.95"></path></g><g node-id="124"><path d="M 482.65 317.44 L 484.91 311.81 L 485.81 308.78 L 486.32 305.75 L 486.36 303.73 L 486.09 301.78 L 485.48 299.89 L 484.53 298.18 L 483.07 296.52 L 481.00 294.90 L 478.91 293.33 L 477.69 292.01 L 477.08 290.88 L 476.82 289.63 L 476.88 288.37 L 477.27 287.06 L 479.20 282.76 L 480.06 280.27 L 480.51 277.27 L 480.38 275.23 L 479.95 273.49 L 479.25 272.02 L 477.82 270.01 L 476.20 268.34 L 473.15 265.50 L 472.16 264.11 L 471.88 262.73 L 472.16 257.99 L 472.23 252.78 L 472.07 250.38 L 471.76 248.70 L 471.22 247.50 L 470.40 246.50 L 469.26 245.65 L 467.96 245.08 L 466.57 244.84 L 465.06 244.92 L 463.64 245.38 L 462.27 246.30 L 460.93 247.79 L 459.94 249.56 L 459.15 252.07 L 458.61 255.54 L 458.22 259.83 L 457.72 263.43 L 456.96 266.84 L 455.87 269.97 L 454.38 272.98 L 452.27 276.16 L 451.38 277.81 L 451.03 279.39 L 451.16 280.96 L 451.97 283.31 L 453.32 285.71 L 456.34 290.23 L 457.43 292.43 L 457.78 294.33 L 457.48 296.06 L 456.88 297.34 L 455.11 299.78 L 454.26 301.22 L 453.49 303.29 L 453.06 305.74 L 453.01 309.52 L 453.45 313.11 L 454.29 316.34 L 455.50 319.24 L 457.10 321.95 L 458.87 324.14 L 460.82 325.87 L 463.03 327.19 L 465.21 327.90 L 467.44 328.05 L 469.86 327.62 L 472.82 326.56 L 475.72 325.01 L 478.53 322.93 L 480.19 321.28 L 481.56 319.46 L 482.65 317.44 Z" fill="#8ae6b9" fill-rule="nonzero" group-id="2" id="Path" node-id="15" stroke="none" target-height="83.20999" target-width="35.329987" target-x="451.03" target-y="244.84"></path><path d="M 465.24 331.72 L 464.96 331.62 L 464.80 331.36 L 464.78 330.73 L 465.02 329.58 L 466.11 326.12 L 467.93 320.34 L 468.78 317.05 L 469.45 313.54 L 469.82 309.98 L 469.78 306.44 L 469.40 303.13 L 468.80 299.70 L 467.30 292.85 L 466.21 288.00 L 465.38 283.54 L 465.03 280.58 L 464.99 277.93 L 465.21 275.56 L 465.55 272.84 L 465.69 269.93 L 465.53 264.21 L 465.14 259.37 L 464.92 256.64 L 464.95 255.32 L 465.16 255.04 L 465.50 254.99 L 465.77 255.20 L 465.82 255.54 L 465.83 256.87 L 466.04 259.29 L 466.43 264.18 L 466.59 269.98 L 466.45 272.94 L 466.10 275.72 L 465.88 278.00 L 465.94 280.58 L 466.28 283.48 L 467.10 287.87 L 468.18 292.64 L 469.69 299.55 L 470.29 303.01 L 470.68 306.37 L 470.72 309.99 L 470.35 313.62 L 469.67 317.20 L 468.81 320.54 L 466.96 326.41 L 465.99 329.43 L 465.70 330.62 L 465.68 331.17 L 465.61 331.51 L 465.33 331.71 L 465.24 331.72 Z" fill="#44d690" fill-rule="nonzero" group-id="2" id="Path" node-id="16" stroke="none" target-height="76.729996" target-width="5.9400024" target-x="464.78" target-y="254.99"></path><path d="M 464.24 284.71 L 462.64 284.37 L 461.33 283.54 L 460.28 282.42 L 459.64 281.40 L 459.62 281.06 L 459.84 280.80 L 460.18 280.77 L 460.44 280.99 L 461.11 282.01 L 461.83 282.79 L 462.84 283.48 L 464.02 283.81 L 465.50 283.55 L 465.84 283.55 L 466.08 283.79 L 466.08 284.14 L 465.84 284.38 L 465.00 284.64 L 464.24 284.71 Z" fill="#44d690" fill-rule="nonzero" group-id="2" id="Path" node-id="17" stroke="none" target-height="3.9400024" target-width="6.4599915" target-x="459.62" target-y="280.77"></path><path d="M 465.47 277.26 L 465.18 277.16 L 465.03 276.90 L 465.09 276.56 L 465.38 276.37 L 466.69 275.95 L 467.89 275.38 L 469.31 274.40 L 470.54 273.10 L 471.47 271.27 L 471.69 271.01 L 472.04 270.98 L 472.30 271.21 L 472.32 271.55 L 471.29 273.61 L 469.96 275.06 L 468.40 276.14 L 467.08 276.77 L 465.56 277.25 L 465.47 277.26 Z" fill="#44d690" fill-rule="nonzero" group-id="2" id="Path" node-id="18" stroke="none" target-height="6.279999" target-width="7.2900085" target-x="465.03" target-y="270.98"></path><path d="M 470.23 306.86 L 469.10 306.77 L 466.77 306.19 L 465.48 305.59 L 464.21 304.67 L 463.18 303.45 L 462.40 301.74 L 462.44 301.39 L 462.71 301.18 L 463.05 301.21 L 463.27 301.48 L 463.89 302.86 L 464.67 303.89 L 465.61 304.64 L 467.21 305.43 L 468.62 305.80 L 470.23 305.96 L 470.55 306.09 L 470.68 306.40 L 470.55 306.72 L 470.24 306.86 L 470.23 306.86 Z" fill="#44d690" fill-rule="nonzero" group-id="2" id="Path" node-id="19" stroke="none" target-height="5.6799927" target-width="8.279999" target-x="462.4" target-y="301.18"></path><path d="M 469.86 314.28 L 469.44 314.00 L 469.44 313.65 L 469.68 313.41 L 471.16 312.70 L 474.32 310.74 L 476.01 309.36 L 477.50 307.73 L 478.30 306.52 L 478.80 305.24 L 479.04 303.87 L 479.18 303.56 L 479.50 303.44 L 479.81 303.58 L 479.93 303.90 L 479.69 305.41 L 479.17 306.81 L 478.35 308.12 L 476.81 309.87 L 475.05 311.34 L 473.21 312.58 L 471.71 313.43 L 470.03 314.24 L 469.86 314.28 Z" fill="#44d690" fill-rule="nonzero" group-id="2" id="Path" node-id="20" stroke="none" target-height="10.839996" target-width="10.48999" target-x="469.44" target-y="303.44"></path></g><g node-id="125"><path d="M 197.36 82.73 L 195.15 82.96 L 193.00 83.59 L 190.90 84.65 L 188.80 86.19 L 186.36 88.63 L 184.03 91.74 L 181.81 95.63 L 180.00 99.72 L 178.43 104.37 L 177.10 109.63 L 176.17 114.96 L 175.59 120.66 L 175.37 126.77 L 175.37 321.30 L 197.36 321.30 L 219.35 321.30 L 219.35 126.77 L 219.14 120.66 L 218.56 114.96 L 217.63 109.63 L 216.30 104.37 L 214.72 99.72 L 212.91 95.63 L 210.70 91.74 L 208.36 88.63 L 205.92 86.19 L 203.83 84.65 L 201.72 83.59 L 199.58 82.96 L 197.36 82.73 Z" fill="#355aa2" fill-rule="nonzero" group-id="3" id="Path" node-id="22" stroke="none" target-height="238.56998" target-width="43.98001" target-x="175.37" target-y="82.73"></path><path d="M 343.97 132.18 L 321.98 132.18 L 321.98 321.30 L 343.97 321.30 L 365.96 321.30 L 365.96 132.18 Z" fill="#355aa2" fill-rule="nonzero" group-id="3" id="Path" node-id="23" stroke="none" target-height="189.12" target-width="43.97998" target-x="321.98" target-y="132.18"></path><path d="M 175.37 192.84 L 219.35 192.84 L 219.35 200.18 L 175.37 200.18 Z" fill="#224380" fill-rule="nonzero" group-id="3" id="Rectangle" node-id="24" stroke="none" target-height="7.3399963" target-width="43.98001" target-x="175.37" target-y="192.84"></path><path d="M 175.37 207.52 L 219.35 207.52 L 219.35 214.86 L 175.37 214.86 Z" fill="#224380" fill-rule="nonzero" group-id="3" id="Rectangle" node-id="25" stroke="none" target-height="7.3399963" target-width="43.98001" target-x="175.37" target-y="207.52"></path><path d="M 321.98 192.84 L 365.96 192.84 L 365.96 200.18 L 321.98 200.18 Z" fill="#224380" fill-rule="nonzero" group-id="3" id="Rectangle" node-id="26" stroke="none" target-height="7.3399963" target-width="43.97998" target-x="321.98" target-y="192.84"></path><path d="M 321.98 207.52 L 365.96 207.52 L 365.96 214.86 L 321.98 214.86 Z" fill="#224380" fill-rule="nonzero" group-id="3" id="Rectangle" node-id="27" stroke="none" target-height="7.3399963" target-width="43.97998" target-x="321.98" target-y="207.52"></path><path d="M 270.67 24.00 L 270.66 24.00 L 267.04 24.31 L 263.51 25.15 L 260.04 26.53 L 256.59 28.47 L 253.42 30.78 L 250.30 33.49 L 247.23 36.64 L 244.22 40.27 L 240.59 45.34 L 237.16 50.89 L 233.92 56.96 L 231.02 63.20 L 228.41 69.58 L 226.09 76.12 L 224.06 82.75 L 222.40 89.14 L 221.10 95.30 L 220.11 101.54 L 219.54 107.11 L 219.35 112.09 L 219.35 288.27 L 228.33 288.27 L 243.01 288.27 L 261.10 288.27 L 280.33 288.27 L 298.40 288.27 L 313.05 288.27 L 321.98 288.27 L 321.98 112.09 L 321.78 106.64 L 321.18 100.73 L 320.15 94.30 L 318.78 87.95 L 317.06 81.46 L 314.97 74.84 L 312.58 68.32 L 309.90 62.00 L 306.95 55.88 L 303.66 49.94 L 300.20 44.53 L 296.56 39.63 L 292.54 35.06 L 288.46 31.30 L 284.31 28.27 L 280.93 26.40 L 277.55 25.09 L 274.14 24.29 L 270.67 24.00 Z" fill="#224380" fill-rule="nonzero" group-id="3" id="Path" node-id="28" stroke="none" target-height="264.27" target-width="102.630005" target-x="219.35" target-y="24"></path><path d="M 314.65 376.36 L 226.68 376.36 L 241.34 339.65 L 299.99 339.65 Z" fill="#dae7ff" fill-rule="nonzero" group-id="3" id="Path" node-id="29" stroke="none" target-height="36.70999" target-width="87.97" target-x="226.68" target-y="339.65"></path><path d="M 302.92 346.99 L 299.99 339.65 L 241.34 339.65 L 238.41 346.99 Z" fill="#c3d3f3" fill-rule="nonzero" group-id="3" id="Path" node-id="30" stroke="none" target-height="7.3399963" target-width="64.51001" target-x="238.41" target-y="339.65"></path><path d="M 363.44 290.79 L 357.33 284.33 L 351.65 277.62 L 346.39 270.65 L 341.56 263.41 L 337.16 255.88 L 333.31 248.17 L 329.97 240.24 L 327.16 232.10 L 325.32 225.46 L 323.89 218.73 L 322.85 211.88 L 322.21 204.90 L 321.98 197.79 L 321.98 185.50 L 219.35 185.50 L 219.35 197.79 L 219.12 204.90 L 218.48 211.88 L 217.45 218.73 L 216.01 225.46 L 214.17 232.10 L 211.36 240.24 L 208.03 248.17 L 204.17 255.88 L 199.78 263.41 L 194.94 270.65 L 189.69 277.62 L 184.01 284.33 L 177.89 290.79 L 174.50 294.48 L 171.45 298.43 L 168.72 302.67 L 166.36 307.13 L 164.39 311.80 L 162.81 316.70 L 161.66 321.72 L 160.96 326.92 L 160.71 332.31 L 219.36 332.31 L 321.98 332.31 L 380.62 332.31 L 380.38 326.92 L 379.67 321.72 L 378.53 316.70 L 376.94 311.80 L 374.97 307.13 L 372.61 302.67 L 369.88 298.43 L 366.83 294.48 L 363.44 290.79 Z" fill="#1b90fb" fill-rule="nonzero" group-id="3" id="Path" node-id="31" stroke="none" target-height="146.81" target-width="219.90999" target-x="160.71" target-y="185.5"></path><path d="M 270.67 53.36 L 267.37 53.65 L 264.13 54.43 L 260.92 55.74 L 257.70 57.61 L 254.45 60.10 L 250.89 63.54 L 247.36 67.75 L 243.85 72.82 L 240.36 78.86 L 237.40 84.90 L 234.55 91.64 L 231.83 99.14 L 229.25 107.46 L 227.10 115.66 L 225.15 124.41 L 223.44 133.76 L 221.97 143.73 L 220.55 156.94 L 219.67 170.85 L 219.35 185.50 L 219.35 310.29 L 219.63 314.32 L 220.40 318.12 L 221.66 321.72 L 223.37 325.13 L 225.46 328.23 L 227.94 331.05 L 230.76 333.54 L 233.86 335.63 L 237.26 337.35 L 240.86 338.60 L 244.65 339.37 L 248.68 339.65 L 292.66 339.65 L 296.68 339.37 L 300.48 338.60 L 304.07 337.35 L 307.47 335.63 L 310.57 333.54 L 313.39 331.05 L 315.87 328.23 L 317.96 325.13 L 319.67 321.72 L 320.93 318.12 L 321.70 314.32 L 321.98 310.29 L 321.98 185.50 L 321.66 170.85 L 320.78 156.94 L 319.36 143.73 L 317.89 133.76 L 316.18 124.41 L 314.24 115.66 L 312.08 107.46 L 309.50 99.14 L 306.78 91.64 L 303.94 84.90 L 300.97 78.86 L 297.48 72.82 L 293.97 67.75 L 290.44 63.54 L 286.88 60.10 L 283.63 57.61 L 280.41 55.74 L 277.20 54.43 L 273.96 53.65 L 270.67 53.36 Z" fill="#dceefd" fill-rule="nonzero" group-id="3" id="Path" node-id="32" stroke="none" target-height="286.28998" target-width="102.630005" target-x="219.35" target-y="53.36"></path><path d="M 219.35 185.50 L 219.35 310.29 L 219.63 314.32 L 220.40 318.12 L 221.66 321.72 L 223.37 325.13 L 225.46 328.23 L 227.94 331.05 L 230.76 333.54 L 233.86 335.63 L 237.26 337.35 L 240.86 338.60 L 244.65 339.37 L 248.68 339.65 L 270.67 339.65 L 270.67 53.36 L 267.37 53.65 L 264.13 54.43 L 260.92 55.74 L 257.70 57.61 L 254.45 60.10 L 250.89 63.54 L 247.36 67.75 L 243.85 72.82 L 240.36 78.86 L 237.40 84.90 L 234.55 91.64 L 231.83 99.14 L 229.25 107.46 L 227.10 115.66 L 225.15 124.41 L 223.44 133.76 L 221.97 143.73 L 220.55 156.94 L 219.67 170.85 L 219.35 185.50 Z" fill="#f3f9ff" fill-rule="nonzero" group-id="3" id="Path" node-id="33" stroke="none" target-height="286.28998" target-width="51.320007" target-x="219.35" target-y="53.36"></path><path d="M 321.53 339.65 L 219.80 339.65 L 219.49 339.52 L 219.35 339.20 L 219.35 288.27 L 321.98 288.27 L 321.98 339.20 L 321.85 339.52 L 321.53 339.65 Z" fill="#224380" fill-rule="nonzero" group-id="3" id="Path" node-id="34" stroke="none" target-height="51.380005" target-width="102.630005" target-x="219.35" target-y="288.27"></path><path d="M 270.67 273.59 L 263.34 288.27 L 263.34 346.99 L 270.67 361.67 L 278.00 346.99 L 278.00 288.27 Z" fill="#183168" fill-rule="nonzero" group-id="3" id="Path" node-id="35" stroke="none" target-height="88.08002" target-width="14.660004" target-x="263.34" target-y="273.59"></path><path d="M 226.68 361.67 L 314.65 361.67 L 314.65 376.36 L 226.68 376.36 Z" fill="#aec1e8" fill-rule="nonzero" group-id="3" id="Rectangle" node-id="36" stroke="none" target-height="14.689972" target-width="87.97" target-x="226.68" target-y="361.67"></path><path d="M 219.35 229.54 L 321.98 229.54 L 321.98 236.88 L 219.35 236.88 Z" fill="#224380" fill-rule="nonzero" group-id="3" id="Rectangle" node-id="37" stroke="none" target-height="7.3400116" target-width="102.630005" target-x="219.35" target-y="229.54"></path><path d="M 175.37 126.77 L 219.35 126.77 L 219.35 134.11 L 175.37 134.11 Z" fill="#224380" fill-rule="nonzero" group-id="3" id="Rectangle" node-id="38" stroke="none" target-height="7.340004" target-width="43.98001" target-x="175.37" target-y="126.77"></path><path d="M 321.98 126.77 L 365.96 126.77 L 365.96 134.11 L 321.98 134.11 Z" fill="#224380" fill-rule="nonzero" group-id="3" id="Rectangle" node-id="39" stroke="none" target-height="7.340004" target-width="43.97998" target-x="321.98" target-y="126.77"></path><path d="M 286.19 114.99 L 284.55 112.03 L 282.48 109.57 L 279.96 107.54 L 277.10 106.02 L 274.02 105.09 L 270.67 104.75 L 267.31 105.09 L 264.23 106.02 L 261.37 107.53 L 258.85 109.57 L 256.79 112.03 L 255.15 114.99 L 241.68 109.19 L 243.59 105.44 L 245.89 102.08 L 248.60 99.07 L 251.67 96.43 L 255.01 94.22 L 258.64 92.44 L 262.47 91.14 L 266.47 90.35 L 270.67 90.07 L 274.86 90.35 L 278.85 91.14 L 282.68 92.44 L 286.31 94.22 L 289.65 96.43 L 292.72 99.07 L 295.43 102.08 L 297.73 105.45 L 299.64 109.19 L 286.19 114.99 Z" fill="#224380" fill-rule="nonzero" group-id="3" id="Path" node-id="40" stroke="none" target-height="24.919998" target-width="57.960022" target-x="241.68" target-y="90.07"></path></g><g node-id="126"><g node-id="131"><path d="M 97.89 307.84 L 98.12 305.99 L 98.66 304.37 L 99.51 302.95 L 101.16 301.03 L 103.05 299.32 L 104.98 297.69 L 106.60 296.14 L 107.48 295.02 L 108.00 293.86 L 108.21 292.63 L 107.85 291.16 L 106.79 289.69 L 105.31 288.35 L 103.39 286.90 L 99.34 283.81 L 97.47 282.01 L 95.94 279.98 L 95.19 278.50 L 94.71 276.84 L 94.52 274.98 L 94.72 273.13 L 95.20 271.62 L 95.94 270.38 L 97.47 268.78 L 99.34 267.46 L 103.39 265.28 L 105.29 264.15 L 106.79 262.90 L 107.54 261.92 L 108.02 260.77 L 108.21 259.39 L 107.89 256.87 L 107.14 255.01 L 106.04 253.38 L 104.79 251.85 L 103.55 250.28 L 102.43 248.38 L 101.89 247.00 L 101.52 245.25 L 101.36 243.05 L 101.57 241.23 L 102.16 238.96 L 103.27 236.15 L 105.35 232.04 L 108.11 227.52 L 111.22 223.13 L 114.55 219.04 L 118.07 215.33 L 121.28 212.57 L 123.55 211.07 L 125.42 210.27 L 126.96 210.00 L 128.46 210.27 L 130.00 211.04 L 131.62 212.40 L 133.77 214.97 L 135.91 218.41 L 137.78 222.18 L 139.44 226.22 L 140.82 230.32 L 141.83 234.04 L 142.51 237.57 L 142.71 240.05 L 142.54 241.49 L 142.08 242.84 L 141.33 244.11 L 139.86 245.86 L 138.03 247.53 L 134.09 250.65 L 132.24 252.23 L 130.78 253.80 L 130.03 254.93 L 129.57 256.10 L 129.40 257.32 L 129.58 258.53 L 130.04 259.59 L 130.78 260.53 L 132.24 261.75 L 134.09 262.87 L 138.03 264.91 L 139.88 266.03 L 141.33 267.23 L 142.08 268.16 L 142.53 269.20 L 142.71 270.38 L 142.51 271.58 L 141.97 272.80 L 141.04 274.08 L 139.28 275.82 L 137.04 277.60 L 132.26 280.94 L 130.00 282.59 L 128.26 284.08 L 127.30 285.16 L 126.77 286.12 L 126.59 286.99 L 126.81 288.07 L 127.39 289.16 L 128.40 290.30 L 132.40 293.70 L 134.53 295.64 L 136.40 297.87 L 137.35 299.52 L 137.96 301.39 L 138.21 303.52 L 137.92 306.29 L 137.00 309.66 L 135.66 313.09 L 133.90 316.65 L 131.88 320.10 L 129.72 323.22 L 127.39 326.04 L 125.26 328.09 L 123.72 329.21 L 122.43 329.80 L 121.34 330.00 L 119.49 329.65 L 116.73 328.43 L 113.87 326.73 L 110.64 324.42 L 107.50 321.81 L 104.52 318.97 L 101.83 315.95 L 99.79 313.10 L 98.71 311.10 L 98.11 309.36 L 97.89 307.84 Z" fill="#9e95e3" fill-rule="nonzero" group-id="4,9" id="Path" node-id="43" stroke="none" target-height="120" target-width="48.19001" target-x="94.52" target-y="210"></path><path d="M 122.08 337.17 L 121.70 337.03 L 121.49 336.68 L 119.69 325.36 L 118.36 315.23 L 117.46 306.20 L 116.62 293.04 L 116.42 282.38 L 116.67 272.54 L 117.20 265.15 L 118.05 257.92 L 118.93 252.64 L 119.92 248.02 L 120.67 245.23 L 121.53 242.64 L 121.85 242.31 L 122.31 242.31 L 122.64 242.63 L 122.64 243.09 L 121.84 245.55 L 121.10 248.31 L 120.11 252.92 L 119.23 258.18 L 118.39 265.35 L 117.86 272.70 L 117.61 282.48 L 117.82 293.07 L 118.66 306.16 L 119.56 315.14 L 120.88 325.21 L 122.68 336.47 L 122.58 336.92 L 122.19 337.16 L 122.08 337.17 Z" fill="#877cd8" fill-rule="nonzero" group-id="4,9" id="Path" node-id="44" stroke="none" target-height="94.860016" target-width="6.260002" target-x="116.42" target-y="242.31"></path></g><path d="M 70.34 318.69 L 68.08 313.06 L 67.18 310.03 L 66.68 306.99 L 66.63 304.97 L 66.91 303.03 L 67.51 301.14 L 68.47 299.42 L 69.93 297.76 L 71.99 296.15 L 74.08 294.58 L 75.31 293.25 L 75.91 292.13 L 76.17 290.88 L 76.12 289.62 L 75.73 288.31 L 73.80 284.00 L 72.93 281.51 L 72.48 278.52 L 72.62 276.47 L 73.05 274.74 L 73.75 273.26 L 75.17 271.26 L 76.79 269.59 L 79.84 266.75 L 80.83 265.36 L 81.12 263.98 L 80.84 259.23 L 80.76 254.03 L 80.92 251.63 L 81.23 249.94 L 81.78 248.75 L 82.60 247.74 L 83.74 246.90 L 85.04 246.33 L 86.42 246.09 L 87.93 246.17 L 89.35 246.62 L 90.72 247.55 L 92.07 249.04 L 93.05 250.80 L 93.85 253.31 L 94.38 256.79 L 94.77 261.08 L 95.27 264.68 L 96.03 268.08 L 97.12 271.22 L 98.61 274.23 L 100.72 277.41 L 101.61 279.06 L 101.96 280.64 L 101.83 282.21 L 101.03 284.56 L 99.67 286.96 L 96.66 291.48 L 95.56 293.67 L 95.21 295.58 L 95.51 297.31 L 96.12 298.58 L 97.88 301.03 L 98.73 302.46 L 99.50 304.54 L 99.93 306.99 L 99.99 310.76 L 99.54 314.36 L 98.70 317.58 L 97.50 320.49 L 95.90 323.20 L 94.12 325.38 L 92.18 327.11 L 89.97 328.44 L 87.78 329.15 L 85.56 329.30 L 83.14 328.87 L 80.17 327.81 L 77.27 326.26 L 74.47 324.18 L 72.80 322.53 L 71.43 320.71 L 70.34 318.69 Z" fill="#8ae6b9" fill-rule="nonzero" group-id="4" id="Path" node-id="45" stroke="none" target-height="83.20999" target-width="35.33" target-x="66.63" target-y="246.09"></path><path d="M 93.15 282.04 L 92.81 282.02 L 92.55 282.24 L 91.90 283.23 L 91.19 284.00 L 90.20 284.70 L 89.05 285.04 L 87.60 284.83 L 87.98 281.29 L 87.95 278.18 L 87.97 278.14 L 87.92 277.87 L 87.78 276.81 L 87.44 274.09 L 87.30 271.17 L 87.46 265.46 L 87.85 260.62 L 88.07 257.88 L 88.04 256.56 L 87.83 256.28 L 87.49 256.24 L 87.22 256.44 L 87.17 256.78 L 87.16 258.12 L 86.95 260.54 L 86.56 265.43 L 86.40 271.22 L 86.55 274.19 L 86.90 276.96 L 86.96 277.43 L 85.18 276.67 L 84.15 276.02 L 83.09 275.11 L 82.20 273.98 L 81.52 272.52 L 81.30 272.26 L 80.96 272.23 L 80.70 272.45 L 80.67 272.80 L 81.52 274.59 L 82.62 275.93 L 83.92 276.98 L 85.15 277.68 L 87.07 278.41 L 87.05 281.75 L 86.56 285.62 L 84.82 293.89 L 83.30 300.79 L 82.70 304.25 L 82.31 307.62 L 82.26 310.96 L 82.56 314.31 L 79.40 312.50 L 77.51 311.08 L 75.77 309.35 L 74.83 308.02 L 74.23 306.62 L 73.96 305.12 L 73.81 304.81 L 73.49 304.68 L 73.18 304.83 L 73.06 305.15 L 73.47 307.21 L 74.44 309.08 L 75.81 310.74 L 77.40 312.17 L 79.11 313.40 L 80.61 314.31 L 82.73 315.38 L 83.41 318.82 L 84.25 322.02 L 86.03 327.66 L 87.00 330.67 L 87.29 331.87 L 87.32 332.42 L 87.38 332.76 L 87.66 332.95 L 87.76 332.96 L 88.04 332.87 L 88.20 332.61 L 88.21 331.98 L 87.98 330.82 L 86.88 327.37 L 85.09 321.70 L 84.26 318.49 L 83.58 315.05 L 83.20 311.56 L 83.19 308.09 L 85.47 307.69 L 86.92 307.15 L 88.42 306.22 L 89.67 304.91 L 90.59 302.98 L 90.55 302.64 L 90.29 302.42 L 89.94 302.46 L 89.73 302.73 L 88.94 304.40 L 87.87 305.53 L 86.58 306.34 L 85.31 306.82 L 83.26 307.19 L 83.66 303.98 L 84.24 300.68 L 85.69 294.09 L 87.46 285.72 L 88.76 285.96 L 90.35 285.62 L 91.66 284.79 L 92.71 283.67 L 93.35 282.65 L 93.38 282.30 L 93.15 282.04 Z" fill="#45d48f" fill-rule="nonzero" group-id="4" id="Path" node-id="46" stroke="none" target-height="76.72" target-width="20.32" target-x="73.06" target-y="256.24"></path></g><g node-id="127"><path d="M 417.69 103.79 L 413.92 103.71 L 413.61 103.56 L 413.49 103.24 L 413.64 102.92 L 413.96 102.81 L 417.69 102.89 L 418.43 102.89 L 418.43 102.89 L 418.75 103.02 L 418.88 103.33 L 418.76 103.65 L 418.44 103.79 L 417.69 103.79 Z M 422.93 103.62 L 422.62 103.50 L 422.48 103.20 L 422.59 102.87 L 422.90 102.72 L 427.34 102.30 L 427.68 102.39 L 427.85 102.69 L 427.76 103.02 L 427.46 103.20 L 422.96 103.62 Z M 409.45 103.41 L 409.41 103.41 L 404.92 102.91 L 404.63 102.73 L 404.54 102.40 L 404.71 102.10 L 405.04 102.01 L 409.49 102.51 L 409.80 102.67 L 409.90 103.00 L 409.75 103.29 L 409.45 103.41 Z M 431.84 102.49 L 431.56 102.39 L 431.40 102.13 L 431.47 101.79 L 431.75 101.60 L 436.10 100.59 L 436.44 100.64 L 436.65 100.91 L 436.61 101.25 L 436.34 101.46 L 431.93 102.48 L 431.84 102.49 Z M 400.54 102.22 L 400.46 102.21 L 396.03 101.35 L 395.75 101.15 L 395.69 100.82 L 395.88 100.53 L 396.22 100.47 L 400.62 101.33 L 400.91 101.51 L 400.98 101.85 L 400.83 102.12 L 400.54 102.22 Z M 391.75 100.34 L 391.64 100.33 L 389.33 99.73 L 389.05 99.52 L 389.01 99.18 L 389.22 98.90 L 389.56 98.86 L 391.85 99.45 L 392.13 99.66 L 392.18 100.00 L 392.02 100.25 L 391.75 100.34 Z M 440.51 100.13 L 440.08 99.83 L 440.10 99.49 L 440.36 99.26 L 444.49 97.58 L 444.83 97.57 L 445.08 97.80 L 445.10 98.15 L 444.86 98.40 L 440.66 100.11 L 440.51 100.13 Z M 448.67 96.38 L 448.28 96.15 L 448.23 95.81 L 448.44 95.54 L 452.17 93.11 L 452.51 93.03 L 452.80 93.21 L 452.88 93.55 L 452.70 93.84 L 448.89 96.32 L 448.67 96.38 Z M 455.91 91.07 L 455.58 90.93 L 455.46 90.59 L 453.98 90.37 L 453.69 90.19 L 453.62 89.85 L 453.80 89.56 L 454.14 89.49 L 456.17 89.75 L 458.65 87.07 L 458.96 86.91 L 459.29 87.01 L 459.45 87.31 L 459.35 87.64 L 457.37 89.83 L 458.53 89.86 L 458.85 89.99 L 458.98 90.31 L 458.85 90.63 L 458.53 90.76 L 458.53 90.76 L 456.50 90.68 L 456.22 90.95 L 455.91 91.07 Z M 463.02 90.48 L 462.72 90.37 L 462.57 90.09 L 462.66 89.76 L 462.96 89.59 L 467.35 88.83 L 467.69 88.89 L 467.89 89.17 L 467.83 89.51 L 467.55 89.71 L 463.07 90.48 L 463.02 90.48 Z M 449.76 89.12 L 449.58 89.08 L 447.46 87.98 L 445.66 86.64 L 445.51 86.33 L 445.62 86.00 L 445.92 85.85 L 446.25 85.96 L 447.94 87.21 L 449.93 88.25 L 450.17 88.50 L 450.17 88.85 L 449.76 89.12 Z M 471.80 88.58 L 471.53 88.49 L 471.37 88.26 L 471.40 87.91 L 471.67 87.70 L 475.97 86.40 L 476.32 86.43 L 476.54 86.69 L 476.50 87.04 L 476.24 87.26 L 471.93 88.56 L 471.80 88.58 Z M 480.40 85.93 L 480.14 85.85 L 479.97 85.62 L 480.00 85.28 L 480.26 85.05 L 484.54 83.67 L 484.88 83.70 L 485.11 83.96 L 485.08 84.30 L 484.82 84.52 L 480.54 85.91 L 480.40 85.93 Z M 461.58 84.13 L 461.36 84.06 L 461.15 83.79 L 461.20 83.45 L 462.26 81.42 L 463.05 79.45 L 463.28 79.19 L 463.62 79.17 L 463.88 79.40 L 463.90 79.74 L 463.07 81.80 L 461.97 83.90 L 461.58 84.13 Z M 443.18 83.24 L 442.78 83.00 L 441.91 80.84 L 441.47 78.54 L 441.57 78.21 L 441.88 78.05 L 442.21 78.15 L 442.37 78.46 L 442.77 80.58 L 443.58 82.58 L 443.61 82.93 L 443.39 83.19 L 443.18 83.24 Z M 488.95 83.12 L 488.69 83.04 L 488.52 82.82 L 488.55 82.47 L 488.81 82.25 L 493.06 80.79 L 493.40 80.81 L 493.63 81.06 L 493.61 81.41 L 493.35 81.64 L 489.09 83.10 L 488.95 83.12 Z M 497.45 80.16 L 497.03 79.87 L 497.04 79.52 L 497.30 79.29 L 501.53 77.76 L 501.87 77.77 L 502.10 78.02 L 502.09 78.37 L 501.84 78.60 L 497.60 80.14 L 497.45 80.16 Z M 505.90 77.06 L 505.48 76.77 L 505.49 76.42 L 505.74 76.19 L 509.94 74.58 L 510.29 74.59 L 510.52 74.84 L 510.52 75.18 L 510.27 75.42 L 506.06 77.03 L 505.90 77.06 Z M 464.35 75.65 L 464.33 75.65 L 464.02 75.50 L 463.90 75.18 L 463.91 74.62 L 463.74 72.66 L 463.24 70.96 L 463.24 70.61 L 463.48 70.37 L 463.82 70.37 L 464.07 70.61 L 464.62 72.49 L 464.81 74.62 L 464.80 75.22 L 464.66 75.52 L 464.35 75.65 Z M 442.36 74.49 L 442.23 74.48 L 441.96 74.26 L 441.93 73.91 L 442.82 71.74 L 444.10 69.80 L 444.40 69.64 L 444.73 69.74 L 444.89 70.04 L 444.80 70.37 L 443.61 72.16 L 442.79 74.17 L 442.63 74.41 L 442.36 74.49 Z M 514.30 73.81 L 513.88 73.52 L 513.88 73.18 L 514.13 72.94 L 518.29 71.24 L 518.64 71.23 L 518.88 71.48 L 518.89 71.82 L 518.64 72.07 L 514.46 73.77 L 514.30 73.81 Z M 460.86 67.79 L 460.61 67.71 L 458.82 66.81 L 456.61 66.29 L 456.31 66.12 L 456.22 65.79 L 456.39 65.49 L 456.72 65.40 L 459.14 65.97 L 461.11 66.97 L 461.30 67.25 L 461.23 67.59 L 460.86 67.79 Z M 447.91 67.71 L 447.51 67.47 L 447.48 67.13 L 447.70 66.86 L 449.35 66.15 L 451.14 65.67 L 452.12 65.50 L 452.45 65.59 L 452.63 65.88 L 452.54 66.22 L 452.25 66.39 L 451.31 66.55 L 449.65 67.00 L 448.12 67.66 L 447.91 67.71 Z" fill="#dae7ff" fill-rule="nonzero" group-id="5" id="Shape" node-id="48" stroke="none" target-height="38.39" target-width="129.88" target-x="389.01" target-y="65.4"></path><g node-id="132"><path d="M 502.97 53.92 L 516.26 60.57 L 556.11 42.83 Z" fill="#ffe994" fill-rule="nonzero" group-id="5,10" id="Path" node-id="50" stroke="none" target-height="17.739998" target-width="53.139984" target-x="502.97" target-y="42.83"></path><path d="M 518.47 71.65 L 516.26 60.57 L 556.11 42.83 Z" fill="#ffe270" fill-rule="nonzero" group-id="5,10" id="Path" node-id="51" stroke="none" target-height="28.82" target-width="39.849976" target-x="516.26" target-y="42.83"></path><path d="M 518.47 71.65 L 522.90 62.79 L 533.97 60.57 Z" fill="#ffd94a" fill-rule="nonzero" group-id="5,10" id="Path" node-id="52" stroke="none" target-height="11.080002" target-width="15.5" target-x="518.47" target-y="60.57"></path><path d="M 522.90 62.79 L 533.97 67.22 L 556.11 42.83 Z" fill="#ffe994" fill-rule="nonzero" group-id="5,10" id="Path" node-id="53" stroke="none" target-height="24.39" target-width="33.20996" target-x="522.9" target-y="42.83"></path></g></g><g node-id="128"><path d="M 379.43 89.83 L 378.89 88.52 L 377.77 85.90 L 376.87 83.95 L 376.79 83.43 L 376.90 82.20 L 377.39 79.27 L 377.77 76.50 L 377.72 75.48 L 377.49 75.20 L 377.02 75.42 L 376.49 76.34 L 375.76 78.62 L 375.48 79.87 L 375.06 78.62 L 374.08 75.84 L 372.89 73.01 L 372.27 71.92 L 371.89 71.57 L 371.33 71.76 L 370.35 72.85 L 369.47 74.30 L 368.67 76.09 L 368.15 77.92 L 368.10 79.39 L 368.49 80.81 L 369.26 82.50 L 371.19 85.66 L 372.77 87.80 L 373.92 89.88 L 374.99 92.44 L 375.46 93.68 L 379.43 89.83 Z" fill="#f1b282" fill-rule="nonzero" group-id="6" id="Path" node-id="55" stroke="none" target-height="22.11" target-width="11.329987" target-x="368.1" target-y="71.57"></path><path d="M 378.01 85.75 L 379.02 87.99 L 381.75 93.77 L 385.75 101.68 L 390.58 110.32 L 393.21 114.53 L 395.80 118.28 L 398.52 121.67 L 400.97 124.14 L 388.66 126.33 L 387.45 124.00 L 384.39 117.82 L 380.34 109.03 L 376.15 98.84 L 374.25 93.55 L 372.67 88.47 L 378.01 85.75 Z" fill="#1277d7" fill-rule="nonzero" group-id="6" id="Path" node-id="56" stroke="none" target-height="40.58" target-width="28.299988" target-x="372.67" target-y="85.75"></path><path d="M 369.85 68.55 L 367.04 67.76 L 364.15 67.53 L 361.12 67.87 L 358.15 68.68 L 355.11 69.89 L 351.98 71.56 L 347.52 74.55 L 343.14 78.14 L 339.04 82.09 L 335.32 86.17 L 331.94 90.37 L 329.24 94.19 L 337.96 99.96 L 347.58 106.34 L 357.21 112.71 L 365.92 118.49 L 369.09 113.29 L 371.77 108.11 L 373.99 102.93 L 375.82 97.59 L 377.07 92.61 L 377.79 87.95 L 378.00 84.36 L 377.85 81.16 L 377.39 78.31 L 376.63 75.76 L 375.47 73.35 L 373.97 71.38 L 372.11 69.79 L 369.85 68.55 Z" fill="#355aa2" fill-rule="nonzero" group-id="6" id="Path" node-id="57" stroke="none" target-height="50.96" target-width="48.76001" target-x="329.24" target-y="67.53"></path><path d="M 395.22 246.08 L 393.75 246.38 L 390.60 247.23 L 388.96 247.88 L 387.71 248.60 L 387.38 249.09 L 387.48 249.74 L 388.05 250.33 L 389.56 250.97 L 391.57 251.31 L 395.06 251.36 L 398.54 251.09 L 400.50 250.72 L 401.94 250.07 L 402.51 249.32 L 402.62 248.33 L 402.33 246.89 L 401.80 245.97 L 401.00 245.50 L 400.00 245.33 L 398.84 245.38 L 396.65 245.82 L 395.22 246.08 Z" fill="#102b5e" fill-rule="nonzero" group-id="6" id="Path" node-id="58" stroke="none" target-height="6.029999" target-width="15.23999" target-x="387.38" target-y="245.33"></path><g node-id="133"><path d="M 344.84 376.52 L 344.84 376.52 L 345.73 376.64 L 346.55 376.43 L 347.24 375.92 L 347.70 375.15 L 389.16 257.65 L 389.28 256.76 L 389.07 255.93 L 388.56 255.25 L 387.79 254.78 L 387.79 254.78 L 386.91 254.66 L 386.08 254.88 L 385.40 255.38 L 384.94 256.15 L 343.48 373.66 L 343.35 374.55 L 343.57 375.37 L 344.07 376.06 L 344.84 376.52 Z" fill="#c3d3f3" fill-rule="nonzero" group-id="6,11" id="Path" node-id="60" stroke="none" target-height="121.98001" target-width="45.929993" target-x="343.35" target-y="254.66"></path><path d="M 375.55 376.52 L 375.55 376.52 L 376.43 376.64 L 377.26 376.43 L 377.94 375.92 L 378.40 375.15 L 419.86 257.65 L 419.99 256.76 L 419.77 255.93 L 419.26 255.25 L 418.50 254.78 L 418.50 254.78 L 417.61 254.66 L 416.78 254.88 L 416.10 255.38 L 415.64 256.15 L 374.18 373.66 L 374.06 374.55 L 374.27 375.37 L 374.78 376.06 L 375.55 376.52 Z" fill="#c3d3f3" fill-rule="nonzero" group-id="6,11" id="Path" node-id="61" stroke="none" target-height="121.98001" target-width="45.929993" target-x="374.06" target-y="254.66"></path><g node-id="136"><path d="M 414.53 270.36 L 381.93 270.36 L 381.93 266.31 L 414.53 266.31 Z" fill="#c3d3f3" fill-rule="nonzero" group-id="6,11,14" id="Rectangle" node-id="62" stroke="none" target-height="4.049988" target-width="32.600006" target-x="381.93" target-y="266.31"></path></g><g node-id="137"><path d="M 405.99 294.90 L 373.38 294.90 L 373.38 290.85 L 405.99 290.85 Z" fill="#c3d3f3" fill-rule="nonzero" group-id="6,11,15" id="Rectangle" node-id="63" stroke="none" target-height="4.049988" target-width="32.609985" target-x="373.38" target-y="290.85"></path></g><g node-id="138"><path d="M 397.44 319.45 L 364.84 319.45 L 364.84 315.40 L 397.44 315.40 Z" fill="#c3d3f3" fill-rule="nonzero" group-id="6,11,16" id="Rectangle" node-id="64" stroke="none" target-height="4.0500183" target-width="32.600006" target-x="364.84" target-y="315.4"></path></g><g node-id="139"><path d="M 388.90 344.00 L 356.29 344.00 L 356.29 339.94 L 388.90 339.94 Z" fill="#c3d3f3" fill-rule="nonzero" group-id="6,11,17" id="Rectangle" node-id="65" stroke="none" target-height="4.0599976" target-width="32.609985" target-x="356.29" target-y="339.94"></path></g><path d="M 380.35 368.54 L 347.75 368.54 L 347.75 364.49 L 380.35 364.49 Z" fill="#c3d3f3" fill-rule="nonzero" group-id="6,11,18" id="Rectangle" node-id="66" stroke="none" target-height="4.0500183" target-width="32.600006" target-x="347.75" target-y="364.49"></path></g><g node-id="134"><path d="M 478.34 376.52 L 478.34 376.52 L 477.46 376.64 L 476.63 376.43 L 475.95 375.92 L 475.49 375.15 L 434.03 257.65 L 433.90 256.76 L 434.12 255.93 L 434.63 255.25 L 435.39 254.78 L 435.39 254.78 L 436.28 254.66 L 437.11 254.88 L 437.79 255.38 L 438.25 256.15 L 479.71 373.66 L 479.83 374.55 L 479.62 375.37 L 479.11 376.06 L 478.34 376.52 Z" fill="#dae7ff" fill-rule="nonzero" group-id="6,12" id="Path" node-id="68" stroke="none" target-height="121.98001" target-width="45.929993" target-x="433.9" target-y="254.66"></path><path d="M 447.64 376.52 L 447.64 376.52 L 446.75 376.64 L 445.93 376.43 L 445.24 375.92 L 444.78 375.15 L 403.32 257.65 L 403.20 256.76 L 403.41 255.93 L 403.92 255.25 L 404.69 254.78 L 404.69 254.78 L 405.58 254.66 L 406.40 254.88 L 407.09 255.38 L 407.55 256.15 L 449.01 373.66 L 449.13 374.55 L 448.91 375.37 L 448.41 376.06 L 447.64 376.52 Z" fill="#dae7ff" fill-rule="nonzero" group-id="6,12" id="Path" node-id="69" stroke="none" target-height="121.98001" target-width="45.929993" target-x="403.2" target-y="254.66"></path><path d="M 408.65 266.31 L 441.26 266.31 L 441.26 270.36 L 408.65 270.36 Z" fill="#dae7ff" fill-rule="nonzero" group-id="6,12" id="Rectangle" node-id="70" stroke="none" target-height="4.049988" target-width="32.610016" target-x="408.65" target-y="266.31"></path><path d="M 417.20 290.85 L 449.80 290.85 L 449.80 294.90 L 417.20 294.90 Z" fill="#dae7ff" fill-rule="nonzero" group-id="6,12" id="Rectangle" node-id="71" stroke="none" target-height="4.049988" target-width="32.599976" target-x="417.2" target-y="290.85"></path><path d="M 425.74 315.40 L 458.35 315.40 L 458.35 319.45 L 425.74 319.45 Z" fill="#dae7ff" fill-rule="nonzero" group-id="6,12" id="Rectangle" node-id="72" stroke="none" target-height="4.0500183" target-width="32.610016" target-x="425.74" target-y="315.4"></path><path d="M 434.29 339.94 L 466.89 339.94 L 466.89 344.00 L 434.29 344.00 Z" fill="#dae7ff" fill-rule="nonzero" group-id="6,12" id="Rectangle" node-id="73" stroke="none" target-height="4.0599976" target-width="32.600006" target-x="434.29" target-y="339.94"></path><path d="M 442.83 364.49 L 475.44 364.49 L 475.44 368.54 L 442.83 368.54 Z" fill="#dae7ff" fill-rule="nonzero" group-id="6,12" id="Rectangle" node-id="74" stroke="none" target-height="4.0500183" target-width="32.610016" target-x="442.83" target-y="364.49"></path></g><path d="M 440.75 258.04 L 383.90 258.04 L 382.44 257.74 L 381.26 256.94 L 380.47 255.76 L 380.17 254.30 L 380.17 254.30 L 380.47 252.83 L 381.26 251.65 L 382.44 250.86 L 383.90 250.56 L 440.75 250.56 L 442.21 250.86 L 443.39 251.65 L 444.19 252.83 L 444.48 254.30 L 444.48 254.30 L 444.19 255.76 L 443.39 256.94 L 442.21 257.74 L 440.75 258.04 Z" fill="#aec1e8" fill-rule="nonzero" group-id="6" id="Path" node-id="75" stroke="none" target-height="7.480011" target-width="64.31" target-x="380.17" target-y="250.56"></path><path d="M 399.90 93.11 L 398.59 93.41 L 397.69 94.10 L 397.05 95.08 L 396.62 96.25 L 396.13 98.55 L 395.90 99.51 L 395.67 99.97 L 394.63 101.17 L 393.87 102.29 L 393.30 103.41 L 393.07 104.23 L 393.14 104.82 L 393.41 105.10 L 393.76 105.36 L 394.10 105.94 L 394.23 106.80 L 394.02 108.84 L 394.02 110.41 L 394.48 111.43 L 395.29 112.21 L 396.30 112.77 L 398.33 113.60 L 399.08 114.08 L 399.38 114.66 L 399.12 117.12 L 398.33 120.70 L 397.50 123.93 L 397.11 125.34 L 408.24 125.11 L 408.05 122.85 L 407.80 117.03 L 407.81 113.32 L 408.00 109.08 L 408.38 105.89 L 408.90 102.94 L 409.29 100.10 L 409.27 97.78 L 408.93 96.40 L 408.19 95.25 L 406.99 94.28 L 405.53 93.66 L 403.26 93.24 L 399.90 93.11 Z" fill="#f1b282" fill-rule="nonzero" group-id="6,13" id="Path" node-id="77" stroke="none" target-height="32.229996" target-width="16.220001" target-x="393.07" target-y="93.11"></path><path d="M 420.85 88.46 L 420.22 90.03 L 419.03 93.42 L 418.51 95.26 L 418.29 96.62 L 418.01 97.30 L 417.40 97.54 L 416.60 97.48 L 415.62 97.19 L 413.86 96.38 L 413.07 95.92 L 413.34 94.75 L 413.74 93.60 L 414.45 92.16 L 415.43 90.80 L 416.81 89.59 L 417.90 88.99 L 419.22 88.61 L 420.85 88.46 Z" fill="#03193f" fill-rule="nonzero" group-id="6,13" id="Path" node-id="78" stroke="none" target-height="9.080002" target-width="7.779999" target-x="413.07" target-y="88.46"></path><path d="M 408.09 114.82 L 407.76 114.89 L 407.44 114.46 L 406.92 112.72 L 406.31 110.65 L 405.87 109.78 L 405.39 109.30 L 403.00 108.05 L 402.08 107.36 L 401.89 106.78 L 402.11 106.39 L 402.59 105.97 L 403.75 105.16 L 404.25 104.69 L 404.52 104.19 L 404.36 103.81 L 403.45 103.12 L 400.86 101.33 L 399.53 100.08 L 398.42 98.48 L 397.92 97.28 L 397.70 95.87 L 397.77 94.20 L 398.21 92.95 L 398.99 91.90 L 400.17 91.03 L 402.31 90.17 L 404.93 89.76 L 407.66 89.88 L 410.35 90.51 L 412.05 91.23 L 413.49 92.18 L 414.72 93.35 L 415.64 94.75 L 416.19 96.41 L 416.33 98.41 L 415.97 101.80 L 415.42 104.49 L 414.70 106.59 L 413.23 109.45 L 411.62 111.53 L 409.82 113.31 L 408.09 114.82 Z" fill="#0b224e" fill-rule="nonzero" group-id="6,13" id="Path" node-id="79" stroke="none" target-height="25.129997" target-width="18.629974" target-x="397.7" target-y="89.76"></path><path d="M 429.46 101.07 L 429.08 102.80 L 428.44 104.29 L 427.53 105.59 L 425.80 107.16 L 423.81 108.18 L 421.68 108.63 L 419.63 108.42 L 418.38 107.91 L 417.29 107.07 L 416.34 105.85 L 415.69 104.43 L 415.31 102.53 L 415.25 100.02 L 415.62 97.54 L 416.27 95.65 L 417.14 94.21 L 418.31 93.01 L 419.56 92.21 L 420.94 91.76 L 422.39 91.63 L 423.80 91.81 L 425.21 92.32 L 426.48 93.10 L 427.59 94.16 L 428.53 95.54 L 429.16 97.07 L 429.49 98.89 L 429.46 101.07 Z" fill="#0b224e" fill-rule="nonzero" group-id="6,13" id="Path" node-id="80" stroke="none" target-height="17" target-width="14.23999" target-x="415.25" target-y="91.63"></path><path d="M 363.99 102.03 L 363.21 100.87 L 361.62 98.55 L 360.35 96.85 L 360.13 96.35 L 359.84 95.17 L 359.35 92.27 L 358.79 89.55 L 358.41 88.60 L 358.08 88.38 L 357.68 88.71 L 357.36 89.72 L 357.17 92.11 L 357.17 93.39 L 356.49 92.26 L 354.90 89.78 L 353.11 87.29 L 352.26 86.37 L 351.81 86.11 L 351.43 86.31 L 350.83 87.21 L 349.80 89.90 L 349.17 93.08 L 349.14 94.59 L 349.36 95.66 L 350.09 96.88 L 351.29 98.13 L 354.07 100.23 L 356.18 101.66 L 357.90 103.36 L 359.76 105.45 L 360.63 106.48 L 363.99 102.03 Z" fill="#f1b282" fill-rule="nonzero" group-id="6" id="Path" node-id="81" stroke="none" target-height="20.370003" target-width="14.849976" target-x="349.14" target-y="86.11"></path><path d="M 454.59 221.58 L 458.76 225.59 L 454.94 230.52 L 449.84 225.96 Z" fill="#f1b282" fill-rule="nonzero" group-id="6" id="Path" node-id="82" stroke="none" target-height="8.940002" target-width="8.920013" target-x="449.84" target-y="221.58"></path><path d="M 455.17 221.77 L 451.03 217.73 L 444.01 211.07 L 435.77 203.62 L 431.59 200.08 L 427.95 197.21 L 424.56 188.77 L 420.61 179.27 L 416.86 170.39 L 414.06 163.83 L 412.96 161.27 L 409.46 160.15 L 406.74 159.61 L 404.66 159.51 L 402.60 159.78 L 401.05 160.36 L 399.88 161.19 L 398.93 162.30 L 398.23 163.57 L 397.76 165.04 L 397.44 167.37 L 397.45 169.77 L 397.71 172.13 L 398.08 174.10 L 398.79 176.74 L 400.40 179.78 L 403.77 185.34 L 408.07 192.12 L 412.46 198.84 L 416.10 204.21 L 418.15 206.94 L 419.52 208.08 L 422.42 210.11 L 429.87 214.87 L 438.45 220.09 L 446.08 224.62 L 450.70 227.33 L 451.21 227.42 L 451.65 227.16 L 455.22 222.77 L 455.39 222.26 L 455.17 221.77 Z" fill="#0b224e" fill-rule="nonzero" group-id="6" id="Path" node-id="83" stroke="none" target-height="67.91" target-width="57.950012" target-x="397.44" target-y="159.51"></path><path d="M 400.44 236.20 L 407.13 236.20 L 407.13 243.57 L 400.44 243.57 Z" fill="#f1b282" fill-rule="nonzero" group-id="6" id="Rectangle" node-id="84" stroke="none" target-height="7.3700104" target-width="6.6900024" target-x="400.44" target-y="236.2"></path><path d="M 416.23 159.45 L 414.44 158.25 L 412.57 157.46 L 410.60 157.07 L 408.58 157.01 L 406.59 157.24 L 404.60 157.75 L 401.81 158.96 L 399.42 160.54 L 397.46 162.47 L 396.24 164.46 L 395.70 166.46 L 395.28 169.91 L 395.09 173.71 L 395.03 178.21 L 395.19 187.32 L 395.46 195.17 L 395.55 199.73 L 395.82 204.02 L 396.65 211.89 L 397.75 221.40 L 398.87 230.59 L 399.74 237.53 L 400.09 240.28 L 407.48 240.28 L 407.71 237.89 L 408.23 231.64 L 408.78 222.86 L 409.10 212.91 L 409.08 207.86 L 408.91 203.13 L 411.47 197.20 L 414.23 190.29 L 416.58 183.52 L 417.43 180.41 L 417.89 178.01 L 418.14 174.75 L 418.10 171.50 L 417.85 168.31 L 417.48 165.52 L 416.65 161.14 L 416.23 159.45 Z" fill="#102b5e" fill-rule="nonzero" group-id="6" id="Path" node-id="85" stroke="none" target-height="83.270004" target-width="23.110016" target-x="395.03" target-y="157.01"></path><path d="M 412.42 144.34 L 412.44 140.44 L 412.36 134.65 L 411.89 128.26 L 411.42 125.17 L 410.78 122.57 L 409.86 120.29 L 408.78 118.87 L 407.83 118.29 L 406.61 117.96 L 405.04 117.91 L 402.60 118.17 L 399.74 118.71 L 393.96 119.81 L 391.16 120.03 L 388.79 119.78 L 386.83 118.97 L 383.80 117.13 L 380.65 114.87 L 377.11 112.10 L 370.33 106.38 L 365.08 101.70 L 362.97 99.76 L 358.06 104.30 L 361.81 108.85 L 365.91 113.16 L 370.24 117.21 L 374.59 120.89 L 378.99 124.31 L 383.04 127.23 L 390.17 131.95 L 388.92 133.58 L 387.82 135.30 L 387.05 137.07 L 386.85 138.54 L 387.19 139.78 L 387.96 140.94 L 390.17 143.15 L 391.33 144.32 L 392.34 145.60 L 393.07 147.04 L 393.38 148.74 L 393.29 150.72 L 392.97 153.40 L 392.17 159.16 L 391.94 162.08 L 391.97 164.59 L 392.23 166.17 L 392.69 167.35 L 393.33 168.22 L 394.62 168.99 L 397.01 169.76 L 399.73 170.29 L 403.06 170.68 L 406.50 170.87 L 409.96 170.88 L 413.35 170.68 L 416.19 170.29 L 418.72 169.61 L 420.20 168.80 L 420.78 168.06 L 421.03 167.12 L 420.93 165.89 L 420.33 163.94 L 419.19 161.45 L 416.31 156.01 L 414.85 153.08 L 413.61 150.13 L 412.73 147.14 L 412.42 144.34 Z" fill="#1b90fb" fill-rule="nonzero" group-id="6" id="Path" node-id="86" stroke="none" target-height="71.12" target-width="62.97" target-x="358.06" target-y="99.76"></path><path d="M 409.54 152.23 L 410.65 154.67 L 412.24 156.91 L 414.14 158.93 L 416.18 160.68 L 420.10 163.38 L 417.12 157.53 L 415.42 154.28 L 413.92 150.92 L 413.10 148.63 L 412.61 146.44 L 412.42 144.34 L 412.44 141.49 L 412.43 137.30 L 410.62 140.64 L 409.72 143.05 L 409.06 145.96 L 408.89 147.97 L 409.04 150.05 L 409.54 152.23 Z" fill="#1277d7" fill-rule="nonzero" group-id="6" id="Path" node-id="87" stroke="none" target-height="26.080002" target-width="11.209991" target-x="408.89" target-y="137.3"></path><path d="M 407.29 242.75 L 407.74 242.90 L 408.20 243.58 L 408.46 244.59 L 408.52 246.42 L 408.38 249.45 L 408.14 250.04 L 407.64 250.44 L 406.76 250.66 L 404.14 250.70 L 399.29 250.64 L 393.96 250.55 L 389.88 250.46 L 389.52 250.36 L 389.23 250.10 L 389.05 249.28 L 389.34 248.29 L 390.13 247.15 L 390.87 246.55 L 392.02 246.05 L 393.73 245.69 L 395.02 245.29 L 396.29 244.65 L 398.50 243.25 L 399.46 242.71 L 400.08 242.53 L 400.85 242.69 L 401.58 243.08 L 402.38 243.44 L 403.63 243.57 L 405.74 243.15 L 407.29 242.75 Z" fill="#0b224e" fill-rule="nonzero" group-id="6" id="Path" node-id="88" stroke="none" target-height="8.169998" target-width="19.470001" target-x="389.05" target-y="242.53"></path><path d="M 456.87 224.07 L 457.27 223.82 L 458.09 223.92 L 459.02 224.40 L 460.44 225.54 L 462.63 227.65 L 462.92 228.20 L 462.89 228.84 L 462.48 229.66 L 460.78 231.66 L 457.57 235.29 L 454.00 239.26 L 451.25 242.29 L 450.95 242.49 L 450.55 242.54 L 449.82 242.14 L 449.26 241.27 L 448.92 239.93 L 448.95 238.98 L 449.33 237.78 L 450.18 236.24 L 450.73 235.00 L 451.08 233.63 L 451.48 231.04 L 451.70 229.96 L 451.97 229.37 L 452.60 228.90 L 453.37 228.60 L 454.16 228.23 L 455.08 227.37 L 456.15 225.51 L 456.87 224.07 Z" fill="#0b224e" fill-rule="nonzero" group-id="6" id="Path" node-id="89" stroke="none" target-height="18.719986" target-width="14" target-x="448.92" target-y="223.82"></path></g><g node-id="129"><path d="M 529.01 205.23 L 527.39 205.25 L 525.99 205.60 L 524.78 206.25 L 523.79 207.18 L 523.21 208.23 L 522.99 209.44 L 523.05 210.56 L 522.82 212.21 L 522.01 213.63 L 521.59 214.45 L 521.42 215.28 L 521.56 215.75 L 521.87 216.04 L 522.66 216.47 L 522.94 216.73 L 523.02 217.15 L 522.64 219.19 L 522.56 220.33 L 522.73 221.08 L 523.21 221.33 L 524.44 221.45 L 527.14 221.67 L 528.21 222.07 L 528.63 222.76 L 528.86 225.69 L 529.12 229.13 L 529.25 230.80 L 539.72 229.85 L 539.81 227.75 L 540.00 222.70 L 540.14 216.56 L 540.09 211.19 L 539.92 209.16 L 539.72 208.46 L 538.62 207.52 L 536.80 206.71 L 534.74 206.13 L 532.57 205.71 L 529.01 205.23 Z" fill="#f1b282" fill-rule="nonzero" group-id="7" id="Path" node-id="91" stroke="none" target-height="25.570007" target-width="18.720032" target-x="521.42" target-y="205.23"></path><path d="M 548.03 360.52 L 548.28 361.97 L 548.68 365.29 L 548.76 367.19 L 548.67 368.93 L 548.32 370.47 L 547.72 371.36 L 543.10 371.65 L 542.54 371.46 L 542.29 370.93 L 542.24 370.21 L 541.67 370.69 L 540.32 371.59 L 539.50 371.97 L 538.73 372.14 L 536.64 372.27 L 533.52 372.46 L 530.70 372.63 L 529.46 372.71 L 528.97 372.76 L 528.03 372.50 L 527.67 372.10 L 527.46 371.33 L 527.63 370.56 L 528.13 369.86 L 529.07 369.19 L 532.72 367.54 L 534.66 366.63 L 536.17 365.61 L 537.96 363.83 L 539.08 362.45 L 540.03 361.02 L 548.03 360.52 Z" fill="#0b224e" fill-rule="evenodd" group-id="7" id="Path" node-id="92" stroke="none" target-height="12.240021" target-width="21.299988" target-x="527.46" target-y="360.52"></path><path d="M 525.58 364.95 L 525.76 366.41 L 526.01 369.74 L 526.00 371.65 L 525.83 373.38 L 525.41 374.90 L 524.77 375.76 L 520.14 375.83 L 519.59 375.62 L 519.36 375.08 L 519.35 374.35 L 518.76 374.81 L 517.36 375.65 L 516.53 375.99 L 515.75 376.12 L 513.33 376.15 L 509.52 376.20 L 505.98 376.25 L 504.43 376.27 L 503.93 376.30 L 503.01 376.00 L 502.67 375.59 L 502.50 374.80 L 502.81 373.96 L 503.82 373.17 L 505.18 372.56 L 506.97 371.97 L 510.63 370.86 L 512.31 370.20 L 513.50 369.48 L 515.37 367.78 L 516.55 366.46 L 517.56 365.07 L 525.58 364.95 Z" fill="#0b224e" fill-rule="evenodd" group-id="7" id="Path" node-id="93" stroke="none" target-height="11.349976" target-width="23.51001" target-x="502.5" target-y="364.95"></path><path d="M 533.57 278.51 L 530.85 278.67 L 523.69 278.74 L 519.04 278.56 L 513.54 278.11 L 507.87 277.35 L 501.88 276.16 L 495.94 274.50 L 490.17 272.29 L 486.49 270.45 L 483.07 268.31 L 479.90 265.86 L 478.98 264.79 L 478.43 263.58 L 478.22 262.18 L 478.22 220.66 L 478.47 219.79 L 479.15 219.19 L 480.04 219.05 L 480.87 219.41 L 484.26 221.91 L 487.81 224.07 L 491.54 225.88 L 497.35 228.06 L 503.19 229.63 L 509.06 230.71 L 514.52 231.35 L 519.81 231.67 L 524.24 231.73 L 531.02 231.45 L 533.57 231.20 L 533.57 278.51 L 533.57 278.51 Z" fill="#224380" fill-rule="nonzero" group-id="7" id="Path" node-id="94" stroke="none" target-height="59.689987" target-width="55.350006" target-x="478.22" target-y="219.05"></path><path d="M 491.87 248.14 L 490.16 247.81 L 488.42 247.22 L 485.88 245.96 L 482.00 243.29 L 481.06 242.72 L 480.43 242.63 L 479.98 242.85 L 479.68 243.39 L 479.66 244.00 L 480.07 245.16 L 480.38 245.69 L 478.95 245.30 L 477.93 245.31 L 477.19 245.61 L 476.36 246.52 L 475.93 247.85 L 475.91 249.33 L 476.22 250.78 L 476.86 252.04 L 477.68 252.79 L 478.78 253.13 L 480.13 253.16 L 483.02 252.79 L 484.19 252.83 L 486.37 253.23 L 491.60 254.66 L 497.20 256.45 L 501.67 257.98 L 503.49 258.62 L 507.25 249.65 L 491.87 248.14 Z" fill="#f1b282" fill-rule="nonzero" group-id="7" id="Path" node-id="95" stroke="none" target-height="15.98999" target-width="31.339996" target-x="475.91" target-y="242.63"></path><path d="M 551.55 284.45 L 547.23 320.17 L 549.52 360.91 L 549.34 361.48 L 548.82 361.76 L 537.57 363.21 L 537.10 363.18 L 536.70 362.99 L 536.39 362.67 L 536.22 362.23 L 535.11 356.51 L 533.48 347.58 L 531.77 337.32 L 530.44 327.61 L 530.04 323.34 L 529.94 320.34 L 530.12 312.54 L 530.62 302.69 L 531.05 297.56 L 531.63 292.77 L 532.41 288.23 L 533.31 284.77 L 534.16 282.65 L 535.01 281.36 L 535.86 280.66 L 537.92 279.79 L 540.44 279.03 L 543.06 278.56 L 545.59 278.49 L 547.23 278.72 L 548.61 279.22 L 549.80 279.98 L 550.69 281.01 L 551.29 282.46 L 551.55 284.45 Z" fill="#0b224e" fill-rule="nonzero" group-id="7" id="Path" node-id="96" stroke="none" target-height="84.72" target-width="21.609985" target-x="529.94" target-y="278.49"></path><path d="M 545.65 283.00 L 544.81 286.46 L 543.39 291.24 L 539.76 301.87 L 535.64 312.76 L 531.91 321.78 L 530.33 325.23 L 529.47 326.82 L 527.63 365.20 L 527.52 365.66 L 527.26 366.02 L 526.89 366.27 L 526.44 366.36 L 515.39 366.59 L 514.91 366.51 L 514.51 366.25 L 514.24 365.85 L 514.14 365.38 L 514.09 323.04 L 514.57 320.08 L 515.87 312.62 L 517.79 302.75 L 520.15 292.58 L 521.48 287.87 L 522.74 284.19 L 523.75 281.89 L 524.61 280.48 L 525.36 279.70 L 527.12 278.78 L 529.55 278.10 L 532.18 277.76 L 535.04 277.70 L 537.88 277.94 L 540.46 278.43 L 542.81 279.24 L 544.45 280.22 L 545.26 281.07 L 545.64 281.98 L 545.65 283.00 Z" fill="#102b5e" fill-rule="nonzero" group-id="7" id="Path" node-id="97" stroke="none" target-height="88.889984" target-width="31.559998" target-x="514.09" target-y="277.7"></path><path d="M 545.86 230.86 L 544.24 230.03 L 542.98 229.85 L 541.94 230.14 L 541.03 230.84 L 540.22 231.89 L 539.52 233.39 L 538.83 235.86 L 538.41 238.74 L 538.28 241.66 L 538.41 244.34 L 538.80 246.80 L 539.33 248.35 L 540.51 250.05 L 542.42 252.01 L 544.60 253.84 L 546.84 255.53 L 542.31 259.10 L 537.25 263.13 L 533.13 266.43 L 531.43 267.79 L 533.84 277.17 L 535.75 276.24 L 540.53 273.79 L 546.74 270.35 L 552.98 266.42 L 555.75 264.37 L 557.80 262.53 L 558.95 261.20 L 559.57 260.10 L 559.80 259.19 L 559.61 256.76 L 558.81 253.10 L 557.59 249.23 L 555.86 244.93 L 553.77 240.71 L 551.39 236.81 L 549.57 234.38 L 547.73 232.42 L 545.86 230.86 Z" fill="#1eaf69" fill-rule="nonzero" group-id="7" id="Path" node-id="98" stroke="none" target-height="47.320007" target-width="28.369995" target-x="531.43" target-y="229.85"></path><path d="M 550.22 262.18 L 550.18 257.23 L 550.41 253.38 L 551.10 246.79 L 551.27 243.89 L 551.14 241.06 L 550.59 238.21 L 549.39 234.84 L 548.27 232.90 L 546.76 231.15 L 545.02 229.65 L 543.34 228.57 L 541.66 227.87 L 540.53 227.75 L 533.66 228.52 L 531.00 228.85 L 529.30 229.21 L 528.06 229.59 L 526.81 230.28 L 525.54 231.32 L 523.80 233.19 L 522.03 235.52 L 518.66 240.55 L 516.96 243.02 L 515.32 245.12 L 513.55 246.88 L 511.88 247.94 L 509.98 248.48 L 507.51 248.73 L 504.88 248.70 L 502.02 248.48 L 501.33 258.93 L 505.30 259.70 L 508.78 260.19 L 511.98 260.40 L 513.91 260.24 L 516.60 259.37 L 519.49 257.98 L 522.29 256.27 L 524.95 254.41 L 525.22 257.98 L 524.97 261.86 L 524.35 265.75 L 523.52 269.56 L 521.89 276.45 L 521.39 279.42 L 521.36 281.45 L 521.68 282.59 L 522.23 283.34 L 523.01 283.81 L 524.50 284.11 L 526.53 284.04 L 531.12 283.28 L 533.57 282.88 L 535.96 282.67 L 538.27 282.82 L 540.40 283.31 L 544.38 284.77 L 546.27 285.46 L 548.05 285.89 L 549.82 285.96 L 551.58 285.51 L 552.54 284.88 L 553.14 284.04 L 553.42 282.95 L 553.37 281.03 L 552.88 278.26 L 551.35 271.36 L 550.66 267.20 L 550.22 262.18 Z" fill="#2ccd7f" fill-rule="nonzero" group-id="7" id="Path" node-id="99" stroke="none" target-height="58.20999" target-width="52.089996" target-x="501.33" target-y="227.75"></path><path d="M 521.07 221.08 L 521.25 222.27 L 521.68 223.20 L 522.35 223.93 L 523.69 224.71 L 525.31 225.15 L 527.02 225.25 L 528.61 225.08 L 530.03 224.64 L 530.90 224.06 L 531.60 223.04 L 532.02 221.78 L 532.37 219.06 L 532.71 216.75 L 533.12 216.00 L 533.79 215.70 L 534.75 215.83 L 535.39 216.24 L 535.81 216.95 L 536.15 218.31 L 536.34 219.99 L 536.53 221.65 L 536.91 222.96 L 537.36 223.62 L 538.04 223.98 L 539.08 224.03 L 539.93 223.68 L 540.86 222.90 L 541.88 221.51 L 543.05 219.11 L 543.98 216.05 L 544.41 212.80 L 544.24 209.53 L 543.73 207.42 L 542.83 205.54 L 541.53 203.84 L 539.89 202.52 L 537.68 201.52 L 534.73 200.89 L 530.29 200.66 L 527.05 200.84 L 524.75 201.30 L 522.61 202.18 L 521.36 203.14 L 520.75 204.17 L 520.60 205.35 L 520.96 206.55 L 521.91 207.86 L 523.20 208.93 L 525.00 209.89 L 527.43 210.74 L 528.62 211.21 L 529.41 211.78 L 529.89 212.45 L 530.22 213.63 L 530.10 214.86 L 529.61 216.00 L 528.88 216.88 L 527.96 217.42 L 527.02 217.44 L 525.55 217.15 L 524.19 217.17 L 522.95 217.52 L 521.97 218.25 L 521.34 219.35 L 521.07 221.08 Z" fill="#0b224e" fill-rule="nonzero" group-id="7" id="Path" node-id="100" stroke="none" target-height="24.589996" target-width="23.809998" target-x="520.6" target-y="200.66"></path><path d="M 501.00 248.09 L 501.31 247.91 L 501.96 247.79 L 503.39 247.91 L 503.98 248.16 L 504.24 248.50 L 504.12 250.49 L 503.60 254.11 L 502.89 257.67 L 502.48 259.06 L 502.21 259.52 L 501.46 259.85 L 500.53 259.93 L 499.74 259.65 L 499.36 258.89 L 499.51 256.70 L 499.99 253.16 L 500.56 249.79 L 501.00 248.09 Z" fill="#1eaf69" fill-rule="nonzero" group-id="7" id="Path" node-id="101" stroke="none" target-height="12.139999" target-width="4.880005" target-x="499.36" target-y="247.79"></path><path d="M 524.28 266.08 L 524.81 263.08 L 525.14 260.10 L 525.21 257.15 L 524.95 254.40 L 525.96 253.36 L 528.41 250.85 L 531.43 247.78 L 531.53 249.60 L 531.46 251.49 L 531.10 254.17 L 530.37 256.98 L 529.05 260.12 L 527.86 262.12 L 526.29 264.10 L 524.28 266.08 Z" fill="#1eaf69" fill-rule="nonzero" group-id="7" id="Path" node-id="102" stroke="none" target-height="18.299988" target-width="7.25" target-x="524.28" target-y="247.78"></path></g><g node-id="130"><path d="M 201.36 206.84 L 201.96 208.56 L 202.10 209.73 L 202.21 211.57 L 202.98 213.60 L 203.58 215.60 L 203.44 216.21 L 203.07 216.68 L 202.68 217.18 L 202.37 217.98 L 202.37 220.08 L 202.32 221.18 L 201.96 222.23 L 201.43 222.77 L 200.64 223.14 L 199.05 223.67 L 198.50 224.03 L 198.36 224.54 L 198.98 226.68 L 199.93 229.30 L 200.43 230.59 L 188.10 230.79 L 188.20 228.88 L 188.27 224.80 L 188.18 222.61 L 187.96 220.98 L 187.42 217.66 L 187.04 213.05 L 187.04 210.69 L 187.25 208.74 L 187.77 207.09 L 188.50 206.31 L 189.64 205.89 L 191.43 205.49 L 193.36 205.24 L 195.45 205.14 L 197.50 205.22 L 199.21 205.50 L 200.64 206.07 L 201.36 206.84 Z" fill="#f1b282" fill-rule="nonzero" group-id="8" id="Path" node-id="104" stroke="none" target-height="25.649994" target-width="16.540009" target-x="187.04" target-y="205.14"></path><path d="M 194.59 201.38 L 191.18 201.59 L 188.50 202.01 L 186.44 202.57 L 184.54 203.46 L 183.12 204.60 L 182.08 205.98 L 181.39 207.60 L 180.97 209.68 L 180.85 212.32 L 181.08 214.79 L 181.71 217.40 L 182.69 219.87 L 183.89 221.83 L 184.91 222.89 L 185.94 223.48 L 187.02 223.71 L 190.08 223.57 L 193.32 223.08 L 194.64 222.60 L 195.30 222.05 L 196.04 220.33 L 196.34 218.55 L 196.38 215.15 L 196.52 213.71 L 196.96 212.78 L 197.79 212.09 L 198.77 211.57 L 200.81 210.48 L 201.66 209.66 L 202.37 208.38 L 202.73 206.77 L 202.74 204.15 L 202.29 201.65 L 201.69 200.51 L 200.79 199.92 L 199.72 199.89 L 197.22 200.70 L 195.88 201.16 L 194.59 201.38 Z" fill="#0b224e" fill-rule="nonzero" group-id="8" id="Path" node-id="105" stroke="none" target-height="23.820007" target-width="21.89" target-x="180.85" target-y="199.89"></path><path d="M 205.74 366.70 L 205.74 371.27 L 212.62 371.27 L 212.62 364.76 Z" fill="#f1b282" fill-rule="nonzero" group-id="8" id="Path" node-id="106" stroke="none" target-height="6.5099792" target-width="6.8799896" target-x="205.74" target-y="364.76"></path><path d="M 182.01 366.89 L 182.01 372.29 L 175.01 372.29 L 175.01 365.67 Z" fill="#f1b282" fill-rule="nonzero" group-id="8" id="Path" node-id="107" stroke="none" target-height="6.619995" target-width="7" target-x="175.01" target-y="365.67"></path><path d="M 177.92 283.75 L 177.70 286.81 L 177.15 294.39 L 176.47 304.14 L 175.83 313.71 L 175.42 320.74 L 175.26 326.95 L 175.14 336.07 L 175.07 346.31 L 175.03 355.86 L 175.01 362.91 L 175.01 365.67 L 182.31 365.73 L 182.85 363.17 L 184.13 356.55 L 185.63 347.49 L 186.84 337.62 L 187.18 332.77 L 187.24 328.55 L 188.61 323.88 L 190.73 316.26 L 193.16 307.12 L 195.47 297.90 L 197.20 290.02 L 197.75 286.81 L 197.92 284.92 L 197.72 283.73 L 197.16 282.78 L 196.20 282.00 L 194.35 281.23 L 191.87 280.78 L 189.21 280.70 L 186.39 280.90 L 183.64 281.37 L 181.25 282.01 L 179.15 282.89 L 177.92 283.75 Z" fill="#0b224e" fill-rule="nonzero" group-id="8" id="Path" node-id="108" stroke="none" target-height="85.03" target-width="22.910004" target-x="175.01" target-y="280.7"></path><path d="M 210.48 283.75 L 210.80 286.85 L 211.57 294.52 L 212.53 304.39 L 213.39 314.06 L 213.90 321.13 L 213.95 327.31 L 213.79 336.36 L 213.50 346.50 L 213.18 355.96 L 212.91 362.94 L 212.81 365.67 L 205.25 366.18 L 204.65 362.82 L 203.31 354.07 L 201.91 341.92 L 201.40 335.21 L 201.13 328.35 L 199.65 323.67 L 197.25 316.00 L 194.45 306.81 L 191.79 297.53 L 189.78 289.61 L 189.14 286.38 L 188.95 284.49 L 189.17 283.32 L 189.77 282.38 L 190.83 281.62 L 192.83 280.89 L 195.54 280.51 L 198.42 280.48 L 201.47 280.75 L 204.44 281.28 L 206.99 281.97 L 209.22 282.88 L 210.48 283.75 Z" fill="#102b5e" fill-rule="nonzero" group-id="8" id="Path" node-id="109" stroke="none" target-height="85.69998" target-width="25" target-x="188.95" target-y="280.48"></path><path d="M 176.02 248.93 L 175.14 250.13 L 173.30 253.20 L 172.39 255.16 L 171.67 257.32 L 171.31 259.54 L 171.45 261.69 L 172.10 263.92 L 173.27 266.77 L 176.28 272.64 L 179.40 277.93 L 181.55 281.26 L 181.93 282.23 L 181.83 283.15 L 181.41 284.02 L 180.76 284.83 L 179.36 286.04 L 178.67 286.50 L 177.12 284.47 L 173.33 279.39 L 168.62 272.83 L 164.28 266.36 L 162.56 263.46 L 161.61 261.52 L 161.33 260.31 L 161.29 258.85 L 161.56 257.10 L 162.32 254.46 L 163.46 251.60 L 166.19 246.21 L 168.65 242.11 L 169.72 240.48 L 176.02 248.93 Z" fill="#f1b282" fill-rule="nonzero" group-id="8" id="Path" node-id="110" stroke="none" target-height="46.020004" target-width="20.64" target-x="161.29" target-y="240.48"></path><path d="M 213.08 224.88 L 214.14 224.59 L 215.21 224.11 L 216.75 223.11 L 218.27 221.75 L 220.02 219.57 L 221.55 216.92 L 223.07 213.09 L 224.27 208.85 L 225.25 204.38 L 226.00 199.89 L 226.51 195.69 L 226.81 191.66 L 226.87 188.45 L 226.68 185.59 L 226.34 184.09 L 225.64 181.48 L 225.49 179.06 L 225.73 176.72 L 226.17 174.73 L 227.07 171.74 L 227.72 170.10 L 228.17 169.40 L 228.55 169.07 L 228.87 169.07 L 229.15 169.65 L 229.21 172.16 L 228.79 175.37 L 228.90 175.95 L 229.44 176.46 L 231.15 177.34 L 232.06 177.84 L 232.78 178.40 L 233.20 179.11 L 233.19 180.03 L 232.44 181.97 L 231.83 183.09 L 231.51 184.51 L 231.54 187.78 L 231.68 194.10 L 231.75 201.69 L 231.58 208.79 L 231.32 211.79 L 230.99 213.62 L 229.26 218.76 L 226.53 225.19 L 224.92 228.40 L 223.32 231.12 L 221.58 233.45 L 220.13 234.72 L 219.33 235.02 L 218.59 234.99 L 217.86 234.65 L 216.88 233.73 L 215.92 232.32 L 214.41 229.06 L 213.43 226.14 L 213.08 224.88 Z" fill="#f1b282" fill-rule="nonzero" group-id="8" id="Path" node-id="111" stroke="none" target-height="65.95" target-width="20.119995" target-x="213.08" target-y="169.07"></path><path d="M 196.48 229.03 L 192.66 228.95 L 189.95 229.01 L 186.71 229.26 L 183.42 229.78 L 180.14 230.66 L 178.05 231.50 L 176.16 232.57 L 174.47 233.88 L 170.23 238.23 L 167.79 241.36 L 166.05 244.19 L 165.55 245.34 L 165.69 245.86 L 166.62 246.98 L 167.87 248.11 L 169.49 249.36 L 171.20 250.48 L 172.73 251.28 L 174.17 251.71 L 174.95 251.55 L 176.49 250.06 L 177.98 248.61 L 178.80 248.14 L 179.70 247.96 L 180.24 248.32 L 180.66 249.70 L 180.82 251.48 L 180.82 253.93 L 180.47 259.18 L 179.90 263.98 L 178.77 269.54 L 177.31 276.59 L 176.77 280.10 L 176.60 282.89 L 176.76 284.64 L 177.17 285.66 L 177.77 286.21 L 179.66 286.67 L 182.48 286.78 L 188.73 286.55 L 191.89 286.60 L 194.54 286.99 L 197.17 287.57 L 200.26 288.01 L 203.37 288.19 L 206.21 288.00 L 208.01 287.60 L 209.39 286.96 L 210.44 286.12 L 210.93 285.25 L 211.23 284.04 L 211.28 282.37 L 211.03 279.75 L 210.47 276.58 L 209.14 269.95 L 208.62 266.63 L 208.40 263.69 L 208.46 257.41 L 208.66 254.05 L 209.03 250.76 L 209.64 247.61 L 210.47 244.97 L 211.25 243.36 L 212.15 242.15 L 213.15 241.26 L 215.51 239.89 L 217.80 238.79 L 220.00 237.75 L 221.69 236.81 L 222.63 236.07 L 223.19 235.30 L 223.43 234.46 L 223.19 233.29 L 222.24 231.46 L 220.92 229.60 L 219.29 227.65 L 217.51 225.87 L 215.93 224.56 L 214.39 223.71 L 213.54 223.69 L 211.13 225.43 L 207.98 227.67 L 206.22 228.49 L 204.43 228.83 L 199.88 228.97 L 196.48 229.03 Z" fill="#ffcb01" fill-rule="nonzero" group-id="8" id="Path" node-id="112" stroke="none" target-height="64.5" target-width="57.87999" target-x="165.55" target-y="223.69"></path><path d="M 214.50 366.01 L 214.07 366.77 L 213.46 367.22 L 211.86 367.64 L 210.27 367.84 L 207.99 368.18 L 205.20 368.23 L 204.12 367.95 L 203.74 367.47 L 203.75 366.51 L 203.92 365.67 L 204.17 364.11 L 203.85 363.02 L 203.58 361.92 L 203.68 361.44 L 204.09 360.99 L 205.04 360.66 L 206.21 360.68 L 208.52 360.98 L 210.21 360.61 L 212.39 360.02 L 213.33 359.91 L 213.71 360.06 L 213.88 360.61 L 213.82 361.33 L 213.71 362.71 L 214.36 364.27 L 214.60 365.03 L 214.50 366.01 Z" fill="#355aa2" fill-rule="nonzero" group-id="8" id="Path" node-id="113" stroke="none" target-height="8.320007" target-width="11.020004" target-x="203.58" target-y="359.91"></path><path d="M 173.71 366.97 L 174.18 367.71 L 174.82 368.14 L 176.43 368.46 L 178.04 368.58 L 180.33 368.80 L 183.12 368.71 L 184.18 368.37 L 184.53 367.88 L 184.48 366.91 L 184.26 366.09 L 183.93 364.54 L 184.19 363.43 L 184.40 362.32 L 184.28 361.84 L 183.85 361.42 L 182.88 361.14 L 181.71 361.22 L 179.42 361.64 L 177.71 361.36 L 175.51 360.88 L 174.56 360.83 L 174.19 360.99 L 174.05 361.55 L 174.15 362.27 L 174.33 363.65 L 173.76 365.24 L 173.56 366.01 L 173.71 366.97 Z" fill="#355aa2" fill-rule="nonzero" group-id="8" id="Path" node-id="114" stroke="none" target-height="7.970001" target-width="10.970001" target-x="173.56" target-y="360.83"></path><path d="M 204.78 370.39 L 205.31 370.09 L 205.95 370.11 L 207.44 370.60 L 209.10 370.97 L 210.27 370.78 L 211.16 370.38 L 211.97 369.94 L 212.62 369.74 L 213.01 369.86 L 213.43 370.27 L 214.36 371.49 L 214.99 372.13 L 215.83 372.70 L 217.30 373.29 L 218.12 373.73 L 218.86 374.40 L 219.36 375.32 L 219.58 376.77 L 219.34 376.94 L 218.09 377.14 L 214.51 377.31 L 210.19 377.33 L 206.50 377.25 L 204.78 377.11 L 204.44 376.61 L 204.17 375.36 L 204.16 372.45 L 204.42 371.09 L 204.78 370.39 Z" fill="#102b5e" fill-rule="nonzero" group-id="8" id="Path" node-id="115" stroke="none" target-height="7.5899963" target-width="15.419998" target-x="204.16" target-y="369.74"></path><path d="M 174.14 370.39 L 174.67 370.09 L 175.31 370.11 L 176.80 370.60 L 178.46 370.97 L 179.64 370.78 L 180.53 370.38 L 181.34 369.94 L 181.98 369.74 L 182.38 369.86 L 182.79 370.27 L 183.73 371.49 L 184.35 372.13 L 185.20 372.70 L 186.66 373.29 L 187.48 373.73 L 188.22 374.40 L 188.72 375.32 L 188.95 376.77 L 188.70 376.94 L 187.45 377.14 L 183.87 377.31 L 179.56 377.33 L 175.86 377.25 L 174.14 377.11 L 173.81 376.61 L 173.53 375.36 L 173.52 372.45 L 173.78 371.09 L 174.14 370.39 Z" fill="#102b5e" fill-rule="nonzero" group-id="8" id="Path" node-id="116" stroke="none" target-height="7.5899963" target-width="15.429993" target-x="173.52" target-y="369.74"></path></g></svg>